<?xml version="1.0" encoding="utf-8"?>
<!-- Generator: Adobe Illustrator 18.1.1, SVG Export Plug-In . SVG Version: 6.00 Build 0)  -->
<svg version="1.1" id="Layer_1" xmlns="http://www.w3.org/2000/svg" xmlns:xlink="http://www.w3.org/1999/xlink" x="0px" y="0px"
	 width="120px" height="120px" viewBox="0 0 120 120" enable-background="new 0 0 120 120" xml:space="preserve">
<g>
	<g>
		<g>
			<g>
				<g>
					<polygon fill="#D7BB19" points="60,0 0,0 0,60 15.9,49.9 15.9,16.2 50.1,16.2 					"/>
				</g>
				<g>
					<polygon fill="#D7BB19" points="120,60 104.1,70.2 104.1,103.8 69.9,103.8 60,120 120,120 					"/>
				</g>
				<g>
					<polygon fill="#D7BB19" points="70.3,37.5 49.7,37.5 55.3,64 64.7,64 					"/>
				</g>
				<path fill="#D7BB19" d="M60,69.7c-4,0-7.2,3.2-7.2,7.2c0,4,3.2,7.2,7.2,7.2s7.2-3.2,7.2-7.2C67.2,73,64,69.7,60,69.7"/>
			</g>
		</g>
	</g>
</g>
</svg>
