<?xml version="1.0" encoding="utf-8"?>
<!-- Generator: Adobe Illustrator 18.1.1, SVG Export Plug-In . SVG Version: 6.00 Build 0)  -->
<svg version="1.1" id="Layer_1" xmlns="http://www.w3.org/2000/svg" xmlns:xlink="http://www.w3.org/1999/xlink" x="0px" y="0px"
	 viewBox="0 0 1389.1 45" enable-background="new 0 0 1389.1 45" xml:space="preserve">
<path fill="#1D1D1B" d="M1183.9,11c-5.8,0-10.7,4.4-11.4,10H854.5c-0.7-5.6-5.6-10-11.4-10s-10.7,4.4-11.4,10H513.6
	c-0.7-5.6-5.6-10-11.4-10c-5.8,0-10.7,4.4-11.4,10H173.8c-0.7-5.6-5.6-10-11.4-10c-6.3,0-11.5,5.2-11.5,11.5S156.1,34,162.4,34
	c5.8,0,10.7-4.4,11.4-10h317.1c0.7,5.6,5.6,10,11.4,10c5.8,0,10.7-4.4,11.4-10h318.1c0.7,5.6,5.6,10,11.4,10s10.7-4.4,11.4-10h318.1
	c0.7,5.6,5.6,10,11.4,10c6.3,0,11.5-5.2,11.5-11.5S1190.3,11,1183.9,11z M162.4,31c-4.7,0-8.5-3.8-8.5-8.5s3.8-8.5,8.5-8.5
	c4.7,0,8.5,3.8,8.5,8.5S167.1,31,162.4,31z M502.2,31c-4.7,0-8.5-3.8-8.5-8.5s3.8-8.5,8.5-8.5c4.7,0,8.5,3.8,8.5,8.5
	S506.9,31,502.2,31z M843.1,31c-4.7,0-8.5-3.8-8.5-8.5c0-4.7,3.8-8.5,8.5-8.5s8.5,3.8,8.5,8.5C851.6,27.2,847.8,31,843.1,31z
	 M1183.9,31c-4.7,0-8.5-3.8-8.5-8.5s3.8-8.5,8.5-8.5c4.7,0,8.5,3.8,8.5,8.5S1188.6,31,1183.9,31z"/>
</svg>
