<?xml version="1.0" encoding="utf-8"?>
<!-- Generator: Adobe Illustrator 18.1.1, SVG Export Plug-In . SVG Version: 6.00 Build 0)  -->
<svg version="1.1" id="Layer_1" xmlns="http://www.w3.org/2000/svg" xmlns:xlink="http://www.w3.org/1999/xlink" x="0px" y="0px"
	 viewBox="0 0 310 199.5" enable-background="new 0 0 310 199.5" xml:space="preserve">
<g>
	<g>
		<polygon fill="#404041" points="152.8,100.6 143.8,91.7 145.2,90.2 152.8,97.8 165.9,84.6 167.3,86.1 		"/>
	</g>
	<g>
		<path fill="#404041" d="M152.8,122.9c-14.7,0-26.7-12-26.7-26.7s12-26.7,26.7-26.7s26.7,12,26.7,26.7S167.5,122.9,152.8,122.9z
			 M152.8,71.5c-13.6,0-24.7,11.1-24.7,24.7s11.1,24.7,24.7,24.7s24.7-11.1,24.7-24.7S166.4,71.5,152.8,71.5z"/>
		<g>
			<path fill="#3F4041" d="M155,187.1c-7.4,0-13.5-6.1-13.5-13.5c0-7.4,6.1-13.5,13.5-13.5c7.4,0,13.5,6.1,13.5,13.5
				C168.5,181,162.4,187.1,155,187.1z M155,160.9c-7,0-12.6,5.7-12.6,12.6c0,7,5.7,12.7,12.6,12.7c7,0,12.7-5.7,12.7-12.7
				C167.6,166.6,162,160.9,155,160.9z"/>
			<path fill="#3F4041" d="M155,180.8c-4,0-7.2-3.2-7.2-7.2c0-4,3.2-7.2,7.2-7.2c4,0,7.2,3.2,7.2,7.2
				C162.2,177.5,159,180.8,155,180.8z M155,167.3c-3.5,0-6.3,2.8-6.3,6.3c0,3.5,2.8,6.3,6.3,6.3c3.5,0,6.3-2.8,6.3-6.3
				C161.3,170.1,158.5,167.3,155,167.3z"/>
			<path fill="#3F4041" d="M155,180.8c-4,0-7.2-3.2-7.2-7.2c0-4,3.2-7.2,7.2-7.2c4,0,7.2,3.2,7.2,7.2
				C162.2,177.5,159,180.8,155,180.8z M155,167.3c-3.5,0-6.3,2.8-6.3,6.3c0,3.5,2.8,6.3,6.3,6.3c3.5,0,6.3-2.8,6.3-6.3
				C161.3,170.1,158.5,167.3,155,167.3z"/>
			<path fill="#3F4041" d="M155,182.9c-5.1,0-9.3-4.2-9.3-9.3c0-5.1,4.2-9.3,9.3-9.3c5.1,0,9.3,4.2,9.3,9.3
				C164.3,178.7,160.1,182.9,155,182.9z M155,165.2c-4.6,0-8.4,3.8-8.4,8.4c0,4.7,3.8,8.4,8.4,8.4c4.7,0,8.4-3.8,8.4-8.4
				C163.4,168.9,159.6,165.2,155,165.2z"/>
			<path fill="#3F4041" d="M155,185c-6.3,0-11.4-5.1-11.4-11.4c0-6.3,5.1-11.4,11.4-11.4c6.3,0,11.4,5.1,11.4,11.4
				C166.4,179.9,161.3,185,155,185z M155,163.1c-5.8,0-10.5,4.7-10.5,10.5c0,5.8,4.7,10.5,10.5,10.5c5.8,0,10.5-4.7,10.5-10.5
				C165.5,167.8,160.8,163.1,155,163.1z"/>
		</g>
		<g>
			<path fill="#3F4041" d="M113.1,187.1c-7.4,0-13.5-6.1-13.5-13.5c0-7.4,6.1-13.5,13.5-13.5c7.4,0,13.5,6.1,13.5,13.5
				C126.6,181,120.5,187.1,113.1,187.1z M113.1,160.9c-7,0-12.6,5.7-12.6,12.6c0,7,5.7,12.7,12.6,12.7c7,0,12.7-5.7,12.7-12.7
				C125.7,166.6,120.1,160.9,113.1,160.9z"/>
			<path fill="#3F4041" d="M113.1,180.8c-4,0-7.2-3.2-7.2-7.2c0-4,3.2-7.2,7.2-7.2c4,0,7.2,3.2,7.2,7.2
				C120.2,177.5,117,180.8,113.1,180.8z M113.1,167.3c-3.5,0-6.3,2.8-6.3,6.3c0,3.5,2.8,6.3,6.3,6.3c3.5,0,6.3-2.8,6.3-6.3
				C119.4,170.1,116.6,167.3,113.1,167.3z"/>
			<path fill="#3F4041" d="M113.1,180.8c-4,0-7.2-3.2-7.2-7.2c0-4,3.2-7.2,7.2-7.2c4,0,7.2,3.2,7.2,7.2
				C120.2,177.5,117,180.8,113.1,180.8z M113.1,167.3c-3.5,0-6.3,2.8-6.3,6.3c0,3.5,2.8,6.3,6.3,6.3c3.5,0,6.3-2.8,6.3-6.3
				C119.4,170.1,116.6,167.3,113.1,167.3z"/>
			<path fill="#3F4041" d="M113.1,182.9c-5.1,0-9.3-4.2-9.3-9.3c0-5.1,4.2-9.3,9.3-9.3c5.1,0,9.3,4.2,9.3,9.3
				C122.4,178.7,118.2,182.9,113.1,182.9z M113.1,165.2c-4.6,0-8.4,3.8-8.4,8.4c0,4.7,3.8,8.4,8.4,8.4c4.7,0,8.4-3.8,8.4-8.4
				C121.5,168.9,117.7,165.2,113.1,165.2z"/>
			<path fill="#3F4041" d="M113.1,185c-6.3,0-11.4-5.1-11.4-11.4c0-6.3,5.1-11.4,11.4-11.4c6.3,0,11.4,5.1,11.4,11.4
				C124.5,179.9,119.4,185,113.1,185z M113.1,163.1c-5.8,0-10.5,4.7-10.5,10.5c0,5.8,4.7,10.5,10.5,10.5c5.8,0,10.5-4.7,10.5-10.5
				C123.6,167.8,118.9,163.1,113.1,163.1z"/>
		</g>
		<g>
			<path fill="#3F4041" d="M71.2,187.1c-7.4,0-13.5-6.1-13.5-13.5c0-7.4,6.1-13.5,13.5-13.5c7.4,0,13.5,6.1,13.5,13.5
				C84.6,181,78.6,187.1,71.2,187.1z M71.2,160.9c-7,0-12.6,5.7-12.6,12.6c0,7,5.7,12.7,12.6,12.7c7,0,12.7-5.7,12.7-12.7
				C83.8,166.6,78.1,160.9,71.2,160.9z"/>
			<path fill="#3F4041" d="M71.2,180.8c-4,0-7.2-3.2-7.2-7.2c0-4,3.2-7.2,7.2-7.2c4,0,7.2,3.2,7.2,7.2
				C78.3,177.5,75.1,180.8,71.2,180.8z M71.2,167.3c-3.5,0-6.3,2.8-6.3,6.3c0,3.5,2.8,6.3,6.3,6.3c3.5,0,6.3-2.8,6.3-6.3
				C77.5,170.1,74.6,167.3,71.2,167.3z"/>
			<path fill="#3F4041" d="M71.2,180.8c-4,0-7.2-3.2-7.2-7.2c0-4,3.2-7.2,7.2-7.2c4,0,7.2,3.2,7.2,7.2
				C78.3,177.5,75.1,180.8,71.2,180.8z M71.2,167.3c-3.5,0-6.3,2.8-6.3,6.3c0,3.5,2.8,6.3,6.3,6.3c3.5,0,6.3-2.8,6.3-6.3
				C77.5,170.1,74.6,167.3,71.2,167.3z"/>
			<path fill="#3F4041" d="M71.2,182.9c-5.1,0-9.3-4.2-9.3-9.3c0-5.1,4.2-9.3,9.3-9.3c5.1,0,9.3,4.2,9.3,9.3
				C80.4,178.7,76.3,182.9,71.2,182.9z M71.2,165.2c-4.6,0-8.4,3.8-8.4,8.4c0,4.7,3.8,8.4,8.4,8.4c4.7,0,8.4-3.8,8.4-8.4
				C79.6,168.9,75.8,165.2,71.2,165.2z"/>
			<path fill="#3F4041" d="M71.2,185c-6.3,0-11.4-5.1-11.4-11.4c0-6.3,5.1-11.4,11.4-11.4c6.3,0,11.4,5.1,11.4,11.4
				C82.5,179.9,77.4,185,71.2,185z M71.2,163.1c-5.8,0-10.5,4.7-10.5,10.5c0,5.8,4.7,10.5,10.5,10.5c5.8,0,10.5-4.7,10.5-10.5
				C81.7,167.8,77,163.1,71.2,163.1z"/>
		</g>
		<g>
			<path fill="#3F4041" d="M196.9,187.1c-7.4,0-13.5-6.1-13.5-13.5c0-7.4,6.1-13.5,13.5-13.5c7.4,0,13.5,6.1,13.5,13.5
				C210.4,181,204.4,187.1,196.9,187.1z M196.9,160.9c-7,0-12.6,5.7-12.6,12.6c0,7,5.7,12.7,12.6,12.7c7,0,12.7-5.7,12.7-12.7
				C209.6,166.6,203.9,160.9,196.9,160.9z"/>
			<path fill="#3F4041" d="M196.9,180.8c-4,0-7.2-3.2-7.2-7.2c0-4,3.2-7.2,7.2-7.2c4,0,7.2,3.2,7.2,7.2
				C204.1,177.5,200.9,180.8,196.9,180.8z M196.9,167.3c-3.5,0-6.3,2.8-6.3,6.3c0,3.5,2.8,6.3,6.3,6.3c3.5,0,6.3-2.8,6.3-6.3
				C203.2,170.1,200.4,167.3,196.9,167.3z"/>
			<path fill="#3F4041" d="M196.9,180.8c-4,0-7.2-3.2-7.2-7.2c0-4,3.2-7.2,7.2-7.2c4,0,7.2,3.2,7.2,7.2
				C204.1,177.5,200.9,180.8,196.9,180.8z M196.9,167.3c-3.5,0-6.3,2.8-6.3,6.3c0,3.5,2.8,6.3,6.3,6.3c3.5,0,6.3-2.8,6.3-6.3
				C203.2,170.1,200.4,167.3,196.9,167.3z"/>
			<path fill="#3F4041" d="M196.9,182.9c-5.1,0-9.3-4.2-9.3-9.3c0-5.1,4.2-9.3,9.3-9.3c5.1,0,9.3,4.2,9.3,9.3
				C206.2,178.7,202,182.9,196.9,182.9z M196.9,165.2c-4.6,0-8.4,3.8-8.4,8.4c0,4.7,3.8,8.4,8.4,8.4c4.7,0,8.4-3.8,8.4-8.4
				C205.4,168.9,201.6,165.2,196.9,165.2z"/>
			<path fill="#3F4041" d="M196.9,185c-6.3,0-11.4-5.1-11.4-11.4c0-6.3,5.1-11.4,11.4-11.4c6.3,0,11.4,5.1,11.4,11.4
				C208.3,179.9,203.2,185,196.9,185z M196.9,163.1c-5.8,0-10.5,4.7-10.5,10.5c0,5.8,4.7,10.5,10.5,10.5c5.8,0,10.5-4.7,10.5-10.5
				C207.5,167.8,202.7,163.1,196.9,163.1z"/>
		</g>
		<g>
			<path fill="#3F4041" d="M238.8,187.1c-7.4,0-13.5-6.1-13.5-13.5c0-7.4,6.1-13.5,13.5-13.5c7.4,0,13.5,6.1,13.5,13.5
				C252.3,181,246.3,187.1,238.8,187.1z M238.8,160.9c-7,0-12.6,5.7-12.6,12.6c0,7,5.7,12.7,12.6,12.7c7,0,12.7-5.7,12.7-12.7
				C251.5,166.6,245.8,160.9,238.8,160.9z"/>
			<path fill="#3F4041" d="M238.8,180.8c-4,0-7.2-3.2-7.2-7.2c0-4,3.2-7.2,7.2-7.2c4,0,7.2,3.2,7.2,7.2
				C246,177.5,242.8,180.8,238.8,180.8z M238.8,167.3c-3.5,0-6.3,2.8-6.3,6.3c0,3.5,2.8,6.3,6.3,6.3c3.5,0,6.3-2.8,6.3-6.3
				C245.2,170.1,242.3,167.3,238.8,167.3z"/>
			<path fill="#3F4041" d="M238.8,180.8c-4,0-7.2-3.2-7.2-7.2c0-4,3.2-7.2,7.2-7.2c4,0,7.2,3.2,7.2,7.2
				C246,177.5,242.8,180.8,238.8,180.8z M238.8,167.3c-3.5,0-6.3,2.8-6.3,6.3c0,3.5,2.8,6.3,6.3,6.3c3.5,0,6.3-2.8,6.3-6.3
				C245.2,170.1,242.3,167.3,238.8,167.3z"/>
			<path fill="#3F4041" d="M238.8,182.9c-5.1,0-9.3-4.2-9.3-9.3c0-5.1,4.2-9.3,9.3-9.3c5.1,0,9.3,4.2,9.3,9.3
				C248.1,178.7,244,182.9,238.8,182.9z M238.8,165.2c-4.6,0-8.4,3.8-8.4,8.4c0,4.7,3.8,8.4,8.4,8.4c4.7,0,8.4-3.8,8.4-8.4
				C247.3,168.9,243.5,165.2,238.8,165.2z"/>
			<path fill="#3F4041" d="M238.8,185c-6.3,0-11.4-5.1-11.4-11.4c0-6.3,5.1-11.4,11.4-11.4c6.3,0,11.4,5.1,11.4,11.4
				C250.2,179.9,245.1,185,238.8,185z M238.8,163.1c-5.8,0-10.5,4.7-10.5,10.5c0,5.8,4.7,10.5,10.5,10.5c5.8,0,10.5-4.7,10.5-10.5
				C249.4,167.8,244.7,163.1,238.8,163.1z"/>
		</g>
	</g>
</g>
</svg>
