<?xml version="1.0" encoding="utf-8"?>
<!-- Generator: Adobe Illustrator 18.1.1, SVG Export Plug-In . SVG Version: 6.00 Build 0)  -->
<svg version="1.1" id="Layer_1" xmlns="http://www.w3.org/2000/svg" xmlns:xlink="http://www.w3.org/1999/xlink" x="0px" y="0px"
	 viewBox="0 82.8 640 314.4" enable-background="new 0 82.8 640 314.4" xml:space="preserve">
<g>
	<g>
		<path fill="#FFFFFF" d="M156.3,397.2C70.7,397.2,0,326.5,0,239.1C0,153.5,70.7,82.8,156.3,82.8s156.3,70.7,156.3,156.3
			C314.4,326.5,243.7,397.2,156.3,397.2z M156.3,105.1c-74.4,0-135.8,61.4-135.8,135.8s61.4,135.8,135.8,135.8
			s135.8-61.4,135.8-135.8C292.1,164.7,230.7,105.1,156.3,105.1z"/>
		<polygon fill="#FFFFFF" points="234.4,250.2 145.1,250.2 145.1,149.8 167.4,149.8 167.4,227.9 234.4,227.9 		"/>
		<polygon fill="#FFFFFF" points="640,187 547,94 459.5,187 476.3,201.9 538.6,136.3 538.6,386 560.9,386 560.9,137.7 625.1,201.9 
					"/>
	</g>
</g>
</svg>
