<?xml version="1.0" encoding="utf-8"?>
<!-- Generator: Adobe Illustrator 18.1.1, SVG Export Plug-In . SVG Version: 6.00 Build 0)  -->
<svg version="1.1" id="Layer_1" xmlns="http://www.w3.org/2000/svg" xmlns:xlink="http://www.w3.org/1999/xlink" x="0px" y="0px"
	 width="106px" height="76.4px" viewBox="0 0 106 76.4" enable-background="new 0 0 106 76.4" xml:space="preserve">
<g>
	<path fill="#7C7C7B" d="M24,6.8h1.4c0.8,0,1.5-0.1,1.9-0.3c0.4-0.2,0.6-0.6,0.6-1.2c0-0.6-0.2-1-0.6-1.2c-0.4-0.2-1-0.3-1.9-0.3H24
		V6.8z M24,12.3h2.1c0.9,0,1.5-0.1,2-0.3c0.4-0.2,0.7-0.6,0.7-1.3c0-0.6-0.2-1-0.7-1.3c-0.5-0.2-1.2-0.3-2.2-0.3H24V12.3z
		 M26.9,14.9h-6V1.2h5.3c0.9,0,1.7,0.1,2.4,0.3c0.7,0.2,1.2,0.5,1.5,0.9c0.6,0.7,0.9,1.5,0.9,2.4c0,1.1-0.3,1.9-1,2.4
		c-0.2,0.2-0.4,0.3-0.5,0.3c-0.1,0-0.3,0.1-0.5,0.2c0.8,0.2,1.5,0.6,2,1.1c0.5,0.6,0.8,1.3,0.8,2.2c0,1-0.3,1.8-1,2.5
		C30.1,14.5,28.8,14.9,26.9,14.9"/>
	<path fill="#7C7C7B" d="M40.8,10V4.4h3v10.5h-3v-1.4c-0.7,1-1.7,1.5-2.8,1.5c-1.2,0-2.1-0.4-2.9-1.1c-0.8-0.7-1.2-1.8-1.2-3.2V4.4
		h3v5.7c0,1.6,0.6,2.4,1.8,2.4c0.6,0,1.1-0.2,1.5-0.6C40.6,11.5,40.8,10.9,40.8,10"/>
	<path fill="#7C7C7B" d="M54.4,11.6c0,1-0.4,1.9-1.1,2.5c-0.8,0.6-1.7,0.9-2.9,0.9c-0.8,0-1.6-0.1-2.4-0.4c-0.8-0.3-1.6-0.7-2.3-1.2
		l1.3-1.8c1.1,0.8,2.3,1.3,3.5,1.3c0.4,0,0.7-0.1,0.9-0.2c0.2-0.1,0.3-0.3,0.3-0.6c0-0.2-0.2-0.5-0.5-0.7c-0.3-0.2-0.7-0.4-1.3-0.6
		c-0.6-0.2-1-0.3-1.3-0.5c-0.3-0.1-0.7-0.3-1-0.6c-0.8-0.5-1.2-1.2-1.2-2.2c0-1,0.4-1.8,1.2-2.4c0.8-0.6,1.8-0.9,3-0.9
		c1.2,0,2.5,0.4,3.7,1.3l-1.1,2c-0.9-0.6-1.8-0.9-2.7-0.9c-0.9,0-1.4,0.2-1.4,0.7c0,0.3,0.1,0.5,0.4,0.6c0.3,0.2,0.8,0.3,1.4,0.5
		c0.7,0.2,1.1,0.4,1.4,0.5c0.3,0.1,0.6,0.3,1,0.5C54.1,9.8,54.4,10.6,54.4,11.6"/>
	<path fill="#7C7C7B" d="M56.9,3c-0.3-0.3-0.5-0.7-0.5-1.2c0-0.5,0.2-0.9,0.5-1.2c0.3-0.3,0.7-0.5,1.2-0.5c0.5,0,0.9,0.2,1.2,0.5
		c0.3,0.3,0.5,0.7,0.5,1.2c0,0.5-0.2,0.9-0.5,1.2c-0.3,0.3-0.7,0.5-1.2,0.5C57.7,3.5,57.3,3.4,56.9,3 M59.6,14.9h-2.9V4.4h2.9V14.9z
		"/>
	<path fill="#7C7C7B" d="M65.3,9v5.9h-2.9V4.4h2.9v1.2c0.9-0.9,1.9-1.3,3-1.3c1.1,0,2,0.4,2.8,1.2c0.7,0.8,1.1,1.8,1.1,3.1v6.4h-2.9
		V9c0-1.6-0.6-2.4-1.8-2.4c-0.6,0-1.1,0.2-1.5,0.6C65.6,7.6,65.3,8.2,65.3,9"/>
	<path fill="#7C7C7B" d="M81.2,7.1c-0.4-0.3-0.9-0.5-1.5-0.5c-0.6,0-1.1,0.2-1.6,0.5c-0.5,0.4-0.8,0.8-0.8,1.4h4.6
		C81.8,8,81.6,7.5,81.2,7.1 M84,13.4c-1.2,1.1-2.6,1.7-4.2,1.7s-2.9-0.5-4-1.5c-1-1-1.6-2.3-1.6-4c0-1.7,0.5-3,1.6-4
		c1.1-1,2.3-1.5,3.8-1.5c1.4,0,2.7,0.4,3.7,1.3c1,0.9,1.5,2.1,1.5,3.6v1.6h-7.7c0.1,0.6,0.4,1,0.9,1.4c0.5,0.4,1.1,0.5,1.7,0.5
		c1,0,1.9-0.3,2.5-1L84,13.4z"/>
	<path fill="#7C7C7B" d="M94.9,11.6c0,1-0.4,1.9-1.1,2.5c-0.8,0.6-1.7,0.9-2.9,0.9c-0.8,0-1.6-0.1-2.4-0.4c-0.8-0.3-1.6-0.7-2.3-1.2
		l1.3-1.8c1.1,0.8,2.3,1.3,3.5,1.3c0.4,0,0.7-0.1,0.9-0.2c0.2-0.1,0.3-0.3,0.3-0.6c0-0.2-0.2-0.5-0.5-0.7c-0.3-0.2-0.7-0.4-1.3-0.6
		c-0.6-0.2-1-0.3-1.3-0.5c-0.3-0.1-0.7-0.3-1-0.6c-0.8-0.5-1.2-1.2-1.2-2.2c0-1,0.4-1.8,1.2-2.4c0.8-0.6,1.8-0.9,3-0.9
		c1.2,0,2.5,0.4,3.7,1.3l-1.1,2c-0.9-0.6-1.8-0.9-2.7-0.9c-0.9,0-1.4,0.2-1.4,0.7c0,0.3,0.1,0.5,0.4,0.6c0.3,0.2,0.8,0.3,1.4,0.5
		c0.7,0.2,1.1,0.4,1.4,0.5c0.3,0.1,0.6,0.3,1,0.5C94.5,9.8,94.9,10.6,94.9,11.6"/>
	<path fill="#7C7C7B" d="M105.1,11.6c0,1-0.4,1.9-1.1,2.5c-0.8,0.6-1.7,0.9-2.9,0.9c-0.8,0-1.6-0.1-2.4-0.4
		c-0.8-0.3-1.6-0.7-2.3-1.2l1.3-1.8c1.1,0.8,2.3,1.3,3.5,1.3c0.4,0,0.7-0.1,0.9-0.2c0.2-0.1,0.3-0.3,0.3-0.6c0-0.2-0.2-0.5-0.5-0.7
		c-0.3-0.2-0.7-0.4-1.3-0.6c-0.6-0.2-1-0.3-1.3-0.5c-0.3-0.1-0.7-0.3-1-0.6C97.4,9.2,97,8.5,97,7.5c0-1,0.4-1.8,1.2-2.4
		c0.8-0.6,1.8-0.9,3-0.9c1.2,0,2.5,0.4,3.7,1.3l-1.1,2c-0.9-0.6-1.8-0.9-2.7-0.9c-0.9,0-1.4,0.2-1.4,0.7c0,0.3,0.1,0.5,0.4,0.6
		c0.3,0.2,0.8,0.3,1.4,0.5c0.7,0.2,1.1,0.4,1.4,0.5c0.3,0.1,0.6,0.3,1,0.5C104.7,9.8,105.1,10.6,105.1,11.6"/>
	<path fill="#7C7C7B" d="M24,12.3h2.1c0.9,0,1.5-0.1,2-0.3c0.4-0.2,0.7-0.6,0.7-1.3c0-0.6-0.2-1.1-0.7-1.3c-0.5-0.2-1.2-0.3-2.2-0.3
		H24V12.3z M24,6.7h1.5c0.9,0,1.5-0.1,1.9-0.3c0.4-0.2,0.6-0.6,0.6-1.2c0-0.6-0.2-1-0.6-1.2c-0.4-0.2-1-0.3-1.9-0.3H24V6.7z
		 M26.9,14.9h-6V1.1h5.3c0.9,0,1.7,0.1,2.4,0.3c0.7,0.2,1.2,0.5,1.5,0.9c0.6,0.7,0.9,1.5,0.9,2.4c0,1.1-0.3,1.9-1,2.4
		c-0.2,0.2-0.4,0.3-0.5,0.3c-0.1,0-0.3,0.1-0.5,0.2c0.9,0.2,1.5,0.6,2,1.1c0.5,0.6,0.8,1.3,0.8,2.2c0,1-0.3,1.8-1,2.5
		C30.1,14.4,28.8,14.9,26.9,14.9"/>
	<path fill="#7C7C7B" d="M40.9,10V4.3h3v10.6h-3v-1.4c-0.7,1-1.7,1.6-2.8,1.6c-1.2,0-2.1-0.4-2.9-1.1c-0.8-0.7-1.2-1.8-1.2-3.2V4.3
		h3V10c0,1.6,0.6,2.4,1.8,2.4c0.6,0,1.1-0.2,1.5-0.6C40.6,11.4,40.9,10.8,40.9,10"/>
	<path fill="#7C7C7B" d="M54.6,11.6c0,1-0.4,1.9-1.1,2.5c-0.8,0.6-1.7,0.9-2.9,0.9c-0.8,0-1.6-0.1-2.5-0.4c-0.9-0.3-1.6-0.7-2.3-1.2
		l1.3-1.8c1.1,0.9,2.3,1.3,3.5,1.3c0.4,0,0.7-0.1,0.9-0.2c0.2-0.1,0.3-0.3,0.3-0.6c0-0.2-0.2-0.5-0.5-0.7c-0.3-0.2-0.8-0.4-1.3-0.6
		c-0.6-0.2-1-0.3-1.3-0.5c-0.3-0.1-0.7-0.3-1.1-0.6c-0.8-0.5-1.2-1.2-1.2-2.2c0-1,0.4-1.8,1.2-2.4c0.8-0.6,1.8-0.9,3-0.9
		c1.2,0,2.5,0.4,3.7,1.3l-1.1,2c-0.9-0.6-1.8-0.9-2.7-0.9c-0.9,0-1.4,0.2-1.4,0.7c0,0.3,0.1,0.5,0.4,0.6c0.3,0.2,0.8,0.3,1.4,0.5
		c0.7,0.2,1.1,0.4,1.4,0.5c0.3,0.1,0.6,0.3,1,0.5C54.2,9.8,54.6,10.5,54.6,11.6"/>
	<path fill="#7C7C7B" d="M59.8,14.9h-2.9V4.3h2.9V14.9z M57.1,3c-0.3-0.3-0.5-0.7-0.5-1.2s0.2-0.9,0.5-1.2C57.4,0.2,57.8,0,58.3,0
		c0.5,0,0.9,0.2,1.2,0.5C59.8,0.8,60,1.2,60,1.7S59.8,2.6,59.5,3c-0.3,0.3-0.7,0.5-1.2,0.5C57.8,3.5,57.4,3.3,57.1,3"/>
	<path fill="#7C7C7B" d="M65.5,9v5.9h-2.9V4.3h2.9v1.2c0.9-0.9,1.9-1.4,3-1.4c1.1,0,2,0.4,2.8,1.2c0.8,0.8,1.1,1.8,1.1,3.1v6.4h-2.9
		v-6c0-1.6-0.6-2.4-1.8-2.4c-0.6,0-1.1,0.2-1.5,0.6C65.7,7.5,65.5,8.1,65.5,9"/>
	<path fill="#7C7C7B" d="M81.4,7.1c-0.4-0.3-0.9-0.5-1.5-0.5c-0.6,0-1.1,0.2-1.6,0.5c-0.5,0.4-0.8,0.8-0.8,1.4h4.6
		C82,7.9,81.8,7.4,81.4,7.1 M84.2,13.3C83,14.5,81.6,15,80,15c-1.6,0-2.9-0.5-4-1.5c-1-1-1.6-2.3-1.6-4c0-1.7,0.5-3,1.6-4
		c1.1-1,2.3-1.5,3.8-1.5c1.5,0,2.7,0.4,3.7,1.3c1,0.9,1.5,2.1,1.5,3.6v1.6h-7.7c0.1,0.6,0.4,1,0.9,1.4c0.5,0.4,1.1,0.6,1.7,0.6
		c1,0,1.9-0.3,2.6-1L84.2,13.3z"/>
	<path fill="#7C7C7B" d="M95.2,11.6c0,1-0.4,1.9-1.1,2.5c-0.8,0.6-1.7,0.9-2.9,0.9c-0.8,0-1.6-0.1-2.5-0.4c-0.9-0.3-1.6-0.7-2.3-1.2
		l1.3-1.8c1.1,0.9,2.3,1.3,3.5,1.3c0.4,0,0.7-0.1,0.9-0.2c0.2-0.1,0.3-0.3,0.3-0.6c0-0.2-0.2-0.5-0.5-0.7c-0.3-0.2-0.8-0.4-1.3-0.6
		c-0.6-0.2-1-0.3-1.3-0.5c-0.3-0.1-0.7-0.3-1.1-0.6C87.4,9.1,87,8.4,87,7.4c0-1,0.4-1.8,1.2-2.4c0.8-0.6,1.8-0.9,3-0.9
		s2.5,0.4,3.7,1.3l-1.1,2c-0.9-0.6-1.8-0.9-2.7-0.9c-0.9,0-1.4,0.2-1.4,0.7c0,0.3,0.1,0.5,0.4,0.6c0.3,0.2,0.8,0.3,1.4,0.5
		c0.7,0.2,1.1,0.4,1.4,0.5c0.3,0.1,0.6,0.3,1,0.5C94.8,9.8,95.2,10.5,95.2,11.6"/>
	<path fill="#7C7C7B" d="M105.4,11.6c0,1-0.4,1.9-1.1,2.5c-0.8,0.6-1.7,0.9-2.9,0.9c-0.8,0-1.6-0.1-2.5-0.4
		c-0.9-0.3-1.6-0.7-2.3-1.2l1.3-1.8c1.1,0.9,2.3,1.3,3.5,1.3c0.4,0,0.7-0.1,0.9-0.2c0.2-0.1,0.3-0.3,0.3-0.6c0-0.2-0.2-0.5-0.5-0.7
		c-0.3-0.2-0.8-0.4-1.3-0.6c-0.6-0.2-1-0.3-1.3-0.5c-0.3-0.1-0.7-0.3-1.1-0.6c-0.8-0.5-1.2-1.2-1.2-2.2c0-1,0.4-1.8,1.2-2.4
		c0.8-0.6,1.8-0.9,3-0.9c1.2,0,2.5,0.4,3.7,1.3l-1.1,2c-0.9-0.6-1.8-0.9-2.7-0.9c-0.9,0-1.4,0.2-1.4,0.7c0,0.3,0.1,0.5,0.4,0.6
		c0.3,0.2,0.8,0.3,1.4,0.5c0.7,0.2,1.1,0.4,1.4,0.5c0.3,0.1,0.6,0.3,1,0.5C105,9.8,105.4,10.5,105.4,11.6"/>
	<path fill="#7C7C7B" d="M31.7,28.8v5.7h-3v-5.8c0-0.8-0.1-1.5-0.4-1.8c-0.3-0.4-0.7-0.6-1.2-0.6c-0.6,0-1.1,0.2-1.5,0.6
		c-0.4,0.4-0.7,1.1-0.7,1.9v5.7H22V23.9h2.9v1.2c0.8-0.9,1.7-1.4,2.8-1.4c0.7,0,1.3,0.2,1.8,0.6c0.5,0.4,1,0.9,1.2,1.4
		c0.4-0.6,1-1.1,1.6-1.5c0.7-0.4,1.4-0.5,2.1-0.5c1.2,0,2.2,0.4,3,1.1c0.8,0.7,1.1,1.8,1.1,3.2v6.4h-3v-5.8c0-1.6-0.6-2.4-1.8-2.4
		c-0.6,0-1.1,0.2-1.5,0.6C31.9,27.3,31.7,28,31.7,28.8"/>
	<path fill="#7C7C7B" d="M49.1,26.7c-0.4-0.3-0.9-0.5-1.5-0.5c-0.6,0-1.1,0.2-1.6,0.5c-0.5,0.4-0.8,0.8-0.8,1.4h4.6
		C49.7,27.5,49.5,27,49.1,26.7 M51.9,32.9c-1.2,1.1-2.6,1.7-4.2,1.7c-1.6,0-2.9-0.5-4-1.5c-1-1-1.6-2.3-1.6-4c0-1.7,0.5-3,1.6-4
		c1.1-1,2.3-1.5,3.8-1.5c1.5,0,2.7,0.4,3.7,1.3c1,0.9,1.5,2.1,1.5,3.6v1.6h-7.7c0.1,0.6,0.4,1,0.9,1.4c0.5,0.4,1.1,0.6,1.7,0.6
		c1,0,1.9-0.3,2.6-1L51.9,32.9z"/>
	<path fill="#7C7C7B" d="M59.7,26v4.7c0,0.4,0.1,0.7,0.3,1c0.2,0.2,0.5,0.3,0.7,0.3c0.5,0,1-0.2,1.4-0.7l1.1,2.1
		c-0.9,0.8-1.9,1.3-2.9,1.3c-1,0-1.9-0.3-2.6-1c-0.7-0.7-1-1.6-1-2.7V26h-1.2v-2.1h1.2v-3.2h3v3.2h2.6V26H59.7z"/>
	<path fill="#7C7C7B" d="M69.3,28.8v5.7h-2.9V19.9h2.9v5.2c0.9-0.9,1.9-1.4,3-1.4c1.1,0,2,0.4,2.8,1.2c0.8,0.8,1.1,1.8,1.1,3.1v6.4
		h-2.9v-5.8c0-1.6-0.6-2.4-1.8-2.4c-0.6,0-1.1,0.2-1.5,0.6C69.5,27.3,69.3,28,69.3,28.8"/>
	<path fill="#7C7C7B" d="M82.7,29.2c0,0.9,0.2,1.6,0.7,2.1c0.5,0.5,1.1,0.8,1.9,0.8c0.8,0,1.4-0.3,1.9-0.8c0.5-0.5,0.7-1.2,0.7-2.1
		c0-0.9-0.2-1.6-0.7-2.1c-0.5-0.5-1.1-0.8-1.9-0.8c-0.8,0-1.4,0.3-1.9,0.8C82.9,27.6,82.7,28.3,82.7,29.2 M90.9,29.2
		c0,1.5-0.5,2.8-1.6,3.9c-1.1,1-2.4,1.6-4,1.6c-1.6,0-2.9-0.5-4-1.6c-1.1-1-1.6-2.3-1.6-3.9c0-1.5,0.5-2.8,1.6-3.9
		c1.1-1.1,2.4-1.6,4-1.6c1.6,0,2.9,0.5,4,1.6C90.4,26.4,90.9,27.7,90.9,29.2"/>
	<path fill="#7C7C7B" d="M96.9,29.2c0,0.9,0.3,1.5,0.8,2.1c0.5,0.5,1.1,0.8,1.8,0.8c0.7,0,1.3-0.3,1.7-0.8c0.5-0.5,0.7-1.2,0.7-2.1
		c0-0.9-0.2-1.6-0.7-2.1c-0.5-0.6-1.1-0.9-1.8-0.9c-0.7,0-1.3,0.3-1.8,0.9C97.2,27.7,96.9,28.4,96.9,29.2 M98.8,34.6
		c-1.2,0-2.4-0.5-3.3-1.6c-1-1.1-1.5-2.4-1.5-3.9c0-1.6,0.5-2.9,1.4-3.9c1-1,2.1-1.5,3.4-1.5c1.3,0,2.3,0.5,3.1,1.4v-5.2h2.9v14.6
		h-2.9v-1.4C101.1,34.1,100,34.6,98.8,34.6"/>
	<path fill="#7C7C7B" d="M45.4,45.7v4.7c0,0.4,0.1,0.7,0.3,1c0.2,0.2,0.5,0.3,0.7,0.3c0.5,0,1-0.2,1.4-0.7l1.1,2.1
		C48,53.8,47,54.3,46,54.3c-1,0-1.9-0.3-2.6-1c-0.7-0.7-1-1.6-1-2.7v-4.9h-1.2v-2.1h1.2v-3.2h3v3.2h2.6v2.1H45.4z"/>
	<path fill="#7C7C7B" d="M52.7,48.8c0,0.9,0.2,1.6,0.7,2.1c0.5,0.5,1.1,0.8,1.9,0.8c0.8,0,1.4-0.3,1.9-0.8c0.5-0.5,0.7-1.2,0.7-2.1
		c0-0.9-0.2-1.6-0.7-2.1c-0.5-0.5-1.1-0.8-1.9-0.8c-0.8,0-1.4,0.3-1.9,0.8C53,47.3,52.7,48,52.7,48.8 M60.9,48.8
		c0,1.5-0.5,2.8-1.6,3.9c-1.1,1-2.4,1.6-4,1.6c-1.6,0-2.9-0.5-4-1.6c-1.1-1-1.6-2.3-1.6-3.9c0-1.5,0.5-2.8,1.6-3.9
		c1.1-1.1,2.4-1.6,4-1.6c1.6,0,2.9,0.5,4,1.6C60.4,46,60.9,47.3,60.9,48.8"/>
	<path fill="#7C7C7B" d="M65.5,48.8c0,0.9,0.2,1.6,0.7,2.1c0.5,0.5,1.1,0.8,1.9,0.8c0.8,0,1.4-0.3,1.9-0.8c0.5-0.5,0.7-1.2,0.7-2.1
		c0-0.9-0.2-1.6-0.7-2.1c-0.5-0.5-1.1-0.8-1.9-0.8c-0.8,0-1.4,0.3-1.9,0.8C65.7,47.3,65.5,48,65.5,48.8 M73.7,48.8
		c0,1.5-0.5,2.8-1.6,3.9c-1.1,1-2.4,1.6-4,1.6c-1.6,0-2.9-0.5-4-1.6c-1.1-1-1.6-2.3-1.6-3.9c0-1.5,0.5-2.8,1.6-3.9
		c1.1-1.1,2.4-1.6,4-1.6c1.6,0,2.9,0.5,4,1.6C73.1,46,73.7,47.3,73.7,48.8"/>
	<rect x="75.8" y="39.5" fill="#7C7C7B" width="2.9" height="14.6"/>
	<polygon fill="#7C7C7B" points="84.5,54.1 81.6,54.1 81.6,39.5 84.5,39.5 84.5,47 87.8,43.5 91.5,43.5 87.5,47.8 91.7,54.1 
		88.2,54.1 85.5,50.1 84.5,51.1 	"/>
	<path fill="#7C7C7B" d="M96.2,54.1h-2.9V43.5h2.9V54.1z M93.5,42.2C93.2,41.9,93,41.5,93,41s0.2-0.9,0.5-1.2
		c0.3-0.3,0.7-0.5,1.2-0.5c0.5,0,0.9,0.2,1.2,0.5c0.3,0.3,0.5,0.7,0.5,1.2s-0.2,0.9-0.5,1.2c-0.3,0.3-0.7,0.5-1.2,0.5
		C94.2,42.7,93.8,42.5,93.5,42.2"/>
	<path fill="#7C7C7B" d="M102.5,45.7v4.7c0,0.4,0.1,0.7,0.3,1c0.2,0.2,0.5,0.3,0.7,0.3c0.5,0,1-0.2,1.4-0.7L106,53
		c-0.9,0.8-1.9,1.3-2.9,1.3c-1,0-1.9-0.3-2.6-1c-0.7-0.7-1-1.6-1-2.7v-4.9h-1.2v-2.1h1.2v-3.2h3v3.2h2.6v2.1H102.5z"/>
	<polygon fill="#7C7C7B" points="33.3,70.5 33.3,72.1 4,72.1 4,43.5 5.6,43.5 5.6,70.5 	"/>
	<polygon fill="#7C7C7B" points="29.2,74.8 29.2,76.4 0,76.4 0,47.8 1.6,47.8 1.6,74.8 	"/>
	<path fill="#7C7C7B" d="M24.1,53.4c0-0.5-0.2-0.9-0.6-1.1c-0.4-0.2-1-0.3-1.9-0.3h-1.5v2.7h1.8c0.7,0,1.3-0.1,1.7-0.3
		C23.9,54.2,24.1,53.9,24.1,53.4"/>
	<path fill="#7C7C7B" d="M23,49.7c0.3-0.2,0.5-0.5,0.5-1c0-0.5-0.2-0.9-0.5-1c-0.3-0.2-0.9-0.2-1.6-0.2h-1.2V50h1.2
		C22.1,50,22.6,49.9,23,49.7"/>
	<path fill="#7C7C7B" d="M29.9,62.5H14.5v-2h15.4V62.5z M17.5,45.3h4.5c0.8,0,1.5,0.1,2,0.3c0.6,0.2,1,0.4,1.3,0.8
		c0.5,0.6,0.8,1.3,0.8,2c0,0.9-0.3,1.6-0.9,2c-0.2,0.2-0.3,0.3-0.4,0.3c-0.1,0-0.2,0.1-0.4,0.2c0.7,0.2,1.3,0.5,1.7,1
		c0.4,0.5,0.6,1.1,0.6,1.8c0,0.8-0.3,1.5-0.8,2.1c-0.6,0.7-1.8,1.1-3.4,1.1h-5.1V45.3z M8.2,68.2h27.9V40.3H8.2V68.2z"/>
</g>
</svg>
