<?xml version="1.0" encoding="utf-8"?>
<!-- Generator: Adobe Illustrator 19.2.1, SVG Export Plug-In . SVG Version: 6.00 Build 0)  -->
<svg version="1.1" id="Layer_1" xmlns="http://www.w3.org/2000/svg" xmlns:xlink="http://www.w3.org/1999/xlink" x="0px" y="0px"
	 width="70px" height="70px" viewBox="0 0 70 70" style="enable-background:new 0 0 70 70;" xml:space="preserve">
<style type="text/css">
	.st0{fill:#FFFFFF;}
	.st1{fill:#D7D7D6;}
	.st2{fill:#56B46D;}
	.st3{opacity:0.6;}
	.st4{fill:#E54B3B;}
	.st5{fill:#F5BEAB;}
	.st6{fill:#687687;}
	.st7{fill:#C0C1C6;}
	.st8{fill:#AABE4B;}
	.st9{fill:#E47C20;}
	.st10{fill:#F6CCA6;}
	.st11{fill:#3B95D2;}
	.st12{fill:#FFFFFF;stroke:#D7D7D6;stroke-width:4.1497;stroke-miterlimit:10;}
	.st13{fill:#C25374;}
	.st14{fill:#E4493B;}
	.st15{fill:#45A9A5;}
	.st16{fill:#EFC303;}
	.st17{fill:#ABBF4A;}
	.st18{fill:#DFE3B7;}
	.st19{fill:#F0C300;}
	.st20{fill:#F9E6AB;}
	.st21{fill:#955BA1;}
	.st22{fill:#D1BCD9;}
	.st23{fill:#BED2EE;}
</style>
<path class="st9" d="M47,70H23C10.3,70,0,59.7,0,47V23C0,10.3,10.3,0,23,0h24c12.7,0,23,10.3,23,23v24C70,59.7,59.7,70,47,70z"/>
<g>
	<g>
		<path class="st0" d="M21.5,49.4h0.8v4.9h-0.8V49.4z"/>
		<path class="st0" d="M24.9,52.3v2h-0.8v-3.7h0.8v0.7c0.1-0.2,0.3-0.4,0.5-0.5c0.2-0.1,0.5-0.2,0.7-0.2c0.6,0,1,0.2,1.2,0.7
			c0.4-0.5,0.8-0.7,1.4-0.7c0.4,0,0.8,0.1,1,0.4c0.3,0.3,0.4,0.6,0.4,1.1v2.3h-0.8v-2c0-0.7-0.3-1-0.9-1c-0.3,0-0.5,0.1-0.7,0.3
			c-0.2,0.2-0.3,0.4-0.3,0.7v2.1h-0.8v-2c0-0.4-0.1-0.6-0.2-0.8c-0.1-0.2-0.3-0.2-0.6-0.2s-0.5,0.1-0.7,0.3
			C25,51.7,24.9,51.9,24.9,52.3z"/>
		<path class="st0" d="M33.8,50.5c0.5,0,0.9,0.2,1.3,0.5c0.4,0.3,0.5,0.8,0.5,1.4c0,0.6-0.2,1-0.5,1.4c-0.4,0.4-0.8,0.5-1.2,0.5
			c-0.5,0-0.9-0.2-1.3-0.6v1.9h-0.8v-5.1h0.8v0.7C32.8,50.8,33.3,50.5,33.8,50.5z M32.5,52.5c0,0.4,0.1,0.6,0.3,0.9
			c0.2,0.2,0.5,0.3,0.8,0.3s0.6-0.1,0.8-0.3s0.3-0.5,0.3-0.9s-0.1-0.7-0.3-0.9c-0.2-0.2-0.5-0.4-0.8-0.4c-0.3,0-0.6,0.1-0.8,0.4
			C32.6,51.8,32.5,52.1,32.5,52.5z"/>
		<path class="st0" d="M40,54.3h-0.7v-0.5c-0.3,0.4-0.7,0.6-1.2,0.6c-0.4,0-0.7-0.1-1-0.3s-0.4-0.5-0.4-0.9s0.1-0.6,0.4-0.8
			c0.3-0.2,0.6-0.3,1.1-0.3h1v-0.1c0-0.5-0.3-0.7-0.8-0.7c-0.3,0-0.7,0.1-1.1,0.4L37,51.1c0.5-0.4,1-0.5,1.5-0.5
			c0.4,0,0.8,0.1,1.1,0.3s0.4,0.6,0.4,1V54.3z M39.2,52.9v-0.3h-0.9c-0.6,0-0.8,0.2-0.8,0.5c0,0.2,0.1,0.3,0.2,0.4
			c0.1,0.1,0.3,0.1,0.6,0.1c0.2,0,0.5-0.1,0.7-0.2C39.1,53.3,39.2,53.2,39.2,52.9z"/>
		<path class="st0" d="M43.3,54.4c-0.5,0-1-0.2-1.3-0.5c-0.4-0.4-0.6-0.8-0.6-1.4s0.2-1,0.6-1.4c0.4-0.4,0.9-0.5,1.4-0.5
			s1,0.2,1.4,0.6l-0.5,0.6c-0.3-0.3-0.6-0.4-1-0.4s-0.6,0.1-0.9,0.3c-0.2,0.2-0.4,0.5-0.4,0.8c0,0.3,0.1,0.6,0.4,0.9
			c0.2,0.2,0.5,0.4,0.9,0.4s0.7-0.2,1-0.5l0.5,0.5C44.4,54.1,43.9,54.4,43.3,54.4z"/>
		<path class="st0" d="M47.1,51.2v1.9c0,0.2,0,0.3,0.1,0.4c0.1,0.1,0.2,0.2,0.4,0.2s0.3-0.1,0.5-0.2l0.3,0.6
			c-0.3,0.2-0.6,0.4-0.9,0.4c-0.3,0-0.6-0.1-0.9-0.3c-0.2-0.2-0.4-0.5-0.4-0.9v-1.9h-0.5v-0.6h0.5v-1.2h0.8v1.2h1v0.6H47.1z"/>
	</g>
	<g>
		<path class="st10" d="M35.4,40.6c-6.2,0-11.2-5-11.2-11.2c0-6.2,5-11.2,11.2-11.2c2,0,3.8,0.5,5.5,1.4l-1.2,1.2
			c-1.3-0.6-2.7-1-4.2-1c-5.3,0-9.6,4.3-9.6,9.6c0,5.3,4.3,9.6,9.6,9.6c5.3,0,9.6-4.3,9.6-9.6c0-1.5-0.4-2.9-1-4.2l1.2-1.2
			c0.9,1.6,1.4,3.5,1.4,5.4C46.7,35.5,41.6,40.6,35.4,40.6"/>
		<path class="st10" d="M35.4,35.5c-3.4,0-6.1-2.8-6.1-6.1c0-3.4,2.8-6.1,6.1-6.1c0.5,0,1.1,0.1,1.6,0.2L35.4,25
			c-2.3,0-4.2,1.9-4.2,4.3c0,2.4,1.9,4.3,4.3,4.3c2.3,0,4.2-1.9,4.3-4.2l1.6-1.6c0.1,0.5,0.2,1,0.2,1.5
			C41.6,32.7,38.8,35.5,35.4,35.5"/>
		<polyline class="st10" points="37.8,29.3 35.4,29.3 35.4,27 43.6,18.8 43.4,16.1 47.7,11.7 48,14.4 49,13.4 51.4,15.8 50.4,16.7 
			53,17 48.7,21.4 46,21.2 37.8,29.3 		"/>
	</g>
</g>
</svg>
