<?xml version="1.0" encoding="utf-8"?>
<!-- Generator: Adobe Illustrator 19.2.1, SVG Export Plug-In . SVG Version: 6.00 Build 0)  -->
<svg version="1.1" id="Layer_1" xmlns="http://www.w3.org/2000/svg" xmlns:xlink="http://www.w3.org/1999/xlink" x="0px" y="0px"
	 width="70px" height="70px" viewBox="0 0 70 70" style="enable-background:new 0 0 70 70;" xml:space="preserve">
<style type="text/css">
	.st0{fill:#FFFFFF;}
	.st1{fill:#D7D7D6;}
	.st2{fill:#56B46D;}
	.st3{opacity:0.6;}
	.st4{fill:#E54B3B;}
	.st5{fill:#F5BEAB;}
	.st6{fill:#687687;}
	.st7{fill:#C0C1C6;}
	.st8{fill:#AABE4B;}
	.st9{fill:#E47C20;}
	.st10{fill:#F6CCA6;}
	.st11{fill:#3B95D2;}
	.st12{fill:#FFFFFF;stroke:#D7D7D6;stroke-width:4.1497;stroke-miterlimit:10;}
	.st13{fill:#C25374;}
	.st14{fill:#E4493B;}
	.st15{fill:#45A9A5;}
	.st16{fill:#EFC303;}
	.st17{fill:#ABBF4A;}
	.st18{fill:#DFE3B7;}
	.st19{fill:#F0C300;}
	.st20{fill:#F9E6AB;}
	.st21{fill:#955BA1;}
	.st22{fill:#D1BCD9;}
	.st23{fill:#BED2EE;}
</style>
<g>
	<path class="st0" d="M23,67.5C11.7,67.5,2.5,58.3,2.5,47V23C2.5,11.7,11.7,2.5,23,2.5h24c11.3,0,20.5,9.2,20.5,20.5v24
		c0,11.3-9.2,20.5-20.5,20.5H23z"/>
	<path class="st1" d="M47,5c9.9,0,18,8.1,18,18v24c0,9.9-8.1,18-18,18H23c-9.9,0-18-8.1-18-18V23c0-9.9,8.1-18,18-18H47 M47,0H23
		C10.3,0,0,10.3,0,23v24c0,12.7,10.3,23,23,23h24c12.7,0,23-10.3,23-23V23C70,10.3,59.7,0,47,0L47,0z"/>
</g>
<g>
	<g>
		<g>
			<path class="st1" d="M9.9,49.6c-0.5,0.5-1.1,0.7-1.8,0.7s-1.3-0.2-1.8-0.7c-0.5-0.5-0.7-1.1-0.7-1.8c0-0.7,0.2-1.3,0.7-1.8
				s1.1-0.7,1.8-0.7s1.3,0.2,1.8,0.7s0.7,1.1,0.7,1.8C10.7,48.5,10.4,49.1,9.9,49.6z M9.3,46.6c-0.3-0.3-0.7-0.5-1.2-0.5
				s-0.9,0.2-1.2,0.5c-0.3,0.3-0.5,0.8-0.5,1.3s0.2,0.9,0.5,1.3c0.3,0.3,0.7,0.5,1.2,0.5s0.9-0.2,1.2-0.5c0.3-0.3,0.5-0.8,0.5-1.3
				S9.7,46.9,9.3,46.6z"/>
			<path class="st1" d="M14.1,47.3c-0.4,0-0.7,0.1-0.9,0.4s-0.3,0.6-0.3,1v1.6h-0.8v-3.7h0.8v0.7c0.1-0.2,0.3-0.4,0.5-0.6
				c0.2-0.1,0.4-0.2,0.7-0.2L14.1,47.3C14.1,47.3,14.1,47.3,14.1,47.3z"/>
			<path class="st1" d="M18.9,46.6v3.2c0,0.7-0.2,1.2-0.5,1.5s-0.8,0.5-1.4,0.5s-1.1-0.2-1.5-0.5l0.4-0.6c0.4,0.3,0.7,0.4,1.1,0.4
				c0.4,0,0.7-0.1,0.9-0.3s0.3-0.5,0.3-0.9v-0.5c-0.1,0.2-0.3,0.4-0.5,0.5c-0.2,0.1-0.5,0.2-0.7,0.2c-0.5,0-0.9-0.2-1.2-0.5
				s-0.5-0.8-0.5-1.3c0-0.5,0.2-0.9,0.5-1.3c0.3-0.3,0.7-0.5,1.2-0.5s0.9,0.2,1.2,0.6v-0.6H18.9z M16,48.3c0,0.3,0.1,0.6,0.3,0.8
				s0.4,0.3,0.8,0.3c0.3,0,0.6-0.1,0.8-0.3c0.2-0.2,0.3-0.5,0.3-0.8c0-0.3-0.1-0.6-0.3-0.8s-0.5-0.3-0.8-0.3s-0.6,0.1-0.8,0.3
				C16.1,47.7,16,48,16,48.3z"/>
			<path class="st1" d="M23.5,50.3h-0.7v-0.5c-0.3,0.4-0.7,0.6-1.2,0.6c-0.4,0-0.7-0.1-1-0.3s-0.4-0.5-0.4-0.9s0.1-0.6,0.4-0.8
				c0.3-0.2,0.6-0.3,1.1-0.3h1v-0.1c0-0.5-0.3-0.7-0.8-0.7c-0.3,0-0.7,0.1-1.1,0.4l-0.3-0.5c0.5-0.4,1-0.5,1.5-0.5
				c0.4,0,0.8,0.1,1.1,0.3s0.4,0.6,0.4,1V50.3z M22.8,48.9v-0.3h-0.9c-0.6,0-0.8,0.2-0.8,0.5c0,0.2,0.1,0.3,0.2,0.4
				c0.1,0.1,0.3,0.1,0.6,0.1c0.2,0,0.5-0.1,0.7-0.2C22.7,49.3,22.8,49.2,22.8,48.9z"/>
			<path class="st1" d="M25.9,48.3v2h-0.8v-3.7h0.8v0.7c0.1-0.2,0.3-0.4,0.5-0.5c0.2-0.1,0.5-0.2,0.7-0.2c0.4,0,0.8,0.1,1,0.4
				c0.3,0.3,0.4,0.6,0.4,1.1v2.3h-0.8v-2c0-0.7-0.3-1-0.9-1c-0.3,0-0.5,0.1-0.7,0.3C26,47.7,25.9,47.9,25.9,48.3z"/>
			<path class="st1" d="M30.3,45.8c-0.1-0.1-0.1-0.2-0.1-0.4s0-0.3,0.1-0.4c0.1-0.1,0.2-0.1,0.3-0.1s0.3,0,0.4,0.1s0.1,0.2,0.1,0.4
				s0,0.3-0.1,0.4c-0.1,0.1-0.2,0.1-0.4,0.1S30.4,45.9,30.3,45.8z M31,50.3h-0.8v-3.7H31V50.3z"/>
			<path class="st1" d="M32.5,47.3v-0.7h2.9v0.7l-2.1,2.3h2.2v0.7h-3.2v-0.8l2-2.3H32.5z"/>
			<path class="st1" d="M40,50.3h-0.7v-0.5c-0.3,0.4-0.7,0.6-1.2,0.6c-0.4,0-0.7-0.1-1-0.3s-0.4-0.5-0.4-0.9s0.1-0.6,0.4-0.8
				c0.3-0.2,0.6-0.3,1.1-0.3h1v-0.1c0-0.5-0.3-0.7-0.8-0.7c-0.3,0-0.7,0.1-1.1,0.4L37,47.1c0.5-0.4,1-0.5,1.5-0.5
				c0.4,0,0.8,0.1,1.1,0.3s0.4,0.6,0.4,1V50.3z M39.2,48.9v-0.3h-0.9c-0.6,0-0.8,0.2-0.8,0.5c0,0.2,0.1,0.3,0.2,0.4
				c0.1,0.1,0.3,0.1,0.6,0.1c0.2,0,0.5-0.1,0.7-0.2C39.1,49.3,39.2,49.2,39.2,48.9z"/>
			<path class="st1" d="M42.5,47.2v1.9c0,0.2,0,0.3,0.1,0.4c0.1,0.1,0.2,0.2,0.4,0.2s0.3-0.1,0.5-0.2l0.3,0.6
				c-0.3,0.2-0.6,0.4-0.9,0.4c-0.3,0-0.6-0.1-0.9-0.3c-0.2-0.2-0.4-0.5-0.4-0.9v-1.9h-0.5v-0.6h0.5v-1.2h0.8v1.2h1v0.6H42.5z"/>
			<path class="st1" d="M45.1,45.8c-0.1-0.1-0.1-0.2-0.1-0.4s0-0.3,0.1-0.4c0.1-0.1,0.2-0.1,0.3-0.1s0.3,0,0.4,0.1s0.1,0.2,0.1,0.4
				s0,0.3-0.1,0.4c-0.1,0.1-0.2,0.1-0.4,0.1S45.2,45.9,45.1,45.8z M45.8,50.3H45v-3.7h0.8V50.3z"/>
			<path class="st1" d="M50.6,49.8c-0.4,0.4-0.8,0.6-1.4,0.6c-0.6,0-1-0.2-1.4-0.6c-0.4-0.4-0.6-0.8-0.6-1.4s0.2-1,0.6-1.4
				c0.4-0.4,0.8-0.6,1.4-0.6c0.6,0,1,0.2,1.4,0.6c0.4,0.4,0.6,0.8,0.6,1.4S50.9,49.4,50.6,49.8z M48.3,49.3c0.2,0.2,0.5,0.3,0.8,0.3
				c0.3,0,0.6-0.1,0.8-0.3c0.2-0.2,0.3-0.5,0.3-0.9s-0.1-0.7-0.3-0.9c-0.2-0.2-0.5-0.3-0.8-0.3c-0.3,0-0.6,0.1-0.8,0.3
				c-0.2,0.2-0.3,0.5-0.3,0.9S48.1,49.1,48.3,49.3z"/>
			<path class="st1" d="M53.3,48.3v2h-0.8v-3.7h0.8v0.7c0.1-0.2,0.3-0.4,0.5-0.5c0.2-0.1,0.5-0.2,0.7-0.2c0.4,0,0.8,0.1,1,0.4
				c0.3,0.3,0.4,0.6,0.4,1.1v2.3h-0.8v-2c0-0.7-0.3-1-0.9-1c-0.3,0-0.5,0.1-0.7,0.3C53.4,47.7,53.3,47.9,53.3,48.3z"/>
			<path class="st1" d="M61.5,50.4c-0.5,0-0.8-0.1-1.2-0.4c-0.3-0.3-0.5-0.6-0.5-1c0-0.5,0.4-1,1.1-1.4c-0.2-0.2-0.3-0.4-0.4-0.5
				c-0.1-0.1-0.1-0.3-0.1-0.5c0-0.4,0.1-0.7,0.4-0.9c0.3-0.2,0.6-0.3,1-0.3s0.7,0.1,1,0.3s0.4,0.5,0.4,0.8c0,0.5-0.4,0.9-1.1,1.3
				c0.4,0.5,0.7,0.8,0.9,1c0.1-0.2,0.3-0.5,0.3-0.7l0.6,0.4c-0.1,0.3-0.3,0.6-0.4,0.8c0.2,0.2,0.4,0.4,0.7,0.7l-0.5,0.5L63,49.8
				C62.6,50.2,62.1,50.4,61.5,50.4z M60.9,49.5c0.2,0.1,0.4,0.2,0.7,0.2c0.3,0,0.6-0.1,0.9-0.4c-0.5-0.5-0.8-0.9-1.1-1.2
				c-0.5,0.3-0.8,0.6-0.8,0.9C60.6,49.2,60.7,49.4,60.9,49.5z M61.8,45.9c-0.2,0-0.3,0-0.4,0.1c-0.1,0.1-0.2,0.2-0.2,0.3
				s0,0.2,0.1,0.4s0.2,0.3,0.3,0.4c0.5-0.3,0.8-0.5,0.8-0.7c0-0.2-0.1-0.3-0.2-0.4S62,45.9,61.8,45.9z"/>
			<path class="st1" d="M23,58c0.3,0,0.5,0,0.7-0.1s0.4-0.2,0.6-0.5l0.5,0.5c-0.5,0.6-1.1,0.9-1.9,0.9s-1.4-0.2-1.8-0.7
				c-0.5-0.5-0.7-1.1-0.7-1.8s0.2-1.3,0.7-1.8s1.1-0.7,1.9-0.7c0.8,0,1.4,0.3,1.9,0.8l-0.5,0.6c-0.2-0.2-0.5-0.4-0.7-0.5
				c-0.2-0.1-0.5-0.1-0.7-0.1c-0.5,0-0.9,0.2-1.2,0.5c-0.3,0.3-0.5,0.7-0.5,1.2s0.2,0.9,0.5,1.2C22.2,57.8,22.6,58,23,58z"/>
			<path class="st1" d="M28.9,57v-2h0.8v3.7h-0.8V58c-0.1,0.2-0.3,0.4-0.5,0.5c-0.2,0.1-0.5,0.2-0.7,0.2c-0.4,0-0.8-0.1-1-0.4
				c-0.3-0.3-0.4-0.6-0.4-1.1V55h0.8v2c0,0.7,0.3,1,0.9,1c0.3,0,0.5-0.1,0.7-0.3S28.9,57.3,28.9,57z"/>
			<path class="st1" d="M32.1,58.7h-0.8v-5.2h0.8V58.7z"/>
			<path class="st1" d="M34.8,55.6v1.9c0,0.2,0,0.3,0.1,0.4c0.1,0.1,0.2,0.2,0.4,0.2s0.3-0.1,0.5-0.2l0.3,0.6
				c-0.3,0.2-0.6,0.4-0.9,0.4c-0.3,0-0.6-0.1-0.9-0.3c-0.2-0.2-0.4-0.5-0.4-0.9v-1.9h-0.5V55H34v-1.2h0.8V55h1v0.6H34.8z"/>
			<path class="st1" d="M39.9,57v-2h0.8v3.7h-0.8V58c-0.1,0.2-0.3,0.4-0.5,0.5c-0.2,0.1-0.5,0.2-0.7,0.2c-0.4,0-0.8-0.1-1-0.4
				c-0.3-0.3-0.4-0.6-0.4-1.1V55H38v2c0,0.7,0.3,1,0.9,1c0.3,0,0.5-0.1,0.7-0.3S39.9,57.3,39.9,57z"/>
			<path class="st1" d="M44.3,55.7c-0.4,0-0.7,0.1-0.9,0.4s-0.3,0.6-0.3,1v1.6h-0.8V55h0.8v0.7c0.1-0.2,0.3-0.4,0.5-0.6
				c0.2-0.1,0.4-0.2,0.7-0.2L44.3,55.7C44.3,55.7,44.3,55.7,44.3,55.7z"/>
			<path class="st1" d="M49.1,57.2h-2.9c0,0.3,0.1,0.5,0.4,0.7c0.2,0.2,0.5,0.2,0.8,0.2c0.5,0,0.8-0.1,1.1-0.4l0.4,0.5
				c-0.4,0.4-0.9,0.6-1.6,0.6c-0.5,0-1-0.2-1.3-0.5s-0.5-0.8-0.5-1.4c0-0.6,0.2-1.1,0.6-1.4c0.4-0.3,0.8-0.5,1.3-0.5
				s0.9,0.2,1.3,0.5s0.5,0.7,0.5,1.3V57.2z M46.1,56.6h2.1c0-0.3-0.1-0.6-0.3-0.7c-0.2-0.2-0.4-0.3-0.7-0.3s-0.5,0.1-0.8,0.3
				C46.3,56,46.1,56.3,46.1,56.6z"/>
		</g>
	</g>
	<g>
		<path class="st1" d="M30.9,17.6c-0.7,0-1.2-0.5-1.2-1.2c0-0.7,0.5-1.2,1.2-1.2c0.7,0,1.2,0.5,1.2,1.2
			C32.1,17.1,31.6,17.6,30.9,17.6"/>
		<path class="st1" d="M32,25.3c-0.7,0-1.2-0.5-1.2-1.2c0-0.7,0.5-1.2,1.2-1.2s1.2,0.5,1.2,1.2C33.2,24.8,32.7,25.3,32,25.3"/>
		<path class="st1" d="M38.1,25.5c-0.7,0-1.2-0.5-1.2-1.2c0-0.7,0.5-1.2,1.2-1.2c0.7,0,1.2,0.5,1.2,1.2C39.3,25,38.7,25.5,38.1,25.5
			"/>
		<path class="st1" d="M41.4,23.9c-0.7,0-1.2-0.5-1.2-1.2c0-0.7,0.5-1.2,1.2-1.2c0.7,0,1.2,0.5,1.2,1.2C42.6,23.4,42,23.9,41.4,23.9
			"/>
		<path class="st1" d="M44.7,22.4c-0.7,0-1.2-0.5-1.2-1.2c0-0.7,0.5-1.2,1.2-1.2c0.7,0,1.2,0.5,1.2,1.2
			C45.9,21.8,45.4,22.4,44.7,22.4"/>
		<path class="st1" d="M38.1,31.4c-0.7,0-1.2-0.5-1.2-1.2c0-0.7,0.5-1.2,1.2-1.2c0.7,0,1.2,0.5,1.2,1.2
			C39.3,30.9,38.7,31.4,38.1,31.4"/>
		<path class="st1" d="M41.4,29.8c-0.7,0-1.2-0.5-1.2-1.2c0-0.7,0.5-1.2,1.2-1.2c0.7,0,1.2,0.5,1.2,1.2C42.6,29.3,42,29.8,41.4,29.8
			"/>
		<path class="st1" d="M44.7,28.3c-0.7,0-1.2-0.5-1.2-1.2c0-0.7,0.5-1.2,1.2-1.2c0.7,0,1.2,0.5,1.2,1.2
			C45.9,27.7,45.4,28.3,44.7,28.3"/>
		<path class="st1" d="M32,30.9c-0.7,0-1.2-0.5-1.2-1.2c0-0.7,0.5-1.2,1.2-1.2s1.2,0.5,1.2,1.2C33.2,30.3,32.7,30.9,32,30.9"/>
		<path class="st1" d="M26.5,23.1c-0.7,0-1.2-0.5-1.2-1.2c0-0.7,0.5-1.2,1.2-1.2c0.7,0,1.2,0.5,1.2,1.2
			C27.7,22.6,27.1,23.1,26.5,23.1"/>
		<path class="st1" d="M26.5,28.7c-0.7,0-1.2-0.5-1.2-1.2c0-0.7,0.5-1.2,1.2-1.2c0.7,0,1.2,0.5,1.2,1.2
			C27.7,28.1,27.1,28.7,26.5,28.7"/>
		<path class="st1" d="M35.3,17.6c-0.7,0-1.2-0.5-1.2-1.2c0-0.7,0.5-1.2,1.2-1.2c0.7,0,1.2,0.5,1.2,1.2C36.5,17.1,36,17.6,35.3,17.6
			"/>
		<path class="st1" d="M39.7,17.6c-0.7,0-1.2-0.5-1.2-1.2c0-0.7,0.5-1.2,1.2-1.2c0.7,0,1.2,0.5,1.2,1.2
			C40.9,17.1,40.4,17.6,39.7,17.6"/>
		<path class="st1" d="M35,35.8l-12.7-5.8v-14l13-5.8l0.2,0.1l12.2,5.7v14L35,35.8 M34.4,34.4v0.9h1.1v-0.9l11-5v-12l0.8-0.4l-0.5-1
			l-1.1,0.5l-10.5-4.9l-11.1,4.9l-1.1-0.5l-0.5,1l0.8,0.4v12L34.4,34.4 M35.5,11.4L35.5,11.4 M35.3,10.9L35.3,10.9l0.2,0.5
			L35.3,10.9"/>
		<polyline class="st1" points="35.6,35.2 34.4,35.2 34.4,34.4 34.4,22.3 23.4,17.3 22.6,16.9 23.1,15.9 24.2,16.4 35,21.4 
			45.8,16.4 46.9,15.9 47.4,16.9 46.6,17.3 35.6,22.3 35.6,34.4 35.6,35.2 		"/>
	</g>
</g>
</svg>
