<?xml version="1.0" encoding="utf-8"?>
<!-- Generator: Adobe Illustrator 19.2.1, SVG Export Plug-In . SVG Version: 6.00 Build 0)  -->
<svg version="1.1" id="Layer_1" xmlns="http://www.w3.org/2000/svg" xmlns:xlink="http://www.w3.org/1999/xlink" x="0px" y="0px"
	 width="70px" height="70px" viewBox="0 0 70 70" style="enable-background:new 0 0 70 70;" xml:space="preserve">
<style type="text/css">
	.st0{fill:#FFFFFF;}
	.st1{fill:#D7D7D6;}
	.st2{fill:#56B46D;}
	.st3{opacity:0.6;}
	.st4{fill:#E54B3B;}
	.st5{fill:#F5BEAB;}
	.st6{fill:#687687;}
	.st7{fill:#C0C1C6;}
	.st8{fill:#AABE4B;}
	.st9{fill:#E47C20;}
	.st10{fill:#F6CCA6;}
	.st11{fill:#3B95D2;}
	.st12{fill:#FFFFFF;stroke:#D7D7D6;stroke-width:4.1497;stroke-miterlimit:10;}
	.st13{fill:#C25374;}
	.st14{fill:#E4493B;}
	.st15{fill:#45A9A5;}
	.st16{fill:#EFC303;}
	.st17{fill:#ABBF4A;}
	.st18{fill:#DFE3B7;}
	.st19{fill:#F0C300;}
	.st20{fill:#F9E6AB;}
	.st21{fill:#955BA1;}
	.st22{fill:#D1BCD9;}
	.st23{fill:#BED2EE;}
</style>
<g>
	<path class="st6" d="M47,70H23C10.3,70,0,59.7,0,47V23C0,10.3,10.3,0,23,0h24c12.7,0,23,10.3,23,23v24C70,59.7,59.7,70,47,70z"/>
	<g>
		<g>
			<path class="st0" d="M7,46.1c-0.2,0-0.4,0-0.6,0.1c-0.2,0.1-0.2,0.2-0.2,0.4c0,0.2,0.1,0.4,0.2,0.5c0.2,0.1,0.5,0.2,1,0.3
				c0.5,0.1,0.9,0.3,1.1,0.5s0.4,0.5,0.4,1c0,0.4-0.2,0.8-0.5,1c-0.3,0.3-0.7,0.4-1.3,0.4c-0.8,0-1.4-0.3-2-0.8L5.6,49
				c0.5,0.4,1,0.6,1.5,0.6c0.3,0,0.5-0.1,0.6-0.2C8,49.3,8,49.2,8,49S8,48.6,7.8,48.5c-0.1-0.1-0.4-0.2-0.8-0.3S6.4,48.1,6.2,48
				c-0.2-0.1-0.4-0.2-0.5-0.3c-0.3-0.2-0.4-0.6-0.4-1s0.2-0.8,0.5-1c0.3-0.2,0.7-0.4,1.2-0.4c0.3,0,0.6,0.1,0.9,0.2s0.6,0.2,0.8,0.4
				l-0.4,0.6c-0.1-0.1-0.3-0.2-0.6-0.3C7.5,46.1,7.2,46.1,7,46.1z"/>
			<path class="st0" d="M11.2,47.2v1.9c0,0.2,0,0.3,0.1,0.4c0.1,0.1,0.2,0.2,0.4,0.2s0.3-0.1,0.5-0.2l0.3,0.6
				c-0.3,0.2-0.6,0.4-0.9,0.4c-0.3,0-0.6-0.1-0.9-0.3c-0.2-0.2-0.4-0.5-0.4-0.9v-1.9H10v-0.6h0.5v-1.2h0.8v1.2h1v0.6H11.2z"/>
			<path class="st0" d="M16.7,50.3H16v-0.5c-0.3,0.4-0.7,0.6-1.2,0.6c-0.4,0-0.7-0.1-1-0.3s-0.4-0.5-0.4-0.9s0.1-0.6,0.4-0.8
				c0.3-0.2,0.6-0.3,1.1-0.3h1v-0.1c0-0.5-0.3-0.7-0.8-0.7c-0.3,0-0.7,0.1-1.1,0.4l-0.3-0.5c0.5-0.4,1-0.5,1.5-0.5
				c0.4,0,0.8,0.1,1.1,0.3s0.4,0.6,0.4,1V50.3z M15.9,48.9v-0.3h-0.9c-0.6,0-0.8,0.2-0.8,0.5c0,0.2,0.1,0.3,0.2,0.4
				c0.1,0.1,0.3,0.1,0.6,0.1c0.2,0,0.5-0.1,0.7-0.2C15.8,49.3,15.9,49.2,15.9,48.9z"/>
			<path class="st0" d="M19.1,50.3h-0.8v-5.2h0.8v3.1l1.5-1.6h1l-1.4,1.5l1.5,2.2h-1l-1.1-1.6l-0.6,0.6V50.3z"/>
			<path class="st0" d="M26.4,48.8h-2.9c0,0.3,0.1,0.5,0.4,0.7c0.2,0.2,0.5,0.2,0.8,0.2c0.5,0,0.8-0.1,1.1-0.4l0.4,0.5
				c-0.4,0.4-0.9,0.6-1.6,0.6c-0.5,0-1-0.2-1.3-0.5s-0.5-0.8-0.5-1.4c0-0.6,0.2-1.1,0.6-1.4c0.4-0.3,0.8-0.5,1.3-0.5
				s0.9,0.2,1.3,0.5s0.5,0.7,0.5,1.3V48.8z M23.5,48.2h2.1c0-0.3-0.1-0.6-0.3-0.7c-0.2-0.2-0.4-0.3-0.7-0.3s-0.5,0.1-0.8,0.3
				C23.6,47.6,23.5,47.9,23.5,48.2z"/>
			<path class="st0" d="M28.6,48.3v2h-0.8v-5.2h0.8v2.1c0.1-0.2,0.3-0.4,0.5-0.5c0.2-0.1,0.5-0.2,0.7-0.2c0.4,0,0.8,0.1,1,0.4
				c0.3,0.3,0.4,0.6,0.4,1.1v2.3h-0.8v-2c0-0.7-0.3-1-0.9-1c-0.3,0-0.5,0.1-0.7,0.3C28.7,47.7,28.6,47.9,28.6,48.3z"/>
			<path class="st0" d="M35.9,49.8c-0.4,0.4-0.8,0.6-1.4,0.6c-0.6,0-1-0.2-1.4-0.6c-0.4-0.4-0.6-0.8-0.6-1.4s0.2-1,0.6-1.4
				c0.4-0.4,0.8-0.6,1.4-0.6c0.6,0,1,0.2,1.4,0.6c0.4,0.4,0.6,0.8,0.6,1.4S36.3,49.4,35.9,49.8z M33.7,49.3c0.2,0.2,0.5,0.3,0.8,0.3
				c0.3,0,0.6-0.1,0.8-0.3c0.2-0.2,0.3-0.5,0.3-0.9s-0.1-0.7-0.3-0.9c-0.2-0.2-0.5-0.3-0.8-0.3c-0.3,0-0.6,0.1-0.8,0.3
				c-0.2,0.2-0.3,0.5-0.3,0.9S33.5,49.1,33.7,49.3z"/>
			<path class="st0" d="M38.7,50.3h-0.8v-5.2h0.8V50.3z"/>
			<path class="st0" d="M40.7,49.8c-0.4-0.4-0.5-0.8-0.5-1.4s0.2-1,0.5-1.4c0.4-0.3,0.8-0.5,1.3-0.5s0.9,0.2,1.2,0.6v-2h0.8v5.2
				h-0.8v-0.6c-0.3,0.4-0.7,0.6-1.3,0.6C41.4,50.4,41,50.2,40.7,49.8z M40.9,48.5c0,0.4,0.1,0.6,0.3,0.9c0.2,0.2,0.5,0.3,0.8,0.3
				c0.3,0,0.6-0.1,0.8-0.3c0.2-0.2,0.3-0.5,0.3-0.9c0-0.4-0.1-0.7-0.3-0.9c-0.2-0.2-0.5-0.4-0.8-0.4s-0.6,0.1-0.8,0.4
				C41,47.8,40.9,48.1,40.9,48.5z"/>
			<path class="st0" d="M49.1,48.8h-2.9c0,0.3,0.1,0.5,0.4,0.7c0.2,0.2,0.5,0.2,0.8,0.2c0.5,0,0.8-0.1,1.1-0.4l0.4,0.5
				c-0.4,0.4-0.9,0.6-1.6,0.6c-0.5,0-1-0.2-1.3-0.5s-0.5-0.8-0.5-1.4c0-0.6,0.2-1.1,0.6-1.4c0.4-0.3,0.8-0.5,1.3-0.5
				s0.9,0.2,1.3,0.5s0.5,0.7,0.5,1.3V48.8z M46.1,48.2h2.1c0-0.3-0.1-0.6-0.3-0.7c-0.2-0.2-0.4-0.3-0.7-0.3s-0.5,0.1-0.8,0.3
				C46.3,47.6,46.1,47.9,46.1,48.2z"/>
			<path class="st0" d="M52.4,47.3c-0.4,0-0.7,0.1-0.9,0.4s-0.3,0.6-0.3,1v1.6h-0.8v-3.7h0.8v0.7c0.1-0.2,0.3-0.4,0.5-0.6
				c0.2-0.1,0.4-0.2,0.7-0.2L52.4,47.3C52.4,47.3,52.4,47.3,52.4,47.3z"/>
			<path class="st0" d="M56.4,49.2c0,0.4-0.1,0.6-0.4,0.9c-0.3,0.2-0.6,0.3-1,0.3c-0.3,0-0.6,0-0.8-0.1c-0.3-0.1-0.5-0.2-0.8-0.4
				l0.4-0.6c0.4,0.3,0.9,0.5,1.3,0.5c0.2,0,0.3,0,0.4-0.1c0.1-0.1,0.2-0.2,0.2-0.3c0-0.2-0.2-0.4-0.7-0.5c0,0-0.1,0-0.1,0
				c-0.8-0.2-1.2-0.6-1.2-1.1c0-0.3,0.1-0.6,0.4-0.8c0.3-0.2,0.6-0.3,1-0.3c0.4,0,0.8,0.1,1.2,0.4L56,47.5c-0.3-0.2-0.6-0.3-1-0.3
				c-0.2,0-0.3,0-0.5,0.1c-0.1,0.1-0.2,0.2-0.2,0.3c0,0.1,0.1,0.2,0.2,0.3c0.1,0,0.2,0.1,0.4,0.1c0.2,0,0.3,0.1,0.4,0.1
				c0.1,0,0.2,0.1,0.3,0.1c0.1,0,0.2,0.1,0.4,0.2C56.3,48.6,56.4,48.8,56.4,49.2z"/>
			<path class="st0" d="M61.7,50.4c-0.5,0-0.8-0.1-1.2-0.4c-0.3-0.3-0.5-0.6-0.5-1c0-0.5,0.4-1,1.1-1.4c-0.2-0.2-0.3-0.4-0.4-0.5
				c-0.1-0.1-0.1-0.3-0.1-0.5c0-0.4,0.1-0.7,0.4-0.9c0.3-0.2,0.6-0.3,1-0.3s0.7,0.1,1,0.3s0.4,0.5,0.4,0.8c0,0.5-0.4,0.9-1.1,1.3
				c0.4,0.5,0.7,0.8,0.9,1c0.1-0.2,0.3-0.5,0.3-0.7l0.6,0.4c-0.1,0.3-0.3,0.6-0.4,0.8c0.2,0.2,0.4,0.4,0.7,0.7l-0.5,0.5l-0.6-0.6
				C62.8,50.2,62.3,50.4,61.7,50.4z M61.1,49.5c0.2,0.1,0.4,0.2,0.7,0.2c0.3,0,0.6-0.1,0.9-0.4c-0.5-0.5-0.8-0.9-1.1-1.2
				c-0.5,0.3-0.8,0.6-0.8,0.9C60.8,49.2,60.9,49.4,61.1,49.5z M62,45.9c-0.2,0-0.3,0-0.4,0.1c-0.1,0.1-0.2,0.2-0.2,0.3
				s0,0.2,0.1,0.4s0.2,0.3,0.3,0.4c0.5-0.3,0.8-0.5,0.8-0.7c0-0.2-0.1-0.3-0.2-0.4S62.2,45.9,62,45.9z"/>
			<path class="st0" d="M23,58.7h-0.8v-4.9h1.3l1.5,3.1l1.5-3.1h1.3v4.9h-0.8v-3.8l-1.7,3.4h-0.5L23,54.9V58.7z"/>
			<path class="st0" d="M32.6,58.2c-0.4,0.4-0.8,0.6-1.4,0.6c-0.6,0-1-0.2-1.4-0.6c-0.4-0.4-0.6-0.8-0.6-1.4s0.2-1,0.6-1.4
				c0.4-0.4,0.8-0.6,1.4-0.6c0.6,0,1,0.2,1.4,0.6c0.4,0.4,0.6,0.8,0.6,1.4S33,57.8,32.6,58.2z M30.4,57.7c0.2,0.2,0.5,0.3,0.8,0.3
				c0.3,0,0.6-0.1,0.8-0.3c0.2-0.2,0.3-0.5,0.3-0.9S32.3,56.2,32,56c-0.2-0.2-0.5-0.3-0.8-0.3c-0.3,0-0.6,0.1-0.8,0.3
				c-0.2,0.2-0.3,0.5-0.3,0.9S30.1,57.5,30.4,57.7z"/>
			<path class="st0" d="M35.4,56.7v2h-0.8V55h0.8v0.7c0.1-0.2,0.3-0.4,0.5-0.5c0.2-0.1,0.5-0.2,0.7-0.2c0.4,0,0.8,0.1,1,0.4
				c0.3,0.3,0.4,0.6,0.4,1.1v2.3h-0.8v-2c0-0.7-0.3-1-0.9-1c-0.3,0-0.5,0.1-0.7,0.3C35.5,56.1,35.4,56.3,35.4,56.7z"/>
			<path class="st0" d="M43.1,57.2h-2.9c0,0.3,0.1,0.5,0.4,0.7c0.2,0.2,0.5,0.2,0.8,0.2c0.5,0,0.8-0.1,1.1-0.4l0.4,0.5
				c-0.4,0.4-0.9,0.6-1.6,0.6c-0.5,0-1-0.2-1.3-0.5s-0.5-0.8-0.5-1.4c0-0.6,0.2-1.1,0.6-1.4c0.4-0.3,0.8-0.5,1.3-0.5
				s0.9,0.2,1.3,0.5s0.5,0.7,0.5,1.3V57.2z M40.2,56.6h2.1c0-0.3-0.1-0.6-0.3-0.7c-0.2-0.2-0.4-0.3-0.7-0.3s-0.5,0.1-0.8,0.3
				C40.3,56,40.2,56.3,40.2,56.6z"/>
			<path class="st0" d="M44.9,60.2c-0.3,0-0.6-0.1-0.9-0.4l0.4-0.6c0.2,0.2,0.3,0.2,0.5,0.2c0.2,0,0.3-0.1,0.4-0.2
				c0.1-0.1,0.2-0.3,0.2-0.4c0-0.1-0.5-1.3-1.5-3.8h0.8l1.1,2.7L47,55h0.8L46,59.4c-0.1,0.2-0.3,0.4-0.5,0.6
				C45.4,60.1,45.1,60.2,44.9,60.2z"/>
		</g>
		<path class="st7" d="M47.9,37.8H22.1c-0.5,0-0.9-0.1-1.3-0.4c-0.3-0.2-0.7-0.6-0.7-1.2v-16c0-0.5,0.3-0.9,0.7-1.2
			c0.4-0.2,0.8-0.4,1.3-0.4h5.5v-4.9h14.9v4.9h5.5c0.5,0,0.9,0.1,1.3,0.4c0.3,0.2,0.7,0.6,0.7,1.2v16h-0.7h-0.6h-0.1h0.7h0.7
			c0,0.5-0.3,0.9-0.7,1.2C48.8,37.7,48.4,37.8,47.9,37.8 M22.1,36.5h25.8c0,0,0,0,0,0c0.2,0,0.4-0.1,0.5-0.1l0.1-0.1v-8.1H21.6v8.1
			l0.1,0.1C21.8,36.4,21.9,36.5,22.1,36.5C22.1,36.5,22.1,36.5,22.1,36.5 M21.5,36.3L21.5,36.3 M21.6,26.8h26.9v-6.5l-0.1-0.1
			c-0.1,0-0.2-0.1-0.4-0.1c0,0,0,0,0,0h-5.5v0h-1.4v0H28.9v0h-1.4v0h-5.5c0,0,0,0,0,0c-0.2,0-0.4,0.1-0.5,0.1l-0.1,0.1V26.8
			 M28.9,18.7h12.1v-3.5H28.9V18.7"/>
	</g>
</g>
</svg>
