<?xml version="1.0" encoding="utf-8"?>
<!-- Generator: Adobe Illustrator 19.2.1, SVG Export Plug-In . SVG Version: 6.00 Build 0)  -->
<svg version="1.1" id="Layer_1" xmlns="http://www.w3.org/2000/svg" xmlns:xlink="http://www.w3.org/1999/xlink" x="0px" y="0px"
	 width="70px" height="70px" viewBox="0 0 70 70" style="enable-background:new 0 0 70 70;" xml:space="preserve">
<style type="text/css">
	.st0{fill:#FFFFFF;}
	.st1{fill:#D7D7D6;}
	.st2{fill:#56B46D;}
	.st3{opacity:0.6;}
	.st4{fill:#E54B3B;}
	.st5{fill:#F5BEAB;}
	.st6{fill:#687687;}
	.st7{fill:#C0C1C6;}
	.st8{fill:#AABE4B;}
	.st9{fill:#E47C20;}
	.st10{fill:#F6CCA6;}
	.st11{fill:#3B95D2;}
	.st12{fill:#FFFFFF;stroke:#D7D7D6;stroke-width:4.1497;stroke-miterlimit:10;}
	.st13{fill:#C25374;}
	.st14{fill:#E4493B;}
	.st15{fill:#45A9A5;}
	.st16{fill:#EFC303;}
	.st17{fill:#ABBF4A;}
	.st18{fill:#DFE3B7;}
	.st19{fill:#F0C300;}
	.st20{fill:#F9E6AB;}
	.st21{fill:#955BA1;}
	.st22{fill:#D1BCD9;}
	.st23{fill:#BED2EE;}
</style>
<path class="st11" d="M47,70H23C10.3,70,0,59.7,0,47V23C0,10.3,10.3,0,23,0h24c12.7,0,23,10.3,23,23v24C70,59.7,59.7,70,47,70z"/>
<g>
	<g>
		<path class="st0" d="M20.1,50.1c-0.2,0-0.4,0-0.6,0.1c-0.2,0.1-0.2,0.2-0.2,0.4c0,0.2,0.1,0.4,0.2,0.5c0.2,0.1,0.5,0.2,1,0.3
			c0.5,0.1,0.9,0.3,1.1,0.5s0.4,0.5,0.4,1c0,0.4-0.2,0.8-0.5,1c-0.3,0.3-0.7,0.4-1.3,0.4c-0.8,0-1.4-0.3-2-0.8l0.5-0.6
			c0.5,0.4,1,0.6,1.5,0.6c0.3,0,0.5-0.1,0.6-0.2c0.2-0.1,0.2-0.3,0.2-0.5s-0.1-0.3-0.2-0.4c-0.1-0.1-0.4-0.2-0.8-0.3
			s-0.6-0.2-0.8-0.2c-0.2-0.1-0.4-0.2-0.5-0.3c-0.3-0.2-0.4-0.6-0.4-1s0.2-0.8,0.5-1c0.3-0.2,0.7-0.4,1.2-0.4c0.3,0,0.6,0.1,0.9,0.2
			s0.6,0.2,0.8,0.4l-0.4,0.6c-0.1-0.1-0.3-0.2-0.6-0.3C20.5,50.1,20.3,50.1,20.1,50.1z"/>
		<path class="st0" d="M24.3,51.2v1.9c0,0.2,0,0.3,0.1,0.4c0.1,0.1,0.2,0.2,0.4,0.2s0.3-0.1,0.5-0.2l0.3,0.6
			c-0.3,0.2-0.6,0.4-0.9,0.4c-0.3,0-0.6-0.1-0.9-0.3c-0.2-0.2-0.4-0.5-0.4-0.9v-1.9H23v-0.6h0.5v-1.2h0.8v1.2h1v0.6H24.3z"/>
		<path class="st0" d="M28.7,51.3c-0.4,0-0.7,0.1-0.9,0.4s-0.3,0.6-0.3,1v1.6h-0.8v-3.7h0.8v0.7c0.1-0.2,0.3-0.4,0.5-0.6
			c0.2-0.1,0.4-0.2,0.7-0.2L28.7,51.3C28.8,51.3,28.7,51.3,28.7,51.3z"/>
		<path class="st0" d="M33.1,54.3h-0.7v-0.5c-0.3,0.4-0.7,0.6-1.2,0.6c-0.4,0-0.7-0.1-1-0.3s-0.4-0.5-0.4-0.9s0.1-0.6,0.4-0.8
			c0.3-0.2,0.6-0.3,1.1-0.3h1v-0.1c0-0.5-0.3-0.7-0.8-0.7c-0.3,0-0.7,0.1-1.1,0.4L30,51.1c0.5-0.4,1-0.5,1.5-0.5
			c0.4,0,0.8,0.1,1.1,0.3s0.4,0.6,0.4,1V54.3z M32.3,52.9v-0.3h-0.9c-0.6,0-0.8,0.2-0.8,0.5c0,0.2,0.1,0.3,0.2,0.4
			c0.1,0.1,0.3,0.1,0.6,0.1c0.2,0,0.5-0.1,0.7-0.2C32.2,53.3,32.3,53.2,32.3,52.9z"/>
		<path class="st0" d="M35.6,51.2v1.9c0,0.2,0,0.3,0.1,0.4c0.1,0.1,0.2,0.2,0.4,0.2s0.3-0.1,0.5-0.2l0.3,0.6
			c-0.3,0.2-0.6,0.4-0.9,0.4c-0.3,0-0.6-0.1-0.9-0.3c-0.2-0.2-0.4-0.5-0.4-0.9v-1.9h-0.5v-0.6h0.5v-1.2h0.8v1.2h1v0.6H35.6z"/>
		<path class="st0" d="M41.5,52.8h-2.9c0,0.3,0.1,0.5,0.4,0.7c0.2,0.2,0.5,0.2,0.8,0.2c0.5,0,0.8-0.1,1.1-0.4l0.4,0.5
			c-0.4,0.4-0.9,0.6-1.6,0.6c-0.5,0-1-0.2-1.3-0.5s-0.5-0.8-0.5-1.4c0-0.6,0.2-1.1,0.6-1.4c0.4-0.3,0.8-0.5,1.3-0.5s0.9,0.2,1.3,0.5
			s0.5,0.7,0.5,1.3V52.8z M38.6,52.2h2.1c0-0.3-0.1-0.6-0.3-0.7c-0.2-0.2-0.4-0.3-0.7-0.3s-0.5,0.1-0.8,0.3
			C38.7,51.6,38.6,51.9,38.6,52.2z"/>
		<path class="st0" d="M46.4,50.6v3.2c0,0.7-0.2,1.2-0.5,1.5s-0.8,0.5-1.4,0.5s-1.1-0.2-1.5-0.5l0.4-0.6c0.4,0.3,0.7,0.4,1.1,0.4
			c0.4,0,0.7-0.1,0.9-0.3s0.3-0.5,0.3-0.9v-0.5c-0.1,0.2-0.3,0.4-0.5,0.5c-0.2,0.1-0.5,0.2-0.7,0.2c-0.5,0-0.9-0.2-1.2-0.5
			s-0.5-0.8-0.5-1.3c0-0.5,0.2-0.9,0.5-1.3c0.3-0.3,0.7-0.5,1.2-0.5s0.9,0.2,1.2,0.6v-0.6H46.4z M43.5,52.3c0,0.3,0.1,0.6,0.3,0.8
			s0.4,0.3,0.8,0.3c0.3,0,0.6-0.1,0.8-0.3c0.2-0.2,0.3-0.5,0.3-0.8c0-0.3-0.1-0.6-0.3-0.8s-0.5-0.3-0.8-0.3s-0.6,0.1-0.8,0.3
			C43.6,51.7,43.5,52,43.5,52.3z"/>
		<path class="st0" d="M48.5,55.8c-0.3,0-0.6-0.1-0.9-0.4l0.4-0.6c0.2,0.2,0.3,0.2,0.5,0.2c0.2,0,0.3-0.1,0.4-0.2
			c0.1-0.1,0.2-0.3,0.2-0.4c0-0.1-0.5-1.3-1.5-3.8h0.8l1.1,2.7l1.1-2.7h0.8L49.6,55c-0.1,0.2-0.3,0.4-0.5,0.6
			C49,55.7,48.7,55.8,48.5,55.8z"/>
	</g>
</g>
<path class="st23" d="M43,42.8H30.3v-3.7l0.3-0.2c0.8-0.4,1.4-1,1.8-1.7c0.4-0.7,0.6-1.5,0.6-2.3l0,0l0-0.2c0-0.7-0.1-1.3-0.5-1.9
	c-0.4-0.6-0.9-1.3-1.8-2.1l-0.4-0.3l4.1-5.8c-0.1,0-0.2,0-0.3,0c-0.7,0-1.2,0.1-1.5,0.3c-0.4,0.2-0.7,0.6-1.1,1.2l-0.4,0.6L28.2,24
	l0.7-0.3c0-0.1,0.1-0.3,0.1-0.4c0-0.1,0-0.2,0-0.2l-0.2-0.4l0.3-0.3c1.6-1.6,3.2-3.6,4.6-5.2c-0.1-0.2-0.2-0.3-0.3-0.5
	c-0.1-0.4-0.2-0.7-0.2-1c0-0.3,0-0.5,0-0.7v0c0-0.1,0.1-0.4,0.3-0.5c0.2-0.1,0.3-0.1,0.4-0.1c0.1,0,0.2,0,0.3,0
	c0.2,0.1,0.5,0.2,0.7,0.4c0.4,0.2,1,0.6,1.4,0.8c0.5,0.3,1,0.5,1.2,0.6c2.2,0.8,3.6,2.4,4.5,3.9c0.5,0.8,0.8,1.6,1,2.3
	c0.2,0.7,0.3,1.3,0.3,1.8c0,0.3,0,0.6,0,0.9c0,1.2-0.1,2.6-1.3,4.2l1.1,1.4l-0.6,0.3c-0.6,0.4-1.2,0.8-1.6,1.4
	c-0.4,0.6-0.7,1.4-0.7,2.5c0,0.4,0.1,1.2,0.5,2.1c0.4,0.9,1,1.7,2,2.1l0.3,0.2V42.8 M31.4,39.8v1.8h10.5v-1.8
	c-1.1-0.6-1.8-1.6-2.2-2.6c-0.4-1-0.6-2-0.6-2.5c0-1.3,0.3-2.3,0.9-3.1c0.4-0.6,0.9-1,1.4-1.4l-0.9-1.1l0.3-0.4
	c1.2-1.6,1.3-2.6,1.3-3.8c0-0.3,0-0.6,0-0.9c0-0.3-0.1-0.8-0.3-1.4c-0.3-0.9-0.8-2-1.6-3c-0.8-1-1.8-1.9-3.2-2.4
	c-0.3-0.1-0.6-0.3-0.9-0.5c-0.5-0.3-1.1-0.6-1.6-0.9c-0.1,0-0.2-0.1-0.2-0.1c0,0.2,0,0.3,0.1,0.4c0.1,0.2,0.1,0.3,0.3,0.4l0.5,0.4
	l-0.4,0.5c-1.4,1.6-3,3.6-4.7,5.4c0,0.1,0,0.3,0,0.4c0,0.3,0,0.5-0.1,0.7c0,0,0,0,0,0l1,0.9c0.3-0.4,0.7-0.8,1.1-1
	c0.6-0.3,1.3-0.4,2.1-0.4c0,0,0,0,0,0c0.4,0,0.9,0,1.4,0.1l1,0.1l-4.7,6.6c0.7,0.7,1.3,1.3,1.7,2c0.4,0.8,0.7,1.6,0.6,2.5l0,0.2v0
	c0,0.9-0.3,1.9-0.7,2.8C33,38.6,32.3,39.3,31.4,39.8 M29,23.8l0.1,0.3L29,23.8"/>
</svg>
