<?xml version="1.0" encoding="utf-8"?>
<!-- Generator: Adobe Illustrator 18.1.1, SVG Export Plug-In . SVG Version: 6.00 Build 0)  -->
<svg version="1.1" id="Layer_1" xmlns="http://www.w3.org/2000/svg" xmlns:xlink="http://www.w3.org/1999/xlink" x="0px" y="0px"
	 width="95.4px" height="120px" viewBox="0 0 95.4 120" enable-background="new 0 0 95.4 120" xml:space="preserve">
<g>
	<g>
		<g>
			<g>
				<path fill="#45A9A5" d="M47.7,0c-19.4,0-35,15.7-35,35c0,11.9,5.9,22.4,15,28.7C11.7,69,0,84.9,0,103.8V120h95.4v-16.2
					c0-18.9-11.7-34.9-27.7-40.1c9.1-6.3,15-16.8,15-28.7C82.7,15.7,67.1,0,47.7,0 M47.7,61.8c-14.8,0-26.8-12-26.8-26.8
					c0-14.8,12-26.8,26.8-26.8c14.8,0,26.8,12,26.8,26.8C74.5,49.8,62.5,61.8,47.7,61.8 M8.6,111.4v-7.6c0-18.4,13.6-33.3,30.3-33.3
					h17.7c16.7,0,30.3,14.9,30.3,33.3v7.6H8.6z"/>
			</g>
			<g>
				<path fill="#45A9A5" d="M47.7,0c-19.4,0-35,15.7-35,35c0,11.9,5.9,22.4,15,28.7C11.7,69,0,84.9,0,103.8V120h95.4v-16.2
					c0-18.9-11.7-34.9-27.7-40.1c9.1-6.3,15-16.8,15-28.7C82.7,15.7,67.1,0,47.7,0 M47.7,61.8c-14.8,0-26.8-12-26.8-26.8
					c0-14.8,12-26.8,26.8-26.8c14.8,0,26.8,12,26.8,26.8C74.5,49.8,62.5,61.8,47.7,61.8 M8.6,111.4v-7.6c0-18.4,13.6-33.3,30.3-33.3
					h17.7c16.7,0,30.3,14.9,30.3,33.3v7.6H8.6z"/>
			</g>
		</g>
	</g>
</g>
</svg>
