<?xml version="1.0" encoding="utf-8"?>
<!-- Generator: Adobe Illustrator 18.1.1, SVG Export Plug-In . SVG Version: 6.00 Build 0)  -->
<svg version="1.1" id="Layer_1" xmlns="http://www.w3.org/2000/svg" xmlns:xlink="http://www.w3.org/1999/xlink" x="0px" y="0px"
	 width="50.5px" height="50.6px" viewBox="-614 375.4 50.5 50.6" enable-background="new -614 375.4 50.5 50.6"
	 xml:space="preserve">
<path fill="#E37C20" d="M-563.5,426H-614v-29.1c0-11.9,9.6-21.5,21.5-21.5h29V426z"/>
<g>
	<path fill="#FFFFFF" d="M-599.8,410.3h1v4.5h-1V410.3z"/>
	<path fill="#FFFFFF" d="M-594.6,413v1.9h-1v-1.9c0-0.3,0-0.5-0.1-0.6c-0.1-0.1-0.2-0.2-0.4-0.2c-0.2,0-0.4,0.1-0.5,0.2
		c-0.1,0.1-0.2,0.3-0.2,0.6v1.9h-1v-3.5h1v0.4c0.3-0.3,0.6-0.5,0.9-0.5c0.2,0,0.4,0.1,0.6,0.2c0.2,0.1,0.3,0.3,0.4,0.5
		c0.1-0.2,0.3-0.4,0.5-0.5c0.2-0.1,0.5-0.2,0.7-0.2c0.4,0,0.7,0.1,1,0.4c0.2,0.2,0.4,0.6,0.4,1.1v2.1h-1v-1.9c0-0.5-0.2-0.8-0.6-0.8
		c-0.2,0-0.4,0.1-0.5,0.2C-594.5,412.5-594.6,412.7-594.6,413z"/>
	<path fill="#FFFFFF" d="M-589.4,411.3c0.4,0,0.8,0.2,1.1,0.5c0.3,0.3,0.5,0.8,0.5,1.3s-0.2,0.9-0.5,1.3c-0.3,0.3-0.7,0.5-1.1,0.5
		c-0.4,0-0.8-0.2-1-0.5v1.7h-1v-4.7h1v0.4C-590.2,411.5-589.8,411.3-589.4,411.3z M-590.5,413.1c0,0.3,0.1,0.5,0.2,0.7
		c0.2,0.2,0.3,0.3,0.6,0.3s0.4-0.1,0.6-0.3c0.2-0.2,0.3-0.4,0.3-0.7s-0.1-0.5-0.2-0.7c-0.2-0.2-0.4-0.3-0.6-0.3
		c-0.2,0-0.4,0.1-0.6,0.3C-590.4,412.6-590.5,412.8-590.5,413.1z"/>
	<path fill="#FFFFFF" d="M-584.2,414.8h-0.9v-0.4c-0.2,0.3-0.6,0.5-0.9,0.5c-0.4,0-0.7-0.1-0.9-0.3c-0.2-0.2-0.4-0.5-0.4-0.9
		s0.1-0.6,0.4-0.8c0.3-0.2,0.6-0.3,1.1-0.3h0.7v0c0-0.4-0.2-0.6-0.6-0.6c-0.2,0-0.3,0-0.5,0.1c-0.2,0.1-0.3,0.1-0.5,0.2l-0.4-0.6
		c0.5-0.3,1-0.5,1.6-0.5c0.4,0,0.8,0.1,1,0.3s0.4,0.5,0.4,1V414.8z M-585.2,413.5v-0.2h-0.6c-0.4,0-0.6,0.1-0.6,0.4
		c0,0.1,0,0.2,0.1,0.3c0.1,0.1,0.2,0.1,0.4,0.1s0.3-0.1,0.5-0.2C-585.2,413.8-585.2,413.7-585.2,413.5z"/>
	<path fill="#FFFFFF" d="M-581.6,414c0.3,0,0.6-0.2,0.9-0.5l0.6,0.6c-0.4,0.5-0.9,0.7-1.5,0.7c-0.5,0-1-0.2-1.3-0.5
		c-0.4-0.3-0.5-0.8-0.5-1.3c0-0.5,0.2-1,0.5-1.3s0.8-0.5,1.3-0.5c0.2,0,0.5,0.1,0.8,0.2c0.3,0.1,0.5,0.3,0.7,0.5l-0.5,0.7
		c-0.1-0.1-0.2-0.2-0.4-0.3s-0.3-0.1-0.5-0.1c-0.3,0-0.5,0.1-0.7,0.2c-0.2,0.2-0.3,0.4-0.3,0.7s0.1,0.5,0.3,0.7
		C-582.1,413.9-581.9,414-581.6,414z"/>
	<path fill="#FFFFFF" d="M-578.4,412.1v1.6c0,0.1,0,0.2,0.1,0.3c0.1,0.1,0.2,0.1,0.2,0.1c0.2,0,0.3-0.1,0.5-0.2l0.4,0.7
		c-0.3,0.3-0.6,0.4-1,0.4c-0.3,0-0.6-0.1-0.8-0.3c-0.2-0.2-0.3-0.5-0.3-0.9v-1.6h-0.4v-0.7h0.4v-1h1v1h0.8v0.7H-578.4z"/>
</g>
<path opacity="0.6" fill="#FFFFFF" d="M-585.1,397.6c0.4,0.9,0.7,1.9,0.7,3c0,3.7-3,6.8-6.8,6.8c-3.7,0-6.8-3-6.8-6.8
	c0-3.7,3-6.8,6.8-6.8c1.1,0,2.1,0.3,3,0.7l0.9-0.9c-1.1-0.6-2.5-1-3.9-1c-4.4,0-7.9,3.6-7.9,7.9s3.6,7.9,7.9,7.9s7.9-3.6,7.9-7.9
	c0-1.4-0.4-2.7-1-3.8L-585.1,397.6z"/>
<path opacity="0.6" fill="#FFFFFF" d="M-588.1,400.7c0,1.6-1.4,3-3,3c-1.7,0-3-1.4-3-3c0-1.7,1.3-3,3-3l1.1-1.1
	c-0.4-0.1-0.7-0.2-1.1-0.2c-2.4,0-4.3,1.9-4.3,4.3c0,2.4,1.9,4.3,4.3,4.3s4.3-1.9,4.3-4.3c0-0.4-0.1-0.7-0.2-1.1L-588.1,400.7z"/>
<polygon opacity="0.6" fill="#FFFFFF" points="-578.7,391.9 -580.6,391.7 -579.9,391 -581.5,389.4 -582.2,390.1 -582.4,388.2 
	-585.5,391.2 -585.4,393.2 -591.1,398.9 -591.1,400.6 -589.5,400.6 -583.7,394.8 -581.8,395 "/>
</svg>
