<?xml version="1.0" encoding="utf-8"?>
<!-- Generator: Adobe Illustrator 18.1.1, SVG Export Plug-In . SVG Version: 6.00 Build 0)  -->
<svg version="1.1" id="Layer_1" xmlns="http://www.w3.org/2000/svg" xmlns:xlink="http://www.w3.org/1999/xlink" x="0px" y="0px"
	 width="50.5px" height="50.6px" viewBox="-614 375.4 50.5 50.6" enable-background="new -614 375.4 50.5 50.6"
	 xml:space="preserve">
<path fill="#AABD4B" d="M-614,426h50.5v-29.1c0-11.9-9.6-21.5-21.5-21.5h-29V426z"/>
<g enable-background="new    ">
	<path fill="#FFFFFF" d="M-603.5,408.6c0.3,0.3,0.5,0.7,0.5,1.3s-0.2,1-0.5,1.3c-0.3,0.3-0.9,0.4-1.5,0.4h-0.6v1.3h-1v-4.7h1.7
		C-604.4,408.1-603.9,408.3-603.5,408.6z M-604.3,410.4c0.1-0.1,0.2-0.3,0.2-0.6s-0.1-0.5-0.2-0.6c-0.2-0.1-0.4-0.2-0.8-0.2h-0.6
		v1.6h0.7C-604.7,410.6-604.4,410.5-604.3,410.4z"/>
	<path fill="#FFFFFF" d="M-600.4,410.1c-0.3,0-0.5,0.1-0.7,0.3c-0.1,0.2-0.2,0.5-0.2,0.8v1.6h-1v-3.6h1v0.5c0.1-0.1,0.3-0.3,0.5-0.4
		c0.2-0.1,0.4-0.2,0.6-0.2l0,0.9H-600.4z"/>
	<path fill="#FFFFFF" d="M-596,411c0,0.5-0.2,1-0.5,1.3c-0.4,0.4-0.8,0.5-1.4,0.5c-0.5,0-1-0.2-1.4-0.5c-0.4-0.4-0.5-0.8-0.5-1.3
		s0.2-1,0.5-1.3c0.4-0.4,0.8-0.5,1.4-0.5c0.5,0,1,0.2,1.4,0.5C-596.2,410.1-596,410.5-596,411z M-598.8,411c0,0.3,0.1,0.5,0.3,0.7
		c0.2,0.2,0.4,0.3,0.6,0.3s0.5-0.1,0.6-0.3c0.2-0.2,0.3-0.4,0.3-0.7c0-0.3-0.1-0.5-0.3-0.7s-0.4-0.3-0.6-0.3s-0.5,0.1-0.6,0.3
		S-598.8,410.7-598.8,411z"/>
	<path fill="#FFFFFF" d="M-593.8,412.9c-0.4,0-0.8-0.2-1.1-0.5c-0.3-0.4-0.5-0.8-0.5-1.3s0.2-1,0.5-1.3c0.3-0.3,0.7-0.5,1.1-0.5
		s0.8,0.2,1.1,0.5v-1.8h1v5h-1v-0.5C-593.1,412.7-593.4,412.9-593.8,412.9z M-594.5,411c0,0.3,0.1,0.5,0.3,0.7
		c0.2,0.2,0.4,0.3,0.6,0.3c0.2,0,0.4-0.1,0.6-0.3c0.2-0.2,0.2-0.4,0.2-0.7c0-0.3-0.1-0.5-0.2-0.7s-0.4-0.3-0.6-0.3
		c-0.2,0-0.4,0.1-0.6,0.3C-594.4,410.5-594.5,410.7-594.5,411z"/>
	<path fill="#FFFFFF" d="M-588.5,411.2v-1.9h1v3.6h-1v-0.5c-0.2,0.4-0.6,0.5-1,0.5s-0.7-0.1-1-0.4c-0.3-0.2-0.4-0.6-0.4-1.1v-2.2h1
		v2c0,0.6,0.2,0.8,0.6,0.8c0.2,0,0.4-0.1,0.5-0.2C-588.6,411.7-588.5,411.4-588.5,411.2z"/>
	<path fill="#FFFFFF" d="M-584.8,412c0.3,0,0.6-0.2,0.9-0.5l0.6,0.7c-0.5,0.5-1,0.7-1.5,0.7c-0.5,0-1-0.2-1.4-0.5
		c-0.4-0.3-0.6-0.8-0.6-1.3c0-0.6,0.2-1,0.6-1.3c0.4-0.3,0.8-0.5,1.3-0.5c0.3,0,0.5,0.1,0.8,0.2c0.3,0.1,0.5,0.3,0.7,0.5l-0.5,0.7
		c-0.1-0.1-0.3-0.2-0.4-0.3c-0.2-0.1-0.3-0.1-0.5-0.1c-0.3,0-0.5,0.1-0.7,0.3s-0.3,0.4-0.3,0.7s0.1,0.5,0.3,0.7
		S-585.1,412-584.8,412z"/>
	<path fill="#FFFFFF" d="M-581.4,409.9v1.6c0,0.1,0,0.2,0.1,0.3c0.1,0.1,0.2,0.1,0.3,0.1c0.2,0,0.3-0.1,0.5-0.3l0.4,0.7
		c-0.3,0.3-0.6,0.4-1,0.4c-0.3,0-0.6-0.1-0.9-0.3s-0.4-0.5-0.4-0.9v-1.7h-0.4v-0.7h0.4v-1.1h1v1.1h0.9v0.7H-581.4z"/>
	<path fill="#FFFFFF" d="M-577,411.7c0,0.4-0.1,0.6-0.4,0.9c-0.3,0.2-0.6,0.3-1,0.3c-0.3,0-0.5,0-0.8-0.1c-0.3-0.1-0.6-0.2-0.8-0.4
		l0.4-0.6c0.4,0.3,0.8,0.4,1.2,0.4c0.1,0,0.2,0,0.3-0.1c0.1-0.1,0.1-0.1,0.1-0.2s-0.1-0.2-0.2-0.2c-0.1-0.1-0.3-0.1-0.5-0.2
		c-0.2-0.1-0.4-0.1-0.5-0.2c-0.1,0-0.2-0.1-0.4-0.2c-0.3-0.2-0.4-0.4-0.4-0.8c0-0.3,0.1-0.6,0.4-0.8c0.3-0.2,0.6-0.3,1-0.3
		c0.4,0,0.8,0.1,1.3,0.4l-0.4,0.7c-0.3-0.2-0.6-0.3-0.9-0.3c-0.3,0-0.5,0.1-0.5,0.3c0,0.1,0,0.2,0.1,0.2s0.3,0.1,0.5,0.2
		c0.2,0.1,0.4,0.1,0.5,0.2c0.1,0,0.2,0.1,0.3,0.2C-577.1,411.1-577,411.4-577,411.7z"/>
	<path fill="#FFFFFF" d="M-571.6,412.4c-0.4,0.3-0.8,0.5-1.3,0.5c-0.5,0-0.9-0.1-1.2-0.4c-0.3-0.3-0.5-0.6-0.5-1
		c0-0.5,0.3-0.9,1-1.3c-0.1-0.2-0.3-0.3-0.3-0.5c-0.1-0.1-0.1-0.3-0.1-0.5c0-0.4,0.1-0.7,0.4-0.9c0.3-0.2,0.6-0.3,1-0.3
		s0.7,0.1,1,0.3s0.4,0.5,0.4,0.8c0,0.4-0.3,0.8-1,1.2c0.2,0.3,0.4,0.5,0.6,0.7c0.1-0.2,0.2-0.4,0.3-0.6l0.8,0.6
		c-0.1,0.3-0.2,0.5-0.4,0.8l0.7,0.7l-0.7,0.6L-571.6,412.4z M-573.4,411.9c0.1,0.1,0.3,0.2,0.5,0.2s0.4-0.1,0.7-0.3
		c-0.3-0.3-0.6-0.7-0.8-0.9c-0.3,0.2-0.5,0.4-0.5,0.7C-573.6,411.7-573.5,411.8-573.4,411.9z M-572.6,408.8c-0.1,0-0.2,0-0.3,0.1
		s-0.1,0.2-0.1,0.3s0.1,0.3,0.3,0.5c0.3-0.2,0.5-0.3,0.5-0.5c0-0.1,0-0.2-0.1-0.3C-572.5,408.9-572.5,408.8-572.6,408.8z"/>
</g>
<g enable-background="new    ">
	<path fill="#FFFFFF" d="M-601.4,417.1c-0.1,0.1-0.2,0.2-0.2,0.3c0,0.1,0.1,0.2,0.2,0.3c0.1,0.1,0.4,0.2,0.9,0.3
		c0.4,0.1,0.8,0.3,1,0.5c0.2,0.2,0.4,0.5,0.4,1s-0.2,0.8-0.5,1c-0.3,0.3-0.7,0.4-1.2,0.4c-0.7,0-1.4-0.3-2-0.8l0.6-0.8
		c0.5,0.4,1,0.7,1.4,0.7c0.2,0,0.3,0,0.5-0.1c0.1-0.1,0.2-0.2,0.2-0.3s-0.1-0.3-0.2-0.3s-0.3-0.2-0.7-0.3c-0.5-0.1-0.9-0.3-1.2-0.5
		s-0.4-0.5-0.4-1s0.2-0.8,0.5-1s0.7-0.4,1.2-0.4c0.3,0,0.6,0.1,0.9,0.2c0.3,0.1,0.6,0.3,0.8,0.5l-0.5,0.8c-0.4-0.3-0.8-0.5-1.3-0.5
		C-601.1,417-601.3,417-601.4,417.1z"/>
	<path fill="#FFFFFF" d="M-595.2,420.3c-0.4,0.4-0.9,0.6-1.4,0.6s-1-0.2-1.4-0.5c-0.4-0.3-0.5-0.8-0.5-1.4c0-0.6,0.2-1,0.5-1.4
		s0.8-0.5,1.3-0.5s0.9,0.1,1.3,0.4c0.3,0.3,0.5,0.7,0.5,1.2v0.5h-2.6c0,0.2,0.1,0.4,0.3,0.5c0.2,0.1,0.4,0.2,0.6,0.2
		c0.4,0,0.6-0.1,0.9-0.4L-595.2,420.3z M-596.1,418.2c-0.1-0.1-0.3-0.2-0.5-0.2c-0.2,0-0.4,0.1-0.5,0.2c-0.2,0.1-0.3,0.3-0.3,0.5
		h1.6C-595.9,418.4-596,418.3-596.1,418.2z"/>
	<path fill="#FFFFFF" d="M-592.2,418.1c-0.3,0-0.5,0.1-0.7,0.3c-0.1,0.2-0.2,0.5-0.2,0.8v1.6h-1v-3.6h1v0.5c0.1-0.1,0.3-0.3,0.5-0.4
		c0.2-0.1,0.4-0.2,0.6-0.2l0,0.9H-592.2z"/>
	<path fill="#FFFFFF" d="M-590.4,420.8l-1.4-3.6h1l0.9,2.3l0.9-2.3h1l-1.4,3.6H-590.4z"/>
	<path fill="#FFFFFF" d="M-587.4,416.8c-0.1-0.1-0.2-0.3-0.2-0.4s0.1-0.3,0.2-0.4c0.1-0.1,0.3-0.2,0.4-0.2c0.2,0,0.3,0.1,0.4,0.2
		c0.1,0.1,0.2,0.3,0.2,0.4s-0.1,0.3-0.2,0.4c-0.1,0.1-0.3,0.2-0.4,0.2C-587.1,416.9-587.3,416.9-587.4,416.8z M-586.5,420.8h-1v-3.6
		h1V420.8z"/>
	<path fill="#FFFFFF" d="M-583.8,420c0.3,0,0.6-0.2,0.9-0.5l0.6,0.7c-0.5,0.5-1,0.7-1.5,0.7c-0.5,0-1-0.2-1.4-0.5
		c-0.4-0.3-0.6-0.8-0.6-1.3c0-0.6,0.2-1,0.6-1.3c0.4-0.3,0.8-0.5,1.3-0.5c0.3,0,0.5,0.1,0.8,0.2c0.3,0.1,0.5,0.3,0.7,0.5l-0.5,0.7
		c-0.1-0.1-0.3-0.2-0.4-0.3c-0.2-0.1-0.3-0.1-0.5-0.1c-0.3,0-0.5,0.1-0.7,0.3s-0.3,0.4-0.3,0.7s0.1,0.5,0.3,0.7S-584,420-583.8,420z
		"/>
	<path fill="#FFFFFF" d="M-578.5,420.3c-0.4,0.4-0.9,0.6-1.4,0.6s-1-0.2-1.4-0.5c-0.4-0.3-0.5-0.8-0.5-1.4c0-0.6,0.2-1,0.5-1.4
		c0.4-0.3,0.8-0.5,1.3-0.5c0.5,0,0.9,0.1,1.3,0.4c0.3,0.3,0.5,0.7,0.5,1.2v0.5h-2.6c0,0.2,0.1,0.4,0.3,0.5c0.2,0.1,0.4,0.2,0.6,0.2
		c0.4,0,0.6-0.1,0.9-0.4L-578.5,420.3z M-579.5,418.2c-0.1-0.1-0.3-0.2-0.5-0.2s-0.4,0.1-0.5,0.2c-0.2,0.1-0.3,0.3-0.3,0.5h1.6
		C-579.2,418.4-579.3,418.3-579.5,418.2z"/>
	<path fill="#FFFFFF" d="M-574.8,419.7c0,0.4-0.1,0.6-0.4,0.9c-0.3,0.2-0.6,0.3-1,0.3c-0.3,0-0.5,0-0.8-0.1
		c-0.3-0.1-0.6-0.2-0.8-0.4l0.4-0.6c0.4,0.3,0.8,0.4,1.2,0.4c0.1,0,0.2,0,0.3-0.1c0.1-0.1,0.1-0.1,0.1-0.2s-0.1-0.2-0.2-0.2
		c-0.1-0.1-0.3-0.1-0.5-0.2c-0.2-0.1-0.4-0.1-0.5-0.2c-0.1,0-0.2-0.1-0.4-0.2c-0.3-0.2-0.4-0.4-0.4-0.8c0-0.3,0.1-0.6,0.4-0.8
		c0.3-0.2,0.6-0.3,1-0.3c0.4,0,0.8,0.1,1.3,0.4l-0.4,0.7c-0.3-0.2-0.6-0.3-0.9-0.3c-0.3,0-0.5,0.1-0.5,0.3c0,0.1,0,0.2,0.1,0.2
		s0.3,0.1,0.5,0.2c0.2,0.1,0.4,0.1,0.5,0.2c0.1,0,0.2,0.1,0.3,0.2C-574.9,419.1-574.8,419.4-574.8,419.7z"/>
</g>
<path opacity="0.6" fill="#FFFDF8" enable-background="new    " d="M-581.1,394.8c-0.5-1.5-1-3-1.1-4.7c0-0.2,0-0.4,0.1-0.7
	c0.1-0.6,0.2-1.3-0.1-2.2c-0.1-0.4-0.5-1.5-1.5-1.5c-1.1,0-1.4,1.1-1.5,1.4c-0.3,0.9-0.2,1.6-0.1,2.2c0,0.2,0.1,0.5,0.1,0.7
	c-0.1,1.8-0.6,3.3-1.1,4.7v-0.1c-0.5-1.4-1-2.9-1.1-4.7c0-0.2,0-0.4,0.1-0.7c0.1-0.6,0.2-1.3-0.1-2.1c-0.1-0.4-0.5-1.4-1.5-1.4
	c-1.1,0-1.4,1.1-1.5,1.4c-0.3,0.9-0.2,1.6-0.1,2.1c0,0.2,0.1,0.5,0.1,0.6c-0.1,1.2-0.4,2.5-0.8,3.6c-0.3-1.1-0.6-2.2-0.7-3.5
	c0-0.2,0-0.4,0.1-0.7c0.1-0.6,0.2-1.3-0.1-2.2c-0.1-0.4-0.5-1.5-1.5-1.5c-1.1,0-1.4,1.1-1.5,1.4c-0.3,0.9-0.2,1.6-0.1,2.2
	c0,0.2,0.1,0.5,0.1,0.7c-0.1,1.8-0.6,3.3-1.1,4.7c-1,2.9-1.9,5.6,0.8,9.1l0.1,0.2h3.5l0.1-0.2c0.2-0.2,0.3-0.4,0.5-0.7
	c0.1,0.2,0.3,0.4,0.4,0.6l0.1,0.2h3.5l0.1-0.2c0.3-0.4,0.6-0.9,0.8-1.3c0.2,0.4,0.5,0.8,0.8,1.3l0.1,0.2h3.5l0.1-0.2
	C-579.2,400.4-580.1,397.6-581.1,394.8z M-581,398.2h-5.5c0.1-0.5,0.2-1,0.3-1.4h4.9C-581.2,397.2-581.1,397.7-581,398.2z
	 M-590.2,398.2c-0.1-0.5-0.2-1-0.3-1.4h3.4c-0.1,0.5-0.2,1-0.3,1.4H-590.2z M-584.5,390.1c0-0.3,0-0.5-0.1-0.8
	c-0.1-0.6-0.2-1.1,0.1-1.8c0.3-0.8,0.5-0.9,0.8-0.9c0.2,0,0.5,0.1,0.8,0.9c0.2,0.7,0.1,1.3,0.1,1.8c0,0.3-0.1,0.5-0.1,0.8
	c0.1,1.9,0.7,3.4,1.2,4.9v0.1h-3.9V395C-585.2,393.5-584.6,392-584.5,390.1z M-589.9,390c0-0.3,0-0.5-0.1-0.8
	c-0.1-0.5-0.2-1.1,0.1-1.8c0.3-0.8,0.5-0.9,0.8-0.9c0.2,0,0.5,0.1,0.8,0.9c0.2,0.7,0.1,1.2,0.1,1.8c0,0.3-0.1,0.5-0.1,0.8
	c0.1,1.9,0.7,3.5,1.2,4.9c0,0.1,0,0.1,0.1,0.2h-3.8c0-0.1-0.1-0.2-0.1-0.2C-590.6,393.5-590,391.8-589.9,390z M-594.5,390.1
	c0-0.3,0-0.5-0.1-0.8c-0.1-0.6-0.2-1.1,0.1-1.8c0.3-0.8,0.5-0.9,0.8-0.9c0.2,0,0.5,0.1,0.8,0.9c0.2,0.7,0.1,1.3,0.1,1.8
	c0,0.3-0.1,0.5-0.1,0.8c0.1,1.9,0.7,3.4,1.2,4.9v0.1h-3.9V395C-595.1,393.5-594.6,392-594.5,390.1z M-596.2,396.7h4.9
	c0.1,0.5,0.2,1,0.3,1.4h-5.5C-596.4,397.7-596.3,397.2-596.2,396.7z M-592.4,403.2h-2.7c-0.9-1.2-1.3-2.3-1.5-3.4h5.6
	C-591.1,400.9-591.5,402-592.4,403.2z M-587.8,403.2h-2.6c-0.2-0.3-0.3-0.5-0.5-0.8c0.5-0.9,0.7-1.8,0.8-2.6h2.8
	c0.1,0.6,0.2,1.2,0.4,1.9C-587.1,402.1-587.4,402.6-587.8,403.2z M-582.4,403.2h-2.7c-0.9-1.2-1.3-2.3-1.5-3.4h5.6
	C-581.1,400.9-581.5,402-582.4,403.2z"/>
</svg>
