<?xml version="1.0" encoding="utf-8"?>
<!-- Generator: Adobe Illustrator 18.1.1, SVG Export Plug-In . SVG Version: 6.00 Build 0)  -->
<svg version="1.1" id="Layer_1" xmlns="http://www.w3.org/2000/svg" xmlns:xlink="http://www.w3.org/1999/xlink" x="0px" y="0px"
	 width="50.5px" height="50.6px" viewBox="-614 375.4 50.5 50.6" enable-background="new -614 375.4 50.5 50.6"
	 xml:space="preserve">
<path fill="#687686" d="M-614,426h50.5v-29.1c0-11.9-9.6-21.5-21.5-21.5h-29V426z"/>
<g enable-background="new    ">
	<path fill="#FFFFFF" d="M-609.4,409.1c-0.1,0.1-0.2,0.2-0.2,0.3c0,0.1,0.1,0.2,0.2,0.3c0.1,0.1,0.4,0.2,0.9,0.3
		c0.4,0.1,0.8,0.3,1,0.5c0.2,0.2,0.4,0.5,0.4,1s-0.2,0.8-0.5,1c-0.3,0.3-0.7,0.4-1.2,0.4c-0.7,0-1.4-0.3-2-0.8l0.6-0.8
		c0.5,0.4,1,0.7,1.4,0.7c0.2,0,0.3,0,0.5-0.1c0.1-0.1,0.2-0.2,0.2-0.3s-0.1-0.3-0.2-0.3s-0.3-0.2-0.7-0.3c-0.5-0.1-0.9-0.3-1.2-0.5
		s-0.4-0.5-0.4-1s0.2-0.8,0.5-1s0.7-0.4,1.2-0.4c0.3,0,0.6,0.1,0.9,0.2c0.3,0.1,0.6,0.3,0.8,0.5l-0.5,0.8c-0.4-0.3-0.8-0.5-1.3-0.5
		C-609.2,409-609.3,409-609.4,409.1z"/>
	<path fill="#FFFFFF" d="M-605.3,409.9v1.6c0,0.1,0,0.2,0.1,0.3c0.1,0.1,0.2,0.1,0.3,0.1c0.2,0,0.3-0.1,0.5-0.3l0.4,0.7
		c-0.3,0.3-0.6,0.4-1,0.4c-0.3,0-0.6-0.1-0.9-0.3c-0.2-0.2-0.4-0.5-0.4-0.9v-1.7h-0.4v-0.7h0.4v-1.1h1v1.1h0.9v0.7H-605.3z"/>
	<path fill="#FFFFFF" d="M-600.5,412.8h-0.9v-0.4c-0.3,0.3-0.6,0.5-1,0.5c-0.4,0-0.7-0.1-1-0.3c-0.3-0.2-0.4-0.5-0.4-0.9
		s0.1-0.6,0.4-0.8c0.3-0.2,0.6-0.3,1.1-0.3h0.8v0c0-0.4-0.2-0.6-0.6-0.6c-0.2,0-0.4,0-0.6,0.1s-0.4,0.2-0.5,0.3l-0.4-0.6
		c0.5-0.3,1-0.5,1.6-0.5c0.4,0,0.8,0.1,1.1,0.3s0.4,0.6,0.4,1V412.8z M-601.5,411.5v-0.2h-0.6c-0.4,0-0.6,0.1-0.6,0.4
		c0,0.1,0,0.2,0.1,0.3c0.1,0.1,0.2,0.1,0.4,0.1c0.2,0,0.3-0.1,0.5-0.2S-601.5,411.6-601.5,411.5z"/>
	<path fill="#FFFFFF" d="M-598.5,412.8h-1v-5h1v2.6l1.1-1.2h1.3l-1.4,1.5l1.4,2.1h-1.2l-0.9-1.4l-0.3,0.3V412.8z"/>
	<path fill="#FFFFFF" d="M-592.4,412.3c-0.4,0.4-0.9,0.6-1.4,0.6s-1-0.2-1.4-0.5c-0.4-0.3-0.5-0.8-0.5-1.4c0-0.6,0.2-1,0.5-1.4
		s0.8-0.5,1.3-0.5s0.9,0.1,1.3,0.4c0.3,0.3,0.5,0.7,0.5,1.2v0.5h-2.6c0,0.2,0.1,0.4,0.3,0.5c0.2,0.1,0.4,0.2,0.6,0.2
		c0.4,0,0.6-0.1,0.9-0.4L-592.4,412.3z M-593.4,410.2c-0.1-0.1-0.3-0.2-0.5-0.2c-0.2,0-0.4,0.1-0.5,0.2c-0.2,0.1-0.3,0.3-0.3,0.5
		h1.6C-593.2,410.4-593.3,410.3-593.4,410.2z"/>
	<path fill="#FFFFFF" d="M-590.4,410.9v1.9h-1v-5h1v1.8c0.3-0.3,0.6-0.5,1-0.5c0.4,0,0.7,0.1,1,0.4c0.3,0.3,0.4,0.6,0.4,1.1v2.2h-1
		v-2c0-0.6-0.2-0.8-0.6-0.8c-0.2,0-0.4,0.1-0.5,0.2C-590.3,410.4-590.4,410.6-590.4,410.9z"/>
	<path fill="#FFFFFF" d="M-583.5,411c0,0.5-0.2,1-0.5,1.3c-0.4,0.4-0.8,0.5-1.4,0.5c-0.5,0-1-0.2-1.4-0.5c-0.4-0.4-0.5-0.8-0.5-1.3
		s0.2-1,0.5-1.3s0.8-0.5,1.4-0.5c0.5,0,1,0.2,1.4,0.5C-583.7,410.1-583.5,410.5-583.5,411z M-586.3,411c0,0.3,0.1,0.5,0.3,0.7
		c0.2,0.2,0.4,0.3,0.6,0.3c0.3,0,0.5-0.1,0.6-0.3c0.2-0.2,0.3-0.4,0.3-0.7c0-0.3-0.1-0.5-0.3-0.7c-0.2-0.2-0.4-0.3-0.6-0.3
		c-0.3,0-0.5,0.1-0.6,0.3S-586.3,410.7-586.3,411z"/>
	<path fill="#FFFFFF" d="M-581.8,412.8h-1v-5h1V412.8z"/>
	<path fill="#FFFFFF" d="M-579.4,412.9c-0.4,0-0.8-0.2-1.1-0.5c-0.3-0.4-0.5-0.8-0.5-1.3s0.2-1,0.5-1.3c0.3-0.3,0.7-0.5,1.1-0.5
		s0.8,0.2,1.1,0.5v-1.8h1v5h-1v-0.5C-578.6,412.7-579,412.9-579.4,412.9z M-580,411c0,0.3,0.1,0.5,0.3,0.7c0.2,0.2,0.4,0.3,0.6,0.3
		c0.2,0,0.4-0.1,0.6-0.3c0.2-0.2,0.2-0.4,0.2-0.7c0-0.3-0.1-0.5-0.2-0.7c-0.2-0.2-0.4-0.3-0.6-0.3s-0.4,0.1-0.6,0.3
		S-580,410.7-580,411z"/>
	<path fill="#FFFFFF" d="M-573.3,412.3c-0.4,0.4-0.9,0.6-1.4,0.6s-1-0.2-1.4-0.5s-0.5-0.8-0.5-1.4c0-0.6,0.2-1,0.5-1.4
		s0.8-0.5,1.3-0.5s0.9,0.1,1.3,0.4c0.3,0.3,0.5,0.7,0.5,1.2v0.5h-2.6c0,0.2,0.1,0.4,0.3,0.5c0.2,0.1,0.4,0.2,0.6,0.2
		c0.4,0,0.6-0.1,0.9-0.4L-573.3,412.3z M-574.2,410.2c-0.1-0.1-0.3-0.2-0.5-0.2c-0.2,0-0.4,0.1-0.5,0.2c-0.2,0.1-0.3,0.3-0.3,0.5
		h1.6C-574,410.4-574.1,410.3-574.2,410.2z"/>
	<path fill="#FFFFFF" d="M-570.3,410.1c-0.3,0-0.5,0.1-0.7,0.3c-0.1,0.2-0.2,0.5-0.2,0.8v1.6h-1v-3.6h1v0.5c0.1-0.1,0.3-0.3,0.5-0.4
		c0.2-0.1,0.4-0.2,0.6-0.2l0,0.9H-570.3z"/>
	<path fill="#FFFFFF" d="M-566.8,411.7c0,0.4-0.1,0.6-0.4,0.9c-0.3,0.2-0.6,0.3-1,0.3c-0.3,0-0.5,0-0.8-0.1
		c-0.3-0.1-0.6-0.2-0.8-0.4l0.4-0.6c0.4,0.3,0.8,0.4,1.2,0.4c0.1,0,0.2,0,0.3-0.1c0.1-0.1,0.1-0.1,0.1-0.2s-0.1-0.2-0.2-0.2
		s-0.3-0.1-0.5-0.2s-0.4-0.1-0.5-0.2c-0.1,0-0.2-0.1-0.4-0.2c-0.3-0.2-0.4-0.4-0.4-0.8c0-0.3,0.1-0.6,0.4-0.8c0.3-0.2,0.6-0.3,1-0.3
		s0.8,0.1,1.3,0.4l-0.4,0.7c-0.3-0.2-0.6-0.3-0.9-0.3s-0.5,0.1-0.5,0.3c0,0.1,0,0.2,0.1,0.2c0.1,0.1,0.3,0.1,0.5,0.2
		s0.4,0.1,0.5,0.2s0.2,0.1,0.3,0.2C-566.9,411.1-566.8,411.4-566.8,411.7z"/>
</g>
<g enable-background="new    ">
	<path fill="#FFFFFF" d="M-600.2,420.4c-0.4,0.3-0.8,0.5-1.3,0.5c-0.5,0-0.9-0.1-1.2-0.4c-0.3-0.3-0.5-0.6-0.5-1
		c0-0.5,0.3-0.9,1-1.3c-0.1-0.2-0.3-0.3-0.3-0.5c-0.1-0.1-0.1-0.3-0.1-0.5c0-0.4,0.1-0.7,0.4-0.9c0.3-0.2,0.6-0.3,1-0.3
		s0.7,0.1,1,0.3s0.4,0.5,0.4,0.8c0,0.4-0.3,0.8-1,1.2c0.2,0.3,0.4,0.5,0.6,0.7c0.1-0.2,0.2-0.4,0.3-0.6l0.8,0.6
		c-0.1,0.3-0.2,0.5-0.4,0.8l0.7,0.7l-0.7,0.6L-600.2,420.4z M-602,419.9c0.1,0.1,0.3,0.2,0.5,0.2c0.2,0,0.4-0.1,0.7-0.3
		c-0.3-0.3-0.6-0.7-0.8-0.9c-0.3,0.2-0.5,0.4-0.5,0.7C-602.2,419.7-602.1,419.8-602,419.9z M-601.3,416.8c-0.1,0-0.2,0-0.3,0.1
		s-0.1,0.2-0.1,0.3s0.1,0.3,0.3,0.5c0.3-0.2,0.5-0.3,0.5-0.5c0-0.1,0-0.2-0.1-0.3C-601.1,416.9-601.2,416.8-601.3,416.8z"/>
	<path fill="#FFFFFF" d="M-592.3,417.9l-1.3,2.6h-0.6l-1.3-2.6v2.9h-1v-4.7h1.4l1.2,2.6l1.2-2.6h1.4v4.7h-1V417.9z"/>
	<path fill="#FFFFFF" d="M-586.6,419c0,0.5-0.2,1-0.5,1.3c-0.4,0.4-0.8,0.5-1.4,0.5c-0.5,0-1-0.2-1.4-0.5c-0.4-0.4-0.5-0.8-0.5-1.3
		s0.2-1,0.5-1.3c0.4-0.4,0.8-0.5,1.4-0.5c0.5,0,1,0.2,1.4,0.5C-586.8,418.1-586.6,418.5-586.6,419z M-589.4,419
		c0,0.3,0.1,0.5,0.3,0.7c0.2,0.2,0.4,0.3,0.6,0.3s0.5-0.1,0.6-0.3c0.2-0.2,0.3-0.4,0.3-0.7c0-0.3-0.1-0.5-0.3-0.7
		c-0.2-0.2-0.4-0.3-0.6-0.3s-0.5,0.1-0.6,0.3S-589.4,418.7-589.4,419z"/>
	<path fill="#FFFFFF" d="M-584.8,418.8v2h-1v-3.6h1v0.4c0.3-0.3,0.6-0.5,1-0.5s0.7,0.1,1,0.4c0.3,0.3,0.4,0.6,0.4,1.1v2.2h-1v-2
		c0-0.6-0.2-0.8-0.6-0.8c-0.2,0-0.4,0.1-0.5,0.2C-584.8,418.3-584.8,418.5-584.8,418.8z"/>
	<path fill="#FFFFFF" d="M-578.5,420.3c-0.4,0.4-0.9,0.6-1.4,0.6s-1-0.2-1.4-0.5s-0.5-0.8-0.5-1.4c0-0.6,0.2-1,0.5-1.4
		c0.4-0.3,0.8-0.5,1.3-0.5c0.5,0,0.9,0.1,1.3,0.4c0.3,0.3,0.5,0.7,0.5,1.2v0.5h-2.6c0,0.2,0.1,0.4,0.3,0.5c0.2,0.1,0.4,0.2,0.6,0.2
		c0.4,0,0.6-0.1,0.9-0.4L-578.5,420.3z M-579.4,418.2c-0.1-0.1-0.3-0.2-0.5-0.2c-0.2,0-0.4,0.1-0.5,0.2c-0.2,0.1-0.3,0.3-0.3,0.5
		h1.6C-579.2,418.4-579.3,418.3-579.4,418.2z"/>
	<path fill="#FFFFFF" d="M-576.9,422.2c-0.4,0-0.7-0.1-1-0.4l0.5-0.7c0.2,0.2,0.3,0.2,0.5,0.2c0.1,0,0.2,0,0.2-0.1
		c0.1-0.1,0.1-0.2,0.1-0.3c0-0.1-0.5-1.3-1.4-3.7h1.1l0.9,2.2l0.9-2.2h1.1l-1.7,4.2c-0.1,0.2-0.3,0.4-0.5,0.6
		C-576.4,422.2-576.6,422.2-576.9,422.2z"/>
</g>
<path opacity="0.6" fill="#FFFDF8" enable-background="new    " d="M-580.7,404h-16.1c-0.7,0-1.2-0.4-1.2-1v-10c0-0.5,0.5-1,1.2-1
	h3.4v-3h9.3v3.1h3.4c0.7,0,1.2,0.4,1.2,1v10C-579.5,403.6-580,404-580.7,404z M-597.2,397.9v5.1c0,0,0.1,0.1,0.3,0.1h16.1
	c0.2,0,0.3-0.1,0.3-0.1v-5.1H-597.2z M-597.2,397.1h16.8V393c0,0-0.1-0.1-0.3-0.1h-16.1c-0.2,0-0.3,0.1-0.3,0.1L-597.2,397.1z
	 M-592.5,392.1h7.6v-2.2h-7.6V392.1z"/>
</svg>
