<?xml version="1.0" encoding="utf-8"?>
<!-- Generator: Adobe Illustrator 16.0.4, SVG Export Plug-In . SVG Version: 6.00 Build 0)  -->
<!DOCTYPE svg PUBLIC "-//W3C//DTD SVG 1.1//EN" "http://www.w3.org/Graphics/SVG/1.1/DTD/svg11.dtd">
<svg version="1.1" id="Layer_1" xmlns="http://www.w3.org/2000/svg" xmlns:xlink="http://www.w3.org/1999/xlink" x="0px" y="0px"
	 width="39.798px" height="20px" viewBox="-1.619 -2.12 39.798 20" enable-background="new -1.619 -2.12 39.798 20"
	 xml:space="preserve">
<g>
	<path fill="#3d3d3c" d="M8.379,17.88c-5.513,0-9.999-4.486-9.999-10c0-5.513,4.485-10,9.999-10c5.514,0,10.001,4.485,10.001,10
		S13.893,17.88,8.379,17.88z M8.379-0.906c-4.845,0-8.787,3.941-8.787,8.787s3.941,8.787,8.787,8.787
		c4.845,0,8.787-3.941,8.787-8.787S13.224-0.906,8.379-0.906z"/>
	<path fill="#3d3d3c" d="M8.379,14.852c-3.842,0-6.969-3.126-6.969-6.971c0-3.842,3.126-6.969,6.969-6.969s6.971,3.127,6.971,6.969
		C15.35,11.726,12.222,14.852,8.379,14.852z M8.379,2.123c-3.174,0-5.756,2.583-5.756,5.758c0,3.175,2.582,5.758,5.756,5.758
		s5.757-2.583,5.757-5.758C14.136,4.706,11.553,2.123,8.379,2.123z"/>
	<polygon fill="#3d3d3c" points="38.179,6.67 32.38,6.67 32.38,0.869 31.168,0.869 31.168,6.67 25.367,6.67 25.367,7.883 
		31.168,7.883 31.168,13.686 32.38,13.686 32.38,7.883 38.179,7.883 	"/>
	<path fill="#3d3d3c" d="M8.379,16.366c-4.678,0-8.482-3.806-8.482-8.485c0-4.678,3.804-8.484,8.482-8.484
		c4.677,0,8.483,3.806,8.483,8.484C16.864,12.56,13.056,16.366,8.379,16.366z M8.379,0.609c-4.009,0-7.27,3.262-7.27,7.271
		c0,4.01,3.26,7.273,7.27,7.273c4.01,0,7.271-3.263,7.271-7.273C15.65,3.872,12.389,0.609,8.379,0.609z"/>
</g>
</svg>
