<?xml version="1.0" encoding="utf-8"?>
<!-- Generator: Adobe Illustrator 18.1.1, SVG Export Plug-In . SVG Version: 6.00 Build 0)  -->
<svg version="1.1" id="Layer_1" xmlns="http://www.w3.org/2000/svg" xmlns:xlink="http://www.w3.org/1999/xlink" x="0px" y="0px"
	 width="105.8px" height="118px" viewBox="0 0 105.8 118" enable-background="new 0 0 105.8 118" xml:space="preserve">
<g>
	<g>
		<g>
			<g>
				<path fill="#E4493B" d="M18.8,35.7L5,29.9l-2.1,5l13.8,5.9C17.2,39,17.9,37.3,18.8,35.7"/>
				<path fill="#E4493B" d="M36.4,18.6L29,5.6l-4.7,2.7l7.4,13C33.2,20.3,34.7,19.4,36.4,18.6"/>
				<path fill="#E4493B" d="M89.2,40.7l13.8-5.9l-2.1-5l-13.7,5.9C87.9,37.3,88.6,39,89.2,40.7"/>
				<path fill="#E4493B" d="M74.2,21.2l7.4-13l-4.7-2.7l-7.4,13C71.1,19.4,72.7,20.3,74.2,21.2"/>
				<path fill="#E4493B" d="M52.9,14.8c0.9,0,1.8,0.1,2.7,0.1V0h-5.4v15C51.1,14.9,52,14.8,52.9,14.8"/>
				<path fill="#E4493B" d="M78.3,82L89,92.5l3.8-3.8L82.1,78.2C80.9,79.5,79.7,80.8,78.3,82"/>
				<g>
					<path fill="#E4493B" d="M91.1,57c-0.2,1.8-0.5,3.6-0.9,5.3l14.7,2.5l0.9-5.3L91.1,57z"/>
				</g>
				<path fill="#E4493B" d="M23.7,78.2L13.1,88.6l3.8,3.8L27.5,82C26.2,80.8,24.9,79.5,23.7,78.2"/>
				<path fill="#E4493B" d="M14.7,57L0,59.5l0.9,5.3l14.7-2.5C15.2,60.6,14.9,58.8,14.7,57"/>
				<path fill="none" stroke="#E4493B" stroke-width="5.2011" stroke-miterlimit="10" d="M79,53.1C79,38.7,67.3,27,52.9,27
					c-14.4,0-26.1,11.7-26.1,26.1c0,3.5,0.7,6.8,1.9,9.8c0,0,12.3,19.9,12.3,34.5h5h5.1h3.5h6.4h3.7c0-14.9,7.7-22.5,12.3-34.5
					C77.1,62.8,79,56.5,79,53.1"/>
				<g>
					<polygon fill="#E4493B" points="39.3,113.4 39.4,113.4 39.3,112.7 					"/>
				</g>
				<g>
					<polygon fill="#E4493B" points="39.3,108 66.6,112.3 66.6,108.9 39.3,104.5 					"/>
				</g>
				<g>
					<polygon fill="#E4493B" points="42,103.1 66.6,107 66.6,103.5 63.9,103.1 					"/>
				</g>
				<g>
					<path fill="#E4493B" d="M39.3,112.7l0.2,0.8l24.4,3.9c1.2-0.7,2.1-1.7,2.5-3.1l-27-4.3V112.7z"/>
				</g>
				<path fill="#E4493B" d="M44.6,118h11.8l-16.3-2.6C41.1,116.9,42.7,118,44.6,118"/>
			</g>
		</g>
	</g>
</g>
</svg>
