<?xml version="1.0" encoding="utf-8"?>
<!-- Generator: Adobe Illustrator 18.1.1, SVG Export Plug-In . SVG Version: 6.00 Build 0)  -->
<svg version="1.1" id="Layer_1" xmlns="http://www.w3.org/2000/svg" xmlns:xlink="http://www.w3.org/1999/xlink" x="0px" y="0px"
	 width="50.5px" height="50.6px" viewBox="-614 375.4 50.5 50.6" enable-background="new -614 375.4 50.5 50.6"
	 xml:space="preserve">
<path fill="#E54B3B" d="M-614,426h50.5v-29.1c0-11.9-9.6-21.5-21.5-21.5h-29V426z"/>
<g>
	<polygon opacity="0.6" fill="#FFFFFF" enable-background="new    " points="-581.1,400.8 -592.2,400.8 -596.1,391.2 -599.4,391.2 
		-599.4,389.4 -594.9,389.4 -591,399 -582.4,399 -580.6,394.4 -592.6,392.6 -592.4,390.9 -578.1,392.9 	"/>
	<path opacity="0.6" fill="#FFFFFF" enable-background="new    " d="M-588.2,402.5c0,0.6-0.5,1.1-1.1,1.1s-1.1-0.5-1.1-1.1
		s0.5-1.1,1.1-1.1C-588.7,401.5-588.2,401.9-588.2,402.5"/>
	<path opacity="0.6" fill="#FFFFFF" enable-background="new    " d="M-583,402.5c0,0.6-0.5,1.1-1.1,1.1s-1.1-0.5-1.1-1.1
		s0.5-1.1,1.1-1.1S-583,401.9-583,402.5"/>
</g>
<g enable-background="new    ">
	<path fill="#FFFFFF" d="M-599.3,409.9l-1.3,2.6h-0.6l-1.3-2.6v2.9h-1v-4.7h1.4l1.2,2.6l1.2-2.6h1.4v4.7h-1V409.9z"/>
	<path fill="#FFFFFF" d="M-594.1,412.8h-0.9v-0.4c-0.3,0.3-0.6,0.5-1,0.5c-0.4,0-0.7-0.1-1-0.3c-0.3-0.2-0.4-0.5-0.4-0.9
		s0.1-0.6,0.4-0.8c0.3-0.2,0.6-0.3,1.1-0.3h0.8v0c0-0.4-0.2-0.6-0.6-0.6c-0.2,0-0.4,0-0.6,0.1s-0.4,0.2-0.5,0.3l-0.4-0.6
		c0.5-0.3,1-0.5,1.6-0.5c0.4,0,0.8,0.1,1.1,0.3s0.4,0.6,0.4,1V412.8z M-595.2,411.5v-0.2h-0.6c-0.4,0-0.6,0.1-0.6,0.4
		c0,0.1,0,0.2,0.1,0.3c0.1,0.1,0.2,0.1,0.4,0.1c0.2,0,0.3-0.1,0.5-0.2S-595.2,411.6-595.2,411.5z"/>
	<path fill="#FFFFFF" d="M-591.3,410.1c-0.3,0-0.5,0.1-0.7,0.3c-0.1,0.2-0.2,0.5-0.2,0.8v1.6h-1v-3.6h1v0.5c0.1-0.1,0.3-0.3,0.5-0.4
		c0.2-0.1,0.4-0.2,0.6-0.2l0,0.9H-591.3z"/>
	<path fill="#FFFFFF" d="M-589.5,412.8h-1v-5h1v2.6l1.1-1.2h1.3l-1.4,1.5l1.4,2.1h-1.2l-0.9-1.4l-0.3,0.3V412.8z"/>
	<path fill="#FFFFFF" d="M-583.4,412.3c-0.4,0.4-0.9,0.6-1.4,0.6s-1-0.2-1.4-0.5c-0.4-0.3-0.5-0.8-0.5-1.4c0-0.6,0.2-1,0.5-1.4
		c0.4-0.3,0.8-0.5,1.3-0.5c0.5,0,0.9,0.1,1.3,0.4c0.3,0.3,0.5,0.7,0.5,1.2v0.5h-2.6c0,0.2,0.1,0.4,0.3,0.5c0.2,0.1,0.4,0.2,0.6,0.2
		c0.4,0,0.6-0.1,0.9-0.4L-583.4,412.3z M-584.3,410.2c-0.1-0.1-0.3-0.2-0.5-0.2s-0.4,0.1-0.5,0.2c-0.2,0.1-0.3,0.3-0.3,0.5h1.6
		C-584.1,410.4-584.2,410.3-584.3,410.2z"/>
	<path fill="#FFFFFF" d="M-581.2,409.9v1.6c0,0.1,0,0.2,0.1,0.3c0.1,0.1,0.2,0.1,0.3,0.1c0.2,0,0.3-0.1,0.5-0.3l0.4,0.7
		c-0.3,0.3-0.6,0.4-1,0.4s-0.6-0.1-0.9-0.3c-0.2-0.2-0.4-0.5-0.4-0.9v-1.7h-0.4v-0.7h0.4v-1.1h1v1.1h0.9v0.7H-581.2z"/>
	<path fill="#FFFFFF" d="M-574.8,412.4c-0.4,0.3-0.8,0.5-1.3,0.5s-0.9-0.1-1.2-0.4c-0.3-0.3-0.5-0.6-0.5-1c0-0.5,0.3-0.9,1-1.3
		c-0.1-0.2-0.3-0.3-0.3-0.5c-0.1-0.1-0.1-0.3-0.1-0.5c0-0.4,0.1-0.7,0.4-0.9c0.3-0.2,0.6-0.3,1-0.3s0.7,0.1,1,0.3s0.4,0.5,0.4,0.8
		c0,0.4-0.3,0.8-1,1.2c0.2,0.3,0.4,0.5,0.6,0.7c0.1-0.2,0.2-0.4,0.3-0.6l0.8,0.6c-0.1,0.3-0.2,0.5-0.4,0.8l0.7,0.7l-0.7,0.6
		L-574.8,412.4z M-576.6,411.9c0.1,0.1,0.3,0.2,0.5,0.2c0.2,0,0.4-0.1,0.7-0.3c-0.3-0.3-0.6-0.7-0.8-0.9c-0.3,0.2-0.5,0.4-0.5,0.7
		C-576.8,411.7-576.8,411.8-576.6,411.9z M-575.9,408.8c-0.1,0-0.2,0-0.3,0.1s-0.1,0.2-0.1,0.3s0.1,0.3,0.3,0.5
		c0.3-0.2,0.5-0.3,0.5-0.5c0-0.1,0-0.2-0.1-0.3C-575.7,408.9-575.8,408.8-575.9,408.8z"/>
</g>
<g enable-background="new    ">
	<path fill="#FFFFFF" d="M-604.4,419.9c0.5,0,0.9-0.2,1.3-0.6l0.7,0.7c-0.5,0.6-1.2,0.9-1.9,0.9s-1.3-0.2-1.8-0.7
		c-0.5-0.5-0.7-1-0.7-1.7c0-0.7,0.2-1.3,0.7-1.7c0.5-0.5,1.1-0.7,1.7-0.7c0.8,0,1.4,0.3,1.9,0.9l-0.6,0.7c-0.3-0.4-0.7-0.6-1.2-0.6
		c-0.4,0-0.7,0.1-1,0.4c-0.3,0.3-0.4,0.6-0.4,1s0.1,0.8,0.4,1C-605.1,419.8-604.8,419.9-604.4,419.9z"/>
	<path fill="#FFFFFF" d="M-599.5,419.2v-1.9h1v3.6h-1v-0.5c-0.2,0.4-0.6,0.5-1,0.5s-0.7-0.1-1-0.4c-0.3-0.2-0.4-0.6-0.4-1.1v-2.2h1
		v2c0,0.6,0.2,0.8,0.6,0.8c0.2,0,0.4-0.1,0.5-0.2C-599.6,419.7-599.5,419.4-599.5,419.2z"/>
	<path fill="#FFFFFF" d="M-594.9,419.7c0,0.4-0.1,0.6-0.4,0.9c-0.3,0.2-0.6,0.3-1,0.3c-0.3,0-0.5,0-0.8-0.1
		c-0.3-0.1-0.6-0.2-0.8-0.4l0.4-0.6c0.4,0.3,0.8,0.4,1.2,0.4c0.1,0,0.2,0,0.3-0.1c0.1-0.1,0.1-0.1,0.1-0.2s-0.1-0.2-0.2-0.2
		s-0.3-0.1-0.5-0.2c-0.2-0.1-0.4-0.1-0.5-0.2c-0.1,0-0.2-0.1-0.4-0.2c-0.3-0.2-0.4-0.4-0.4-0.8c0-0.3,0.1-0.6,0.4-0.8
		c0.3-0.2,0.6-0.3,1-0.3c0.4,0,0.8,0.1,1.3,0.4l-0.4,0.7c-0.3-0.2-0.6-0.3-0.9-0.3c-0.3,0-0.5,0.1-0.5,0.3c0,0.1,0,0.2,0.1,0.2
		c0.1,0.1,0.3,0.1,0.5,0.2c0.2,0.1,0.4,0.1,0.5,0.2s0.2,0.1,0.3,0.2C-595,419.1-594.9,419.4-594.9,419.7z"/>
	<path fill="#FFFFFF" d="M-592.9,417.9v1.6c0,0.1,0,0.2,0.1,0.3c0.1,0.1,0.2,0.1,0.3,0.1c0.2,0,0.3-0.1,0.5-0.3l0.4,0.7
		c-0.3,0.3-0.6,0.4-1,0.4c-0.3,0-0.6-0.1-0.9-0.3c-0.2-0.2-0.4-0.5-0.4-0.9v-1.7h-0.4v-0.7h0.4v-1.1h1v1.1h0.9v0.7H-592.9z"/>
	<path fill="#FFFFFF" d="M-587.6,419c0,0.5-0.2,1-0.5,1.3c-0.4,0.4-0.8,0.5-1.4,0.5c-0.5,0-1-0.2-1.4-0.5c-0.4-0.4-0.5-0.8-0.5-1.3
		s0.2-1,0.5-1.3c0.4-0.4,0.8-0.5,1.4-0.5c0.5,0,1,0.2,1.4,0.5S-587.6,418.5-587.6,419z M-590.4,419c0,0.3,0.1,0.5,0.3,0.7
		c0.2,0.2,0.4,0.3,0.6,0.3s0.5-0.1,0.6-0.3c0.2-0.2,0.3-0.4,0.3-0.7c0-0.3-0.1-0.5-0.3-0.7s-0.4-0.3-0.6-0.3s-0.5,0.1-0.6,0.3
		S-590.4,418.7-590.4,419z"/>
	<path fill="#FFFFFF" d="M-583.5,418.9v1.9h-1v-2c0-0.3,0-0.5-0.1-0.6c-0.1-0.1-0.2-0.2-0.4-0.2c-0.2,0-0.4,0.1-0.5,0.2
		c-0.2,0.1-0.2,0.4-0.2,0.6v1.9h-1v-3.6h1v0.4c0.3-0.3,0.6-0.5,1-0.5c0.2,0,0.4,0.1,0.6,0.2c0.2,0.1,0.3,0.3,0.4,0.5
		c0.1-0.2,0.3-0.4,0.6-0.5s0.5-0.2,0.7-0.2c0.4,0,0.8,0.1,1,0.4c0.3,0.3,0.4,0.6,0.4,1.1v2.2h-1v-2c0-0.6-0.2-0.8-0.6-0.8
		c-0.2,0-0.4,0.1-0.5,0.2C-583.5,418.4-583.5,418.6-583.5,418.9z"/>
	<path fill="#FFFFFF" d="M-577.2,420.3c-0.4,0.4-0.9,0.6-1.4,0.6s-1-0.2-1.4-0.5c-0.4-0.3-0.5-0.8-0.5-1.4c0-0.6,0.2-1,0.5-1.4
		c0.4-0.3,0.8-0.5,1.3-0.5c0.5,0,0.9,0.1,1.3,0.4c0.3,0.3,0.5,0.7,0.5,1.2v0.5h-2.6c0,0.2,0.1,0.4,0.3,0.5c0.2,0.1,0.4,0.2,0.6,0.2
		c0.4,0,0.6-0.1,0.9-0.4L-577.2,420.3z M-578.1,418.2c-0.1-0.1-0.3-0.2-0.5-0.2s-0.4,0.1-0.5,0.2c-0.2,0.1-0.3,0.3-0.3,0.5h1.6
		C-577.9,418.4-578,418.3-578.1,418.2z"/>
	<path fill="#FFFFFF" d="M-574.2,418.1c-0.3,0-0.5,0.1-0.7,0.3c-0.1,0.2-0.2,0.5-0.2,0.8v1.6h-1v-3.6h1v0.5c0.1-0.1,0.3-0.3,0.5-0.4
		c0.2-0.1,0.4-0.2,0.6-0.2l0,0.9H-574.2z"/>
	<path fill="#FFFFFF" d="M-570.7,419.7c0,0.4-0.1,0.6-0.4,0.9c-0.3,0.2-0.6,0.3-1,0.3c-0.3,0-0.5,0-0.8-0.1
		c-0.3-0.1-0.6-0.2-0.8-0.4l0.4-0.6c0.4,0.3,0.8,0.4,1.2,0.4c0.1,0,0.2,0,0.3-0.1c0.1-0.1,0.1-0.1,0.1-0.2s-0.1-0.2-0.2-0.2
		c-0.1-0.1-0.3-0.1-0.5-0.2c-0.2-0.1-0.4-0.1-0.5-0.2c-0.1,0-0.2-0.1-0.4-0.2c-0.3-0.2-0.4-0.4-0.4-0.8c0-0.3,0.1-0.6,0.4-0.8
		c0.3-0.2,0.6-0.3,1-0.3c0.4,0,0.8,0.1,1.3,0.4l-0.4,0.7c-0.3-0.2-0.6-0.3-0.9-0.3c-0.3,0-0.5,0.1-0.5,0.3c0,0.1,0,0.2,0.1,0.2
		s0.3,0.1,0.5,0.2c0.2,0.1,0.4,0.1,0.5,0.2c0.1,0,0.2,0.1,0.3,0.2C-570.8,419.1-570.7,419.4-570.7,419.7z"/>
</g>
</svg>
