<?xml version="1.0" encoding="utf-8"?>
<!-- Generator: Adobe Illustrator 18.1.1, SVG Export Plug-In . SVG Version: 6.00 Build 0)  -->
<svg version="1.1" id="Layer_1" xmlns="http://www.w3.org/2000/svg" xmlns:xlink="http://www.w3.org/1999/xlink" x="0px" y="0px"
	 width="50.5px" height="50.6px" viewBox="-614 375.4 50.5 50.6" enable-background="new -614 375.4 50.5 50.6"
	 xml:space="preserve">
<path fill="#EFC200" d="M-614,426h50.5v-29.1c0-11.9-9.6-21.5-21.5-21.5h-29V426z"/>
<g enable-background="new    ">
	<path fill="#FFFFFF" d="M-606.2,412.2c-0.5,0.5-1.1,0.7-1.7,0.7c-0.7,0-1.3-0.2-1.7-0.7c-0.5-0.5-0.7-1-0.7-1.7s0.2-1.3,0.7-1.7
		c0.5-0.5,1.1-0.7,1.7-0.7c0.7,0,1.3,0.2,1.7,0.7c0.5,0.5,0.7,1,0.7,1.7S-605.7,411.7-606.2,412.2z M-606.6,410.5
		c0-0.4-0.1-0.8-0.4-1.1c-0.3-0.3-0.6-0.4-1-0.4s-0.7,0.1-1,0.4c-0.3,0.3-0.4,0.7-0.4,1.1c0,0.4,0.1,0.8,0.4,1.1
		c0.3,0.3,0.6,0.4,1,0.4s0.7-0.1,1-0.4C-606.7,411.2-606.6,410.9-606.6,410.5z"/>
	<path fill="#FFFFFF" d="M-602.8,410.1c-0.3,0-0.5,0.1-0.7,0.3c-0.1,0.2-0.2,0.5-0.2,0.8v1.6h-1v-3.6h1v0.5c0.1-0.1,0.3-0.3,0.5-0.4
		c0.2-0.1,0.4-0.2,0.6-0.2l0,0.9H-602.8z"/>
	<path fill="#FFFFFF" d="M-599.3,412.2c-0.3,0.4-0.7,0.5-1.2,0.5c-0.5,0-0.9-0.2-1.2-0.5c-0.3-0.3-0.5-0.7-0.5-1.3
		c0-0.5,0.2-1,0.5-1.3c0.3-0.3,0.7-0.5,1.1-0.5c0.4,0,0.8,0.2,1.1,0.5v-0.5h1v3.1c0,0.3-0.1,0.6-0.2,0.9c-0.1,0.2-0.3,0.4-0.4,0.6
		c-0.4,0.3-0.8,0.4-1.3,0.4c-0.3,0-0.5,0-0.8-0.1c-0.3-0.1-0.5-0.2-0.7-0.4l0.4-0.8c0.3,0.2,0.7,0.4,1,0.4c0.4,0,0.7-0.1,0.9-0.3
		C-599.4,412.9-599.3,412.6-599.3,412.2z M-599.4,410.9c0-0.3-0.1-0.5-0.2-0.7c-0.2-0.2-0.4-0.2-0.6-0.2s-0.4,0.1-0.6,0.2
		c-0.2,0.2-0.3,0.4-0.3,0.7s0.1,0.5,0.3,0.7c0.2,0.2,0.4,0.3,0.6,0.3c0.2,0,0.4-0.1,0.6-0.3S-599.4,411.2-599.4,410.9z"/>
	<path fill="#FFFFFF" d="M-594.4,412.8h-0.9v-0.4c-0.3,0.3-0.6,0.5-1,0.5c-0.4,0-0.7-0.1-1-0.3c-0.3-0.2-0.4-0.5-0.4-0.9
		s0.1-0.6,0.4-0.8c0.3-0.2,0.6-0.3,1.1-0.3h0.8v0c0-0.4-0.2-0.6-0.6-0.6c-0.2,0-0.4,0-0.6,0.1s-0.4,0.2-0.5,0.3l-0.4-0.6
		c0.5-0.3,1-0.5,1.6-0.5c0.4,0,0.8,0.1,1.1,0.3s0.4,0.6,0.4,1V412.8z M-595.5,411.5v-0.2h-0.6c-0.4,0-0.6,0.1-0.6,0.4
		c0,0.1,0,0.2,0.1,0.3c0.1,0.1,0.2,0.1,0.4,0.1c0.2,0,0.3-0.1,0.5-0.2S-595.5,411.6-595.5,411.5z"/>
	<path fill="#FFFFFF" d="M-592.5,410.8v2h-1v-3.6h1v0.4c0.3-0.3,0.6-0.5,1-0.5c0.4,0,0.7,0.1,1,0.4c0.3,0.3,0.4,0.6,0.4,1.1v2.2h-1
		v-2c0-0.6-0.2-0.8-0.6-0.8c-0.2,0-0.4,0.1-0.5,0.2C-592.4,410.3-592.5,410.5-592.5,410.8z"/>
	<path fill="#FFFFFF" d="M-589.2,408.8c-0.1-0.1-0.2-0.3-0.2-0.4s0.1-0.3,0.2-0.4c0.1-0.1,0.3-0.2,0.4-0.2c0.2,0,0.3,0.1,0.4,0.2
		c0.1,0.1,0.2,0.3,0.2,0.4s-0.1,0.3-0.2,0.4c-0.1,0.1-0.3,0.2-0.4,0.2C-588.9,408.9-589,408.9-589.2,408.8z M-588.2,412.8h-1v-3.6h1
		V412.8z"/>
	<path fill="#FFFFFF" d="M-584.6,411.7c0,0.4-0.1,0.6-0.4,0.9c-0.3,0.2-0.6,0.3-1,0.3c-0.3,0-0.5,0-0.8-0.1
		c-0.3-0.1-0.6-0.2-0.8-0.4l0.4-0.6c0.4,0.3,0.8,0.4,1.2,0.4c0.1,0,0.2,0,0.3-0.1c0.1-0.1,0.1-0.1,0.1-0.2s-0.1-0.2-0.2-0.2
		c-0.1-0.1-0.3-0.1-0.5-0.2c-0.2-0.1-0.4-0.1-0.5-0.2c-0.1,0-0.2-0.1-0.4-0.2c-0.3-0.2-0.4-0.4-0.4-0.8c0-0.3,0.1-0.6,0.4-0.8
		c0.3-0.2,0.6-0.3,1-0.3s0.8,0.1,1.3,0.4l-0.4,0.7c-0.3-0.2-0.6-0.3-0.9-0.3s-0.5,0.1-0.5,0.3c0,0.1,0,0.2,0.1,0.2s0.3,0.1,0.5,0.2
		c0.2,0.1,0.4,0.1,0.5,0.2c0.1,0,0.2,0.1,0.3,0.2C-584.7,411.1-584.6,411.4-584.6,411.7z"/>
	<path fill="#FFFFFF" d="M-580.7,412.8h-0.9v-0.4c-0.3,0.3-0.6,0.5-1,0.5c-0.4,0-0.7-0.1-1-0.3c-0.3-0.2-0.4-0.5-0.4-0.9
		s0.1-0.6,0.4-0.8c0.3-0.2,0.6-0.3,1.1-0.3h0.8v0c0-0.4-0.2-0.6-0.6-0.6c-0.2,0-0.4,0-0.6,0.1s-0.4,0.2-0.5,0.3l-0.4-0.6
		c0.5-0.3,1-0.5,1.6-0.5c0.4,0,0.8,0.1,1.1,0.3s0.4,0.6,0.4,1V412.8z M-581.8,411.5v-0.2h-0.6c-0.4,0-0.6,0.1-0.6,0.4
		c0,0.1,0,0.2,0.1,0.3s0.2,0.1,0.4,0.1c0.2,0,0.3-0.1,0.5-0.2C-581.8,411.8-581.8,411.6-581.8,411.5z"/>
	<path fill="#FFFFFF" d="M-578.7,409.9v1.6c0,0.1,0,0.2,0.1,0.3c0.1,0.1,0.2,0.1,0.3,0.1c0.2,0,0.3-0.1,0.5-0.3l0.4,0.7
		c-0.3,0.3-0.6,0.4-1,0.4s-0.6-0.1-0.9-0.3c-0.2-0.2-0.4-0.5-0.4-0.9v-1.7h-0.4v-0.7h0.4v-1.1h1v1.1h0.9v0.7H-578.7z"/>
	<path fill="#FFFFFF" d="M-576.8,408.8c-0.1-0.1-0.2-0.3-0.2-0.4s0.1-0.3,0.2-0.4c0.1-0.1,0.3-0.2,0.4-0.2c0.2,0,0.3,0.1,0.4,0.2
		c0.1,0.1,0.2,0.3,0.2,0.4s-0.1,0.3-0.2,0.4c-0.1,0.1-0.3,0.2-0.4,0.2C-576.6,408.9-576.7,408.9-576.8,408.8z M-575.9,412.8h-1v-3.6
		h1V412.8z"/>
	<path fill="#FFFFFF" d="M-571.4,411c0,0.5-0.2,1-0.5,1.3c-0.4,0.4-0.8,0.5-1.4,0.5c-0.5,0-1-0.2-1.4-0.5c-0.4-0.4-0.5-0.8-0.5-1.3
		s0.2-1,0.5-1.3c0.4-0.4,0.8-0.5,1.4-0.5c0.5,0,1,0.2,1.4,0.5S-571.4,410.5-571.4,411z M-574.2,411c0,0.3,0.1,0.5,0.2,0.7
		c0.2,0.2,0.4,0.3,0.6,0.3s0.5-0.1,0.6-0.3c0.2-0.2,0.3-0.4,0.3-0.7c0-0.3-0.1-0.5-0.3-0.7s-0.4-0.3-0.6-0.3s-0.5,0.1-0.6,0.3
		C-574.1,410.5-574.2,410.7-574.2,411z"/>
	<path fill="#FFFFFF" d="M-569.6,410.8v2h-1v-3.6h1v0.4c0.3-0.3,0.6-0.5,1-0.5s0.7,0.1,1,0.4c0.3,0.3,0.4,0.6,0.4,1.1v2.2h-1v-2
		c0-0.6-0.2-0.8-0.6-0.8c-0.2,0-0.4,0.1-0.5,0.2C-569.5,410.3-569.6,410.5-569.6,410.8z"/>
</g>
<g enable-background="new    ">
	<path fill="#FFFFFF" d="M-601.3,420.4c-0.4,0.3-0.8,0.5-1.3,0.5c-0.5,0-0.9-0.1-1.2-0.4c-0.3-0.3-0.5-0.6-0.5-1
		c0-0.5,0.3-0.9,1-1.3c-0.1-0.2-0.3-0.3-0.3-0.5c-0.1-0.1-0.1-0.3-0.1-0.5c0-0.4,0.1-0.7,0.4-0.9c0.3-0.2,0.6-0.3,1-0.3
		s0.7,0.1,1,0.3s0.4,0.5,0.4,0.8c0,0.4-0.3,0.8-1,1.2c0.2,0.3,0.4,0.5,0.6,0.7c0.1-0.2,0.2-0.4,0.3-0.6l0.8,0.6
		c-0.1,0.3-0.2,0.5-0.4,0.8l0.7,0.7l-0.7,0.6L-601.3,420.4z M-603.1,419.9c0.1,0.1,0.3,0.2,0.5,0.2c0.2,0,0.4-0.1,0.7-0.3
		c-0.3-0.3-0.6-0.7-0.8-0.9c-0.3,0.2-0.5,0.4-0.5,0.7C-603.3,419.7-603.2,419.8-603.1,419.9z M-602.4,416.8c-0.1,0-0.2,0-0.3,0.1
		s-0.1,0.2-0.1,0.3s0.1,0.3,0.3,0.5c0.3-0.2,0.5-0.3,0.5-0.5c0-0.1,0-0.2-0.1-0.3C-602.2,416.9-602.3,416.8-602.4,416.8z"/>
	<path fill="#FFFFFF" d="M-595.4,419.9c0.5,0,0.9-0.2,1.3-0.6l0.7,0.7c-0.5,0.6-1.2,0.9-1.9,0.9s-1.3-0.2-1.8-0.7
		c-0.5-0.5-0.7-1-0.7-1.7c0-0.7,0.2-1.3,0.7-1.7c0.5-0.5,1.1-0.7,1.7-0.7c0.8,0,1.4,0.3,1.9,0.9l-0.6,0.7c-0.3-0.4-0.7-0.6-1.2-0.6
		c-0.4,0-0.7,0.1-1,0.4c-0.3,0.3-0.4,0.6-0.4,1s0.1,0.8,0.4,1C-596.1,419.8-595.8,419.9-595.4,419.9z"/>
	<path fill="#FFFFFF" d="M-590.5,419.2v-1.9h1v3.6h-1v-0.5c-0.2,0.4-0.6,0.5-1,0.5s-0.7-0.1-1-0.4c-0.3-0.2-0.4-0.6-0.4-1.1v-2.2h1
		v2c0,0.6,0.2,0.8,0.6,0.8c0.2,0,0.4-0.1,0.5-0.2C-590.6,419.7-590.5,419.4-590.5,419.2z"/>
	<path fill="#FFFFFF" d="M-587.6,420.8h-1v-5h1V420.8z"/>
	<path fill="#FFFFFF" d="M-585.4,417.9v1.6c0,0.1,0,0.2,0.1,0.3c0.1,0.1,0.2,0.1,0.3,0.1c0.2,0,0.3-0.1,0.5-0.3l0.4,0.7
		c-0.3,0.3-0.6,0.4-1,0.4s-0.6-0.1-0.9-0.3c-0.2-0.2-0.4-0.5-0.4-0.9v-1.7h-0.4v-0.7h0.4v-1.1h1v1.1h0.9v0.7H-585.4z"/>
	<path fill="#FFFFFF" d="M-581.3,419.2v-1.9h1v3.6h-1v-0.5c-0.2,0.4-0.6,0.5-1,0.5c-0.4,0-0.7-0.1-1-0.4c-0.3-0.2-0.4-0.6-0.4-1.1
		v-2.2h1v2c0,0.6,0.2,0.8,0.6,0.8c0.2,0,0.4-0.1,0.5-0.2C-581.4,419.7-581.3,419.4-581.3,419.2z"/>
	<path fill="#FFFFFF" d="M-577.5,418.1c-0.3,0-0.5,0.1-0.7,0.3c-0.1,0.2-0.2,0.5-0.2,0.8v1.6h-1v-3.6h1v0.5c0.1-0.1,0.3-0.3,0.5-0.4
		c0.2-0.1,0.4-0.2,0.6-0.2l0,0.9H-577.5z"/>
	<path fill="#FFFFFF" d="M-573.5,420.3c-0.4,0.4-0.9,0.6-1.4,0.6s-1-0.2-1.4-0.5c-0.4-0.3-0.5-0.8-0.5-1.4c0-0.6,0.2-1,0.5-1.4
		c0.4-0.3,0.8-0.5,1.3-0.5c0.5,0,0.9,0.1,1.3,0.4c0.3,0.3,0.5,0.7,0.5,1.2v0.5h-2.6c0,0.2,0.1,0.4,0.3,0.5c0.2,0.1,0.4,0.2,0.6,0.2
		c0.4,0,0.6-0.1,0.9-0.4L-573.5,420.3z M-574.5,418.2c-0.1-0.1-0.3-0.2-0.5-0.2s-0.4,0.1-0.5,0.2c-0.2,0.1-0.3,0.3-0.3,0.5h1.6
		C-574.2,418.4-574.3,418.3-574.5,418.2z"/>
</g>
<g opacity="0.6">
	<circle fill="#FFFDF8" cx="-591.8" cy="390" r="0.9"/>
	<circle fill="#FFFDF8" cx="-591" cy="395.6" r="0.9"/>
	<circle fill="#FFFDF8" cx="-586.5" cy="395.8" r="0.9"/>
	<circle fill="#FFFDF8" cx="-584.1" cy="394.6" r="0.9"/>
	<circle fill="#FFFDF8" cx="-581.7" cy="393.5" r="0.9"/>
	<circle fill="#FFFDF8" cx="-586.5" cy="400.1" r="0.9"/>
	<circle fill="#FFFDF8" cx="-584.1" cy="398.9" r="0.9"/>
	<circle fill="#FFFDF8" cx="-581.7" cy="397.8" r="0.9"/>
	<circle fill="#FFFDF8" cx="-591" cy="399.7" r="0.9"/>
	<circle fill="#FFFDF8" cx="-595" cy="394" r="0.9"/>
	<circle fill="#FFFDF8" cx="-595" cy="398.1" r="0.9"/>
	<circle fill="#FFFDF8" cx="-588.5" cy="390" r="0.9"/>
	<circle fill="#FFFDF8" cx="-585.3" cy="390" r="0.9"/>
	<path fill="#FFFDF8" d="M-588.5,385.5l-9.5,4.2V400l9.3,4.2l9.3-4.2v-10.2L-588.5,385.5z M-580.8,390l-7.9,3.6l-7.9-3.6l8.1-3.6
		L-580.8,390z M-597.2,390.6l8.1,3.7v8.8l-8.1-3.7V390.6z M-588.3,403.1v-8.8l8.1-3.7v8.8L-588.3,403.1z"/>
</g>
</svg>
