<?xml version="1.0" encoding="utf-8"?>
<!-- Generator: Adobe Illustrator 18.1.1, SVG Export Plug-In . SVG Version: 6.00 Build 0)  -->
<svg version="1.1" id="Layer_1" xmlns="http://www.w3.org/2000/svg" xmlns:xlink="http://www.w3.org/1999/xlink" x="0px" y="0px"
	 width="50.5px" height="50.6px" viewBox="-614 375.4 50.5 50.6" enable-background="new -614 375.4 50.5 50.6"
	 xml:space="preserve">
<path fill="#945BA0" d="M-614,426h50.5v-29.1c0-11.9-9.6-21.5-21.5-21.5h-29V426z"/>
<g>
	<path fill="#FFFFFF" d="M-599.2,409.1c-0.1,0.1-0.2,0.2-0.2,0.3c0,0.1,0.1,0.2,0.2,0.3c0.1,0.1,0.4,0.2,0.9,0.3
		c0.4,0.1,0.8,0.3,1,0.5c0.2,0.2,0.4,0.5,0.4,1s-0.2,0.8-0.5,1c-0.3,0.3-0.7,0.4-1.2,0.4c-0.7,0-1.4-0.3-2-0.8l0.6-0.8
		c0.5,0.4,1,0.7,1.4,0.7c0.2,0,0.3,0,0.5-0.1c0.1-0.1,0.2-0.2,0.2-0.3s-0.1-0.3-0.2-0.3c-0.1-0.1-0.3-0.2-0.7-0.3
		c-0.5-0.1-0.9-0.3-1.2-0.5s-0.4-0.5-0.4-1s0.2-0.8,0.5-1s0.7-0.4,1.2-0.4c0.3,0,0.6,0.1,0.9,0.2c0.3,0.1,0.6,0.3,0.8,0.5l-0.5,0.8
		c-0.4-0.3-0.8-0.5-1.3-0.5C-599,409-599.1,409-599.2,409.1z"/>
	<path fill="#FFFFFF" d="M-593.1,412.8h-0.9v-0.4c-0.3,0.3-0.6,0.5-1,0.5s-0.7-0.1-1-0.3c-0.3-0.2-0.4-0.5-0.4-0.9s0.1-0.6,0.4-0.8
		c0.3-0.2,0.6-0.3,1.1-0.3h0.8v0c0-0.4-0.2-0.6-0.6-0.6c-0.2,0-0.4,0-0.6,0.1s-0.4,0.2-0.5,0.3l-0.4-0.6c0.5-0.3,1-0.5,1.6-0.5
		c0.4,0,0.8,0.1,1.1,0.3s0.4,0.6,0.4,1V412.8z M-594.1,411.5v-0.2h-0.6c-0.4,0-0.6,0.1-0.6,0.4c0,0.1,0,0.2,0.1,0.3
		c0.1,0.1,0.2,0.1,0.4,0.1c0.2,0,0.3-0.1,0.5-0.2S-594.1,411.6-594.1,411.5z"/>
	<path fill="#FFFFFF" d="M-591.2,412.8h-1v-5h1V412.8z"/>
	<path fill="#FFFFFF" d="M-587.1,412.3c-0.4,0.4-0.9,0.6-1.4,0.6s-1-0.2-1.4-0.5c-0.4-0.3-0.5-0.8-0.5-1.4c0-0.6,0.2-1,0.5-1.4
		s0.8-0.5,1.3-0.5c0.5,0,0.9,0.1,1.3,0.4c0.3,0.3,0.5,0.7,0.5,1.2v0.5h-2.6c0,0.2,0.1,0.4,0.3,0.5c0.2,0.1,0.4,0.2,0.6,0.2
		c0.4,0,0.6-0.1,0.9-0.4L-587.1,412.3z M-588.1,410.2c-0.1-0.1-0.3-0.2-0.5-0.2c-0.2,0-0.4,0.1-0.5,0.2c-0.2,0.1-0.3,0.3-0.3,0.5
		h1.6C-587.8,410.4-587.9,410.3-588.1,410.2z"/>
	<path fill="#FFFFFF" d="M-583.4,411.7c0,0.4-0.1,0.6-0.4,0.9c-0.3,0.2-0.6,0.3-1,0.3c-0.3,0-0.5,0-0.8-0.1
		c-0.3-0.1-0.6-0.2-0.8-0.4l0.4-0.6c0.4,0.3,0.8,0.4,1.2,0.4c0.1,0,0.2,0,0.3-0.1c0.1-0.1,0.1-0.1,0.1-0.2s-0.1-0.2-0.2-0.2
		c-0.1-0.1-0.3-0.1-0.5-0.2c-0.2-0.1-0.4-0.1-0.5-0.2c-0.1,0-0.2-0.1-0.4-0.2c-0.3-0.2-0.4-0.4-0.4-0.8c0-0.3,0.1-0.6,0.4-0.8
		c0.3-0.2,0.6-0.3,1-0.3c0.4,0,0.8,0.1,1.3,0.4l-0.4,0.7c-0.3-0.2-0.6-0.3-0.9-0.3s-0.5,0.1-0.5,0.3c0,0.1,0,0.2,0.1,0.2
		c0.1,0.1,0.3,0.1,0.5,0.2s0.4,0.1,0.5,0.2s0.2,0.1,0.3,0.2C-583.5,411.1-583.4,411.4-583.4,411.7z"/>
	<path fill="#FFFFFF" d="M-578,412.4c-0.4,0.3-0.8,0.5-1.3,0.5s-0.9-0.1-1.2-0.4c-0.3-0.3-0.5-0.6-0.5-1c0-0.5,0.3-0.9,1-1.3
		c-0.1-0.2-0.3-0.3-0.3-0.5c-0.1-0.1-0.1-0.3-0.1-0.5c0-0.4,0.1-0.7,0.4-0.9c0.3-0.2,0.6-0.3,1-0.3s0.7,0.1,1,0.3s0.4,0.5,0.4,0.8
		c0,0.4-0.3,0.8-1,1.2c0.2,0.3,0.4,0.5,0.6,0.7c0.1-0.2,0.2-0.4,0.3-0.6l0.8,0.6c-0.1,0.3-0.2,0.5-0.4,0.8l0.7,0.7l-0.7,0.6
		L-578,412.4z M-579.8,411.9c0.1,0.1,0.3,0.2,0.5,0.2c0.2,0,0.4-0.1,0.7-0.3c-0.3-0.3-0.6-0.7-0.8-0.9c-0.3,0.2-0.5,0.4-0.5,0.7
		C-580,411.7-579.9,411.8-579.8,411.9z M-579,408.8c-0.1,0-0.2,0-0.3,0.1s-0.1,0.2-0.1,0.3s0.1,0.3,0.3,0.5c0.3-0.2,0.5-0.3,0.5-0.5
		c0-0.1,0-0.2-0.1-0.3C-578.8,408.9-578.9,408.8-579,408.8z"/>
	<path fill="#FFFFFF" d="M-604.8,416.8c0.4,0.4,0.7,1,0.7,1.7s-0.2,1.3-0.7,1.7c-0.4,0.4-1.1,0.6-2,0.6h-1.6v-4.7h1.7
		C-605.9,416.2-605.3,416.4-604.8,416.8z M-605.6,419.6c0.3-0.2,0.4-0.6,0.4-1.1s-0.1-0.8-0.4-1.1c-0.3-0.2-0.7-0.4-1.2-0.4h-0.6
		v2.8h0.7C-606.2,419.9-605.8,419.8-605.6,419.6z"/>
	<path fill="#FFFFFF" d="M-603.3,416.8c-0.1-0.1-0.2-0.3-0.2-0.4s0.1-0.3,0.2-0.4c0.1-0.1,0.3-0.2,0.4-0.2c0.2,0,0.3,0.1,0.4,0.2
		c0.1,0.1,0.2,0.3,0.2,0.4s-0.1,0.3-0.2,0.4c-0.1,0.1-0.3,0.2-0.4,0.2C-603.1,417-603.2,416.9-603.3,416.8z M-602.4,420.9h-1v-3.6h1
		V420.9z"/>
	<path fill="#FFFFFF" d="M-598.7,419.7c0,0.4-0.1,0.6-0.4,0.9c-0.3,0.2-0.6,0.3-1,0.3c-0.3,0-0.5,0-0.8-0.1
		c-0.3-0.1-0.6-0.2-0.8-0.4l0.4-0.6c0.4,0.3,0.8,0.4,1.2,0.4c0.1,0,0.2,0,0.3-0.1c0.1-0.1,0.1-0.1,0.1-0.2s-0.1-0.2-0.2-0.2
		s-0.3-0.1-0.5-0.2c-0.2-0.1-0.4-0.1-0.5-0.2c-0.1,0-0.2-0.1-0.4-0.2c-0.3-0.2-0.4-0.4-0.4-0.8c0-0.3,0.1-0.6,0.4-0.8
		c0.3-0.2,0.6-0.3,1-0.3c0.4,0,0.8,0.1,1.3,0.4l-0.4,0.7c-0.3-0.2-0.6-0.3-0.9-0.3c-0.3,0-0.5,0.1-0.5,0.3c0,0.1,0,0.2,0.1,0.2
		c0.1,0.1,0.3,0.1,0.5,0.2c0.2,0.1,0.4,0.1,0.5,0.2s0.2,0.1,0.3,0.2C-598.8,419.1-598.7,419.4-598.7,419.7z"/>
	<path fill="#FFFFFF" d="M-596.8,418v1.6c0,0.1,0,0.2,0.1,0.3c0.1,0.1,0.2,0.1,0.3,0.1c0.2,0,0.3-0.1,0.5-0.3l0.4,0.7
		c-0.3,0.3-0.6,0.4-1,0.4c-0.3,0-0.6-0.1-0.9-0.3c-0.2-0.2-0.4-0.5-0.4-0.9V418h-0.4v-0.7h0.4v-1.1h1v1.1h0.9v0.7H-596.8z"/>
	<path fill="#FFFFFF" d="M-593.1,418.1c-0.3,0-0.5,0.1-0.7,0.3c-0.1,0.2-0.2,0.5-0.2,0.8v1.6h-1v-3.6h1v0.5c0.1-0.1,0.3-0.3,0.5-0.4
		c0.2-0.1,0.4-0.2,0.6-0.2l0,0.9H-593.1z"/>
	<path fill="#FFFFFF" d="M-592.2,416.8c-0.1-0.1-0.2-0.3-0.2-0.4s0.1-0.3,0.2-0.4c0.1-0.1,0.3-0.2,0.4-0.2s0.3,0.1,0.4,0.2
		c0.1,0.1,0.2,0.3,0.2,0.4s-0.1,0.3-0.2,0.4c-0.1,0.1-0.3,0.2-0.4,0.2S-592.1,416.9-592.2,416.8z M-591.3,420.9h-1v-3.6h1V420.9z"/>
	<path fill="#FFFFFF" d="M-588.2,417.2c0.4,0,0.8,0.2,1.1,0.5c0.3,0.3,0.5,0.8,0.5,1.3s-0.2,1-0.5,1.3c-0.3,0.4-0.7,0.5-1.1,0.5
		c-0.4,0-0.8-0.2-1.1-0.5v0.5h-1v-5h1v1.8C-589,417.4-588.7,417.2-588.2,417.2z M-589.3,419.1c0,0.3,0.1,0.5,0.2,0.7
		c0.2,0.2,0.4,0.3,0.6,0.3s0.4-0.1,0.6-0.3c0.2-0.2,0.3-0.4,0.3-0.7s-0.1-0.5-0.3-0.7s-0.4-0.3-0.6-0.3s-0.4,0.1-0.6,0.3
		S-589.3,418.8-589.3,419.1z"/>
	<path fill="#FFFFFF" d="M-583.5,419.2v-1.9h1v3.6h-1v-0.5c-0.3,0.4-0.6,0.5-1,0.5c-0.4,0-0.7-0.1-1-0.4c-0.3-0.2-0.4-0.6-0.4-1.1
		v-2.2h1v2c0,0.6,0.2,0.8,0.6,0.8c0.2,0,0.4-0.1,0.5-0.2C-583.6,419.7-583.5,419.5-583.5,419.2z"/>
	<path fill="#FFFFFF" d="M-580.4,418v1.6c0,0.1,0,0.2,0.1,0.3c0.1,0.1,0.2,0.1,0.3,0.1c0.2,0,0.3-0.1,0.5-0.3l0.4,0.7
		c-0.3,0.3-0.6,0.4-1,0.4s-0.6-0.1-0.9-0.3c-0.2-0.2-0.4-0.5-0.4-0.9V418h-0.4v-0.7h0.4v-1.1h1v1.1h0.9v0.7H-580.4z"/>
	<path fill="#FFFFFF" d="M-578.5,416.8c-0.1-0.1-0.2-0.3-0.2-0.4s0.1-0.3,0.2-0.4c0.1-0.1,0.3-0.2,0.4-0.2s0.3,0.1,0.4,0.2
		c0.1,0.1,0.2,0.3,0.2,0.4s-0.1,0.3-0.2,0.4c-0.1,0.1-0.3,0.2-0.4,0.2S-578.4,416.9-578.5,416.8z M-577.6,420.9h-1v-3.6h1V420.9z"/>
	<path fill="#FFFFFF" d="M-573.1,419.1c0,0.5-0.2,1-0.5,1.3c-0.4,0.4-0.8,0.5-1.4,0.5s-1-0.2-1.4-0.5c-0.4-0.4-0.5-0.8-0.5-1.3
		s0.2-1,0.5-1.3c0.4-0.4,0.8-0.5,1.4-0.5s1,0.2,1.4,0.5S-573.1,418.5-573.1,419.1z M-575.9,419.1c0,0.3,0.1,0.5,0.3,0.7
		c0.2,0.2,0.4,0.3,0.6,0.3c0.3,0,0.5-0.1,0.6-0.3c0.2-0.2,0.3-0.4,0.3-0.7c0-0.3-0.1-0.5-0.3-0.7c-0.2-0.2-0.4-0.3-0.6-0.3
		c-0.3,0-0.5,0.1-0.6,0.3S-575.9,418.8-575.9,419.1z"/>
	<path fill="#FFFFFF" d="M-571.3,418.9v2h-1v-3.6h1v0.4c0.3-0.3,0.6-0.5,1-0.5c0.4,0,0.7,0.1,1,0.4c0.3,0.3,0.4,0.6,0.4,1.1v2.2h-1
		v-2c0-0.6-0.2-0.8-0.6-0.8c-0.2,0-0.4,0.1-0.5,0.2C-571.2,418.4-571.3,418.6-571.3,418.9z"/>
</g>
<g>
	<path opacity="0.6" fill="#FFFDF8" d="M-591.3,399.4c0.4,1.2,0.9,2.1,1.4,2.8v-1c-0.3-0.5-0.6-1.1-0.8-1.8H-591.3z"/>
	<path opacity="0.6" fill="#FFFDF8" d="M-582.5,394.6c0-1.3-0.2-2.6-0.5-3.7c0.8-0.2,1.6-0.6,2.4-0.9c1,1.3,1.6,2.9,1.6,4.6H-582.5z
		 M-583.1,390.3c-0.2-0.6-0.4-1.1-0.7-1.6c-0.4-0.8-0.9-1.4-1.4-1.9c1.7,0.4,3.2,1.4,4.2,2.6C-581.7,389.8-582.4,390.1-583.1,390.3
		 M-586.9,391v-4.3c1,0.1,1.9,1,2.6,2.4c0.2,0.5,0.4,1,0.6,1.5C-584.7,390.8-585.8,390.9-586.9,391 M-585.2,402.9
		c0.9-0.7,1.6-2,2.1-3.5c0.7,0.2,1.5,0.5,2.2,0.9C-582,401.5-583.5,402.5-585.2,402.9 M-590.6,388.7c-0.3,0.5-0.5,1.1-0.7,1.7
		c-1.1-0.4-1.9-0.8-2.2-0.9c1.1-1.3,2.6-2.2,4.3-2.6C-589.7,387.3-590.2,387.9-590.6,388.7 M-587.2,386c-4.4,0-8,3.1-8.7,7.3
		c0.2,0.1,0.3,0.2,0.5,0.2c0.2-1.4,0.8-2.6,1.5-3.6c0.4,0.2,1.2,0.7,2.4,1c-0.3,1-0.4,2-0.5,3.1h0.6c0.1-1,0.2-2,0.4-3
		c0.3,0.1,0.6,0.2,1,0.2c0,0,0.1,0,0.1,0v-0.6c-0.3-0.1-0.6-0.1-0.9-0.2c0.2-0.6,0.4-1.1,0.6-1.6c0.7-1.4,1.7-2.2,2.6-2.3v4.4
		c-0.4,0-0.8,0-1.2-0.1l0.8,0.6c0.1,0,0.3,0,0.4,0v0.3l0.6,0.5v-0.8c1.1,0,2.3-0.2,3.4-0.5c0.3,1.1,0.4,2.3,0.5,3.5h-1l0.7,0.6h0.3
		c0,0.1,0,0.2,0,0.3l0.5,0.4c0-0.2,0-0.5,0-0.7h3.5c-0.1,1.7-0.7,3.3-1.6,4.6c-0.8-0.4-1.6-0.7-2.4-0.9c0.1-0.4,0.2-0.8,0.3-1.2
		l-0.7,0.6c0,0.1-0.1,0.3-0.1,0.4c-0.1,0-0.2-0.1-0.3-0.1l-0.5,0.5c0.2,0.1,0.5,0.1,0.7,0.2c-0.7,2.2-1.9,3.7-3.2,3.9v-2l-0.6,0.5
		v1.5c-0.4-0.1-0.8-0.3-1.2-0.5l-1,0.8c0.8,0.2,1.6,0.3,2.4,0.3c4.9,0,8.8-4,8.8-8.8C-578.4,390-582.3,386-587.2,386"/>
	<path opacity="0.6" fill="#FFFDF8" d="M-589.8,402.7c-1.4-0.5-2.7-1.3-3.7-2.5c0.3-0.2,1-0.5,1.9-0.8h-1.5c0,0,0,0,0,0
		c-0.3,0.2-0.6,0.3-0.7,0.4c-0.1-0.1-0.2-0.3-0.3-0.4c-0.2,0-0.5,0-0.7-0.1c1.1,1.9,2.9,3.3,5,4V402.7z"/>
	<path opacity="0.6" fill="#FFFDF8" d="M-593.4,394.9c0.1,0,0.2,0,0.3,0h4.1v-3.1l6.1,4.9l-6.1,5.1v-3.2h-4.1
		c-4.2,0-6.1-1.5-6.1-3.9c0-1,0.5-2.6,1.5-3.5C-598.1,392.6-597.4,394.4-593.4,394.9"/>
</g>
</svg>
