<?xml version="1.0" encoding="utf-8"?>
<!-- Generator: Adobe Illustrator 18.1.1, SVG Export Plug-In . SVG Version: 6.00 Build 0)  -->
<svg version="1.1" id="Layer_1" xmlns="http://www.w3.org/2000/svg" xmlns:xlink="http://www.w3.org/1999/xlink" x="0px" y="0px"
	 width="50.5px" height="50.6px" viewBox="-614 375.4 50.5 50.6" enable-background="new -614 375.4 50.5 50.6"
	 xml:space="preserve">
<path fill="#3B94D1" d="M-563.5,426H-614v-29.1c0-11.9,9.6-21.5,21.5-21.5h29V426z"/>
<g enable-background="new    ">
	<path fill="#FFFFFF" d="M-601.1,411.2c-0.1,0.1-0.1,0.2-0.1,0.3c0,0.1,0.1,0.2,0.2,0.3c0.1,0.1,0.4,0.2,0.8,0.3
		c0.4,0.1,0.8,0.3,1,0.5c0.2,0.2,0.4,0.5,0.4,0.9s-0.2,0.7-0.5,1c-0.3,0.3-0.7,0.4-1.2,0.4c-0.7,0-1.4-0.3-1.9-0.8l0.6-0.7
		c0.5,0.4,0.9,0.6,1.3,0.6c0.2,0,0.3,0,0.4-0.1c0.1-0.1,0.2-0.2,0.2-0.3s-0.1-0.2-0.2-0.3c-0.1-0.1-0.3-0.2-0.7-0.2
		c-0.5-0.1-0.9-0.3-1.2-0.5c-0.2-0.2-0.4-0.5-0.4-0.9s0.2-0.8,0.5-1c0.3-0.2,0.7-0.3,1.2-0.3c0.3,0,0.6,0.1,0.9,0.2
		c0.3,0.1,0.6,0.2,0.8,0.4l-0.5,0.7c-0.4-0.3-0.8-0.4-1.2-0.4C-600.9,411.1-601,411.1-601.1,411.2z"/>
	<path fill="#FFFFFF" d="M-597.1,412.1v1.6c0,0.1,0,0.2,0.1,0.3s0.2,0.1,0.2,0.1c0.2,0,0.3-0.1,0.5-0.2l0.4,0.7
		c-0.3,0.3-0.6,0.4-1,0.4c-0.3,0-0.6-0.1-0.8-0.3s-0.3-0.5-0.3-0.9v-1.6h-0.4v-0.7h0.4v-1h1v1h0.8v0.7H-597.1z"/>
	<path fill="#FFFFFF" d="M-593.6,412.2c-0.3,0-0.5,0.1-0.6,0.3c-0.1,0.2-0.2,0.5-0.2,0.8v1.5h-1v-3.5h1v0.5c0.1-0.1,0.3-0.3,0.5-0.4
		c0.2-0.1,0.4-0.2,0.6-0.2l0,0.9H-593.6z"/>
	<path fill="#FFFFFF" d="M-589.8,414.8h-0.9v-0.4c-0.2,0.3-0.6,0.5-0.9,0.5c-0.4,0-0.7-0.1-0.9-0.3s-0.4-0.5-0.4-0.9
		s0.1-0.6,0.4-0.8c0.3-0.2,0.6-0.3,1.1-0.3h0.7v0c0-0.4-0.2-0.6-0.6-0.6c-0.2,0-0.3,0-0.5,0.1s-0.3,0.1-0.5,0.2l-0.4-0.6
		c0.5-0.3,1-0.5,1.6-0.5c0.4,0,0.8,0.1,1,0.3s0.4,0.5,0.4,1V414.8z M-590.8,413.5v-0.2h-0.6c-0.4,0-0.6,0.1-0.6,0.4
		c0,0.1,0,0.2,0.1,0.3c0.1,0.1,0.2,0.1,0.4,0.1s0.3-0.1,0.5-0.2S-590.8,413.7-590.8,413.5z"/>
	<path fill="#FFFFFF" d="M-587.8,412.1v1.6c0,0.1,0,0.2,0.1,0.3c0.1,0.1,0.2,0.1,0.2,0.1c0.2,0,0.3-0.1,0.5-0.2l0.4,0.7
		c-0.3,0.3-0.6,0.4-1,0.4c-0.3,0-0.6-0.1-0.8-0.3s-0.3-0.5-0.3-0.9v-1.6h-0.4v-0.7h0.4v-1h1v1h0.8v0.7H-587.8z"/>
	<path fill="#FFFFFF" d="M-583.1,414.3c-0.4,0.4-0.9,0.6-1.4,0.6c-0.5,0-1-0.2-1.3-0.5c-0.3-0.3-0.5-0.8-0.5-1.3s0.2-1,0.5-1.3
		c0.4-0.3,0.8-0.5,1.2-0.5s0.9,0.1,1.2,0.4c0.3,0.3,0.5,0.7,0.5,1.2v0.5h-2.5c0,0.2,0.1,0.3,0.3,0.5c0.2,0.1,0.4,0.2,0.6,0.2
		c0.3,0,0.6-0.1,0.8-0.3L-583.1,414.3z M-584.1,412.3c-0.1-0.1-0.3-0.2-0.5-0.2s-0.4,0.1-0.5,0.2c-0.2,0.1-0.3,0.3-0.3,0.5h1.5
		C-583.8,412.5-583.9,412.4-584.1,412.3z"/>
	<path fill="#FFFFFF" d="M-579.6,414.2c-0.3,0.3-0.7,0.5-1.1,0.5c-0.5,0-0.8-0.2-1.1-0.5c-0.3-0.3-0.5-0.7-0.5-1.2s0.2-0.9,0.5-1.3
		c0.3-0.3,0.7-0.5,1.1-0.5s0.8,0.2,1,0.5v-0.5h1v3c0,0.3-0.1,0.6-0.2,0.8c-0.1,0.2-0.3,0.4-0.4,0.6c-0.4,0.3-0.8,0.4-1.3,0.4
		c-0.3,0-0.5,0-0.8-0.1c-0.3-0.1-0.5-0.2-0.7-0.4l0.4-0.7c0.3,0.2,0.7,0.4,1,0.4s0.6-0.1,0.8-0.3
		C-579.7,414.9-579.6,414.6-579.6,414.2z M-579.7,413c0-0.3-0.1-0.5-0.2-0.7c-0.2-0.2-0.3-0.2-0.6-0.2c-0.2,0-0.4,0.1-0.6,0.2
		c-0.2,0.2-0.2,0.4-0.2,0.7s0.1,0.5,0.2,0.7s0.4,0.3,0.6,0.3s0.4-0.1,0.6-0.3C-579.8,413.5-579.7,413.3-579.7,413z"/>
	<path fill="#FFFFFF" d="M-577.2,416.2c-0.3,0-0.7-0.1-1-0.4l0.4-0.7c0.2,0.2,0.3,0.2,0.5,0.2c0.1,0,0.2,0,0.2-0.1
		c0.1-0.1,0.1-0.2,0.1-0.3s-0.4-1.3-1.3-3.5h1l0.8,2.2l0.8-2.2h1l-1.6,4.1c-0.1,0.2-0.2,0.4-0.4,0.6
		C-576.8,416.1-577,416.2-577.2,416.2z"/>
</g>
<path opacity="0.6" fill="#FFFFFF" d="M-583.7,408.7h-8.9v-2.5l0.2-0.1c1.4-0.7,1.7-2.1,1.7-2.9c0-1.1-0.4-1.8-1.7-3l-0.2-0.2
	l2.9-4.2c-1.2-0.1-1.7,0.1-2.3,1.1l-0.2,0.3l-1.9-1.7l0.4-0.2c0-0.1,0.1-0.4,0-0.5l-0.1-0.2l0.2-0.2c0.8-0.8,1.6-1.7,2.3-2.6
	c0.3-0.4,0.7-0.8,1-1.1c-0.4-0.5-0.4-1.1-0.3-1.5c0-0.3,0.2-0.4,0.4-0.4c0.2,0,0.5,0.2,1.3,0.6c0.5,0.3,1,0.6,1.3,0.7
	c3.1,1.1,4.1,4.5,4.1,5.5l0,0.3c0,0.9,0,2-0.9,3.3l0.8,1l-0.3,0.2c-0.8,0.5-1.6,1.2-1.6,2.8c0,0.6,0.3,2.4,1.8,3.1l0.2,0.1V408.7z
	 M-591.9,408h7.6v-1.4c-1.6-0.9-2-2.8-2-3.5c0-1.8,0.8-2.6,1.6-3.2l-0.6-0.8l0.2-0.2c1-1.2,0.9-2.1,0.9-3.1l0-0.3
	c0-0.9-0.9-4-3.7-4.9c-0.3-0.1-0.9-0.4-1.4-0.8c-0.2-0.1-0.5-0.3-0.7-0.4c0,0.4,0.1,0.6,0.3,0.8l0.3,0.2l-0.2,0.3
	c-0.4,0.4-0.8,0.9-1.2,1.4c-0.7,0.8-1.4,1.7-2.2,2.5c0.1,0.2,0,0.5,0,0.7c0,0,0,0.1-0.1,0.2l0.8,0.7c0.8-1,1.5-1.2,3.2-1l0.6,0.1
	l-3.3,4.7c1.3,1.2,1.7,2.1,1.7,3.4c-0.1,1.5-0.7,2.7-1.9,3.3V408z"/>
</svg>
