<?xml version="1.0" encoding="utf-8"?>
<!-- Generator: Adobe Illustrator 18.1.1, SVG Export Plug-In . SVG Version: 6.00 Build 0)  -->
<svg version="1.1" id="Layer_1" xmlns="http://www.w3.org/2000/svg" xmlns:xlink="http://www.w3.org/1999/xlink" x="0px" y="0px"
	 width="443.3px" height="349.3px" viewBox="0 0 443.3 349.3" enable-background="new 0 0 443.3 349.3" xml:space="preserve">
<g>
	
		<circle fill="none" stroke="#FFFFFF" stroke-width="9.3922" stroke-linecap="square" stroke-linejoin="bevel" stroke-miterlimit="10" cx="219.5" cy="175" r="88.5"/>
	
		<line fill="none" stroke="#FFFFFF" stroke-width="4.6977" stroke-linecap="square" stroke-linejoin="bevel" stroke-miterlimit="10" x1="219.5" y1="85.7" x2="219.5" y2="264.3"/>
	
		<path fill="none" stroke="#FFFFFF" stroke-width="4.9213" stroke-linecap="square" stroke-linejoin="bevel" stroke-miterlimit="10" d="
		M130.3,175h178.5 M144.4,126.9h150.1 M149.9,230.6h139.2 M220.1,264.7c28.9-20.4,47.5-53,47.5-89.7c0-36.7-18.7-69.2-47.5-89.7
		 M219.5,264.7c-28.9-20.4-47.5-53-47.5-89.7c0-36.7,18.7-69.2,47.5-89.7"/>
	<path fill="none" stroke="#FFFFFF" stroke-width="1.756" stroke-miterlimit="10" d="M249.2,71.2h-60.6V20.1h60.6V71.2z M192.6,23.2
		h23.2v15.1h-23.2V23.2z M196.9,30.7v-4.9 M201.8,35.8v-9.9 M206.7,35.8v-9.9 M211.6,29.7v-3.9 M244.2,37.3h-21.6V24h21.6V37.3z
		 M237.8,30.6c0-2.4-2-4.4-4.4-4.4c-2.4,0-4.4,2-4.4,4.4c0,2.4,2,4.4,4.4,4.4C235.9,35,237.8,33.1,237.8,30.6z M244.2,66.3h-30.7
		V44.7h30.7V66.3z M216.6,57.7c0-3.1,1-7,6.7-7c6.2,0,2.8,8.5,11,8.2c5.4-0.2,5.4-6.6,5.4-6.6 M201.4,57.6h-3.6V44.8h3.6V57.6z
		 M208.2,57.6h-3.6V44.8h3.6V57.6z M197.8,60.1h10.4v3.6h-10.4V60.1z"/>
	<rect x="187.7" y="19.3" fill="none" stroke="#FFFFFF" stroke-width="1.0951" stroke-miterlimit="10" width="62.4" height="52.9"/>
	<path fill="none" stroke="#FFFFFF" stroke-width="2.9126" stroke-miterlimit="10" d="M412,162.4c0-2.2-1.8-4-4-4c-2.2,0-4,1.8-4,4
		c0,2.2,1.8,4,4,4C410.2,166.3,412,164.6,412,162.4z M390.2,162.4c0-2.2-1.8-4-4-4c-2.2,0-4,1.8-4,4c0,2.2,1.8,4,4,4
		C388.4,166.3,390.2,164.6,390.2,162.4z M397,111.8c-24.3,0-44,16.6-44,37.1v89.3h88v-89.3C441,128.4,421.3,111.8,397,111.8z"/>
	<path fill="none" stroke="#FFFFFF" stroke-width="2.9126" stroke-miterlimit="2" d="M397.1,122.6c0,18.1-15.2,32.8-33.4,32.8V208
		c2.1,8.9,13.3,16,27.2,17.7v12.5h13.3v-12.5c13.8-1.7,25-8.8,27.2-17.7v-52C412.8,156,397.1,141,397.1,122.6z"/>
	<ellipse fill="none" stroke="#FFFFFF" stroke-width="2.9126" stroke-miterlimit="10" cx="397" cy="178" rx="3.5" ry="5.8"/>
	<path fill="none" stroke="#FFFFFF" stroke-width="2.9126" stroke-linecap="round" stroke-miterlimit="10" d="M402.7,203.9
		c0,3.6-2.6,6.5-5.7,6.5s-5.7-2.9-5.7-6.5"/>
	<path fill="none" stroke="#FFFFFF" stroke-width="3.7582" stroke-miterlimit="10" d="M366.3,85.1C336,35.7,281.6,2.8,219.5,2.8
		C157.4,2.8,103,35.7,72.7,85"/>
	<rect x="0.8" y="1" fill="none" width="441.7" height="347.4"/>
	<polygon fill="#FFFFFF" points="372.4,66.3 368.7,65.7 365.4,83.9 347.5,79.3 346.6,83 368.4,88.5 	"/>
	<polygon fill="#FFFFFF" points="66.6,66.3 70.3,65.7 73.6,83.9 91.5,79.3 92.4,82.9 70.6,88.5 	"/>
	<path fill="none" stroke="#FFFFFF" stroke-width="3.7582" stroke-miterlimit="10" d="M72.7,264.3c30.3,49.3,84.7,82.2,146.8,82.2
		c62.1,0,116.5-32.9,146.8-82.2"/>
	<polygon fill="#FFFFFF" points="66.6,283 70.3,283.7 73.6,265.4 91.5,270 92.4,266.4 70.6,260.8 	"/>
	<polygon fill="#FFFFFF" points="372.4,283 368.7,283.7 365.4,265.4 347.5,270 346.6,266.4 368.4,260.8 	"/>
	<path fill="#FFFFFF" d="M54.2,238.2H38.8v-11.6c-17.4-2.2-30.5-16.8-30.5-34.5v-36.6h2.5v36.6c0,16.8,12.6,30.6,29.3,32.1l1.2,0.1
		v11.3h10.3v-11.3l1.2-0.1c16.7-1.5,29.3-15.3,29.3-32.1v-36.6h2.5v36.6c0,17.7-13,32.4-30.5,34.5V238.2z"/>
	<path fill="#FFFFFF" d="M11.3,141.4c-0.9,0-1.7-0.2-2.5-0.5c-1.7-0.7-3.1-2-3.9-3.7c-1.3-2.9,0-6.4,3-7.7c2.5-1.1,5.4,0,6.5,2.5
		c0.5,1,0.5,2.2,0.1,3.2c-0.4,1-1.2,1.9-2.2,2.3l-1-2.3c0.4-0.2,0.7-0.5,0.9-0.9c0.2-0.4,0.2-0.9,0-1.3c-0.5-1.2-1.9-1.7-3.2-1.2
		c-1.7,0.7-2.4,2.7-1.7,4.4c0.5,1.1,1.4,1.9,2.5,2.4c1.1,0.4,2.3,0.4,3.4-0.1l1,2.3C13.2,141.2,12.2,141.4,11.3,141.4"/>
	<path fill="#FFFFFF" d="M6.7,151.8c-1.5,0-3.1-0.6-4.3-1.7c-1-1-1.6-2.3-1.6-3.6c0-1.4,0.5-2.7,1.4-3.7c1.7-1.8,4.5-1.9,6.3-0.2
		c1.5,1.5,1.6,3.9,0.2,5.4l-1.8-1.7c0.5-0.5,0.5-1.3-0.1-1.8c-0.8-0.7-2-0.7-2.7,0.1c-1,1.1-1,2.8,0.1,3.8c1.5,1.4,3.8,1.3,5.2-0.1
		l1.8,1.7C10,151.2,8.4,151.8,6.7,151.8"/>
	<path fill="#FFFFFF" d="M22.4,130.5l-2-1.5c1.9-2.6,1.3-6.2-1.2-8.1c-0.9-0.7-2.1-1-3.2-0.8c-1.2,0.2-2.2,0.8-2.9,1.7
		c-1.1,1.4-0.8,3.5,0.7,4.5c1,0.8,2.5,0.5,3.3-0.5c0.5-0.7,0.4-1.7-0.3-2.3l1.5-2c1.8,1.4,2.2,4,0.9,5.8c-1.6,2.2-4.6,2.6-6.8,1
		c-2.6-1.9-3.1-5.5-1.2-8.1c1.1-1.5,2.7-2.5,4.5-2.7c1.8-0.3,3.6,0.2,5.1,1.3C24.3,121.6,25.1,126.8,22.4,130.5"/>
	<path fill="#FFFFFF" d="M31,125.4c-4.3-0.4-7.5-4.2-7.1-8.6c0.3-3.6,3.6-6.2,7.1-5.9c3,0.3,5.3,3,5,6c-0.1,1.2-0.7,2.4-1.6,3.2
		c-1,0.8-2.1,1.2-3.4,1.1c-2.2-0.2-3.8-2.1-3.6-4.3l2.5,0.2c-0.1,0.8,0.5,1.5,1.3,1.6c0.6,0.1,1.1-0.1,1.5-0.5
		c0.4-0.4,0.7-0.9,0.7-1.4c0.1-1.6-1.1-3.1-2.7-3.2c-2.2-0.2-4.2,1.4-4.4,3.6c-0.3,2.9,1.9,5.5,4.8,5.8L31,125.4z"/>
	<path fill="#FFFFFF" d="M41.5,123.2l-0.9-2.4c1.1-0.5,2-1.4,2.3-2.6c0.2-0.7,0.1-1.5-0.3-2.1c-0.4-0.6-1-1.1-1.7-1.3
		c-0.5-0.1-1-0.1-1.5,0.2c-0.5,0.3-0.8,0.7-0.9,1.2c-0.2,0.7,0.3,1.4,1,1.6l-0.6,2.5c-2.1-0.5-3.3-2.6-2.8-4.7
		c0.3-1.2,1-2.2,2.1-2.8c1-0.6,2.3-0.8,3.4-0.5c1.4,0.3,2.5,1.2,3.3,2.4c0.7,1.2,0.9,2.7,0.6,4C44.9,120.8,43.5,122.4,41.5,123.2"/>
	<path fill="#FFFFFF" d="M81.7,141.4c-0.9,0-1.9-0.2-2.8-0.6l1-2.3c2.2,1,4.9,0,5.9-2.3c0.7-1.7,0-3.6-1.7-4.4
		c-1.2-0.5-2.6,0-3.2,1.2c-0.4,0.8,0,1.8,0.8,2.2l-1,2.3c-2.1-0.9-3.1-3.4-2.2-5.5c1.1-2.5,4-3.6,6.5-2.5c3,1.3,4.3,4.8,3,7.7
		C87,139.9,84.4,141.4,81.7,141.4"/>
	<path fill="#FFFFFF" d="M86.3,151.8c-1.6,0-3.3-0.7-4.5-1.9l1.9-1.7c1.4,1.5,3.7,1.5,5.2,0.1c1.1-1,1.1-2.7,0.1-3.8
		c-0.7-0.8-1.9-0.8-2.7-0.1c-0.5,0.5-0.5,1.3,0,1.8l-1.8,1.7c-1.4-1.5-1.4-3.9,0.1-5.4c1.8-1.7,4.6-1.6,6.3,0.2
		c2,2.1,1.9,5.4-0.2,7.4C89.4,151.2,87.8,151.8,86.3,151.8"/>
	<path fill="#FFFFFF" d="M70.7,130.5c-2.7-3.7-1.9-8.9,1.8-11.6c3.1-2.3,7.4-1.6,9.7,1.5c1.9,2.6,1.3,6.2-1.2,8.1
		c-2.2,1.6-5.2,1.1-6.8-1c-1.4-1.8-1-4.5,0.9-5.8l1.5,2c-0.7,0.5-0.9,1.5-0.3,2.3c0.8,1,2.2,1.3,3.3,0.5c1.4-1.1,1.7-3.1,0.7-4.5
		c-1.4-1.9-4.2-2.4-6.1-0.9c-2.6,1.9-3.1,5.5-1.2,8.1L70.7,130.5z"/>
	<path fill="#FFFFFF" d="M62,125l-0.2-2.5c2.9-0.3,5.1-2.9,4.8-5.8c-0.1-1.1-0.6-2-1.4-2.7c-0.8-0.7-1.9-1-2.9-0.9
		c-0.8,0.1-1.5,0.4-2,1c-0.5,0.6-0.7,1.4-0.7,2.2c0,0.6,0.3,1.1,0.7,1.4c0.4,0.4,1,0.5,1.5,0.5c0.4,0,0.7-0.2,1-0.5
		c0.2-0.3,0.4-0.7,0.3-1l2.5-0.2c0.1,1.1-0.2,2.1-0.9,2.9c-0.7,0.8-1.6,1.3-2.7,1.4c-1.2,0.1-2.4-0.3-3.4-1.1
		c-1-0.8-1.5-1.9-1.7-3.2c-0.1-1.5,0.3-2.9,1.3-4c0.9-1.1,2.3-1.8,3.7-2c1.7-0.2,3.4,0.4,4.8,1.5c1.3,1.1,2.2,2.7,2.3,4.4
		C69.6,120.8,66.4,124.6,62,125"/>
	<path fill="#FFFFFF" d="M51.8,123.3c-2.1-0.7-3.6-2.4-4.1-4.5c-0.7-2.9,1-5.8,3.9-6.5c2.4-0.6,4.9,0.9,5.5,3.3c0.3,1,0.1,2-0.4,2.9
		c-0.5,0.9-1.4,1.5-2.4,1.8l-0.6-2.5c0.3-0.1,0.6-0.3,0.8-0.6c0.2-0.3,0.2-0.7,0.1-1c-0.3-1.1-1.3-1.7-2.4-1.4
		c-1.5,0.4-2.4,1.9-2,3.4c0.3,1.3,1.2,2.3,2.5,2.7L51.8,123.3z"/>
	<path fill="#FFFFFF" d="M32.9,164c-0.9,0-1.6,0.7-1.6,1.6c0,0.9,0.7,1.7,1.6,1.7c0.9,0,1.6-0.7,1.6-1.7
		C34.5,164.8,33.8,164,32.9,164 M32.9,169.9c-2.3,0-4.2-1.9-4.2-4.2c0-2.3,1.9-4.2,4.2-4.2c2.3,0,4.2,1.9,4.2,4.2
		C37.1,168,35.2,169.9,32.9,169.9"/>
	<path fill="#FFFFFF" d="M61,164c-0.9,0-1.6,0.7-1.6,1.6c0,0.9,0.7,1.7,1.6,1.7c0.9,0,1.6-0.7,1.6-1.7C62.6,164.8,61.9,164,61,164
		 M61,169.9c-2.3,0-4.2-1.9-4.2-4.2c0-2.3,1.9-4.2,4.2-4.2c2.3,0,4.2,1.9,4.2,4.2C65.2,168,63.3,169.9,61,169.9"/>
	<path fill="#FFFFFF" d="M40.5,159.3c-1.9-2.3-4.7-3.6-7.7-3.6c-3,0-5.8,1.3-7.7,3.6l-2-1.6c2.4-2.9,5.9-4.5,9.6-4.5
		c3.7,0,7.2,1.6,9.6,4.5L40.5,159.3z"/>
	<path fill="#FFFFFF" d="M53.3,159.3l-2-1.6c2.4-2.9,5.9-4.5,9.6-4.5c3.7,0,7.2,1.6,9.6,4.5l-2,1.6c-1.9-2.3-4.7-3.6-7.7-3.6
		C58,155.7,55.2,157,53.3,159.3"/>
	<path fill="#FFFFFF" d="M46.8,185h-0.3v-2.5h0.3c1,0,1.8-0.8,1.8-1.8v-4.1c0-1-0.8-1.8-1.8-1.8h-0.7c-1,0-1.8,0.8-1.8,1.8v4.1
		c0,1,0.8,1.8,1.8,1.8h0.3v2.5h-0.3c-2.4,0-4.3-1.9-4.3-4.3v-4.1c0-2.4,1.9-4.3,4.3-4.3h0.7c2.4,0,4.3,1.9,4.3,4.3v4.1
		C51.1,183.1,49.2,185,46.8,185"/>
	<path fill="#FFFFFF" d="M46.4,209.1c-5.8,0-11.2-2.5-14.9-7l2-1.6c3.2,3.9,8,6.1,13,6.1c5,0,9.8-2.2,13-6.1l2,1.6
		C57.7,206.6,52.2,209.1,46.4,209.1"/>
	<path fill="#FFFFFF" d="M35.3,137.4c-0.2,0-0.4,0-0.6,0c-3-0.3-5.3-3-5-6c0.1-1.2,0.7-2.4,1.7-3.2c1-0.8,2.1-1.2,3.4-1.1
		c1.1,0.1,2,0.6,2.7,1.4c0.7,0.8,1,1.8,0.9,2.9l-2.5-0.2c0-0.4-0.1-0.8-0.3-1c-0.2-0.3-0.6-0.5-1-0.5c-0.6-0.1-1.1,0.1-1.5,0.5
		c-0.4,0.4-0.7,0.9-0.7,1.4c-0.1,1.6,1.1,3.1,2.7,3.2c2.2,0.2,4.2-1.4,4.4-3.6c0.1-1.4-0.3-2.8-1.2-3.9c-0.9-1.1-2.2-1.8-3.6-1.9
		l0.2-2.5c2.1,0.2,4,1.2,5.3,2.8c1.3,1.6,2,3.7,1.8,5.8C41.5,134.9,38.7,137.4,35.3,137.4"/>
	<path fill="#FFFFFF" d="M52.6,135.7c-0.4,0-0.8,0-1.1-0.1c-1.4-0.3-2.5-1.2-3.3-2.4c-0.7-1.2-0.9-2.7-0.6-4.1
		c0.5-2.1,2.1-3.8,4.1-4.5l0.8,2.4c-1.2,0.4-2.2,1.4-2.5,2.7c-0.2,0.7-0.1,1.5,0.3,2.1c0.4,0.6,1,1.1,1.7,1.3c0.5,0.1,1,0.1,1.5-0.2
		c0.5-0.3,0.8-0.7,0.9-1.2c0.1-0.3,0-0.7-0.1-1c-0.2-0.3-0.5-0.5-0.8-0.6l0.6-2.5c1,0.3,1.8,0.9,2.4,1.8c0.5,0.9,0.7,1.9,0.4,2.9
		c-0.3,1.2-1,2.2-2.1,2.8C54.2,135.5,53.4,135.7,52.6,135.7"/>
	<path fill="#FFFFFF" d="M44,137.4C44,137.4,44,137.4,44,137.4c-0.3,0-0.4,0.1-0.6,0.3c-0.4,0.5-0.4,1.3,0.1,1.8
		c0.4,0.3,0.9,0.5,1.4,0.4c0.5,0,1-0.3,1.3-0.7c0.5-0.5,0.7-1.2,0.6-1.9c0-0.6-0.3-1.2-0.7-1.6l-1.6,1.9
		C44.3,137.5,44.2,137.4,44,137.4 M44.8,142.4c-1,0-2-0.4-2.9-1c-1.6-1.3-1.8-3.7-0.4-5.3c0.6-0.7,1.4-1.1,2.2-1.2
		c0.8-0.1,1.6,0.2,2.3,0.7c0,0-0.1-0.1-0.1-0.1l1.6-1.9c1.1,0.9,1.7,2.2,1.8,3.5c0.1,1.4-0.3,2.7-1.2,3.8c-0.8,0.9-1.8,1.5-3,1.5
		C45,142.4,44.9,142.4,44.8,142.4"/>
	<path fill="#FFFFFF" d="M21.5,134.5c-0.6,0-1.1,0.5-1.2,1.1c-0.1,1,0.6,2,1.6,2.1c0.7,0.1,1.4-0.1,2-0.5c0.5-0.4,0.8-0.9,1-1.5
		l-2.5-0.4c0-0.2,0-0.4-0.1-0.5c-0.1-0.2-0.3-0.3-0.5-0.3C21.6,134.5,21.5,134.5,21.5,134.5 M22.2,140.2c-0.2,0-0.5,0-0.7-0.1
		c-2.4-0.3-4.1-2.6-3.8-5c0.3-2.1,2.2-3.5,4.3-3.2c0.9,0.1,1.6,0.6,2.2,1.3c0.5,0.7,0.7,1.5,0.6,2.3c0-0.1,0-0.1,0-0.2l2.5,0.4
		c-0.2,1.4-0.9,2.6-2,3.4C24.4,139.9,23.3,140.2,22.2,140.2"/>
	<path fill="#FFFFFF" d="M71.6,135.4l2.5,0.5c-0.1,0.4,0.2,0.8,0.6,0.9c0.3,0.1,0.7,0,0.9-0.2c0.3-0.2,0.5-0.5,0.5-0.8
		c0.2-1-0.5-2-1.5-2.2C73.4,133.3,72,134.1,71.6,135.4 M75,139.3c-0.2,0-0.5,0-0.7-0.1c-1.7-0.3-2.9-2-2.6-3.7c0,0,0,0.1,0,0.1
		l-2.5-0.5c0.6-2.8,3.3-4.7,6.1-4.1c2.4,0.5,3.9,2.8,3.5,5.2C78.3,138.1,76.7,139.3,75,139.3"/>
	<path fill="#FFFFFF" d="M63.1,136.4c-0.1,0-0.2,0-0.3,0c-3.2-0.2-5.7-2.9-5.6-6.1c0.1-1.3,0.6-2.5,1.6-3.4c1-0.9,2.3-1.3,3.6-1.3
		c1.1,0.1,2.2,0.5,2.9,1.4c0.8,0.8,1.1,1.9,1.1,3l-2.5-0.1c0-0.4-0.1-0.9-0.4-1.2c-0.3-0.3-0.7-0.5-1.1-0.5c-0.6,0-1.3,0.2-1.7,0.6
		c-0.5,0.4-0.8,1-0.8,1.7c-0.1,1.8,1.3,3.4,3.1,3.5c1.2,0.1,2.3-0.3,3.2-1.1c0.9-0.8,1.4-1.9,1.5-3.1l2.5,0.1
		C69.9,133.5,66.8,136.4,63.1,136.4"/>
	<path fill="none" stroke="#FFFFFF" stroke-width="1.338" stroke-miterlimit="10" d="M240.9,325.5h-44v-43.6h44V325.5z M197,300.1
		h44 M205.8,300.1v25.4 M197,317.1h8.8 M197,308.4h34.4v8.5 M222.8,308.4v17 M240.3,325.5c0-4.7-3.8-8.5-8.5-8.5
		c-4.7,0-8.5,3.8-8.5,8.5 M214.1,281.8v18.2 M214.1,290.9h26.8 M231.3,290.9v9.1 M214.1,281.8c0,9.5-7.7,17.2-17.2,17.2"/>
</g>
</svg>
