<svg xmlns="http://www.w3.org/2000/svg" viewBox="0 0 86.59 86.69"><title>aim</title><g id="レイヤー_2" data-name="レイヤー 2"><g id="レイヤー_1-2" data-name="レイヤー 1"><path d="M0,52.32c.32-2,.53-4.09,1-6.09A33.15,33.15,0,0,1,54.84,28.44l.55.46a1.36,1.36,0,0,0,.28.11c2.52-2.52,5.08-5,7.58-7.63a2.07,2.07,0,0,0,.3-1.51q-.47-3.62-1.09-7.22a2.81,2.81,0,0,1,.87-2.78C66.32,7,69.23,4,72.18,1.07,72.57.68,73,.35,73.44,0h.72a2.71,2.71,0,0,1,1.23,2.17c.35,2.41.75,4.81,1.22,7.2a1.46,1.46,0,0,0,1,.91c2.51.46,5.05.78,7.56,1.25a2,2,0,0,1,1.42,1A2.22,2.22,0,0,1,86,14.32c-3,3.23-6.18,6.37-9.25,9.56a2.42,2.42,0,0,1-2.32.57c-2.57-.35-5.14-.73-7.72-1.05a1.83,1.83,0,0,0-1.31.21c-2.59,2.49-5.12,5-7.7,7.61a34.63,34.63,0,0,1,6.44,10.44C72,61.59,58.68,83.87,37.49,86.44A33.08,33.08,0,0,1,.55,59C.31,57.56.18,56.13,0,54.72ZM53.3,31.23C43,21.39,24.12,19.93,11.71,32.55A30.12,30.12,0,1,0,57,72.08c10.39-13.47,6.65-30.62-1.33-38.34L51.37,38A23.88,23.88,0,1,1,14,39.51a23.1,23.1,0,0,1,14.27-9.22A23.69,23.69,0,0,1,49,35.58ZM44.14,45.15A13.73,13.73,0,0,1,23.75,63.42a13.72,13.72,0,0,1-1.63-17.75,13,13,0,0,1,7.63-5.28,13.57,13.57,0,0,1,11.85,2.34l5-5c-8.1-7.38-21.47-6.4-29.08,2.22A20.82,20.82,0,1,0,49.35,66.8c7.29-8.86,5.3-21-.31-26.56Zm-2.36,2.13c-.35.32-.64.58-.92.86-2.09,2.09-4.17,4.19-6.28,6.27-.83.82-1.82.9-2.42.19a1.55,1.55,0,0,1,.25-2.33c1.7-1.7,3.37-3.41,5.09-5.08.71-.68,1.53-1.26,2.35-1.93-4.86-3.55-11-2.83-14.64,1.37a10.63,10.63,0,1,0,16.57.65Zm31-42.58C70.43,7,68.34,9.17,66.2,11.25a1.92,1.92,0,0,0-.62,1.9c.33,1.92.64,3.86.88,5.79A1.6,1.6,0,0,0,68,20.54c1.9.23,3.8.48,5.69.79a2,2,0,0,0,2-.7c1-1.1,2.06-2.11,3.09-3.18S80.87,15.3,82,14.07c-2.34-.37-4.41-.74-6.49-1a1.74,1.74,0,0,1-1.69-1.67C73.54,9.26,73.16,7.15,72.74,4.71Z"/></g></g></svg>