<?xml version="1.0" encoding="utf-8"?>
<!-- Generator: Adobe Illustrator 18.1.1, SVG Export Plug-In . SVG Version: 6.00 Build 0)  -->
<svg version="1.1" id="Layer_1" xmlns="http://www.w3.org/2000/svg" xmlns:xlink="http://www.w3.org/1999/xlink" x="0px" y="0px"
	 viewBox="0 0 150 150" enable-background="new 0 0 150 150" xml:space="preserve">
<g>
	<path fill="#808080" d="M131.7,147.1c-1.1,0-2.2-0.4-3.1-1.1l-50-43.4l-50,43.4c-1.4,1.2-3.4,1.5-5,0.7c-1.7-0.8-2.7-2.4-2.7-4.3
		V7.9c0-2.6,2.1-4.7,4.7-4.7h106.2c2.6,0,4.7,2.1,4.7,4.7v134.5c0,1.8-1.1,3.5-2.7,4.3C133.1,147,132.4,147.1,131.7,147.1z
		 M78.6,91.7c1.1,0,2.2,0.4,3.1,1.1l45.3,39.3V12.6H30.2v119.6l45.3-39.3C76.4,92.1,77.5,91.7,78.6,91.7z"/>
</g>
</svg>
