<svg xmlns="http://www.w3.org/2000/svg" viewBox="0 0 114.24 68.88"><title>Conclusion_1</title><g id="レイヤー_2" data-name="レイヤー 2"><g id="レイヤー_1-2" data-name="レイヤー 1"><path d="M0,18.52c.1-.29.23-.57.31-.86A10.85,10.85,0,0,1,10.79,9.4a10.75,10.75,0,0,1,10.64,8.19c.07.27.15.54.26,1,1.62-.2,3.28-.39,4.92-.59L60,13.69q15.87-2,31.73-4.08a1.2,1.2,0,0,0,.84-.72A10.89,10.89,0,0,1,114,9.12c0,.1.13.18.19.27v2.88c-.21.72-.4,1.44-.64,2.15a10.86,10.86,0,0,1-14.53,6.46,1.28,1.28,0,0,0-1.58.15Q79.22,36.48,60.91,51.88c-.06.05-.1.12-.05.06a33.85,33.85,0,0,1,1.31,4.87,10.71,10.71,0,0,1-9.63,12,10.87,10.87,0,0,1-11.9-9.24,11.39,11.39,0,0,1,.68-5.77A1.45,1.45,0,0,0,41,52.5Q28.9,41.35,16.68,30.29a1.14,1.14,0,0,0-1-.22,10.94,10.94,0,0,1-15.55-8c0-.07-.09-.12-.14-.18Q0,20.2,0,18.52Zm92.18-5.88L89.39,13,62,16.45,36.49,19.71c-4.6.59-9.2,1.15-13.79,1.76-.37,0-1,.31-1,.55a11.84,11.84,0,0,1-3,5.93L43.39,50.49c4.15-4,10.08-4.77,15.33-.73L95.36,18.9ZM10.91,28.12A7.86,7.86,0,1,0,3,20.31,7.87,7.87,0,0,0,10.91,28.12ZM51.37,65.84A7.88,7.88,0,1,0,43.56,58,7.9,7.9,0,0,0,51.37,65.84Zm44.11-55A7.84,7.84,0,1,0,103.35,3,7.84,7.84,0,0,0,95.48,10.81Z"/></g></g></svg>