<?xml version="1.0" encoding="utf-8"?>
<!-- Generator: Adobe Illustrator 18.1.1, SVG Export Plug-In . SVG Version: 6.00 Build 0)  -->
<svg version="1.1" id="Layer_1" xmlns="http://www.w3.org/2000/svg" xmlns:xlink="http://www.w3.org/1999/xlink" x="0px" y="0px"
	 viewBox="0 0 38.3 19.2" enable-background="new 0 0 38.3 19.2" xml:space="preserve">
<g>
	<path fill="#FFFFFF" d="M9.6,19.2C4.3,19.2,0,14.9,0,9.6C0,4.3,4.3,0,9.6,0s9.6,4.3,9.6,9.6C19.2,14.9,14.9,19.2,9.6,19.2z
		 M9.6,1.2C5,1.2,1.2,5,1.2,9.6c0,4.7,3.8,8.5,8.5,8.5s8.5-3.8,8.5-8.5C18.1,5,14.3,1.2,9.6,1.2z"/>
	<path fill="#FFFFFF" d="M9.6,16.3c-3.7,0-6.7-3-6.7-6.7c0-3.7,3-6.7,6.7-6.7c3.7,0,6.7,3,6.7,6.7C16.3,13.3,13.3,16.3,9.6,16.3z
		 M9.6,4.1c-3.1,0-5.5,2.5-5.5,5.5c0,3.1,2.5,5.5,5.5,5.5c3.1,0,5.5-2.5,5.5-5.5C15.2,6.6,12.7,4.1,9.6,4.1z"/>
	<rect x="26" y="8.5" fill="#FFFFFF" width="12.3" height="1.2"/>
	<path fill="#FFFFFF" d="M9.6,17.8c-4.5,0-8.2-3.7-8.2-8.2c0-4.5,3.7-8.2,8.2-8.2c4.5,0,8.2,3.7,8.2,8.2
		C17.8,14.1,14.1,17.8,9.6,17.8z M9.6,2.6c-3.9,0-7,3.1-7,7c0,3.9,3.1,7,7,7c3.9,0,7-3.1,7-7C16.6,5.8,13.5,2.6,9.6,2.6z"/>
</g>
</svg>
