<svg xmlns="http://www.w3.org/2000/svg" viewBox="0 0 65.6 82.28"><title>Image_new</title><g id="レイヤー_2" data-name="レイヤー 2"><g id="レイヤー_1-2" data-name="レイヤー 1"><path d="M1,0h63.6a2.29,2.29,0,0,1,1,2q0,39.12,0,78.23c0,1.61-.42,2-2.08,2H2.06c-1.65,0-2-.4-2-2Q0,41.17,0,2.12A2.19,2.19,0,0,1,1,0ZM3,3.13V77.49c.42-.6.69-1,.94-1.37l21-32.7c1.28-2,2.24-2,3.52,0l9.64,15c.16.24.35.47.59.8l4-6.26C44,51,45,51,46.31,53l15.2,23.71c.26.41.54.8,1,1.44V3.13ZM44.51,55.82l-4.18,6.51c-1.15,1.79-2.17,1.8-3.32,0Q32.31,55,27.63,47.73c-.27-.42-.56-.84-.94-1.41L5.62,79.17H59.48Z"/><path d="M32.59,21.41A11.38,11.38,0,1,1,44,32.75,11.35,11.35,0,0,1,32.59,21.41Zm19.74,0a8.36,8.36,0,1,0-16.72-.06,8.36,8.36,0,0,0,16.72.06Z"/></g></g></svg>