<svg xmlns="http://www.w3.org/2000/svg" viewBox="0 0 96.98 136.15"><defs><style>.cls-1{fill:#e8d94d;}</style></defs><title>KeyInsightYellow_1</title><g id="レイヤー_2" data-name="レイヤー 2"><g id="レイヤー_1-2" data-name="レイヤー 1"><path d="M53,120.06l-20.32,5.05a1.5,1.5,0,1,0,.72,2.91L53.7,123a1.5,1.5,0,0,0-.72-2.91Z"/><path d="M53,111.2l-20.32,5.05a1.5,1.5,0,1,0,.72,2.91l20.32-5.05A1.5,1.5,0,1,0,53,111.2Z"/><path class="cls-1" d="M58.46,89.8c6-5.21,6.17-14.35,6.17-14.44A21.63,21.63,0,0,0,43.18,53.62c-12,0-21.32,9.56-21.32,21.76C21.86,85.52,27.18,90,29.45,92a8.17,8.17,0,0,1,1.06,1C34.77,97.49,35,104.51,35,104.81a1.49,1.49,0,0,1-.36,1,1.53,1.53,0,0,1-.23.33,1.51,1.51,0,0,1-1.06.48,1.44,1.44,0,0,1-.28,0l-.1.66,18.44-4.85A20.26,20.26,0,0,1,58.46,89.8Z"/><path d="M43.18,50.62c-13.64,0-24.32,10.88-24.32,24.76,0,11.53,6.28,16.86,8.65,18.86.26.22.59.5.65.56l.12.15c3.51,3.7,3.77,9.89,3.77,9.95a1.5,1.5,0,0,0,3-.09c0-.3-.28-7.32-4.54-11.86a8.17,8.17,0,0,0-1.06-1c-2.27-1.93-7.59-6.44-7.59-16.58,0-12.2,9.37-21.76,21.32-21.76A21.63,21.63,0,0,1,64.64,75.36c0,.09-.19,9.23-6.17,14.44a20.26,20.26,0,0,0-7,12.63L33,107.28l-.46.12a1.5,1.5,0,1,0,.76,2.9l19.94-5.24a1.5,1.5,0,0,0,1.12-1.45,16.78,16.78,0,0,1,6.07-11.55c7-6.1,7.2-16.24,7.2-16.68A24.64,24.64,0,0,0,43.18,50.62Z"/><path d="M86,70.17H77.88a1.55,1.55,0,0,0,0,3H86a1.55,1.55,0,0,0,0-3Z"/><path d="M9.26,70.17H1.15a1.55,1.55,0,0,0,0,3H9.26a1.55,1.55,0,0,0,0-3Z"/><path d="M43.25,41a1.36,1.36,0,0,0,1.5-1.15V31.71a1.55,1.55,0,0,0-3,0v8.11A1.36,1.36,0,0,0,43.25,41Z"/><path d="M11.93,45a1.36,1.36,0,0,0-1.82.53,1.36,1.36,0,0,0,0,1.89l6.53,4.8a1.36,1.36,0,0,0,1.82-.53,1.36,1.36,0,0,0,0-1.89Z"/><path d="M49.64,128.08a1.5,1.5,0,0,0-1.41,1.58,2,2,0,0,1-.64,1.48,7.94,7.94,0,0,1-5.13,2,9.48,9.48,0,0,1-4.77-1.8,1.5,1.5,0,0,0-1.81,2.39,12.44,12.44,0,0,0,6.59,2.41,10.83,10.83,0,0,0,7.31-2.95,4.94,4.94,0,0,0,1.46-3.71A1.49,1.49,0,0,0,49.64,128.08Z"/><path d="M96.83,18.21a1.5,1.5,0,0,0-1.36-.86H76.83L86.2,2.29A1.5,1.5,0,0,0,84.92,0H65.22a1.5,1.5,0,0,0-1.48,1.28l-4.22,28A1.5,1.5,0,0,0,61,31H75.22L67.8,50.34a1.5,1.5,0,0,0,2.56,1.49l26.28-32A1.5,1.5,0,0,0,96.83,18.21ZM74.56,42.34l-.2-.17,4.18-10.92c.78-2,.24-2.82-2-2.83H62.8L66.54,3.59H82.09l-5.28,8.51c-1.16,1.86-2.31,3.73-3.47,5.59-.47.75-1.16,1.61-.47,2.37a3.27,3.27,0,0,0,2.19.79c5.15.07,10.3,0,15.44,0h1.66Z"/><path class="cls-1" d="M75.06,20.85a3.27,3.27,0,0,1-2.19-.79c-.69-.76,0-1.62.47-2.37,1.17-1.86,2.32-3.72,3.47-5.59l5.28-8.51H66.54L62.8,28.43H76.58c2.2,0,2.74.79,2,2.83L74.36,42.17l.2.17,17.6-21.46H90.5C85.36,20.88,80.21,20.91,75.06,20.85Z"/></g></g></svg>