<svg xmlns="http://www.w3.org/2000/svg" viewBox="0 0 96.98 136.15"><title>KeyInsight_new</title><g id="レイヤー_2" data-name="レイヤー 2"><g id="レイヤー_1-2" data-name="レイヤー 1"><path d="M33,128.07a1.5,1.5,0,0,1-.36-3L53,120.06A1.5,1.5,0,1,1,53.7,123L33.39,128A1.5,1.5,0,0,1,33,128.07Z"/><path d="M33,119.21a1.5,1.5,0,0,1-.36-3L53,111.2a1.5,1.5,0,0,1,.72,2.91l-20.32,5.05A1.5,1.5,0,0,1,33,119.21Z"/><path d="M32.92,110.36a1.5,1.5,0,0,1-.38-3l18.91-5a20.26,20.26,0,0,1,7-12.63c6-5.21,6.17-14.35,6.17-14.44A21.63,21.63,0,0,0,43.18,53.62c-12,0-21.32,9.56-21.32,21.76C21.86,85.52,27.18,90,29.45,92a8.17,8.17,0,0,1,1.06,1C34.77,97.49,35,104.51,35,104.81a1.5,1.5,0,0,1-3,.09c0-.06-.26-6.25-3.77-9.95l-.12-.15c-.06-.07-.39-.34-.65-.56-2.36-2-8.65-7.33-8.65-18.86,0-13.89,10.68-24.76,24.32-24.76A24.64,24.64,0,0,1,67.64,75.38c0,.44-.19,10.58-7.2,16.68a16.78,16.78,0,0,0-6.07,11.55,1.5,1.5,0,0,1-1.12,1.45l-19.94,5.24A1.49,1.49,0,0,1,32.92,110.36Z"/><path d="M86,73.17H77.88a1.55,1.55,0,0,1,0-3H86a1.55,1.55,0,0,1,0,3Z"/><path d="M9.26,73.17H1.15a1.55,1.55,0,0,1,0-3H9.26a1.55,1.55,0,0,1,0,3Z"/><path d="M44.75,31.71v8.11a1.55,1.55,0,0,1-3,0V31.71a1.55,1.55,0,0,1,3,0Z"/><path d="M10.16,47.39l6.53,4.8a1.36,1.36,0,0,0,1.82-.53,1.36,1.36,0,0,0,0-1.89L11.93,45a1.36,1.36,0,0,0-1.82.53A1.36,1.36,0,0,0,10.16,47.39Z"/><path d="M42.45,136.15a12.44,12.44,0,0,1-6.59-2.41,1.5,1.5,0,0,1,1.81-2.39h0a9.48,9.48,0,0,0,4.77,1.8,7.94,7.94,0,0,0,5.13-2,2,2,0,0,0,.64-1.48,1.5,1.5,0,1,1,3-.17,4.94,4.94,0,0,1-1.46,3.71A10.83,10.83,0,0,1,42.45,136.15Z"/><path d="M69.2,52.38a1.5,1.5,0,0,1-1.4-2L75.22,31H61a1.5,1.5,0,0,1-1.48-1.72l4.22-28A1.5,1.5,0,0,1,65.22,0h19.7A1.5,1.5,0,0,1,86.2,2.29L76.83,17.35H95.48a1.5,1.5,0,0,1,1.16,2.45l-26.28,32A1.5,1.5,0,0,1,69.2,52.38ZM62.74,28H77.41a1.5,1.5,0,0,1,1.4,2L73.93,42.74l18.38-22.4H74.14a1.5,1.5,0,0,1-1.27-2.29L82.22,3H66.51Z"/></g></g></svg>