<svg xmlns="http://www.w3.org/2000/svg" viewBox="0 0 76.4 77.26"><title>Link</title><g id="レイヤー_2" data-name="レイヤー 2"><g id="レイヤー_1-2" data-name="レイヤー 1"><path d="M13.18,77.26h-.31a12.53,12.53,0,0,1-9.17-4A13.86,13.86,0,0,1,0,62.71,13.71,13.71,0,0,1,3.55,54.3l21.2-21.08a14.15,14.15,0,0,1,9.44-3.35,12.58,12.58,0,0,1,9.1,4.21,1.5,1.5,0,0,1-2.2,2,9.52,9.52,0,0,0-7-3.26,11.62,11.62,0,0,0-7.26,2.48L5.67,56.42c-2.46,2.45-4.55,9.7.23,14.84a9.67,9.67,0,0,0,7,3c3.16,0,6.11-1.15,7-2L40.79,51.48l2.12,2.13L22.06,74.34C20.58,75.81,17.08,77.26,13.18,77.26Z"/><path d="M42.47,47.4h-.26a12.57,12.57,0,0,1-9.1-4.21,1.5,1.5,0,0,1,2.2-2,9.52,9.52,0,0,0,7,3.26,11.58,11.58,0,0,0,7.26-2.48l21.2-21.08c2.46-2.45,4.55-9.7-.23-14.84a9.67,9.67,0,0,0-7-3c-3.15,0-6.11,1.15-7,2L35.6,25.79l-2.12-2.13L54.34,2.92c1.52-1.51,5.15-3,9.18-2.92A12.53,12.53,0,0,1,72.7,4a13.86,13.86,0,0,1,3.66,10.59A13.71,13.71,0,0,1,72.85,23L51.65,44A14.28,14.28,0,0,1,42.47,47.4Z"/></g></g></svg>