<svg xmlns="http://www.w3.org/2000/svg" viewBox="0 0 51.89 76.06"><title>Location</title><g id="レイヤー_2" data-name="レイヤー 2"><g id="レイヤー_1-2" data-name="レイヤー 1"><path d="M25.94,39.53A13.27,13.27,0,1,1,39.21,26.26,13.28,13.28,0,0,1,25.94,39.53Zm0-23.54A10.27,10.27,0,1,0,36.21,26.26,10.28,10.28,0,0,0,25.94,16Z"/><path d="M25.94,76.06a1.5,1.5,0,0,1-1.23-.64C23.7,74,0,39.75,0,25.94a25.94,25.94,0,1,1,51.89,0c0,13.81-23.7,48-24.71,49.48A1.5,1.5,0,0,1,25.94,76.06ZM25.94,3A23,23,0,0,0,3,25.94c0,11.17,18,38.65,22.94,46,4.93-7.31,22.94-34.79,22.94-46A23,23,0,0,0,25.94,3Z"/></g></g></svg>