<svg xmlns="http://www.w3.org/2000/svg" viewBox="0 0 99.06 89.58"><defs><style>.cls-1{fill:none;}</style></defs><title>mvp</title><g id="レイヤー_2" data-name="レイヤー 2"><g id="レイヤー_1-2" data-name="レイヤー 1"><polygon class="cls-1" points="75.91 3 52.57 3 68.9 24.34 75.91 3"/><polygon class="cls-1" points="46.49 3 23.15 3 30.16 24.34 46.49 3"/><polygon class="cls-1" points="20.55 4.7 4.51 26.01 27.56 26.01 20.55 4.7"/><polygon class="cls-1" points="66.4 26.01 49.53 3.97 32.66 26.01 66.4 26.01"/><polygon class="cls-1" points="94.55 26.01 78.51 4.7 71.51 26.01 94.55 26.01"/><polygon class="cls-1" points="53.58 80.56 94.46 29.01 70.52 29.01 53.58 80.56"/><polygon class="cls-1" points="4.6 29.01 45.48 80.56 28.54 29.01 4.6 29.01"/><polygon class="cls-1" points="67.36 29.01 31.7 29.01 49.53 83.28 67.36 29.01"/><path d="M99,27.1,99,27a1.49,1.49,0,0,0-.2-.38v0L79.18.6h0A1.49,1.49,0,0,0,79,.36l-.07,0-.2-.13L78.57.13,78.45.08l-.07,0-.12,0L78,0H21L20.8,0l-.12,0-.07,0L20.5.13l-.12.05-.19.13-.07.05a1.49,1.49,0,0,0-.22.23h0L.3,26.61v0a1.49,1.49,0,0,0-.2.38l0,.08a1.48,1.48,0,0,0-.07.42H0v0A1.48,1.48,0,0,0,.08,28L.1,28a1.49,1.49,0,0,0,.21.38l0,0L48.34,89h0l0,0a1.48,1.48,0,0,0,.19.19l.06,0,.06,0,.14.08.12.06.1,0h.06a1.49,1.49,0,0,0,.4.06h0a1.49,1.49,0,0,0,.4-.06H50l.11,0,.12-.05.14-.09.06,0,.06,0a1.49,1.49,0,0,0,.19-.19l0,0h0l48-60.56,0,0A1.49,1.49,0,0,0,99,28L99,28a1.49,1.49,0,0,0,.07-.41s0,0,0,0h0A1.48,1.48,0,0,0,99,27.1ZM78.51,4.7,94.55,26h-23ZM66.4,26H32.66L49.53,4ZM75.91,3l-7,21.34L52.57,3ZM46.49,3,30.16,24.34,23.15,3ZM20.55,4.7l7,21.31h-23ZM4.6,29H28.54L45.48,80.56Zm27.1,0H67.36L49.53,83.28ZM53.58,80.56,70.52,29H94.46Z"/></g></g></svg>