<svg xmlns="http://www.w3.org/2000/svg" viewBox="0 0 60 86.07"><title>pencil</title><g id="レイヤー_2" data-name="レイヤー 2"><g id="レイヤー_1-2" data-name="レイヤー 1"><path d="M60,9c-2.14,3.22-4.29,6.43-6.4,9.67q-18.22,28-36.44,56.09a3.77,3.77,0,0,1-1,1.12q-7.76,5-15.56,9.93c-.13.08-.27.14-.57.28.37-2.53.71-4.92,1.06-7.31.53-3.6,1-7.2,1.62-10.79a6.48,6.48,0,0,1,.92-2.41Q24.49,33.32,45.43,1.11c.24-.36.5-.71.78-1.11L60,8.73ZM15.91,71.13,49.85,18.87l-8.72-5.59L7.32,65.34A11.35,11.35,0,0,1,15.91,71.13ZM51.5,16.32,55.8,9.71l-8.71-5.6L42.8,10.74ZM13.65,73.87c-.75-3.08-4.29-5.77-7.32-5.54a1.18,1.18,0,0,0-.77.78c-.3,1.53-.5,3.07-.72,4.61-.29,2-.56,4-.89,6.32Z"/></g></g></svg>