<?xml version="1.0" encoding="utf-8"?>
<!-- Generator: Adobe Illustrator 18.1.1, SVG Export Plug-In . SVG Version: 6.00 Build 0)  -->
<svg version="1.1" id="Layer_1" xmlns="http://www.w3.org/2000/svg" xmlns:xlink="http://www.w3.org/1999/xlink" x="0px" y="0px"
	 width="521px" height="387px" viewBox="-37 227.9 521 387" enable-background="new -37 227.9 521 387" xml:space="preserve">
<g>
	<g>
		<g>
			<g>
				<path fill="#1C1C1B" d="M343.4,284.3c7.6,0,13.8,6.2,13.8,13.8V487h-257V298.1c0-7.6,6.2-13.8,13.8-13.8H343.4 M343.4,281.3H114
					c-9.3,0-16.8,7.5-16.8,16.8V490h263V298.1C360.2,288.8,352.7,281.3,343.4,281.3L343.4,281.3z"/>
			</g>
			<line fill="none" stroke="#1C1C1B" stroke-width="3" stroke-miterlimit="10" x1="97.2" y1="303.7" x2="358.9" y2="303.7"/>
			<line fill="none" stroke="#1C1C1B" stroke-width="3" stroke-miterlimit="10" x1="161.2" y1="281.3" x2="161.2" y2="303.7"/>
			<circle fill="none" stroke="#1C1C1B" stroke-width="3" stroke-miterlimit="10" cx="139.7" cy="293.1" r="4.5"/>
			<line fill="none" stroke="#1C1C1B" stroke-width="3" stroke-miterlimit="10" x1="112.7" y1="297.6" x2="120.9" y2="289.4"/>
			<line fill="none" stroke="#1C1C1B" stroke-width="3" stroke-miterlimit="10" x1="120.9" y1="297.6" x2="112.7" y2="289.4"/>
			<line fill="none" stroke="#1C1C1B" stroke-width="3" stroke-miterlimit="10" x1="116.8" y1="333.4" x2="200" y2="333.4"/>
			<line fill="none" stroke="#1C1C1B" stroke-width="3" stroke-miterlimit="10" x1="116.8" y1="375" x2="228.5" y2="375"/>
			<line fill="none" stroke="#1C1C1B" stroke-width="3" stroke-miterlimit="10" x1="116.8" y1="397" x2="247.2" y2="397"/>
			<line fill="none" stroke="#1C1C1B" stroke-width="3" stroke-miterlimit="10" x1="116.8" y1="408" x2="243.4" y2="408"/>
			<line fill="none" stroke="#1C1C1B" stroke-width="3" stroke-miterlimit="10" x1="116.8" y1="449.6" x2="237.9" y2="449.6"/>
			<line fill="none" stroke="#1C1C1B" stroke-width="3" stroke-miterlimit="10" x1="116.8" y1="364" x2="261.5" y2="364"/>
			<line fill="none" stroke="#1C1C1B" stroke-width="3" stroke-miterlimit="10" x1="116.8" y1="386" x2="261.5" y2="386"/>
			<line fill="none" stroke="#1C1C1B" stroke-width="3" stroke-miterlimit="10" x1="116.8" y1="431.6" x2="261.5" y2="431.6"/>
			<line fill="none" stroke="#1C1C1B" stroke-width="3" stroke-miterlimit="10" x1="116.8" y1="440.6" x2="189.2" y2="440.6"/>
			<line fill="none" stroke="#1C1C1B" stroke-width="3" stroke-miterlimit="10" x1="116.8" y1="353" x2="253.2" y2="353"/>
			<line fill="none" stroke="#1C1C1B" stroke-width="3" stroke-miterlimit="10" x1="276.8" y1="353" x2="337.5" y2="353"/>
			<line fill="none" stroke="#1C1C1B" stroke-width="3" stroke-miterlimit="10" x1="276.8" y1="364" x2="337.5" y2="364"/>
			<line fill="none" stroke="#1C1C1B" stroke-width="3" stroke-miterlimit="10" x1="276.8" y1="375" x2="337.5" y2="375"/>
			<line fill="none" stroke="#1C1C1B" stroke-width="3" stroke-miterlimit="10" x1="276.8" y1="386" x2="337.5" y2="386"/>
			<line fill="none" stroke="#1C1C1B" stroke-width="3" stroke-miterlimit="10" x1="276.8" y1="431.6" x2="337.5" y2="431.6"/>
		</g>
		<g>
			<path fill="none" stroke="#1C1C1B" stroke-width="3" stroke-miterlimit="10" d="M356.4,291c7.5,1.7,13.2,8.4,13.2,16.4v191.9
				h-263v-11.7"/>
			<line fill="none" stroke="#1C1C1B" stroke-width="3" stroke-miterlimit="10" x1="358.9" y1="313" x2="368.2" y2="313"/>
		</g>
		<g>
			<path fill="#1C1C1B" d="M381.7,512.5h-266v-13.2h3v10.2h260V319.2c0-0.9-0.1-1.8-0.2-2.7c-0.2-1.1-0.5-2.2-1-3.2
				c-1.7-4-4.9-7.1-9-8.5l1-2.8c4.8,1.7,8.8,5.4,10.8,10.2c0.5,1.2,0.9,2.6,1.1,3.9c0.2,1.1,0.3,2.1,0.3,3.2V512.5L381.7,512.5z"/>
			<rect x="369.6" y="323.2" fill="#1C1C1B" width="9.4" height="3"/>
		</g>
	</g>
	<g enable-background="new    ">
		<path d="M71.6,554.2c0.8,0.7,1.2,1.7,1.2,3c0,1.3-0.4,2.3-1.1,3c-0.8,0.7-1.9,1.1-3.5,1.1h-2.8v-8.2h2.9
			C69.7,553.1,70.8,553.5,71.6,554.2z M70.2,559.1c0.4-0.4,0.7-1,0.7-1.8c0-0.8-0.2-1.4-0.7-1.9s-1.1-0.7-2.1-0.7h-1v5h1.2
			C69.1,559.7,69.8,559.5,70.2,559.1z"/>
		<path d="M80.2,553.1v1.6h-4.1v1.7h3.7v1.6h-3.7v1.7h4.2v1.6h-6v-8.2H80.2z"/>
		<path d="M83.9,554.8c-0.2,0.1-0.3,0.3-0.3,0.6s0.1,0.4,0.3,0.6c0.2,0.1,0.7,0.3,1.5,0.5c0.8,0.2,1.4,0.5,1.8,0.9
			c0.4,0.4,0.6,0.9,0.6,1.7s-0.3,1.3-0.8,1.8c-0.6,0.5-1.3,0.7-2.2,0.7c-1.3,0-2.5-0.5-3.5-1.4l1.1-1.3c0.9,0.8,1.7,1.2,2.5,1.2
			c0.3,0,0.6-0.1,0.8-0.2c0.2-0.1,0.3-0.3,0.3-0.6s-0.1-0.4-0.3-0.6c-0.2-0.1-0.6-0.3-1.2-0.4c-1-0.2-1.7-0.5-2.1-0.9
			c-0.4-0.4-0.7-0.9-0.7-1.7s0.3-1.4,0.8-1.8c0.6-0.4,1.3-0.6,2.1-0.6c0.5,0,1.1,0.1,1.6,0.3c0.5,0.2,1,0.5,1.4,0.8l-0.9,1.3
			c-0.7-0.5-1.4-0.8-2.2-0.8C84.3,554.6,84.1,554.6,83.9,554.8z"/>
		<path d="M93.2,559.7c0.9,0,1.6-0.4,2.2-1.1l1.2,1.2c-0.9,1-2,1.6-3.3,1.6s-2.3-0.4-3.1-1.2c-0.8-0.8-1.2-1.8-1.2-3
			c0-1.2,0.4-2.2,1.2-3c0.8-0.8,1.9-1.2,3.1-1.2c1.3,0,2.5,0.5,3.4,1.5l-1.1,1.3c-0.6-0.7-1.3-1.1-2.2-1.1c-0.7,0-1.3,0.2-1.8,0.7
			c-0.5,0.5-0.7,1.1-0.7,1.8s0.2,1.4,0.7,1.8C92,559.5,92.6,559.7,93.2,559.7z"/>
		<path d="M104.7,555.9c0,1.3-0.5,2.2-1.6,2.5l2.1,2.9H103l-1.8-2.6h-1.3v2.6h-1.8v-8.2h3.1c1.3,0,2.2,0.2,2.7,0.6
			C104.5,554.2,104.7,554.9,104.7,555.9z M102.5,556.8c0.2-0.2,0.3-0.5,0.3-1c0-0.4-0.1-0.7-0.4-0.9c-0.2-0.2-0.6-0.2-1.2-0.2h-1.4
			v2.4h1.3C101.9,557.1,102.3,557,102.5,556.8z"/>
		<path d="M106.6,553.1h1.8v8.2h-1.8V553.1z"/>
		<path d="M116.1,553.9c0.6,0.5,0.9,1.2,0.9,2.3s-0.3,1.8-0.9,2.2c-0.6,0.5-1.5,0.7-2.7,0.7h-1.1v2.3h-1.8v-8.2h2.9
			C114.6,553.1,115.5,553.4,116.1,553.9z M114.8,557.1c0.2-0.2,0.3-0.6,0.3-1.1s-0.1-0.8-0.4-1c-0.3-0.2-0.7-0.3-1.3-0.3h-1v2.8h1.2
			C114.1,557.5,114.5,557.3,114.8,557.1z"/>
		<path d="M121.9,554.7v6.6H120v-6.6h-2.3v-1.6h6.5v1.6H121.9z"/>
		<path d="M125.5,553.1h1.8v8.2h-1.8V553.1z"/>
		<path d="M136.3,560.2c-0.8,0.8-1.9,1.2-3.1,1.2s-2.2-0.4-3.1-1.2c-0.8-0.8-1.2-1.8-1.2-3c0-1.2,0.4-2.2,1.2-3
			c0.8-0.8,1.9-1.2,3.1-1.2s2.2,0.4,3.1,1.2s1.2,1.8,1.2,3C137.5,558.4,137.1,559.4,136.3,560.2z M135.7,557.2
			c0-0.7-0.2-1.4-0.7-1.9s-1-0.8-1.7-0.8s-1.3,0.3-1.7,0.8c-0.5,0.5-0.7,1.1-0.7,1.9s0.2,1.4,0.7,1.9c0.5,0.5,1,0.8,1.7,0.8
			s1.3-0.3,1.7-0.8S135.7,557.9,135.7,557.2z"/>
		<path d="M144.8,553.1h1.8v8.2h-1.8l-3.9-5.1v5.1h-1.8v-8.2h1.7l4,5.3V553.1z"/>
		<path d="M151.5,558.6V557h4.2v1.6H151.5z"/>
		<path d="M167.3,555.9c0,1.3-0.5,2.2-1.6,2.5l2.1,2.9h-2.3l-1.8-2.6h-1.3v2.6h-1.8v-8.2h3.1c1.3,0,2.2,0.2,2.7,0.6
			C167,554.2,167.3,554.9,167.3,555.9z M165,556.8c0.2-0.2,0.3-0.5,0.3-1c0-0.4-0.1-0.7-0.4-0.9c-0.2-0.2-0.6-0.2-1.2-0.2h-1.4v2.4
			h1.3C164.4,557.1,164.8,557,165,556.8z"/>
		<path d="M175,553.1v1.6H171v1.7h3.7v1.6H171v1.7h4.2v1.6h-6v-8.2H175z"/>
		<path d="M178.7,554.8c-0.2,0.1-0.3,0.3-0.3,0.6s0.1,0.4,0.3,0.6c0.2,0.1,0.7,0.3,1.5,0.5c0.8,0.2,1.4,0.5,1.8,0.9
			c0.4,0.4,0.6,0.9,0.6,1.7s-0.3,1.3-0.8,1.8c-0.6,0.5-1.3,0.7-2.2,0.7c-1.3,0-2.5-0.5-3.5-1.4l1.1-1.3c0.9,0.8,1.7,1.2,2.5,1.2
			c0.3,0,0.6-0.1,0.8-0.2c0.2-0.1,0.3-0.3,0.3-0.6s-0.1-0.4-0.3-0.6c-0.2-0.1-0.6-0.3-1.2-0.4c-1-0.2-1.7-0.5-2.1-0.9
			c-0.4-0.4-0.7-0.9-0.7-1.7s0.3-1.4,0.8-1.8c0.6-0.4,1.3-0.6,2.1-0.6c0.5,0,1.1,0.1,1.6,0.3c0.5,0.2,1,0.5,1.4,0.8l-0.9,1.3
			c-0.7-0.5-1.4-0.8-2.2-0.8C179.1,554.6,178.9,554.6,178.7,554.8z"/>
		<path d="M191.2,560.2c-0.8,0.8-1.9,1.2-3.1,1.2s-2.2-0.4-3.1-1.2c-0.8-0.8-1.2-1.8-1.2-3c0-1.2,0.4-2.2,1.2-3
			c0.8-0.8,1.9-1.2,3.1-1.2s2.2,0.4,3.1,1.2s1.2,1.8,1.2,3C192.4,558.4,192,559.4,191.2,560.2z M190.6,557.2c0-0.7-0.2-1.4-0.7-1.9
			s-1-0.8-1.7-0.8s-1.3,0.3-1.7,0.8c-0.5,0.5-0.7,1.1-0.7,1.9s0.2,1.4,0.7,1.9c0.5,0.5,1,0.8,1.7,0.8s1.3-0.3,1.7-0.8
			S190.6,557.9,190.6,557.2z"/>
		<path d="M196.2,559.2c0.3,0.4,0.7,0.6,1.2,0.6s0.9-0.2,1.2-0.6c0.3-0.4,0.5-0.9,0.5-1.6v-4.5h1.8v4.6c0,1.2-0.3,2.1-1,2.7
			s-1.5,1-2.5,1s-1.9-0.3-2.5-1s-1-1.6-1-2.7v-4.6h1.8v4.5C195.7,558.3,195.9,558.8,196.2,559.2z"/>
		<path d="M209.5,555.9c0,1.3-0.5,2.2-1.6,2.5l2.1,2.9h-2.3l-1.8-2.6h-1.3v2.6h-1.8v-8.2h3.1c1.3,0,2.2,0.2,2.7,0.6
			C209.2,554.2,209.5,554.9,209.5,555.9z M207.2,556.8c0.2-0.2,0.3-0.5,0.3-1c0-0.4-0.1-0.7-0.4-0.9c-0.2-0.2-0.6-0.2-1.2-0.2h-1.4
			v2.4h1.3C206.6,557.1,207,557,207.2,556.8z"/>
		<path d="M215.1,559.7c0.9,0,1.6-0.4,2.2-1.1l1.2,1.2c-0.9,1-2,1.6-3.3,1.6s-2.3-0.4-3.1-1.2c-0.8-0.8-1.2-1.8-1.2-3
			c0-1.2,0.4-2.2,1.2-3c0.8-0.8,1.9-1.2,3.1-1.2c1.3,0,2.5,0.5,3.4,1.5l-1.1,1.3c-0.6-0.7-1.3-1.1-2.2-1.1c-0.7,0-1.3,0.2-1.8,0.7
			c-0.5,0.5-0.7,1.1-0.7,1.8s0.2,1.4,0.7,1.8C213.9,559.5,214.4,559.7,215.1,559.7z"/>
		<path d="M225.8,553.1v1.6h-4.1v1.7h3.7v1.6h-3.7v1.7h4.2v1.6h-6v-8.2H225.8z"/>
		<path d="M229.5,554.8c-0.2,0.1-0.3,0.3-0.3,0.6s0.1,0.4,0.3,0.6c0.2,0.1,0.7,0.3,1.5,0.5c0.8,0.2,1.4,0.5,1.8,0.9
			c0.4,0.4,0.6,0.9,0.6,1.7s-0.3,1.3-0.8,1.8c-0.6,0.5-1.3,0.7-2.2,0.7c-1.3,0-2.5-0.5-3.5-1.4l1.1-1.3c0.9,0.8,1.7,1.2,2.5,1.2
			c0.3,0,0.6-0.1,0.8-0.2c0.2-0.1,0.3-0.3,0.3-0.6s-0.1-0.4-0.3-0.6c-0.2-0.1-0.6-0.3-1.2-0.4c-1-0.2-1.7-0.5-2.1-0.9
			c-0.4-0.4-0.7-0.9-0.7-1.7s0.3-1.4,0.8-1.8c0.6-0.4,1.3-0.6,2.1-0.6c0.5,0,1.1,0.1,1.6,0.3c0.5,0.2,1,0.5,1.4,0.8l-0.9,1.3
			c-0.7-0.5-1.4-0.8-2.2-0.8C229.9,554.6,229.7,554.6,229.5,554.8z"/>
		<path d="M238,558.6V557h4.2v1.6H238z"/>
		<path d="M247,561.3v-8.2h1.8v6.6h3.5v1.6H247z"/>
		<path d="M253.7,553.1h1.8v8.2h-1.8V553.1z"/>
		<path d="M263.3,553.1h1.8v8.2h-1.8l-3.9-5.1v5.1h-1.8v-8.2h1.7l4,5.3V553.1z"/>
		<path d="M267.1,553.1h1.8v3.4l3.1-3.4h2.3l-3.3,3.6c0.3,0.4,0.8,1.1,1.6,2.2c0.8,1.1,1.3,1.9,1.7,2.4h-2.1l-2.4-3.2L269,559v2.3
			h-1.8V553.1z"/>
		<path d="M277.2,554.8c-0.2,0.1-0.3,0.3-0.3,0.6s0.1,0.4,0.3,0.6c0.2,0.1,0.7,0.3,1.5,0.5c0.8,0.2,1.4,0.5,1.8,0.9
			c0.4,0.4,0.6,0.9,0.6,1.7s-0.3,1.3-0.8,1.8c-0.6,0.5-1.3,0.7-2.2,0.7c-1.3,0-2.5-0.5-3.5-1.4l1.1-1.3c0.9,0.8,1.7,1.2,2.5,1.2
			c0.3,0,0.6-0.1,0.8-0.2c0.2-0.1,0.3-0.3,0.3-0.6s-0.1-0.4-0.3-0.6c-0.2-0.1-0.6-0.3-1.2-0.4c-1-0.2-1.7-0.5-2.1-0.9
			c-0.4-0.4-0.7-0.9-0.7-1.7s0.3-1.4,0.8-1.8c0.6-0.4,1.3-0.6,2.1-0.6c0.5,0,1.1,0.1,1.6,0.3c0.5,0.2,1,0.5,1.4,0.8l-0.9,1.3
			c-0.7-0.5-1.4-0.8-2.2-0.8C277.6,554.6,277.3,554.6,277.2,554.8z"/>
		<path d="M285.6,558.6V557h4.2v1.6H285.6z"/>
		<path d="M298.4,559.7c0.9,0,1.6-0.4,2.2-1.1l1.2,1.2c-0.9,1-2,1.6-3.3,1.6s-2.3-0.4-3.1-1.2c-0.8-0.8-1.2-1.8-1.2-3
			c0-1.2,0.4-2.2,1.2-3c0.8-0.8,1.9-1.2,3.1-1.2c1.3,0,2.5,0.5,3.4,1.5l-1.1,1.3c-0.6-0.7-1.3-1.1-2.2-1.1c-0.7,0-1.3,0.2-1.8,0.7
			c-0.5,0.5-0.7,1.1-0.7,1.8s0.2,1.4,0.7,1.8C297.2,559.5,297.8,559.7,298.4,559.7z"/>
		<path d="M309,561.3l-0.8-1.8h-3.4l-0.8,1.8h-1.9l3.5-8.2h1.8l3.5,8.2H309z M306.6,555.6l-1,2.4h2.1L306.6,555.6z"/>
		<path d="M313.8,554.8c-0.2,0.1-0.3,0.3-0.3,0.6s0.1,0.4,0.3,0.6c0.2,0.1,0.7,0.3,1.5,0.5c0.8,0.2,1.4,0.5,1.8,0.9
			c0.4,0.4,0.6,0.9,0.6,1.7s-0.3,1.3-0.8,1.8c-0.6,0.5-1.3,0.7-2.2,0.7c-1.3,0-2.5-0.5-3.5-1.4l1.1-1.3c0.9,0.8,1.7,1.2,2.5,1.2
			c0.3,0,0.6-0.1,0.8-0.2c0.2-0.1,0.3-0.3,0.3-0.6s-0.1-0.4-0.3-0.6c-0.2-0.1-0.6-0.3-1.2-0.4c-1-0.2-1.7-0.5-2.1-0.9
			c-0.4-0.4-0.7-0.9-0.7-1.7s0.3-1.4,0.8-1.8c0.6-0.4,1.3-0.6,2.1-0.6c0.5,0,1.1,0.1,1.6,0.3c0.5,0.2,1,0.5,1.4,0.8l-0.9,1.3
			c-0.7-0.5-1.4-0.8-2.2-0.8C314.2,554.6,314,554.6,313.8,554.8z"/>
		<path d="M325.3,553.1v1.6h-4.1v1.7h3.7v1.6h-3.7v1.7h4.2v1.6h-6v-8.2H325.3z"/>
		<path d="M332.1,554.8c-0.2,0.1-0.3,0.3-0.3,0.6s0.1,0.4,0.3,0.6c0.2,0.1,0.7,0.3,1.5,0.5c0.8,0.2,1.4,0.5,1.8,0.9
			c0.4,0.4,0.6,0.9,0.6,1.7s-0.3,1.3-0.8,1.8c-0.6,0.5-1.3,0.7-2.2,0.7c-1.3,0-2.5-0.5-3.5-1.4l1.1-1.3c0.9,0.8,1.7,1.2,2.5,1.2
			c0.3,0,0.6-0.1,0.8-0.2c0.2-0.1,0.3-0.3,0.3-0.6s-0.1-0.4-0.3-0.6c-0.2-0.1-0.6-0.3-1.2-0.4c-1-0.2-1.7-0.5-2.1-0.9
			c-0.4-0.4-0.7-0.9-0.7-1.7s0.3-1.4,0.8-1.8c0.6-0.4,1.3-0.6,2.1-0.6c0.5,0,1.1,0.1,1.6,0.3c0.5,0.2,1,0.5,1.4,0.8l-0.9,1.3
			c-0.7-0.5-1.4-0.8-2.2-0.8C332.5,554.6,332.2,554.6,332.1,554.8z"/>
		<path d="M341,554.7v6.6h-1.8v-6.6h-2.3v-1.6h6.5v1.6H341z"/>
		<path d="M346.9,559.2c0.3,0.4,0.7,0.6,1.2,0.6s0.9-0.2,1.2-0.6c0.3-0.4,0.5-0.9,0.5-1.6v-4.5h1.8v4.6c0,1.2-0.3,2.1-1,2.7
			s-1.5,1-2.5,1s-1.9-0.3-2.5-1s-1-1.6-1-2.7v-4.6h1.8v4.5C346.4,558.3,346.6,558.8,346.9,559.2z"/>
		<path d="M359.8,554.2c0.8,0.7,1.2,1.7,1.2,3c0,1.3-0.4,2.3-1.1,3c-0.8,0.7-1.9,1.1-3.5,1.1h-2.8v-8.2h2.9
			C357.9,553.1,359,553.5,359.8,554.2z M358.4,559.1c0.4-0.4,0.7-1,0.7-1.8c0-0.8-0.2-1.4-0.7-1.9s-1.1-0.7-2.1-0.7h-1v5h1.2
			C357.3,559.7,358,559.5,358.4,559.1z"/>
		<path d="M365.8,561.3h-1.8v-3.2l-2.8-5h2l1.8,3.1l1.8-3.1h2l-2.8,5V561.3z"/>
	</g>
</g>
</svg>
