<?xml version="1.0" encoding="utf-8"?>
<!-- Generator: Adobe Illustrator 18.1.1, SVG Export Plug-In . SVG Version: 6.00 Build 0)  -->
<svg version="1.1" id="Layer_1" xmlns="http://www.w3.org/2000/svg" xmlns:xlink="http://www.w3.org/1999/xlink" x="0px" y="0px"
	 width="268px" height="106px" viewBox="0 0 268 106" enable-background="new 0 0 268 106" xml:space="preserve">
<rect fill="#3E3E3C" width="53.6" height="13.2"/>
<g>
	<path fill="#A8A9A9" d="M267,1v24.3H1V1H267 M268,0H0v26.3h268V0L268,0z"/>
</g>
<line fill="none" stroke="#A8A9A9" stroke-miterlimit="10" x1="0" y1="23" x2="268" y2="23"/>
<line fill="none" stroke="#A8A9A9" stroke-miterlimit="10" x1="0" y1="19.8" x2="268" y2="19.8"/>
<line fill="none" stroke="#A8A9A9" stroke-miterlimit="10" x1="0" y1="16.5" x2="268" y2="16.5"/>
<line fill="none" stroke="#A8A9A9" stroke-miterlimit="10" x1="0" y1="13.2" x2="268" y2="13.2"/>
<line fill="none" stroke="#A8A9A9" stroke-miterlimit="10" x1="0" y1="9.9" x2="268" y2="9.9"/>
<line fill="none" stroke="#A8A9A9" stroke-miterlimit="10" x1="0" y1="6.6" x2="268" y2="6.6"/>
<line fill="none" stroke="#A8A9A9" stroke-miterlimit="10" x1="0" y1="3.3" x2="268" y2="3.3"/>
<line fill="none" stroke="#A8A9A9" stroke-miterlimit="10" x1="53.6" y1="0" x2="53.6" y2="26.3"/>
<line fill="none" stroke="#A8A9A9" stroke-miterlimit="10" x1="107.2" y1="0" x2="107.2" y2="26.3"/>
<line fill="none" stroke="#A8A9A9" stroke-miterlimit="10" x1="160.8" y1="0" x2="160.8" y2="26.3"/>
<line fill="none" stroke="#A8A9A9" stroke-miterlimit="10" x1="214.4" y1="0" x2="214.4" y2="26.3"/>
<rect y="60.8" fill="#3E3E3C" width="268" height="26.3"/>
<g>
	<path fill="#A8A9A9" d="M267,61.8v24.3H1V61.8H267 M268,60.8H0v26.3h268V60.8L268,60.8z"/>
</g>
<line fill="none" stroke="#A8A9A9" stroke-miterlimit="10" x1="0" y1="83.9" x2="268" y2="83.9"/>
<line fill="none" stroke="#A8A9A9" stroke-miterlimit="10" x1="0" y1="80.6" x2="268" y2="80.6"/>
<line fill="none" stroke="#A8A9A9" stroke-miterlimit="10" x1="0" y1="77.3" x2="268" y2="77.3"/>
<line fill="none" stroke="#A8A9A9" stroke-miterlimit="10" x1="0" y1="74" x2="268" y2="74"/>
<line fill="none" stroke="#A8A9A9" stroke-miterlimit="10" x1="0" y1="70.7" x2="268" y2="70.7"/>
<line fill="none" stroke="#A8A9A9" stroke-miterlimit="10" x1="0" y1="67.4" x2="268" y2="67.4"/>
<line fill="none" stroke="#A8A9A9" stroke-miterlimit="10" x1="0" y1="64.1" x2="268" y2="64.1"/>
<line fill="none" stroke="#A8A9A9" stroke-miterlimit="10" x1="53.6" y1="60.8" x2="53.6" y2="87.2"/>
<line fill="none" stroke="#A8A9A9" stroke-miterlimit="10" x1="107.2" y1="60.8" x2="107.2" y2="87.2"/>
<line fill="none" stroke="#A8A9A9" stroke-miterlimit="10" x1="160.8" y1="60.8" x2="160.8" y2="87.2"/>
<line fill="none" stroke="#A8A9A9" stroke-miterlimit="10" x1="214.4" y1="60.8" x2="214.4" y2="87.2"/>
<g>
	<path d="M0.4,45.1c0.2-0.4,0.5-0.8,0.8-1.3c0.3-0.5,0.5-0.9,0.8-1.4c0.3-0.5,0.5-1,0.8-1.5c0.3-0.5,0.5-1,0.7-1.5h0.4l0.9,0.6
		l-2.9,4.4l-0.3,0.5l2.3-0.2l0.1-2L5,42.5v2.1L6,44.6v1.1H5v1.8H3.8l0-1.8H0.6L0.4,45.1z"/>
	<path d="M9.3,45.1L10,45v-6.2l-0.7-0.2v-0.6l1.9-0.2l0.3,0.1l0,2.3l-0.1,0.6c0.1-0.1,0.3-0.2,0.5-0.3s0.3-0.2,0.5-0.2
		c0.2-0.1,0.3-0.1,0.5-0.1c0.2,0,0.3,0,0.4,0c0.3,0,0.6,0.1,0.8,0.2c0.2,0.1,0.4,0.3,0.5,0.5s0.2,0.5,0.2,0.8c0,0.3,0.1,0.7,0.1,1.1
		V45l0.7,0.1v0.6l-2.8,0v-0.5l0.8-0.1v-2c0-0.3,0-0.6,0-0.8s-0.1-0.4-0.1-0.6s-0.2-0.3-0.3-0.4C12.8,41,12.7,41,12.4,41
		c-0.2,0-0.3,0-0.5,0.1c-0.2,0-0.3,0.1-0.5,0.2V45l0.6,0.1v0.6H9.3V45.1z"/>
	<path d="M16.2,42.9c0-0.5,0.1-0.9,0.2-1.2s0.4-0.6,0.6-0.9c0.3-0.2,0.6-0.4,0.9-0.5c0.3-0.1,0.7-0.2,1-0.2c0.4,0,0.8,0.1,1.1,0.2
		c0.3,0.1,0.6,0.3,0.8,0.6c0.2,0.2,0.4,0.5,0.5,0.9c0.1,0.3,0.2,0.7,0.2,1.2c0,0.5-0.1,0.9-0.2,1.3c-0.1,0.4-0.4,0.7-0.6,0.9
		c-0.3,0.2-0.5,0.4-0.9,0.6c-0.3,0.1-0.7,0.2-1.1,0.2c-0.5,0-0.9-0.1-1.2-0.2c-0.3-0.2-0.6-0.4-0.8-0.6c-0.2-0.3-0.4-0.6-0.5-0.9
		C16.2,43.6,16.2,43.3,16.2,42.9z M18.9,45.1c0.2,0,0.5-0.1,0.6-0.2c0.2-0.1,0.3-0.3,0.4-0.5c0.1-0.2,0.2-0.4,0.2-0.7
		c0-0.3,0.1-0.6,0.1-0.9c0-0.3,0-0.5-0.1-0.8c0-0.3-0.1-0.5-0.2-0.7s-0.2-0.4-0.4-0.5c-0.2-0.1-0.4-0.2-0.6-0.2
		c-0.2,0-0.5,0.1-0.6,0.2c-0.2,0.1-0.3,0.3-0.4,0.5c-0.1,0.2-0.2,0.4-0.2,0.7c0,0.3-0.1,0.5-0.1,0.8c0,0.2,0,0.3,0,0.5
		c0,0.2,0,0.4,0.1,0.5c0,0.2,0.1,0.3,0.2,0.5s0.1,0.3,0.2,0.4c0.1,0.1,0.2,0.2,0.3,0.3C18.6,45.1,18.8,45.1,18.9,45.1z"/>
	<path d="M22.9,41.2l-0.5-0.3v-0.5l1.6-0.4l0.2,0.1v3.4c0,0.2,0,0.4,0,0.6c0,0.2,0.1,0.3,0.1,0.4s0.2,0.2,0.3,0.3
		c0.1,0.1,0.3,0.1,0.4,0.1c0.1,0,0.2,0,0.3,0c0.1,0,0.2-0.1,0.3-0.1c0.1,0,0.2-0.1,0.3-0.1s0.1-0.1,0.2-0.1v-3.3L25.6,41v-0.6
		l1.8-0.4l0.2,0.1v4.9h0.6v0.5c-0.1,0-0.1,0.1-0.2,0.1c-0.1,0-0.2,0.1-0.3,0.1c-0.1,0-0.2,0-0.3,0.1c-0.1,0-0.2,0-0.3,0
		c-0.2,0-0.3,0-0.4-0.1c-0.1-0.1-0.2-0.2-0.2-0.4V45c-0.1,0.1-0.2,0.2-0.4,0.3s-0.3,0.2-0.4,0.2c-0.2,0.1-0.3,0.1-0.4,0.1
		c-0.1,0-0.3,0-0.4,0c-0.4,0-0.6,0-0.9-0.1s-0.4-0.2-0.5-0.4C23.1,45,23,44.8,23,44.5c0-0.3-0.1-0.6-0.1-0.9V41.2z"/>
	<path d="M28.9,45.1l0.7-0.1v-3.5L28.9,41v-0.5l1.6-0.5l0.3,0.1V41c0-0.1,0.1-0.3,0.3-0.4s0.3-0.2,0.4-0.3s0.3-0.2,0.5-0.2
		c0.2-0.1,0.3-0.1,0.4-0.1c0.1,0,0.2,0,0.3,0c0.1,0,0.2,0,0.2,0v1.3c-0.1-0.1-0.2-0.1-0.4-0.1c-0.2,0-0.3-0.1-0.5-0.1
		c-0.1,0-0.3,0-0.4,0s-0.2,0-0.3,0.1c-0.1,0-0.1,0.1-0.2,0.1c-0.1,0-0.1,0.1-0.1,0.1v3.5l1.2,0.1v0.6h-3.3V45.1z"/>
	<path d="M33.6,44.1h0.6l0.3,0.6c0.1,0.1,0.1,0.1,0.2,0.2s0.1,0.1,0.2,0.1c0.1,0,0.2,0.1,0.3,0.1c0.1,0,0.2,0,0.3,0.1
		c0.3,0,0.6,0,0.8-0.2c0.2-0.1,0.3-0.3,0.3-0.6c0-0.1,0-0.2-0.1-0.3c-0.1-0.1-0.2-0.2-0.3-0.3c-0.1-0.1-0.3-0.2-0.4-0.2
		c-0.2-0.1-0.3-0.1-0.5-0.2c-0.2-0.1-0.4-0.2-0.6-0.3s-0.4-0.2-0.5-0.4s-0.3-0.3-0.4-0.5c-0.1-0.2-0.1-0.4-0.1-0.6
		c0-0.2,0-0.3,0.1-0.5c0.1-0.1,0.2-0.3,0.3-0.4s0.2-0.2,0.4-0.3c0.1-0.1,0.3-0.1,0.5-0.2c0.2-0.1,0.3-0.1,0.5-0.1c0.2,0,0.3,0,0.5,0
		c0.2,0,0.3,0,0.5,0c0.2,0,0.3,0,0.5,0.1c0.2,0,0.3,0.1,0.4,0.1c0.1,0,0.2,0.1,0.3,0.1v1.2h-0.7L36.6,41c-0.1-0.1-0.2-0.2-0.3-0.3
		c-0.1-0.1-0.3-0.1-0.5-0.1c-0.1,0-0.2,0-0.3,0c-0.1,0-0.2,0.1-0.3,0.1s-0.1,0.1-0.2,0.2S35,41.1,35,41.2c0,0.1,0,0.2,0.1,0.3
		c0.1,0.1,0.1,0.2,0.2,0.3c0.1,0.1,0.2,0.2,0.3,0.2c0.1,0.1,0.3,0.1,0.4,0.2c0.2,0.1,0.4,0.2,0.6,0.3c0.2,0.1,0.4,0.2,0.6,0.4
		c0.2,0.1,0.3,0.3,0.4,0.5s0.2,0.4,0.2,0.7c0,0.3-0.1,0.6-0.2,0.8s-0.3,0.4-0.5,0.5c-0.2,0.1-0.5,0.2-0.8,0.3
		c-0.3,0.1-0.6,0.1-0.9,0.1c-0.2,0-0.3,0-0.5,0c-0.2,0-0.3,0-0.5-0.1c-0.2,0-0.3-0.1-0.5-0.1c-0.2-0.1-0.3-0.1-0.4-0.2V44.1z"/>
</g>
<g>
	<path d="M0.6,105.4l1.3-0.2v-3.9c-0.1,0-0.2,0-0.3,0c-0.1,0-0.2,0-0.3,0.1c-0.1,0-0.2,0-0.4,0.1c-0.1,0-0.2,0-0.3,0.1l-0.1-0.7
		c0.1,0,0.2-0.1,0.4-0.1c0.1-0.1,0.3-0.1,0.5-0.2c0.2-0.1,0.3-0.1,0.5-0.2c0.2-0.1,0.3-0.1,0.5-0.2c0.1-0.1,0.3-0.1,0.4-0.2
		s0.2-0.1,0.2-0.1l0.5,0.1l0,5.3l1.2,0.2v0.6H0.6V105.4z"/>
	<path d="M7.9,101.4l-0.5-0.1v-0.7h2.5v0.7l-0.6,0.1L10,104l0.2,0.9l0.2-0.8l0.9-3.5h1.2l0.9,3.5l0.2,0.9l0.2-0.8l0.6-2.7l-0.6-0.1
		v-0.7H16v0.7l-0.6,0.1l-1.3,4.7h-1.3l-0.9-3l-0.2-0.9l-0.2,0.9l-0.8,3H9.4L7.9,101.4z"/>
	<path d="M16.4,103.4c0-0.4,0.1-0.8,0.2-1.2c0.1-0.4,0.3-0.7,0.6-0.9c0.2-0.3,0.5-0.5,0.9-0.6c0.4-0.2,0.7-0.2,1.2-0.2
		c0.3,0,0.6,0,0.9,0.1c0.3,0.1,0.5,0.2,0.6,0.4s0.3,0.4,0.4,0.6s0.1,0.5,0.2,0.8c0,0.2,0,0.4,0,0.5c0,0.2,0,0.3,0,0.4h-3.5
		c0,0,0,0,0,0c0,0,0,0,0,0c0,0.3,0.1,0.6,0.2,0.9s0.2,0.4,0.4,0.6c0.2,0.1,0.3,0.3,0.5,0.3c0.2,0.1,0.4,0.1,0.6,0.1
		c0.1,0,0.2,0,0.4,0c0.1,0,0.3,0,0.4-0.1s0.3-0.1,0.4-0.1c0.1,0,0.2-0.1,0.3-0.1l0.2,0.5c-0.1,0.1-0.2,0.2-0.4,0.3s-0.3,0.1-0.5,0.2
		c-0.2,0.1-0.4,0.1-0.6,0.1c-0.2,0-0.4,0-0.6,0c-0.4,0-0.8-0.1-1.1-0.2c-0.3-0.1-0.6-0.3-0.8-0.5c-0.2-0.2-0.4-0.5-0.5-0.9
		C16.5,104.2,16.4,103.8,16.4,103.4z M20,102.7c0-0.1,0-0.3,0-0.4s0-0.3,0-0.4c0-0.1-0.1-0.3-0.1-0.4s-0.1-0.2-0.3-0.3
		c-0.1,0-0.1-0.1-0.2-0.1s-0.2,0-0.3,0c-0.2,0-0.4,0-0.5,0.1c-0.1,0.1-0.3,0.2-0.4,0.4c-0.1,0.2-0.2,0.3-0.2,0.5
		c-0.1,0.2-0.1,0.4-0.1,0.7H20z"/>
	<path d="M22.2,103.4c0-0.4,0.1-0.8,0.2-1.2c0.1-0.4,0.3-0.7,0.6-0.9c0.2-0.3,0.5-0.5,0.9-0.6c0.4-0.2,0.7-0.2,1.2-0.2
		c0.3,0,0.6,0,0.9,0.1c0.3,0.1,0.5,0.2,0.6,0.4s0.3,0.4,0.4,0.6s0.1,0.5,0.2,0.8c0,0.2,0,0.4,0,0.5c0,0.2,0,0.3,0,0.4h-3.5
		c0,0,0,0,0,0c0,0,0,0,0,0c0,0.3,0.1,0.6,0.2,0.9s0.2,0.4,0.4,0.6c0.2,0.1,0.3,0.3,0.5,0.3c0.2,0.1,0.4,0.1,0.6,0.1
		c0.1,0,0.2,0,0.4,0c0.1,0,0.3,0,0.4-0.1s0.3-0.1,0.4-0.1c0.1,0,0.2-0.1,0.3-0.1l0.2,0.5c-0.1,0.1-0.2,0.2-0.4,0.3s-0.3,0.1-0.5,0.2
		c-0.2,0.1-0.4,0.1-0.6,0.1c-0.2,0-0.4,0-0.6,0c-0.4,0-0.8-0.1-1.1-0.2c-0.3-0.1-0.6-0.3-0.8-0.5c-0.2-0.2-0.4-0.5-0.5-0.9
		C22.3,104.2,22.2,103.8,22.2,103.4z M25.8,102.7c0-0.1,0-0.3,0-0.4s0-0.3,0-0.4c0-0.1-0.1-0.3-0.1-0.4s-0.1-0.2-0.3-0.3
		c-0.1,0-0.1-0.1-0.2-0.1s-0.2,0-0.3,0c-0.2,0-0.4,0-0.5,0.1c-0.1,0.1-0.3,0.2-0.4,0.4c-0.1,0.2-0.2,0.3-0.2,0.5
		c-0.1,0.2-0.1,0.4-0.1,0.7H25.8z"/>
	<path d="M28.1,105.4l0.7-0.1v-6.1L28,98.9v-0.6l2-0.3l0.3,0.1v4.4l0,0.7l1.8-1.9l-0.8-0.1v-0.7h2.8v0.7l-0.9,0.1l-1.4,1.4l1.8,2.6
		l0.6,0.1v0.6h-2.7v-0.6l0.5-0.1l-1.1-1.8l-0.6,0.7l0,0.6v0.6l0.6,0.1v0.6h-2.7V105.4z"/>
</g>
</svg>
