<?xml version="1.0" encoding="utf-8"?>
<!-- Generator: Adobe Illustrator 18.1.1, SVG Export Plug-In . SVG Version: 6.00 Build 0)  -->
<svg version="1.1" id="Layer_1" xmlns="http://www.w3.org/2000/svg" xmlns:xlink="http://www.w3.org/1999/xlink" x="0px" y="0px"
	 width="16.1px" height="20.3px" viewBox="0 0 16.1 20.3" enable-background="new 0 0 16.1 20.3" xml:space="preserve">
<g>
	<g>
		<g>
			<g>
				<path fill="#FFFFFF" d="M8.1,0C4.8,0,2.1,2.7,2.1,5.9c0,2,1,3.8,2.5,4.9C2,11.6,0,14.3,0,17.5v2.7h16.1v-2.7
					c0-3.2-2-5.9-4.7-6.8C13,9.7,14,7.9,14,5.9C14,2.7,11.3,0,8.1,0 M8.1,10.4c-2.5,0-4.5-2-4.5-4.5c0-2.5,2-4.5,4.5-4.5
					c2.5,0,4.5,2,4.5,4.5C12.6,8.4,10.6,10.4,8.1,10.4 M1.4,18.8v-1.3c0-3.1,2.3-5.6,5.1-5.6h3c2.8,0,5.1,2.5,5.1,5.6v1.3H1.4z"/>
			</g>
			<g>
				<path fill="#FFFFFF" d="M8.1,0C4.8,0,2.1,2.7,2.1,5.9c0,2,1,3.8,2.5,4.9C2,11.6,0,14.3,0,17.5v2.7h16.1v-2.7
					c0-3.2-2-5.9-4.7-6.8C13,9.7,14,7.9,14,5.9C14,2.7,11.3,0,8.1,0 M8.1,10.4c-2.5,0-4.5-2-4.5-4.5c0-2.5,2-4.5,4.5-4.5
					c2.5,0,4.5,2,4.5,4.5C12.6,8.4,10.6,10.4,8.1,10.4 M1.4,18.8v-1.3c0-3.1,2.3-5.6,5.1-5.6h3c2.8,0,5.1,2.5,5.1,5.6v1.3H1.4z"/>
			</g>
		</g>
	</g>
</g>
</svg>
