<?xml version="1.0" encoding="utf-8"?>
<!-- Generator: Adobe Illustrator 18.1.1, SVG Export Plug-In . SVG Version: 6.00 Build 0)  -->
<svg version="1.1" id="Layer_1" xmlns="http://www.w3.org/2000/svg" xmlns:xlink="http://www.w3.org/1999/xlink" x="0px" y="0px"
	 width="120px" height="120px" viewBox="0 0 120 120" enable-background="new 0 0 120 120" xml:space="preserve">
<g>
	<g>
		<g>
			<g>
				<path fill="#C25374" d="M60,0C26.9,0,0,26.9,0,60s26.9,60,60,60c33.1,0,60-26.9,60-60S93.1,0,60,0 M53.8,24.5h12.5V12.8
					c21.3,2.8,38.1,19.7,40.9,40.9H95.4v12.5h11.8c-2.8,21.3-19.7,38.1-40.9,40.9V95.3H53.8v11.8c-21.3-2.8-38.1-19.7-40.9-40.9
					h11.7V53.8H12.8c2.8-21.3,19.7-38.1,40.9-40.9V24.5z"/>
				<path fill="#C25374" d="M60.1,39.3c-3.7,0-6.8,1.1-9.3,3.4c-2.5,2.3-3.9,5.4-4.4,9.4h9.5c0.2-1.5,0.6-2.7,1.3-3.6
					c0.7-0.9,1.6-1.3,2.6-1.3c1,0,1.9,0.4,2.5,1.1c0.6,0.8,1,1.7,1,2.8c0,1.1-0.3,2.1-0.9,2.8l-4.1,4.2c-1.4,1.4-2.2,2.5-2.7,3.3
					c-0.4,0.8-0.6,2-0.6,3.7v4.5h9.1V66c0-1.1,0.1-1.9,0.4-2.4c0.3-0.5,0.8-1.2,1.7-2.1c0.9-0.8,1.8-1.7,2.7-2.7
					c0.2-0.2,0.6-0.6,1.2-1.3c0.6-0.7,0.9-1.2,1.1-1.5c0.2-0.3,0.4-0.9,0.8-1.7c0.4-0.8,0.6-2,0.6-3.6c0-3.6-1.2-6.4-3.5-8.4
					C66.8,40.4,63.8,39.3,60.1,39.3 M59.7,72c-1.5,0-2.7,0.5-3.7,1.5c-1,1-1.5,2.3-1.5,3.7c0,1.5,0.5,2.7,1.5,3.7
					c1,1,2.3,1.5,3.7,1.5c1.5,0,2.7-0.5,3.7-1.5c1-1,1.5-2.3,1.5-3.7c0-1.5-0.5-2.7-1.5-3.7C62.4,72.5,61.2,72,59.7,72"/>
			</g>
		</g>
	</g>
</g>
</svg>
