<?xml version="1.0" encoding="utf-8"?>
<!-- Generator: Adobe Illustrator 18.1.1, SVG Export Plug-In . SVG Version: 6.00 Build 0)  -->
<svg version="1.1" id="Layer_1" xmlns="http://www.w3.org/2000/svg" xmlns:xlink="http://www.w3.org/1999/xlink" x="0px" y="0px"
	 width="269px" height="108px" viewBox="0 0 269 108" enable-background="new 0 0 269 108" xml:space="preserve">
<text transform="matrix(1 0 0 1 9.578813e-06 45.6357)" font-family="'Merriweather-Bold'" font-size="9.9637">low effort</text>
<text transform="matrix(1 0 0 1 9.536743e-06 106)" font-family="'Merriweather-Bold'" font-size="9.9637">high effort</text>
<g>
	<path fill="#A7A8A8" d="M94.1,22.5c-4.2,0-7.6-3.4-7.6-7.6s3.4-7.6,7.6-7.6s7.6,3.4,7.6,7.6S98.3,22.5,94.1,22.5z M94.1,8.3
		c-3.6,0-6.6,3-6.6,6.6s3,6.6,6.6,6.6s6.6-3,6.6-6.6S97.8,8.3,94.1,8.3z"/>
	<path fill="#A7A8A8" d="M94.1,24.8c-5.4,0-9.9-4.4-9.9-9.9S88.7,5,94.1,5s9.9,4.4,9.9,9.9S99.6,24.8,94.1,24.8z M94.1,6
		c-4.9,0-8.9,4-8.9,8.9s4,8.9,8.9,8.9s8.9-4,8.9-8.9S99,6,94.1,6z"/>
	<path fill="#A7A8A8" d="M94.1,27C87.4,27,82,21.6,82,14.9S87.4,2.7,94.1,2.7s12.1,5.4,12.1,12.1S100.8,27,94.1,27z M94.1,3.7
		C88,3.7,83,8.7,83,14.9S88,26,94.1,26s11.1-5,11.1-11.1S100.3,3.7,94.1,3.7z"/>
	<path fill="#A7A8A8" d="M94.1,29.3c-7.9,0-14.4-6.5-14.4-14.4S86.2,0.5,94.1,0.5s14.4,6.5,14.4,14.4S102.1,29.3,94.1,29.3z
		 M94.1,1.5c-7.4,0-13.4,6-13.4,13.4s6,13.4,13.4,13.4s13.4-6,13.4-13.4S101.5,1.5,94.1,1.5z"/>
</g>
<g>
	<path fill="#3D3D3B" d="M14.9,23c-4.5,0-8.1-3.6-8.1-8.1s3.6-8.1,8.1-8.1s8.1,3.6,8.1,8.1S19.4,23,14.9,23z M14.9,8.8
		c-3.4,0-6.1,2.7-6.1,6.1s2.7,6.1,6.1,6.1s6.1-2.7,6.1-6.1S18.3,8.8,14.9,8.8z"/>
	<path fill="#3D3D3B" d="M14.9,25.3c-5.7,0-10.4-4.7-10.4-10.4S9.2,4.5,14.9,4.5s10.4,4.7,10.4,10.4S20.6,25.3,14.9,25.3z M14.9,6.5
		c-4.6,0-8.4,3.8-8.4,8.4s3.8,8.4,8.4,8.4s8.4-3.8,8.4-8.4S19.5,6.5,14.9,6.5z"/>
	<path fill="#3D3D3B" d="M14.9,27.5c-7,0-12.6-5.7-12.6-12.6S7.9,2.2,14.9,2.2s12.6,5.7,12.6,12.6S21.9,27.5,14.9,27.5z M14.9,4.2
		C9,4.2,4.2,9,4.2,14.9S9,25.5,14.9,25.5c5.9,0,10.6-4.8,10.6-10.6S20.8,4.2,14.9,4.2z"/>
	<path fill="#3D3D3B" d="M14.9,29.8C6.7,29.8,0,23.1,0,14.9S6.7,0,14.9,0s14.9,6.7,14.9,14.9S23.1,29.8,14.9,29.8z M14.9,2
		C7.8,2,2,7.8,2,14.9s5.8,12.9,12.9,12.9S27.8,22,27.8,14.9S22,2,14.9,2z"/>
</g>
<g>
	<path fill="#3D3D3B" d="M14.9,82.4c-4.5,0-8.1-3.6-8.1-8.1s3.6-8.1,8.1-8.1s8.1,3.6,8.1,8.1S19.4,82.4,14.9,82.4z M14.9,68.2
		c-3.4,0-6.1,2.7-6.1,6.1c0,3.4,2.7,6.1,6.1,6.1s6.1-2.7,6.1-6.1C21,71,18.3,68.2,14.9,68.2z"/>
	<path fill="#3D3D3B" d="M14.9,84.7c-5.7,0-10.4-4.7-10.4-10.4S9.2,64,14.9,64s10.4,4.7,10.4,10.4S20.6,84.7,14.9,84.7z M14.9,66
		c-4.6,0-8.4,3.8-8.4,8.4s3.8,8.4,8.4,8.4s8.4-3.8,8.4-8.4S19.5,66,14.9,66z"/>
	<path fill="#3D3D3B" d="M14.9,87c-7,0-12.6-5.7-12.6-12.6s5.7-12.6,12.6-12.6s12.6,5.7,12.6,12.6S21.9,87,14.9,87z M14.9,63.7
		C9,63.7,4.2,68.5,4.2,74.3C4.2,80.2,9,85,14.9,85c5.9,0,10.6-4.8,10.6-10.6C25.5,68.5,20.8,63.7,14.9,63.7z"/>
	<path fill="#3D3D3B" d="M14.9,89.2C6.7,89.2,0,82.5,0,74.3s6.7-14.9,14.9-14.9s14.9,6.7,14.9,14.9S23.1,89.2,14.9,89.2z M14.9,61.4
		C7.8,61.4,2,67.2,2,74.3c0,7.1,5.8,12.9,12.9,12.9s12.9-5.8,12.9-12.9C27.8,67.2,22,61.4,14.9,61.4z"/>
</g>
<g>
	<path fill="#3D3D3B" d="M94.1,82.4c-4.5,0-8.1-3.6-8.1-8.1s3.6-8.1,8.1-8.1s8.1,3.6,8.1,8.1S98.6,82.4,94.1,82.4z M94.1,68.2
		c-3.4,0-6.1,2.7-6.1,6.1c0,3.4,2.7,6.1,6.1,6.1s6.1-2.7,6.1-6.1C100.2,71,97.5,68.2,94.1,68.2z"/>
	<path fill="#3D3D3B" d="M94.1,84.7c-5.7,0-10.4-4.7-10.4-10.4S88.4,64,94.1,64s10.4,4.7,10.4,10.4S99.8,84.7,94.1,84.7z M94.1,66
		c-4.6,0-8.4,3.8-8.4,8.4s3.8,8.4,8.4,8.4s8.4-3.8,8.4-8.4S98.7,66,94.1,66z"/>
	<path fill="#3D3D3B" d="M94.1,87c-7,0-12.6-5.7-12.6-12.6s5.7-12.6,12.6-12.6s12.6,5.7,12.6,12.6S101.1,87,94.1,87z M94.1,63.7
		c-5.9,0-10.6,4.8-10.6,10.6c0,5.9,4.8,10.6,10.6,10.6s10.6-4.8,10.6-10.6C104.8,68.5,100,63.7,94.1,63.7z"/>
	<path fill="#3D3D3B" d="M94.1,89.2c-8.2,0-14.9-6.7-14.9-14.9s6.7-14.9,14.9-14.9S109,66.1,109,74.3S102.3,89.2,94.1,89.2z
		 M94.1,61.4c-7.1,0-12.9,5.8-12.9,12.9c0,7.1,5.8,12.9,12.9,12.9S107,81.4,107,74.3C107,67.2,101.2,61.4,94.1,61.4z"/>
</g>
<g>
	<path fill="#3D3D3B" d="M174.9,82.4c-4.5,0-8.1-3.6-8.1-8.1s3.6-8.1,8.1-8.1s8.1,3.6,8.1,8.1S179.4,82.4,174.9,82.4z M174.9,68.2
		c-3.4,0-6.1,2.7-6.1,6.1c0,3.4,2.7,6.1,6.1,6.1s6.1-2.7,6.1-6.1C181,71,178.2,68.2,174.9,68.2z"/>
	<path fill="#3D3D3B" d="M174.9,84.7c-5.7,0-10.4-4.7-10.4-10.4S169.2,64,174.9,64s10.4,4.7,10.4,10.4S180.6,84.7,174.9,84.7z
		 M174.9,66c-4.6,0-8.4,3.8-8.4,8.4s3.8,8.4,8.4,8.4s8.4-3.8,8.4-8.4S179.5,66,174.9,66z"/>
	<path fill="#3D3D3B" d="M174.9,87c-7,0-12.6-5.7-12.6-12.6s5.7-12.6,12.6-12.6s12.6,5.7,12.6,12.6S181.9,87,174.9,87z M174.9,63.7
		c-5.9,0-10.6,4.8-10.6,10.6c0,5.9,4.8,10.6,10.6,10.6c5.9,0,10.6-4.8,10.6-10.6C185.5,68.5,180.7,63.7,174.9,63.7z"/>
	<path fill="#3D3D3B" d="M174.9,89.2c-8.2,0-14.9-6.7-14.9-14.9s6.7-14.9,14.9-14.9s14.9,6.7,14.9,14.9S183.1,89.2,174.9,89.2z
		 M174.9,61.4c-7.1,0-12.9,5.8-12.9,12.9c0,7.1,5.8,12.9,12.9,12.9s12.9-5.8,12.9-12.9C187.8,67.2,182,61.4,174.9,61.4z"/>
</g>
<g>
	<path fill="#3D3D3B" d="M254.1,82.4c-4.5,0-8.1-3.6-8.1-8.1s3.6-8.1,8.1-8.1s8.1,3.6,8.1,8.1S258.6,82.4,254.1,82.4z M254.1,68.2
		c-3.4,0-6.1,2.7-6.1,6.1c0,3.4,2.7,6.1,6.1,6.1s6.1-2.7,6.1-6.1C260.2,71,257.5,68.2,254.1,68.2z"/>
	<path fill="#3D3D3B" d="M254.1,84.7c-5.7,0-10.4-4.7-10.4-10.4S248.4,64,254.1,64s10.4,4.7,10.4,10.4S259.8,84.7,254.1,84.7z
		 M254.1,66c-4.6,0-8.4,3.8-8.4,8.4s3.8,8.4,8.4,8.4s8.4-3.8,8.4-8.4S258.7,66,254.1,66z"/>
	<path fill="#3D3D3B" d="M254.1,87c-7,0-12.6-5.7-12.6-12.6s5.7-12.6,12.6-12.6s12.6,5.7,12.6,12.6S261.1,87,254.1,87z M254.1,63.7
		c-5.9,0-10.6,4.8-10.6,10.6c0,5.9,4.8,10.6,10.6,10.6c5.9,0,10.6-4.8,10.6-10.6C264.8,68.5,260,63.7,254.1,63.7z"/>
	<path fill="#3D3D3B" d="M254.1,89.2c-8.2,0-14.9-6.7-14.9-14.9s6.7-14.9,14.9-14.9S269,66.1,269,74.3S262.3,89.2,254.1,89.2z
		 M254.1,61.4c-7.1,0-12.9,5.8-12.9,12.9c0,7.1,5.8,12.9,12.9,12.9S267,81.4,267,74.3C267,67.2,261.2,61.4,254.1,61.4z"/>
</g>
<g>
	<path fill="#A7A8A8" d="M174.9,22.5c-4.2,0-7.6-3.4-7.6-7.6s3.4-7.6,7.6-7.6s7.6,3.4,7.6,7.6S179.1,22.5,174.9,22.5z M174.9,8.3
		c-3.6,0-6.6,3-6.6,6.6s3,6.6,6.6,6.6s6.6-3,6.6-6.6S178.5,8.3,174.9,8.3z"/>
	<path fill="#A7A8A8" d="M174.9,24.8c-5.4,0-9.9-4.4-9.9-9.9s4.4-9.9,9.9-9.9s9.9,4.4,9.9,9.9S180.3,24.8,174.9,24.8z M174.9,6
		c-4.9,0-8.9,4-8.9,8.9s4,8.9,8.9,8.9s8.9-4,8.9-8.9S179.8,6,174.9,6z"/>
	<path fill="#A7A8A8" d="M174.9,27c-6.7,0-12.1-5.4-12.1-12.1s5.4-12.1,12.1-12.1c6.7,0,12.1,5.4,12.1,12.1S181.6,27,174.9,27z
		 M174.9,3.7c-6.1,0-11.1,5-11.1,11.1s5,11.1,11.1,11.1S186,21,186,14.9S181,3.7,174.9,3.7z"/>
	<path fill="#A7A8A8" d="M174.9,29.3c-7.9,0-14.4-6.5-14.4-14.4s6.5-14.4,14.4-14.4s14.4,6.5,14.4,14.4S182.8,29.3,174.9,29.3z
		 M174.9,1.5c-7.4,0-13.4,6-13.4,13.4s6,13.4,13.4,13.4s13.4-6,13.4-13.4S182.3,1.5,174.9,1.5z"/>
</g>
<g>
	<path fill="#A7A8A8" d="M254.1,22.5c-4.2,0-7.6-3.4-7.6-7.6s3.4-7.6,7.6-7.6s7.6,3.4,7.6,7.6S258.3,22.5,254.1,22.5z M254.1,8.3
		c-3.6,0-6.6,3-6.6,6.6s3,6.6,6.6,6.6s6.6-3,6.6-6.6S257.8,8.3,254.1,8.3z"/>
	<path fill="#A7A8A8" d="M254.1,24.8c-5.4,0-9.9-4.4-9.9-9.9s4.4-9.9,9.9-9.9s9.9,4.4,9.9,9.9S259.6,24.8,254.1,24.8z M254.1,6
		c-4.9,0-8.9,4-8.9,8.9s4,8.9,8.9,8.9s8.9-4,8.9-8.9S259,6,254.1,6z"/>
	<path fill="#A7A8A8" d="M254.1,27c-6.7,0-12.1-5.4-12.1-12.1s5.4-12.1,12.1-12.1c6.7,0,12.1,5.4,12.1,12.1S260.8,27,254.1,27z
		 M254.1,3.7c-6.1,0-11.1,5-11.1,11.1S248,26,254.1,26s11.1-5,11.1-11.1S260.3,3.7,254.1,3.7z"/>
	<path fill="#A7A8A8" d="M254.1,29.3c-7.9,0-14.4-6.5-14.4-14.4s6.5-14.4,14.4-14.4s14.4,6.5,14.4,14.4S262,29.3,254.1,29.3z
		 M254.1,1.5c-7.4,0-13.4,6-13.4,13.4s6,13.4,13.4,13.4s13.4-6,13.4-13.4S261.5,1.5,254.1,1.5z"/>
</g>
</svg>
