<?xml version="1.0" encoding="utf-8"?>
<!-- Generator: Adobe Illustrator 18.1.1, SVG Export Plug-In . SVG Version: 6.00 Build 0)  -->
<svg version="1.1" id="Layer_1" xmlns="http://www.w3.org/2000/svg" xmlns:xlink="http://www.w3.org/1999/xlink" x="0px" y="0px"
	 width="521px" height="387px" viewBox="-285 258.6 521 387" enable-background="new -285 258.6 521 387" xml:space="preserve">
<g>
	<g>
		<g>
			<path fill="#1C1C1B" d="M91.2,308.7c7.6,0,13.8,6.2,13.8,13.8v188.9h-257V322.5c0-7.6,6.2-13.8,13.8-13.8H91.2 M91.2,305.7
				h-229.4c-9.3,0-16.8,7.5-16.8,16.8v191.9h263V322.5C108,313.2,100.5,305.7,91.2,305.7L91.2,305.7z"/>
		</g>
		<line fill="none" stroke="#1C1C1B" stroke-width="3" stroke-miterlimit="10" x1="-155" y1="328.1" x2="106.7" y2="328.1"/>
		<line fill="none" stroke="#1C1C1B" stroke-width="3" stroke-miterlimit="10" x1="-91" y1="305.7" x2="-91" y2="328.1"/>
		<circle fill="none" stroke="#1C1C1B" stroke-width="3" stroke-miterlimit="10" cx="-112.5" cy="317.5" r="4.5"/>
		<line fill="none" stroke="#1C1C1B" stroke-width="3" stroke-miterlimit="10" x1="-139.5" y1="322" x2="-131.3" y2="313.8"/>
		<line fill="none" stroke="#1C1C1B" stroke-width="3" stroke-miterlimit="10" x1="-131.3" y1="322" x2="-139.5" y2="313.8"/>
		<line fill="none" stroke="#1C1C1B" stroke-width="3" stroke-miterlimit="10" x1="-135.4" y1="357.8" x2="-52.2" y2="357.8"/>
		<line fill="none" stroke="#1C1C1B" stroke-width="3" stroke-miterlimit="10" x1="-135.4" y1="399.4" x2="-23.7" y2="399.4"/>
		<line fill="none" stroke="#1C1C1B" stroke-width="3" stroke-miterlimit="10" x1="-135.4" y1="421.4" x2="-5" y2="421.4"/>
		<line fill="none" stroke="#1C1C1B" stroke-width="3" stroke-miterlimit="10" x1="-135.4" y1="432.4" x2="-8.8" y2="432.4"/>
		<line fill="none" stroke="#1C1C1B" stroke-width="3" stroke-miterlimit="10" x1="-135.4" y1="474" x2="-14.3" y2="474"/>
		<line fill="none" stroke="#1C1C1B" stroke-width="3" stroke-miterlimit="10" x1="-135.4" y1="388.4" x2="9.3" y2="388.4"/>
		<line fill="none" stroke="#1C1C1B" stroke-width="3" stroke-miterlimit="10" x1="-135.4" y1="410.4" x2="9.3" y2="410.4"/>
		<line fill="none" stroke="#1C1C1B" stroke-width="3" stroke-miterlimit="10" x1="-135.4" y1="456" x2="9.3" y2="456"/>
		<line fill="none" stroke="#1C1C1B" stroke-width="3" stroke-miterlimit="10" x1="-135.4" y1="465" x2="-63" y2="465"/>
		<line fill="none" stroke="#1C1C1B" stroke-width="3" stroke-miterlimit="10" x1="-135.4" y1="377.4" x2="1" y2="377.4"/>
		<line fill="none" stroke="#1C1C1B" stroke-width="3" stroke-miterlimit="10" x1="24.6" y1="377.4" x2="85.3" y2="377.4"/>
		<line fill="none" stroke="#1C1C1B" stroke-width="3" stroke-miterlimit="10" x1="24.6" y1="388.4" x2="85.3" y2="388.4"/>
		<line fill="none" stroke="#1C1C1B" stroke-width="3" stroke-miterlimit="10" x1="24.6" y1="399.4" x2="85.3" y2="399.4"/>
		<line fill="none" stroke="#1C1C1B" stroke-width="3" stroke-miterlimit="10" x1="24.6" y1="410.4" x2="85.3" y2="410.4"/>
		<line fill="none" stroke="#1C1C1B" stroke-width="3" stroke-miterlimit="10" x1="24.6" y1="456" x2="85.3" y2="456"/>
	</g>
</g>
<g>
	<path d="M-113.6,578.6c0.8,0.7,1.2,1.7,1.2,3c0,1.3-0.4,2.3-1.1,3c-0.8,0.7-1.9,1.1-3.5,1.1h-2.8v-8.2h2.9
		C-115.5,577.5-114.4,577.8-113.6,578.6z M-114.9,583.4c0.4-0.4,0.7-1,0.7-1.8c0-0.8-0.2-1.4-0.7-1.9s-1.1-0.7-2.1-0.7h-1v5h1.2
		C-116,584.1-115.4,583.9-114.9,583.4z"/>
	<path d="M-103.9,577.5v1.6h-4.1v1.7h3.7v1.6h-3.7v1.7h4.2v1.6h-6v-8.2H-103.9z"/>
	<path d="M-99.2,579.1c-0.2,0.1-0.3,0.3-0.3,0.6s0.1,0.4,0.3,0.6c0.2,0.1,0.7,0.3,1.5,0.5c0.8,0.2,1.4,0.5,1.8,0.9
		c0.4,0.4,0.6,0.9,0.6,1.7s-0.3,1.3-0.8,1.8c-0.6,0.5-1.3,0.7-2.2,0.7c-1.3,0-2.5-0.5-3.5-1.4l1.1-1.3c0.9,0.8,1.7,1.2,2.5,1.2
		c0.3,0,0.6-0.1,0.8-0.2c0.2-0.1,0.3-0.3,0.3-0.6s-0.1-0.4-0.3-0.6c-0.2-0.1-0.6-0.3-1.2-0.4c-1-0.2-1.7-0.5-2.1-0.9
		c-0.4-0.4-0.7-0.9-0.7-1.7s0.3-1.4,0.8-1.8c0.6-0.4,1.3-0.6,2.1-0.6c0.5,0,1.1,0.1,1.6,0.3c0.5,0.2,1,0.5,1.4,0.8l-0.9,1.3
		c-0.7-0.5-1.4-0.8-2.2-0.8C-98.8,578.9-99.1,579-99.2,579.1z"/>
	<path d="M-88.9,584.1c0.9,0,1.6-0.4,2.2-1.1l1.2,1.2c-0.9,1-2,1.6-3.3,1.6s-2.3-0.4-3.1-1.2c-0.8-0.8-1.2-1.8-1.2-3
		c0-1.2,0.4-2.2,1.2-3s1.9-1.2,3.1-1.2c1.3,0,2.5,0.5,3.4,1.5l-1.1,1.3c-0.6-0.7-1.3-1.1-2.2-1.1c-0.7,0-1.3,0.2-1.8,0.7
		c-0.5,0.5-0.7,1.1-0.7,1.8s0.2,1.4,0.7,1.8C-90.1,583.8-89.6,584.1-88.9,584.1z"/>
	<path d="M-76.4,580.2c0,1.3-0.5,2.2-1.6,2.5l2.1,2.9h-2.3l-1.8-2.6h-1.3v2.6h-1.8v-8.2h3.1c1.3,0,2.2,0.2,2.7,0.6
		C-76.7,578.6-76.4,579.3-76.4,580.2z M-78.6,581.2c0.2-0.2,0.3-0.5,0.3-1c0-0.4-0.1-0.7-0.4-0.9c-0.2-0.2-0.6-0.2-1.2-0.2h-1.4v2.4
		h1.3C-79.3,581.5-78.9,581.4-78.6,581.2z"/>
	<path d="M-73.6,577.5h1.8v8.2h-1.8V577.5z"/>
	<path d="M-63.1,578.2c0.6,0.5,0.9,1.2,0.9,2.3s-0.3,1.8-0.9,2.2s-1.5,0.7-2.7,0.7h-1.1v2.3h-1.8v-8.2h2.9
		C-64.6,577.5-63.6,577.7-63.1,578.2z M-64.4,581.5c0.2-0.2,0.3-0.6,0.3-1.1s-0.1-0.8-0.4-1c-0.3-0.2-0.7-0.3-1.3-0.3h-1v2.8h1.2
		C-65,581.8-64.6,581.7-64.4,581.5z"/>
	<path d="M-56.3,579.1v6.6h-1.8v-6.6h-2.3v-1.6h6.5v1.6H-56.3z"/>
	<path d="M-51.6,577.5h1.8v8.2h-1.8V577.5z"/>
	<path d="M-39.9,584.6c-0.8,0.8-1.9,1.2-3.1,1.2s-2.2-0.4-3.1-1.2c-0.8-0.8-1.2-1.8-1.2-3c0-1.2,0.4-2.2,1.2-3
		c0.8-0.8,1.9-1.2,3.1-1.2s2.2,0.4,3.1,1.2s1.2,1.8,1.2,3C-38.7,582.7-39.1,583.8-39.9,584.6z M-40.5,581.5c0-0.7-0.2-1.4-0.7-1.9
		s-1-0.8-1.7-0.8s-1.3,0.3-1.7,0.8c-0.5,0.5-0.7,1.1-0.7,1.9s0.2,1.4,0.7,1.9c0.5,0.5,1,0.8,1.7,0.8s1.3-0.3,1.7-0.8
		S-40.5,582.3-40.5,581.5z"/>
	<path d="M-30.4,577.5h1.8v8.2h-1.8l-3.9-5.1v5.1h-1.8v-8.2h1.7l4,5.3V577.5z"/>
	<path d="M-21.6,582.9v-1.6h4.2v1.6H-21.6z"/>
	<path d="M-3.9,580.2c0,1.3-0.5,2.2-1.6,2.5l2.1,2.9h-2.3l-1.8-2.6h-1.3v2.6h-1.8v-8.2h3.1c1.3,0,2.2,0.2,2.7,0.6
		C-4.2,578.6-3.9,579.3-3.9,580.2z M-6.1,581.2c0.2-0.2,0.3-0.5,0.3-1c0-0.4-0.1-0.7-0.4-0.9c-0.2-0.2-0.6-0.2-1.2-0.2h-1.4v2.4h1.3
		C-6.8,581.5-6.4,581.4-6.1,581.2z"/>
	<path d="M4.9,577.5v1.6H0.8v1.7h3.7v1.6H0.8v1.7H5v1.6h-6v-8.2H4.9z"/>
	<path d="M9.5,579.1c-0.2,0.1-0.3,0.3-0.3,0.6s0.1,0.4,0.3,0.6c0.2,0.1,0.7,0.3,1.5,0.5c0.8,0.2,1.4,0.5,1.8,0.9
		c0.4,0.4,0.6,0.9,0.6,1.7s-0.3,1.3-0.8,1.8c-0.6,0.5-1.3,0.7-2.2,0.7c-1.3,0-2.5-0.5-3.5-1.4l1.1-1.3c0.9,0.8,1.7,1.2,2.5,1.2
		c0.3,0,0.6-0.1,0.8-0.2c0.2-0.1,0.3-0.3,0.3-0.6s-0.1-0.4-0.3-0.6s-0.6-0.3-1.2-0.4c-1-0.2-1.7-0.5-2.1-0.9
		c-0.4-0.4-0.7-0.9-0.7-1.7s0.3-1.4,0.8-1.8c0.6-0.4,1.3-0.6,2.1-0.6c0.5,0,1.1,0.1,1.6,0.3c0.5,0.2,1,0.5,1.4,0.8l-0.9,1.3
		c-0.7-0.5-1.4-0.8-2.2-0.8C10,578.9,9.7,579,9.5,579.1z"/>
	<path d="M23,584.6c-0.8,0.8-1.9,1.2-3.1,1.2c-1.2,0-2.2-0.4-3.1-1.2c-0.8-0.8-1.2-1.8-1.2-3c0-1.2,0.4-2.2,1.2-3
		c0.8-0.8,1.9-1.2,3.1-1.2c1.2,0,2.2,0.4,3.1,1.2c0.8,0.8,1.2,1.8,1.2,3C24.2,582.7,23.8,583.8,23,584.6z M22.4,581.5
		c0-0.7-0.2-1.4-0.7-1.9c-0.5-0.5-1-0.8-1.7-0.8c-0.7,0-1.3,0.3-1.7,0.8c-0.5,0.5-0.7,1.1-0.7,1.9s0.2,1.4,0.7,1.9
		c0.5,0.5,1,0.8,1.7,0.8c0.7,0,1.3-0.3,1.7-0.8C22.1,582.9,22.4,582.3,22.4,581.5z"/>
	<path d="M29,583.6c0.3,0.4,0.7,0.6,1.2,0.6c0.5,0,0.9-0.2,1.2-0.6c0.3-0.4,0.5-0.9,0.5-1.6v-4.5h1.8v4.6c0,1.2-0.3,2.1-1,2.7
		c-0.7,0.6-1.5,1-2.5,1c-1,0-1.9-0.3-2.5-1s-1-1.6-1-2.7v-4.6h1.8v4.5C28.5,582.7,28.7,583.2,29,583.6z"/>
	<path d="M43.3,580.2c0,1.3-0.5,2.2-1.6,2.5l2.1,2.9h-2.3l-1.8-2.6h-1.3v2.6h-1.8v-8.2h3.1c1.3,0,2.2,0.2,2.7,0.6
		C43,578.6,43.3,579.3,43.3,580.2z M41,581.2c0.2-0.2,0.3-0.5,0.3-1c0-0.4-0.1-0.7-0.4-0.9c-0.2-0.2-0.6-0.2-1.2-0.2h-1.4v2.4h1.3
		C40.4,581.5,40.8,581.4,41,581.2z"/>
	<path d="M49.9,584.1c0.9,0,1.6-0.4,2.2-1.1l1.2,1.2c-0.9,1-2,1.6-3.3,1.6s-2.3-0.4-3.1-1.2c-0.8-0.8-1.2-1.8-1.2-3
		c0-1.2,0.4-2.2,1.2-3s1.9-1.2,3.1-1.2c1.3,0,2.5,0.5,3.4,1.5l-1.1,1.3c-0.6-0.7-1.3-1.1-2.2-1.1c-0.7,0-1.3,0.2-1.8,0.7
		s-0.7,1.1-0.7,1.8s0.2,1.4,0.7,1.8C48.7,583.8,49.2,584.1,49.9,584.1z"/>
	<path d="M61.6,577.5v1.6h-4.1v1.7h3.7v1.6h-3.7v1.7h4.2v1.6h-6v-8.2H61.6z"/>
	<path d="M66.3,579.1c-0.2,0.1-0.3,0.3-0.3,0.6s0.1,0.4,0.3,0.6c0.2,0.1,0.7,0.3,1.5,0.5c0.8,0.2,1.4,0.5,1.8,0.9
		c0.4,0.4,0.6,0.9,0.6,1.7s-0.3,1.3-0.8,1.8c-0.6,0.5-1.3,0.7-2.2,0.7c-1.3,0-2.5-0.5-3.5-1.4l1.1-1.3c0.9,0.8,1.7,1.2,2.5,1.2
		c0.3,0,0.6-0.1,0.8-0.2c0.2-0.1,0.3-0.3,0.3-0.6s-0.1-0.4-0.3-0.6s-0.6-0.3-1.2-0.4c-1-0.2-1.7-0.5-2.1-0.9
		c-0.4-0.4-0.7-0.9-0.7-1.7s0.3-1.4,0.8-1.8c0.6-0.4,1.3-0.6,2.1-0.6c0.5,0,1.1,0.1,1.6,0.3c0.5,0.2,1,0.5,1.4,0.8l-0.9,1.3
		c-0.7-0.5-1.4-0.8-2.2-0.8C66.7,578.9,66.5,579,66.3,579.1z"/>
</g>
</svg>
