<?xml version="1.0" encoding="utf-8"?>
<!-- Generator: Adobe Illustrator 18.1.1, SVG Export Plug-In . SVG Version: 6.00 Build 0)  -->
<svg version="1.1" id="Layer_1" xmlns="http://www.w3.org/2000/svg" xmlns:xlink="http://www.w3.org/1999/xlink" x="0px" y="0px"
	 width="70px" height="70px" viewBox="0 0 70 70" enable-background="new 0 0 70 70" xml:space="preserve">

<!-- border -->
<rect id="border" stroke="#d7d7d6" stroke-width="5" fill="#FFFFFF" x="3" y="3" width="64" height="64" rx="20" ry="20" />
<!-- filled square -->   
  <rect id="square" fill="#C25374" x="0" y="0" width="70" height="70" rx="23" ry="23" />
<!-- define intentions text -->
            <g id="text">
                <path fill="#FFFFFF" d="M26.1,46.1c0.5,0.4,0.7,1,0.7,1.8c0,0.8-0.2,1.4-0.7,1.8c-0.5,0.4-1.2,0.7-2.1,0.7h-1.6v-4.9h1.7
                C25,45.4,25.7,45.6,26.1,46.1z M26,47.9c0-1.1-0.6-1.7-1.9-1.7h-0.8v3.4h0.9c0.6,0,1-0.1,1.4-0.4C25.9,48.8,26,48.4,26,47.9z"/>
                <path fill="#FFFFFF" d="M31.8,48.8h-2.9c0,0.3,0.1,0.5,0.4,0.7c0.2,0.2,0.5,0.2,0.8,0.2c0.5,0,0.8-0.1,1.1-0.4l0.4,0.5
                c-0.4,0.4-0.9,0.6-1.6,0.6c-0.5,0-1-0.2-1.3-0.5s-0.5-0.8-0.5-1.4c0-0.6,0.2-1.1,0.6-1.4c0.4-0.3,0.8-0.5,1.3-0.5
                s0.9,0.2,1.3,0.5s0.5,0.7,0.5,1.3V48.8z M28.9,48.2H31c0-0.3-0.1-0.6-0.3-0.7c-0.2-0.2-0.4-0.3-0.7-0.3s-0.5,0.1-0.8,0.3
                C29,47.6,28.9,47.9,28.9,48.2z"/>
                <path fill="#FFFFFF" d="M34.1,46.3v0.3h1v0.6h-1v3.1h-0.8v-3.1h-0.5v-0.6h0.5v-0.3c0-0.4,0.1-0.7,0.4-0.9
                c0.2-0.2,0.5-0.3,0.9-0.3c0.3,0,0.6,0.1,0.9,0.4l-0.3,0.6c-0.2-0.2-0.3-0.2-0.5-0.2s-0.3,0.1-0.4,0.2S34.1,46.1,34.1,46.3z"/>
                <path fill="#FFFFFF" d="M36.4,45.8c-0.1-0.1-0.1-0.2-0.1-0.4s0-0.3,0.1-0.4c0.1-0.1,0.2-0.1,0.3-0.1s0.3,0,0.4,0.1
                s0.1,0.2,0.1,0.4s0,0.3-0.1,0.4C37,45.9,36.9,46,36.8,46S36.5,45.9,36.4,45.8z M37.2,50.3h-0.8v-3.7h0.8V50.3z"/>
                <path fill="#FFFFFF" d="M39.6,48.3v2h-0.8v-3.7h0.8v0.7c0.1-0.2,0.3-0.4,0.5-0.5c0.2-0.1,0.5-0.2,0.7-0.2c0.4,0,0.8,0.1,1,0.4
                c0.3,0.3,0.4,0.6,0.4,1.1v2.3h-0.8v-2c0-0.7-0.3-1-0.9-1c-0.3,0-0.5,0.1-0.7,0.3C39.7,47.7,39.6,47.9,39.6,48.3z"/>
                <path fill="#FFFFFF" d="M47.3,48.8h-2.9c0,0.3,0.1,0.5,0.4,0.7c0.2,0.2,0.5,0.2,0.8,0.2c0.5,0,0.8-0.1,1.1-0.4l0.4,0.5
                c-0.4,0.4-0.9,0.6-1.6,0.6c-0.5,0-1-0.2-1.3-0.5s-0.5-0.8-0.5-1.4c0-0.6,0.2-1.1,0.6-1.4c0.4-0.3,0.8-0.5,1.3-0.5
                s0.9,0.2,1.3,0.5s0.5,0.7,0.5,1.3V48.8z M44.4,48.2h2.1c0-0.3-0.1-0.6-0.3-0.7c-0.2-0.2-0.4-0.3-0.7-0.3s-0.5,0.1-0.8,0.3
                C44.5,47.6,44.4,47.9,44.4,48.2z"/>
                <path fill="#FFFFFF" d="M15.1,53.8h0.8v4.9h-0.8V53.8z"/>
                <path fill="#FFFFFF" d="M18.4,56.7v2h-0.8V55h0.8v0.7c0.1-0.2,0.3-0.4,0.5-0.5c0.2-0.1,0.5-0.2,0.7-0.2c0.4,0,0.8,0.1,1,0.4
                c0.3,0.3,0.4,0.6,0.4,1.1v2.3h-0.8v-2c0-0.7-0.3-1-0.9-1c-0.3,0-0.5,0.1-0.7,0.3C18.5,56.1,18.4,56.3,18.4,56.7z"/>
                <path fill="#FFFFFF" d="M23.6,55.6v1.9c0,0.2,0,0.3,0.1,0.4c0.1,0.1,0.2,0.2,0.4,0.2s0.3-0.1,0.5-0.2l0.3,0.6
                c-0.3,0.2-0.6,0.4-0.9,0.4c-0.3,0-0.6-0.1-0.9-0.3c-0.2-0.2-0.4-0.5-0.4-0.9v-1.9h-0.5V55h0.5v-1.2h0.8V55h1v0.6H23.6z"/>
                <path fill="#FFFFFF" d="M29.6,57.2h-2.9c0,0.3,0.1,0.5,0.4,0.7c0.2,0.2,0.5,0.2,0.8,0.2c0.5,0,0.8-0.1,1.1-0.4l0.4,0.5
                c-0.4,0.4-0.9,0.6-1.6,0.6c-0.5,0-1-0.2-1.3-0.5s-0.5-0.8-0.5-1.4c0-0.6,0.2-1.1,0.6-1.4c0.4-0.3,0.8-0.5,1.3-0.5
                s0.9,0.2,1.3,0.5s0.5,0.7,0.5,1.3V57.2z M26.7,56.6h2.1c0-0.3-0.1-0.6-0.3-0.7c-0.2-0.2-0.4-0.3-0.7-0.3s-0.5,0.1-0.8,0.3
                C26.8,56,26.7,56.3,26.7,56.6z"/>
                <path fill="#FFFFFF" d="M31.7,56.7v2H31V55h0.8v0.7c0.1-0.2,0.3-0.4,0.5-0.5c0.2-0.1,0.5-0.2,0.7-0.2c0.4,0,0.8,0.1,1,0.4
                c0.3,0.3,0.4,0.6,0.4,1.1v2.3h-0.8v-2c0-0.7-0.3-1-0.9-1c-0.3,0-0.5,0.1-0.7,0.3C31.8,56.1,31.7,56.3,31.7,56.7z"/>
                <path fill="#FFFFFF" d="M36.9,55.6v1.9c0,0.2,0,0.3,0.1,0.4c0.1,0.1,0.2,0.2,0.4,0.2s0.3-0.1,0.5-0.2l0.3,0.6
                c-0.3,0.2-0.6,0.4-0.9,0.4c-0.3,0-0.6-0.1-0.9-0.3c-0.2-0.2-0.4-0.5-0.4-0.9v-1.9h-0.5V55h0.5v-1.2h0.8V55h1v0.6H36.9z"/>
                <path fill="#FFFFFF" d="M39.5,54.2c-0.1-0.1-0.1-0.2-0.1-0.4s0-0.3,0.1-0.4c0.1-0.1,0.2-0.1,0.3-0.1s0.3,0,0.4,0.1
                s0.1,0.2,0.1,0.4s0,0.3-0.1,0.4c-0.1,0.1-0.2,0.1-0.4,0.1S39.6,54.3,39.5,54.2z M40.2,58.7h-0.8V55h0.8V58.7z"/>
                <path fill="#FFFFFF" d="M45,58.2c-0.4,0.4-0.8,0.6-1.4,0.6c-0.6,0-1-0.2-1.4-0.6c-0.4-0.4-0.6-0.8-0.6-1.4s0.2-1,0.6-1.4
                c0.4-0.4,0.8-0.6,1.4-0.6c0.6,0,1,0.2,1.4,0.6c0.4,0.4,0.6,0.8,0.6,1.4S45.3,57.8,45,58.2z M42.7,57.7c0.2,0.2,0.5,0.3,0.8,0.3
                c0.3,0,0.6-0.1,0.8-0.3c0.2-0.2,0.3-0.5,0.3-0.9s-0.1-0.7-0.3-0.9c-0.2-0.2-0.5-0.3-0.8-0.3c-0.3,0-0.6,0.1-0.8,0.3
                c-0.2,0.2-0.3,0.5-0.3,0.9S42.5,57.5,42.7,57.7z"/>
                <path fill="#FFFFFF" d="M47.7,56.7v2h-0.8V55h0.8v0.7c0.1-0.2,0.3-0.4,0.5-0.5c0.2-0.1,0.5-0.2,0.7-0.2c0.4,0,0.8,0.1,1,0.4
                c0.3,0.3,0.4,0.6,0.4,1.1v2.3h-0.8v-2c0-0.7-0.3-1-0.9-1c-0.3,0-0.5,0.1-0.7,0.3C47.8,56.1,47.7,56.3,47.7,56.7z"/>
                <path fill="#FFFFFF" d="M54.6,57.6c0,0.4-0.1,0.6-0.4,0.9c-0.3,0.2-0.6,0.3-1,0.3c-0.3,0-0.6,0-0.8-0.1c-0.3-0.1-0.5-0.2-0.8-0.4
                l0.4-0.6c0.4,0.3,0.9,0.5,1.3,0.5c0.2,0,0.3,0,0.4-0.1c0.1-0.1,0.2-0.2,0.2-0.3c0-0.2-0.2-0.4-0.7-0.5c0,0-0.1,0-0.1,0
                c-0.8-0.2-1.2-0.6-1.2-1.1c0-0.3,0.1-0.6,0.4-0.8c0.3-0.2,0.6-0.3,1-0.3c0.4,0,0.8,0.1,1.2,0.4l-0.3,0.6c-0.3-0.2-0.6-0.3-1-0.3
                c-0.2,0-0.3,0-0.5,0.1c-0.1,0.1-0.2,0.2-0.2,0.3c0,0.1,0.1,0.2,0.2,0.3c0.1,0,0.2,0.1,0.4,0.1c0.2,0,0.3,0.1,0.4,0.1
                c0.1,0,0.2,0.1,0.3,0.1c0.1,0,0.2,0.1,0.4,0.2C54.5,57,54.6,57.2,54.6,57.6z"/>
            </g>
<!-- target -->
            <path id=" target" fill="#FFFFFF" opacity="0.6" d="M35,17.1c-5.8,0-10.4,4.7-10.4,10.4c0,5.8,4.7,10.4,10.4,10.4c5.8,0,10.4-4.7,10.4-10.4
                            C45.4,21.8,40.8,17.1,35,17.1 M33.9,21.4h2.2v-2c3.7,0.5,6.6,3.4,7.1,7.1h-2v2.2h2c-0.5,3.7-3.4,6.6-7.1,7.1v-2.1h-2.2v2.1
                            c-3.7-0.5-6.6-3.4-7.1-7.1h2v-2.2h-2c0.5-3.7,3.4-6.6,7.1-7.1V21.4z"/>
<!-- question mark -->
            <path id="question" fill="#FFFFFF" opacity="0.6" d="M35.7,29.2h-1.6v-0.8c0-0.3,0-0.5,0.1-0.6c0.1-0.1,0.2-0.3,0.5-0.6l0.7-0.7c0.1-0.1,0.2-0.3,0.2-0.5
                            s-0.1-0.4-0.2-0.5c-0.1-0.1-0.3-0.2-0.4-0.2c-0.2,0-0.3,0.1-0.5,0.2s-0.2,0.4-0.2,0.6h-1.7c0.1-0.7,0.3-1.2,0.8-1.6
                            c0.4-0.4,1-0.6,1.6-0.6s1.2,0.2,1.6,0.5s0.6,0.8,0.6,1.5c0,0.3,0,0.5-0.1,0.6C37,26.7,37,26.8,37,26.8c0,0.1-0.1,0.1-0.2,0.3
                            s-0.2,0.2-0.2,0.2c-0.2,0.2-0.3,0.3-0.5,0.5c-0.1,0.1-0.2,0.3-0.3,0.4c0,0.1-0.1,0.2-0.1,0.4V29.2z M34.3,31.2
                            C34.1,31,34,30.8,34,30.5c0-0.3,0.1-0.5,0.3-0.6c0.2-0.2,0.4-0.3,0.6-0.3c0.3,0,0.5,0.1,0.6,0.3c0.2,0.2,0.3,0.4,0.3,0.6
                            c0,0.3-0.1,0.5-0.3,0.6c-0.2,0.2-0.4,0.3-0.6,0.3C34.7,31.4,34.5,31.3,34.3,31.2z"/>

<animate
    xlink:href="#border"
    attributeName="opacity" from="1" to="0" dur="0.3s"
     />
<animate
    xlink:href="#square"
    attributeName="opacity" from="0" to="1" dur="0.3s"
     />
<animate
    xlink:href="#square"
    attributeName="rx" from="0" to="23" begin="0" dur="0.3s"
    />
<animate
    xlink:href="#square"
    attributeName="ry" from="0" to="23" begin="0" dur="0.3s"
    />
<animate
    xlink:href="#square"
    attributeName="x" from="35" to="-5" begin="0" dur="0.3s"
    />
<animate
    xlink:href="#square"
    attributeName="y" from="35" to="-5" begin="0" dur="0.3s"
    />
<animate
    xlink:href="#square"
    attributeName="x" from="-5" to="0" begin="0.3s" dur="0.1s"
    />
<animate
    xlink:href="#square"
    attributeName="y" from="-5" to="0" begin="0.3s" dur="0.1s"
    />
<animate
    xlink:href="#square"
    attributeName="width" from="0" to="80" begin="0" dur="0.3s"
    />
<animate
    xlink:href="#square"
    attributeName="height" from="0" to="80" begin="0" dur="0.3s"
    />
<animate
    xlink:href="#square"
    attributeName="width" from="80" to="70" begin="0.3s" dur="0.1s"
    />
<animate
    xlink:href="#square"
    attributeName="height" from="80" to="70" begin="0.3s" dur="0.1s"
    />
<animate
    xlink:href="#text"
    attributeName="fill" from="#d7d7d6" to="#FFFFFF" begin="0" dur="0.3s"
    />
<animate
    xlink:href="#question"
    attributeName="fill" from="#d7d7d6" to="#FFFFFF" begin="0" dur="0.3s"
/>
<animate
    xlink:href="#question"
    attributeName="opacity" from="1" to="0.6" begin="0" dur="0.3s"
/>
<animate
    xlink:href="#target"
    attributeName="fill" from="#d7d7d6" to="#FFFFFF" begin="0" dur="0.3s"
/>
<animate
    xlink:href="#target"
    attributeName="opacity" from="1" to="0.6" begin="0" dur="0.3s"
/>
</svg>