<?xml version="1.0" encoding="utf-8"?>
<!-- Generator: Adobe Illustrator 18.1.1, SVG Export Plug-In . SVG Version: 6.00 Build 0)  -->
<svg version="1.1" id="Layer_1" xmlns="http://www.w3.org/2000/svg" xmlns:xlink="http://www.w3.org/1999/xlink" x="0px" y="0px"
	 viewBox="0 0 640 314.4" enable-background="new 0 0 640 314.4" xml:space="preserve">
<g>
	<path fill="#FFFFFF" d="M156.3,314.4C70.7,314.4,0,243.7,0,156.3C0,70.7,70.7,0,156.3,0s156.3,70.7,156.3,156.3
		C314.4,243.7,243.7,314.4,156.3,314.4z M156.3,22.3c-74.4,0-135.8,61.4-135.8,135.8S81.9,294,156.3,294s135.8-61.4,135.8-135.8
		C292.1,81.9,230.7,22.3,156.3,22.3z"/>
	<polygon fill="#FFFFFF" points="234.4,167.4 145.1,167.4 145.1,67 167.4,67 167.4,145.1 234.4,145.1 	"/>
	<polygon fill="#FFFFFF" points="625.1,195.3 560,262.3 560,11.2 539.5,11.2 539.5,258.6 476.3,193.5 459.5,210.2 552.6,301.4 
		640,210.2 	"/>
</g>
</svg>
