<?xml version="1.0" encoding="utf-8"?>
<!-- Generator: Adobe Illustrator 18.1.1, SVG Export Plug-In . SVG Version: 6.00 Build 0)  -->
<svg version="1.1" id="Layer_1" xmlns="http://www.w3.org/2000/svg" xmlns:xlink="http://www.w3.org/1999/xlink" x="0px" y="0px"
	 width="651.3px" height="120px" viewBox="0 0 651.3 120" enable-background="new 0 0 651.3 120" xml:space="preserve">
<g>
	<g>
		<g opacity="0.6">
			<g>
				<polygon fill="#935A9F" points="548.3,0 531.1,17.2 540.1,26.3 548.8,17.7 557.4,9.1 				"/>
				<path fill="#935A9F" d="M646.2,98.9c-0.7,0-1.5,0.1-2.4,0.4c-2.6,0.8-5.5,2.7-7.9,5.1c-3.4,3.4-5.6,7.5-5.6,10.4l0.2,1.3
					l20.9,3.7l-3.8-20.8C647.1,99,646.7,98.9,646.2,98.9"/>
				<path fill="#935A9F" d="M561.1,12.7l-8.6,8.6l-8.6,8.6l81.6,81.6c0.9-3.5,3.3-7.4,6.7-10.8c3.1-3.1,6.7-5.4,10-6.5l0.4-0.1
					L561.1,12.7z"/>
			</g>
		</g>
	</g>
	<g>
		<defs>
			<rect id="SVGID_1_" width="119.9" height="120"/>
		</defs>
		<clipPath id="SVGID_2_">
			<use xlink:href="#SVGID_1_"  overflow="visible"/>
		</clipPath>
		<g clip-path="url(#SVGID_2_)">
			<defs>
				<rect id="SVGID_3_" y="0" width="119.9" height="120"/>
			</defs>
			<clipPath id="SVGID_4_">
				<use xlink:href="#SVGID_3_"  overflow="visible"/>
			</clipPath>
			<g opacity="0.6" clip-path="url(#SVGID_4_)">
				<g>
					<defs>
						<rect id="SVGID_5_" x="-41.1" y="-31.4" width="202.1" height="153.8"/>
					</defs>
					<clipPath id="SVGID_6_">
						<use xlink:href="#SVGID_5_"  overflow="visible"/>
					</clipPath>
					<path clip-path="url(#SVGID_6_)" fill="#57B36A" d="M48.5,0c-5,0-10,0.8-14.8,2.3c-7.1,2.3-13.9,6.2-19.6,11.9
						C3.7,24.7-1,38.7,0.2,52.4c0.9,11.1,5.6,21.9,14,30.4c8.5,8.5,19.3,13.1,30.4,14c1.3,0.1,2.6,0.2,3.9,0.2
						c9.4,0,18.8-2.8,27-8.2l28.4,28.5c1.8,1.8,4.3,2.8,6.7,2.8c2.4,0,4.8-0.9,6.7-2.8c3.7-3.7,3.7-9.7,0-13.3L88.8,75.4
						c2.5-3.8,4.6-7.9,5.9-12.2c5.3-16.7,1.4-35.8-11.9-49.1C73.3,4.7,60.9,0,48.5,0 M48.5,86.2c-7.2,0-14.5-2.1-20.8-6.2
						c-2.1-1.4-4.1-3-5.9-4.8c-1.8-1.8-3.5-3.8-4.8-5.9c-9.7-14.6-8.1-34.6,4.8-47.4c5.9-5.9,13.2-9.4,20.9-10.6
						c1.9-0.3,3.9-0.5,5.9-0.5c9.6,0,19.3,3.7,26.6,11c8.8,8.9,12.3,21,10.6,32.5c-1.2,7.6-4.7,15-10.6,20.9
						C67.8,82.5,58.1,86.2,48.5,86.2"/>
					<path clip-path="url(#SVGID_6_)" fill="#57B36A" d="M48.5,29.7c-6.1,0-11,4.9-11,11c0,3.7,1.9,7,4.7,9c-5,1.6-8.7,6.6-8.7,12.5
						v5h29.8v-5c0-5.9-3.6-10.9-8.7-12.5c2.8-2,4.7-5.3,4.7-9C59.4,34.6,54.5,29.7,48.5,29.7 M48.5,49.1c-4.6,0-8.4-3.8-8.4-8.4
						c0-4.6,3.8-8.4,8.4-8.4c4.6,0,8.4,3.8,8.4,8.4C56.9,45.3,53.1,49.1,48.5,49.1 M36.2,64.6v-2.4c0-5.7,4.3-10.4,9.5-10.4h5.5
						c5.2,0,9.5,4.7,9.5,10.4v2.4H36.2z"/>
				</g>
			</g>
		</g>
	</g>
	<g>
		<g>
			
				<line fill="none" stroke="#3C3C3B" stroke-width="3.996" stroke-linecap="square" stroke-linejoin="bevel" stroke-miterlimit="10" x1="181.9" y1="30" x2="256" y2="30"/>
			<g>
				<g>
					
						<line fill="none" stroke="#3C3C3B" stroke-width="3.996" stroke-linecap="square" stroke-linejoin="bevel" x1="403.6" y1="30" x2="473.4" y2="30"/>
					<g>
						<polygon fill="#3C3C3B" points="460.1,46.4 457.4,43.4 471.8,30 457.4,16.6 460.1,13.7 477.7,30 						"/>
					</g>
				</g>
			</g>
			
				<line fill="none" stroke="#3C3C3B" stroke-width="3.996" stroke-linecap="square" stroke-linejoin="bevel" stroke-miterlimit="10" x1="477.7" y1="90" x2="403.6" y2="90"/>
			<g>
				<g>
					
						<line fill="none" stroke="#3C3C3B" stroke-width="3.996" stroke-linecap="square" stroke-linejoin="bevel" x1="256" y1="90" x2="186.2" y2="90"/>
					<g>
						<polygon fill="#3C3C3B" points="199.5,73.6 202.2,76.6 187.8,90 202.2,103.4 199.5,106.3 181.9,90 						"/>
					</g>
				</g>
			</g>
		</g>
		<g>
			<g>
				<g>
					<g>
						<linearGradient id="SVGID_7_" gradientUnits="userSpaceOnUse" x1="267.0034" y1="55.3024" x2="391.8641" y2="55.3024">
							<stop  offset="0" style="stop-color:#FFFFFF"/>
							<stop  offset="1" style="stop-color:#000000"/>
						</linearGradient>
						<path fill="url(#SVGID_7_)" d="M269,53.4h-2v-1.5c0.5-0.1,0.9-0.2,1.3-0.4s0.8-0.4,1.1-0.6c0.3-0.3,0.6-0.7,0.8-1.2
							c0.3-0.6,0.6-1.3,0.8-2.3h2.2V51h4.5v2.4h-4.3v5c0,1.2,0,2.2,0.1,2.9c0.1,0.7,0.1,1.3,0.3,1.6c0.1,0.4,0.3,0.6,0.5,0.7
							c0.2,0.1,0.5,0.2,0.8,0.2c0.2,0,0.4,0,0.6,0c0.2,0,0.4-0.1,0.6-0.1c0.2,0,0.4-0.1,0.6-0.2c0.2-0.1,0.3-0.1,0.5-0.2l0.7,1.5
							c-0.2,0.2-0.5,0.4-0.8,0.6c-0.4,0.2-0.8,0.4-1.2,0.5c-0.5,0.2-1,0.3-1.5,0.4c-0.5,0.1-1.1,0.1-1.7,0.1c-0.8,0-1.4-0.1-1.9-0.3
							c-0.5-0.2-0.9-0.5-1.2-0.9c-0.3-0.4-0.5-0.9-0.6-1.6c-0.1-0.6-0.2-1.4-0.2-2.3V53.4z"/>
						<linearGradient id="SVGID_8_" gradientUnits="userSpaceOnUse" x1="267.0034" y1="55.3024" x2="391.8641" y2="55.3024">
							<stop  offset="0" style="stop-color:#FFFFFF"/>
							<stop  offset="1" style="stop-color:#000000"/>
						</linearGradient>
						<path fill="url(#SVGID_8_)" d="M279.8,64.4l1.6-0.3v-9l-1.8-1.3V52l4.8-1.5l0.9,0.2v2.7c0.1-0.5,0.3-0.9,0.6-1.2
							c0.3-0.4,0.6-0.7,1-0.9c0.4-0.2,0.8-0.4,1.1-0.6c0.4-0.1,0.7-0.2,1-0.2c0.3,0,0.6,0,0.8,0c0.3,0,0.4,0.1,0.6,0.1V55
							c-0.1-0.1-0.3-0.2-0.4-0.3s-0.4-0.2-0.6-0.2c-0.2-0.1-0.4-0.1-0.6-0.1c-0.2,0-0.4,0-0.5,0c-0.4,0-0.7,0-1,0.1
							s-0.5,0.1-0.7,0.2c-0.2,0.1-0.3,0.1-0.4,0.2s-0.2,0.1-0.2,0.1v9.1l3,0.5v1.9h-9.3V64.4z"/>
						<linearGradient id="SVGID_9_" gradientUnits="userSpaceOnUse" x1="267.0034" y1="55.3024" x2="391.8641" y2="55.3024">
							<stop  offset="0" style="stop-color:#FFFFFF"/>
							<stop  offset="1" style="stop-color:#000000"/>
						</linearGradient>
						<path fill="url(#SVGID_9_)" d="M292,60.9c0.1-0.5,0.4-1,0.7-1.4c0.3-0.4,0.8-0.8,1.3-1.1c0.5-0.3,1-0.6,1.6-0.8
							c0.6-0.2,1.2-0.4,1.8-0.5c0.6-0.1,1.2-0.2,1.7-0.3c0.6-0.1,1-0.1,1.5-0.1c0-0.7-0.1-1.3-0.2-1.8c-0.1-0.5-0.3-0.8-0.5-1.1
							c-0.2-0.3-0.5-0.4-0.9-0.5c-0.3-0.1-0.7-0.1-1.2-0.1c-0.6,0-1.1,0-1.6,0.1s-0.9,0.2-1.3,0.3c-0.4,0.1-0.7,0.3-0.9,0.4
							c-0.2,0.1-0.4,0.2-0.5,0.3l-0.9-2.1c0.1-0.1,0.4-0.3,0.7-0.5c0.4-0.2,0.8-0.4,1.4-0.6c0.6-0.2,1.2-0.3,2-0.5
							c0.8-0.1,1.6-0.2,2.5-0.2c0.9,0,1.7,0.1,2.4,0.3c0.7,0.2,1.4,0.5,1.9,0.9c0.5,0.4,0.9,1,1.2,1.7c0.3,0.7,0.4,1.6,0.4,2.8v8.2
							h1.7v1.5c-0.2,0.2-0.5,0.3-0.8,0.4s-0.6,0.2-0.9,0.2c-0.3,0.1-0.6,0.1-0.9,0.1c-0.3,0-0.6,0-0.8,0c-0.2,0-0.4,0-0.6-0.1
							c-0.3,0-0.5-0.1-0.8-0.2c-0.2-0.1-0.5-0.3-0.6-0.5c-0.2-0.2-0.3-0.5-0.3-0.8c-0.5,0.4-1,0.8-1.6,1.1c-0.6,0.3-1.3,0.4-2.2,0.4
							c-1.1,0-2.1-0.2-2.9-0.5s-1.4-0.8-1.8-1.3c-0.4-0.5-0.7-1.1-0.8-1.8C291.8,62.3,291.8,61.6,292,60.9z M296.5,61.7
							c0,0.9,0.2,1.5,0.7,1.9c0.5,0.4,1.2,0.5,2.1,0.4c0.2,0,0.4-0.1,0.6-0.2c0.2-0.1,0.4-0.2,0.5-0.3c0-0.8,0-1.6,0-2.3
							s0-1.6,0-2.3c-0.3,0-0.6,0-0.9,0c-0.3,0-0.6,0.1-0.9,0.2c-0.3,0.1-0.6,0.2-0.8,0.3s-0.5,0.3-0.7,0.5c-0.2,0.2-0.4,0.5-0.5,0.8
							C296.6,60.9,296.5,61.3,296.5,61.7z"/>
						<linearGradient id="SVGID_10_" gradientUnits="userSpaceOnUse" x1="267.0034" y1="55.3024" x2="391.8641" y2="55.3024">
							<stop  offset="0" style="stop-color:#FFFFFF"/>
							<stop  offset="1" style="stop-color:#000000"/>
						</linearGradient>
						<path fill="url(#SVGID_10_)" d="M308.3,64.4L310,64v-9l-1.8-1.3V52l4.8-1.5l1,0.3v2c0.3-0.3,0.7-0.7,1.1-0.9
							c0.4-0.3,0.9-0.5,1.4-0.7c0.5-0.2,1-0.3,1.5-0.5s1-0.2,1.5-0.2c0.8,0,1.5,0.1,2.1,0.4c0.5,0.3,1,0.7,1.3,1.2
							c0.3,0.5,0.6,1.2,0.7,1.9c0.1,0.8,0.2,1.6,0.2,2.6V64l1.8,0.4v1.9h-8.3v-1.9l1.9-0.4v-6.7c0-0.7,0-1.3-0.1-1.8
							c-0.1-0.5-0.2-0.8-0.4-1.1s-0.4-0.5-0.8-0.6c-0.3-0.1-0.8-0.2-1.3-0.2c-0.1,0-0.2,0-0.4,0c-0.2,0-0.4,0.1-0.6,0.1
							c-0.2,0.1-0.4,0.1-0.6,0.2c-0.2,0.1-0.3,0.2-0.4,0.3V64l1.6,0.4v1.9h-7.9V64.4z"/>
						<linearGradient id="SVGID_11_" gradientUnits="userSpaceOnUse" x1="267.0034" y1="55.3024" x2="391.8641" y2="55.3024">
							<stop  offset="0" style="stop-color:#FFFFFF"/>
							<stop  offset="1" style="stop-color:#000000"/>
						</linearGradient>
						<path fill="url(#SVGID_11_)" d="M327.4,61.7h2.2l0.8,1.5c0.1,0.1,0.2,0.3,0.4,0.4c0.1,0.2,0.3,0.3,0.5,0.5s0.4,0.3,0.7,0.4
							c0.3,0.1,0.5,0.2,0.9,0.2c0.8,0,1.4-0.1,1.8-0.4c0.4-0.3,0.6-0.8,0.6-1.3c0-0.2-0.1-0.5-0.3-0.7c-0.2-0.2-0.4-0.4-0.8-0.7
							c-0.3-0.2-0.7-0.4-1.1-0.6c-0.4-0.2-0.8-0.4-1.3-0.6c-0.6-0.3-1.2-0.6-1.8-1s-1.1-0.7-1.5-1.2c-0.4-0.4-0.8-0.9-1-1.5
							c-0.3-0.6-0.4-1.2-0.4-1.9c0-0.5,0.1-1,0.3-1.5c0.2-0.4,0.5-0.8,0.8-1.1c0.3-0.3,0.7-0.6,1.1-0.8s0.9-0.4,1.3-0.6
							c0.5-0.1,0.9-0.2,1.4-0.3c0.5-0.1,0.9-0.1,1.3-0.1c0.5,0,1,0,1.5,0c0.5,0,1,0.1,1.4,0.2c0.5,0.1,0.9,0.2,1.3,0.3
							c0.4,0.1,0.7,0.2,1,0.3V55h-2.3l-0.7-1.7c-0.2-0.3-0.5-0.5-0.8-0.8s-0.7-0.3-1.1-0.3c-0.2,0-0.5,0-0.7,0.1
							c-0.2,0-0.4,0.1-0.6,0.2c-0.2,0.1-0.3,0.2-0.4,0.4c-0.1,0.2-0.2,0.3-0.2,0.6c0,0.3,0.1,0.6,0.2,0.8s0.3,0.5,0.5,0.7
							c0.2,0.2,0.5,0.4,0.8,0.6c0.3,0.2,0.6,0.4,1,0.5c0.4,0.2,0.8,0.4,1.3,0.6s0.8,0.4,1.3,0.6s0.8,0.5,1.2,0.7
							c0.4,0.3,0.7,0.6,0.9,0.9s0.5,0.7,0.6,1.1c0.2,0.4,0.2,0.9,0.2,1.4c0,0.9-0.2,1.7-0.6,2.3c-0.4,0.6-0.9,1.1-1.5,1.5
							s-1.4,0.7-2.2,0.8c-0.8,0.2-1.7,0.3-2.7,0.3c-0.4,0-0.9,0-1.3-0.1c-0.5,0-0.9-0.1-1.4-0.2c-0.5-0.1-0.9-0.2-1.4-0.4
							c-0.4-0.2-0.8-0.3-1.2-0.6V61.7z"/>
						<linearGradient id="SVGID_12_" gradientUnits="userSpaceOnUse" x1="267.0034" y1="55.3024" x2="391.8641" y2="55.3024">
							<stop  offset="0" style="stop-color:#FFFFFF"/>
							<stop  offset="1" style="stop-color:#000000"/>
						</linearGradient>
						<path fill="url(#SVGID_12_)" d="M341,64.4l1.5-0.3V47.3l-1.8-0.8v-1.9l5.6-0.7l0.8,0.2V64l2.3,0.4v1.9H341V64.4z"/>
						<linearGradient id="SVGID_13_" gradientUnits="userSpaceOnUse" x1="267.0034" y1="55.3024" x2="391.8641" y2="55.3024">
							<stop  offset="0" style="stop-color:#FFFFFF"/>
							<stop  offset="1" style="stop-color:#000000"/>
						</linearGradient>
						<path fill="url(#SVGID_13_)" d="M350.8,60.9c0.1-0.5,0.4-1,0.7-1.4s0.8-0.8,1.3-1.1s1-0.6,1.6-0.8s1.2-0.4,1.8-0.5
							c0.6-0.1,1.2-0.2,1.7-0.3c0.6-0.1,1-0.1,1.5-0.1c0-0.7-0.1-1.3-0.2-1.8c-0.1-0.5-0.3-0.8-0.5-1.1c-0.2-0.3-0.5-0.4-0.9-0.5
							s-0.7-0.1-1.2-0.1c-0.6,0-1.1,0-1.6,0.1c-0.5,0.1-0.9,0.2-1.3,0.3c-0.4,0.1-0.7,0.3-0.9,0.4c-0.2,0.1-0.4,0.2-0.5,0.3
							l-0.9-2.1c0.1-0.1,0.4-0.3,0.7-0.5c0.4-0.2,0.8-0.4,1.4-0.6c0.6-0.2,1.2-0.3,2-0.5c0.8-0.1,1.6-0.2,2.5-0.2
							c0.9,0,1.7,0.1,2.4,0.3c0.7,0.2,1.4,0.5,1.9,0.9c0.5,0.4,0.9,1,1.2,1.7s0.4,1.6,0.4,2.8v8.2h1.7v1.5c-0.2,0.2-0.5,0.3-0.8,0.4
							c-0.3,0.1-0.6,0.2-0.9,0.2s-0.6,0.1-0.9,0.1c-0.3,0-0.6,0-0.8,0c-0.2,0-0.4,0-0.6-0.1c-0.3,0-0.5-0.1-0.8-0.2
							c-0.2-0.1-0.5-0.3-0.6-0.5c-0.2-0.2-0.3-0.5-0.3-0.8c-0.5,0.4-1,0.8-1.6,1.1c-0.6,0.3-1.3,0.4-2.2,0.4c-1.1,0-2.1-0.2-2.9-0.5
							s-1.4-0.8-1.8-1.3c-0.4-0.5-0.7-1.1-0.8-1.8C350.6,62.3,350.6,61.6,350.8,60.9z M355.3,61.7c0,0.9,0.2,1.5,0.7,1.9
							s1.2,0.5,2.1,0.4c0.2,0,0.4-0.1,0.6-0.2c0.2-0.1,0.4-0.2,0.5-0.3c0-0.8,0-1.6,0-2.3c0-0.8,0-1.6,0-2.3c-0.3,0-0.6,0-0.9,0
							c-0.3,0-0.6,0.1-0.9,0.2c-0.3,0.1-0.6,0.2-0.8,0.3s-0.5,0.3-0.7,0.5c-0.2,0.2-0.4,0.5-0.5,0.8
							C355.4,60.9,355.3,61.3,355.3,61.7z"/>
						<linearGradient id="SVGID_14_" gradientUnits="userSpaceOnUse" x1="267.0034" y1="55.3024" x2="391.8641" y2="55.3024">
							<stop  offset="0" style="stop-color:#FFFFFF"/>
							<stop  offset="1" style="stop-color:#000000"/>
						</linearGradient>
						<path fill="url(#SVGID_14_)" d="M367.8,53.4h-2v-1.5c0.5-0.1,0.9-0.2,1.3-0.4s0.8-0.4,1.1-0.6c0.3-0.3,0.6-0.7,0.8-1.2
							c0.3-0.6,0.6-1.3,0.8-2.3h2.2V51h4.5v2.4h-4.3v5c0,1.2,0,2.2,0.1,2.9c0.1,0.7,0.1,1.3,0.3,1.6c0.1,0.4,0.3,0.6,0.5,0.7
							c0.2,0.1,0.5,0.2,0.8,0.2c0.2,0,0.4,0,0.6,0c0.2,0,0.4-0.1,0.6-0.1s0.4-0.1,0.6-0.2c0.2-0.1,0.3-0.1,0.5-0.2l0.7,1.5
							c-0.2,0.2-0.5,0.4-0.8,0.6s-0.8,0.4-1.2,0.5c-0.5,0.2-1,0.3-1.5,0.4c-0.5,0.1-1.1,0.1-1.7,0.1c-0.8,0-1.4-0.1-1.9-0.3
							c-0.5-0.2-0.9-0.5-1.2-0.9c-0.3-0.4-0.5-0.9-0.6-1.6c-0.1-0.6-0.2-1.4-0.2-2.3V53.4z"/>
						<linearGradient id="SVGID_15_" gradientUnits="userSpaceOnUse" x1="267.0034" y1="55.3024" x2="391.8641" y2="55.3024">
							<stop  offset="0" style="stop-color:#FFFFFF"/>
							<stop  offset="1" style="stop-color:#000000"/>
						</linearGradient>
						<path fill="url(#SVGID_15_)" d="M377.8,59c0-1.2,0.2-2.3,0.5-3.3c0.4-1,0.9-1.9,1.6-2.7c0.7-0.8,1.5-1.4,2.5-1.8
							c1-0.4,2.1-0.7,3.4-0.7c1.1,0,2,0.1,2.7,0.4c0.8,0.3,1.4,0.7,1.9,1.2c0.5,0.5,0.9,1.1,1.1,1.8c0.2,0.7,0.4,1.5,0.4,2.3
							c0,0.6,0,1.1,0,1.5c0,0.4-0.1,0.9-0.1,1.2h-9.1c0.1,1.6,0.5,2.8,1.2,3.6c0.7,0.8,1.7,1.2,2.9,1.2c0.6,0,1.3-0.1,2-0.2
							c0.7-0.1,1.4-0.4,2.1-0.7l0.7,1.7c-0.3,0.3-0.7,0.6-1.2,0.8c-0.5,0.2-1,0.5-1.5,0.6s-1.1,0.3-1.8,0.4s-1.2,0.1-1.9,0.1
							c-1.2,0-2.2-0.2-3.2-0.6s-1.7-0.8-2.3-1.5c-0.6-0.7-1.1-1.4-1.4-2.4S377.8,60.2,377.8,59z M387.4,56.8c0-0.3,0.1-0.7,0.1-1.1
							c0-0.4,0-0.8,0-1.1c0-0.4-0.1-0.7-0.2-1s-0.3-0.6-0.6-0.8c-0.2-0.1-0.3-0.2-0.5-0.3s-0.5-0.1-0.7-0.1c-0.5,0-0.9,0.1-1.3,0.4
							c-0.3,0.3-0.6,0.6-0.8,1c-0.2,0.4-0.4,0.9-0.5,1.4c-0.1,0.5-0.2,1-0.2,1.6H387.4z"/>
					</g>
					<g>
						<path fill="#3C3C3B" d="M269,53.4h-2v-1.5c0.5-0.1,0.9-0.2,1.3-0.4s0.8-0.4,1.1-0.6c0.3-0.3,0.6-0.7,0.8-1.2
							c0.3-0.6,0.6-1.3,0.8-2.3h2.2V51h4.5v2.4h-4.3v5c0,1.2,0,2.2,0.1,2.9c0.1,0.7,0.1,1.3,0.3,1.6c0.1,0.4,0.3,0.6,0.5,0.7
							c0.2,0.1,0.5,0.2,0.8,0.2c0.2,0,0.4,0,0.6,0c0.2,0,0.4-0.1,0.6-0.1c0.2,0,0.4-0.1,0.6-0.2c0.2-0.1,0.3-0.1,0.5-0.2l0.7,1.5
							c-0.2,0.2-0.5,0.4-0.8,0.6c-0.4,0.2-0.8,0.4-1.2,0.5c-0.5,0.2-1,0.3-1.5,0.4c-0.5,0.1-1.1,0.1-1.7,0.1c-0.8,0-1.4-0.1-1.9-0.3
							c-0.5-0.2-0.9-0.5-1.2-0.9c-0.3-0.4-0.5-0.9-0.6-1.6c-0.1-0.6-0.2-1.4-0.2-2.3V53.4z"/>
						<path fill="#3C3C3B" d="M279.8,64.4l1.6-0.3v-9l-1.8-1.3V52l4.8-1.5l0.9,0.2v2.7c0.1-0.5,0.3-0.9,0.6-1.2
							c0.3-0.4,0.6-0.7,1-0.9c0.4-0.2,0.8-0.4,1.1-0.6c0.4-0.1,0.7-0.2,1-0.2c0.3,0,0.6,0,0.8,0c0.3,0,0.4,0.1,0.6,0.1V55
							c-0.1-0.1-0.3-0.2-0.4-0.3s-0.4-0.2-0.6-0.2c-0.2-0.1-0.4-0.1-0.6-0.1c-0.2,0-0.4,0-0.5,0c-0.4,0-0.7,0-1,0.1
							s-0.5,0.1-0.7,0.2c-0.2,0.1-0.3,0.1-0.4,0.2s-0.2,0.1-0.2,0.1v9.1l3,0.5v1.9h-9.3V64.4z"/>
						<path fill="#3C3C3B" d="M292,60.9c0.1-0.5,0.4-1,0.7-1.4c0.3-0.4,0.8-0.8,1.3-1.1c0.5-0.3,1-0.6,1.6-0.8
							c0.6-0.2,1.2-0.4,1.8-0.5c0.6-0.1,1.2-0.2,1.7-0.3c0.6-0.1,1-0.1,1.5-0.1c0-0.7-0.1-1.3-0.2-1.8c-0.1-0.5-0.3-0.8-0.5-1.1
							c-0.2-0.3-0.5-0.4-0.9-0.5c-0.3-0.1-0.7-0.1-1.2-0.1c-0.6,0-1.1,0-1.6,0.1s-0.9,0.2-1.3,0.3c-0.4,0.1-0.7,0.3-0.9,0.4
							c-0.2,0.1-0.4,0.2-0.5,0.3l-0.9-2.1c0.1-0.1,0.4-0.3,0.7-0.5c0.4-0.2,0.8-0.4,1.4-0.6c0.6-0.2,1.2-0.3,2-0.5
							c0.8-0.1,1.6-0.2,2.5-0.2c0.9,0,1.7,0.1,2.4,0.3c0.7,0.2,1.4,0.5,1.9,0.9c0.5,0.4,0.9,1,1.2,1.7c0.3,0.7,0.4,1.6,0.4,2.8v8.2
							h1.7v1.5c-0.2,0.2-0.5,0.3-0.8,0.4s-0.6,0.2-0.9,0.2c-0.3,0.1-0.6,0.1-0.9,0.1c-0.3,0-0.6,0-0.8,0c-0.2,0-0.4,0-0.6-0.1
							c-0.3,0-0.5-0.1-0.8-0.2c-0.2-0.1-0.5-0.3-0.6-0.5c-0.2-0.2-0.3-0.5-0.3-0.8c-0.5,0.4-1,0.8-1.6,1.1c-0.6,0.3-1.3,0.4-2.2,0.4
							c-1.1,0-2.1-0.2-2.9-0.5s-1.4-0.8-1.8-1.3c-0.4-0.5-0.7-1.1-0.8-1.8C291.8,62.3,291.8,61.6,292,60.9z M296.5,61.7
							c0,0.9,0.2,1.5,0.7,1.9c0.5,0.4,1.2,0.5,2.1,0.4c0.2,0,0.4-0.1,0.6-0.2c0.2-0.1,0.4-0.2,0.5-0.3c0-0.8,0-1.6,0-2.3
							s0-1.6,0-2.3c-0.3,0-0.6,0-0.9,0c-0.3,0-0.6,0.1-0.9,0.2c-0.3,0.1-0.6,0.2-0.8,0.3s-0.5,0.3-0.7,0.5c-0.2,0.2-0.4,0.5-0.5,0.8
							C296.6,60.9,296.5,61.3,296.5,61.7z"/>
						<path fill="#3C3C3B" d="M308.3,64.4L310,64v-9l-1.8-1.3V52l4.8-1.5l1,0.3v2c0.3-0.3,0.7-0.7,1.1-0.9c0.4-0.3,0.9-0.5,1.4-0.7
							c0.5-0.2,1-0.3,1.5-0.5s1-0.2,1.5-0.2c0.8,0,1.5,0.1,2.1,0.4c0.5,0.3,1,0.7,1.3,1.2c0.3,0.5,0.6,1.2,0.7,1.9
							c0.1,0.8,0.2,1.6,0.2,2.6V64l1.8,0.4v1.9h-8.3v-1.9l1.9-0.4v-6.7c0-0.7,0-1.3-0.1-1.8c-0.1-0.5-0.2-0.8-0.4-1.1
							s-0.4-0.5-0.8-0.6c-0.3-0.1-0.8-0.2-1.3-0.2c-0.1,0-0.2,0-0.4,0c-0.2,0-0.4,0.1-0.6,0.1c-0.2,0.1-0.4,0.1-0.6,0.2
							c-0.2,0.1-0.3,0.2-0.4,0.3V64l1.6,0.4v1.9h-7.9V64.4z"/>
						<path fill="#3C3C3B" d="M327.4,61.7h2.2l0.8,1.5c0.1,0.1,0.2,0.3,0.4,0.4c0.1,0.2,0.3,0.3,0.5,0.5s0.4,0.3,0.7,0.4
							c0.3,0.1,0.5,0.2,0.9,0.2c0.8,0,1.4-0.1,1.8-0.4c0.4-0.3,0.6-0.8,0.6-1.3c0-0.2-0.1-0.5-0.3-0.7c-0.2-0.2-0.4-0.4-0.8-0.7
							c-0.3-0.2-0.7-0.4-1.1-0.6c-0.4-0.2-0.8-0.4-1.3-0.6c-0.6-0.3-1.2-0.6-1.8-1s-1.1-0.7-1.5-1.2c-0.4-0.4-0.8-0.9-1-1.5
							c-0.3-0.6-0.4-1.2-0.4-1.9c0-0.5,0.1-1,0.3-1.5c0.2-0.4,0.5-0.8,0.8-1.1c0.3-0.3,0.7-0.6,1.1-0.8s0.9-0.4,1.3-0.6
							c0.5-0.1,0.9-0.2,1.4-0.3c0.5-0.1,0.9-0.1,1.3-0.1c0.5,0,1,0,1.5,0c0.5,0,1,0.1,1.4,0.2c0.5,0.1,0.9,0.2,1.3,0.3
							c0.4,0.1,0.7,0.2,1,0.3V55h-2.3l-0.7-1.7c-0.2-0.3-0.5-0.5-0.8-0.8s-0.7-0.3-1.1-0.3c-0.2,0-0.5,0-0.7,0.1
							c-0.2,0-0.4,0.1-0.6,0.2c-0.2,0.1-0.3,0.2-0.4,0.4c-0.1,0.2-0.2,0.3-0.2,0.6c0,0.3,0.1,0.6,0.2,0.8s0.3,0.5,0.5,0.7
							c0.2,0.2,0.5,0.4,0.8,0.6c0.3,0.2,0.6,0.4,1,0.5c0.4,0.2,0.8,0.4,1.3,0.6s0.8,0.4,1.3,0.6s0.8,0.5,1.2,0.7
							c0.4,0.3,0.7,0.6,0.9,0.9s0.5,0.7,0.6,1.1c0.2,0.4,0.2,0.9,0.2,1.4c0,0.9-0.2,1.7-0.6,2.3c-0.4,0.6-0.9,1.1-1.5,1.5
							s-1.4,0.7-2.2,0.8c-0.8,0.2-1.7,0.3-2.7,0.3c-0.4,0-0.9,0-1.3-0.1c-0.5,0-0.9-0.1-1.4-0.2c-0.5-0.1-0.9-0.2-1.4-0.4
							c-0.4-0.2-0.8-0.3-1.2-0.6V61.7z"/>
						<path fill="#3C3C3B" d="M341,64.4l1.5-0.3V47.3l-1.8-0.8v-1.9l5.6-0.7l0.8,0.2V64l2.3,0.4v1.9H341V64.4z"/>
						<path fill="#3C3C3B" d="M350.8,60.9c0.1-0.5,0.4-1,0.7-1.4s0.8-0.8,1.3-1.1s1-0.6,1.6-0.8s1.2-0.4,1.8-0.5
							c0.6-0.1,1.2-0.2,1.7-0.3c0.6-0.1,1-0.1,1.5-0.1c0-0.7-0.1-1.3-0.2-1.8c-0.1-0.5-0.3-0.8-0.5-1.1c-0.2-0.3-0.5-0.4-0.9-0.5
							s-0.7-0.1-1.2-0.1c-0.6,0-1.1,0-1.6,0.1c-0.5,0.1-0.9,0.2-1.3,0.3c-0.4,0.1-0.7,0.3-0.9,0.4c-0.2,0.1-0.4,0.2-0.5,0.3
							l-0.9-2.1c0.1-0.1,0.4-0.3,0.7-0.5c0.4-0.2,0.8-0.4,1.4-0.6c0.6-0.2,1.2-0.3,2-0.5c0.8-0.1,1.6-0.2,2.5-0.2
							c0.9,0,1.7,0.1,2.4,0.3c0.7,0.2,1.4,0.5,1.9,0.9c0.5,0.4,0.9,1,1.2,1.7s0.4,1.6,0.4,2.8v8.2h1.7v1.5c-0.2,0.2-0.5,0.3-0.8,0.4
							c-0.3,0.1-0.6,0.2-0.9,0.2s-0.6,0.1-0.9,0.1c-0.3,0-0.6,0-0.8,0c-0.2,0-0.4,0-0.6-0.1c-0.3,0-0.5-0.1-0.8-0.2
							c-0.2-0.1-0.5-0.3-0.6-0.5c-0.2-0.2-0.3-0.5-0.3-0.8c-0.5,0.4-1,0.8-1.6,1.1c-0.6,0.3-1.3,0.4-2.2,0.4c-1.1,0-2.1-0.2-2.9-0.5
							s-1.4-0.8-1.8-1.3c-0.4-0.5-0.7-1.1-0.8-1.8C350.6,62.3,350.6,61.6,350.8,60.9z M355.3,61.7c0,0.9,0.2,1.5,0.7,1.9
							s1.2,0.5,2.1,0.4c0.2,0,0.4-0.1,0.6-0.2c0.2-0.1,0.4-0.2,0.5-0.3c0-0.8,0-1.6,0-2.3c0-0.8,0-1.6,0-2.3c-0.3,0-0.6,0-0.9,0
							c-0.3,0-0.6,0.1-0.9,0.2c-0.3,0.1-0.6,0.2-0.8,0.3s-0.5,0.3-0.7,0.5c-0.2,0.2-0.4,0.5-0.5,0.8
							C355.4,60.9,355.3,61.3,355.3,61.7z"/>
						<path fill="#3C3C3B" d="M367.8,53.4h-2v-1.5c0.5-0.1,0.9-0.2,1.3-0.4s0.8-0.4,1.1-0.6c0.3-0.3,0.6-0.7,0.8-1.2
							c0.3-0.6,0.6-1.3,0.8-2.3h2.2V51h4.5v2.4h-4.3v5c0,1.2,0,2.2,0.1,2.9c0.1,0.7,0.1,1.3,0.3,1.6c0.1,0.4,0.3,0.6,0.5,0.7
							c0.2,0.1,0.5,0.2,0.8,0.2c0.2,0,0.4,0,0.6,0c0.2,0,0.4-0.1,0.6-0.1s0.4-0.1,0.6-0.2c0.2-0.1,0.3-0.1,0.5-0.2l0.7,1.5
							c-0.2,0.2-0.5,0.4-0.8,0.6s-0.8,0.4-1.2,0.5c-0.5,0.2-1,0.3-1.5,0.4c-0.5,0.1-1.1,0.1-1.7,0.1c-0.8,0-1.4-0.1-1.9-0.3
							c-0.5-0.2-0.9-0.5-1.2-0.9c-0.3-0.4-0.5-0.9-0.6-1.6c-0.1-0.6-0.2-1.4-0.2-2.3V53.4z"/>
						<path fill="#3C3C3B" d="M377.8,59c0-1.2,0.2-2.3,0.5-3.3c0.4-1,0.9-1.9,1.6-2.7c0.7-0.8,1.5-1.4,2.5-1.8
							c1-0.4,2.1-0.7,3.4-0.7c1.1,0,2,0.1,2.7,0.4c0.8,0.3,1.4,0.7,1.9,1.2c0.5,0.5,0.9,1.1,1.1,1.8c0.2,0.7,0.4,1.5,0.4,2.3
							c0,0.6,0,1.1,0,1.5c0,0.4-0.1,0.9-0.1,1.2h-9.1c0.1,1.6,0.5,2.8,1.2,3.6c0.7,0.8,1.7,1.2,2.9,1.2c0.6,0,1.3-0.1,2-0.2
							c0.7-0.1,1.4-0.4,2.1-0.7l0.7,1.7c-0.3,0.3-0.7,0.6-1.2,0.8c-0.5,0.2-1,0.5-1.5,0.6s-1.1,0.3-1.8,0.4s-1.2,0.1-1.9,0.1
							c-1.2,0-2.2-0.2-3.2-0.6s-1.7-0.8-2.3-1.5c-0.6-0.7-1.1-1.4-1.4-2.4S377.8,60.2,377.8,59z M387.4,56.8c0-0.3,0.1-0.7,0.1-1.1
							c0-0.4,0-0.8,0-1.1c0-0.4-0.1-0.7-0.2-1s-0.3-0.6-0.6-0.8c-0.2-0.1-0.3-0.2-0.5-0.3s-0.5-0.1-0.7-0.1c-0.5,0-0.9,0.1-1.3,0.4
							c-0.3,0.3-0.6,0.6-0.8,1c-0.2,0.4-0.4,0.9-0.5,1.4c-0.1,0.5-0.2,1-0.2,1.6H387.4z"/>
					</g>
				</g>
			</g>
			<g>
				
					<path fill="none" stroke="#3C3C3B" stroke-width="3.996" stroke-linecap="square" stroke-linejoin="bevel" stroke-miterlimit="10" d="
					M368.7,37.4c-7.6-14.3-22.2-24-38.9-24c-16.7,0-31.3,9.7-38.9,24"/>
				
					<path fill="none" stroke="#3C3C3B" stroke-width="3.996" stroke-linecap="square" stroke-linejoin="bevel" stroke-miterlimit="10" d="
					M290.9,82.6c7.6,14.3,22.2,24,38.9,24c16.7,0,31.3-9.7,38.9-24"/>
			</g>
		</g>
	</g>
</g>
</svg>
