<?xml version="1.0" encoding="utf-8"?>
<!-- Generator: Adobe Illustrator 18.1.1, SVG Export Plug-In . SVG Version: 6.00 Build 0)  -->
<svg version="1.1" id="Layer_1" xmlns="http://www.w3.org/2000/svg" xmlns:xlink="http://www.w3.org/1999/xlink" x="0px" y="0px"
	 width="18.2px" height="20.3px" viewBox="0 0 18.2 20.3" enable-background="new 0 0 18.2 20.3" xml:space="preserve">
<g>
	<g>
		<g>
			<g>
				<path fill="#FFFFFF" d="M3.2,6.1l-2.4-1L0.5,6l2.4,1C3,6.7,3.1,6.4,3.2,6.1"/>
				<path fill="#FFFFFF" d="M6.2,3.2L5,1L4.2,1.4l1.3,2.2C5.7,3.5,6,3.3,6.2,3.2"/>
				<path fill="#FFFFFF" d="M15.3,7l2.4-1l-0.4-0.9l-2.4,1C15.1,6.4,15.2,6.7,15.3,7"/>
				<path fill="#FFFFFF" d="M12.7,3.6L14,1.4L13.2,1l-1.3,2.2C12.2,3.3,12.5,3.5,12.7,3.6"/>
				<path fill="#FFFFFF" d="M9.1,2.5c0.2,0,0.3,0,0.5,0V0H8.6v2.6C8.8,2.6,8.9,2.5,9.1,2.5"/>
				<path fill="#FFFFFF" d="M13.5,14.1l1.8,1.8l0.6-0.7l-1.8-1.8C13.9,13.7,13.7,13.9,13.5,14.1"/>
				<g>
					<path fill="#FFFFFF" d="M15.7,9.8c0,0.3-0.1,0.6-0.2,0.9l2.5,0.4l0.2-0.9L15.7,9.8z"/>
				</g>
				<path fill="#FFFFFF" d="M4.1,13.4l-1.8,1.8l0.6,0.7l1.8-1.8C4.5,13.9,4.3,13.7,4.1,13.4"/>
				<path fill="#FFFFFF" d="M2.5,9.8L0,10.2l0.2,0.9l2.5-0.4C2.6,10.4,2.6,10.1,2.5,9.8"/>
				<path fill="#FFFFFF" d="M11.6,17.2h-5v-0.4c0-1.6-0.6-2.7-1.2-3.9c-0.3-0.5-0.6-1.1-0.8-1.7l-0.3-0.7h0.1
					C4.2,9.9,4.2,9.5,4.2,9.1c0-2.7,2.2-4.9,4.9-4.9c2.7,0,4.9,2.2,4.9,4.9c0,0.4-0.1,0.8-0.2,1.2h0L13.7,11
					c-0.3,0.7-0.6,1.3-0.9,1.9c-0.6,1.2-1.2,2.3-1.2,3.9V17.2z M7.5,16.3h3.2c0.1-1.6,0.7-2.8,1.3-3.9c0.2-0.4,0.4-0.8,0.6-1.3
					l0.2-0.5c0.2-0.5,0.3-1,0.3-1.5c0-2.2-1.8-4-4-4c-2.2,0-4,1.8-4,4c0,0.5,0.1,1,0.3,1.5l0,0.1c0.2,0.6,0.5,1.1,0.8,1.7
					C6.8,13.5,7.4,14.7,7.5,16.3z"/>
				<g>
					<polygon fill="#FFFFFF" points="6.7,19.5 6.8,19.5 6.7,19.3 					"/>
				</g>
				<g>
					<polygon fill="#FFFFFF" points="6.7,18.6 11.4,19.3 11.4,18.7 6.7,18 					"/>
				</g>
				<g>
					<polygon fill="#FFFFFF" points="7.2,17.7 11.4,18.4 11.4,17.8 11,17.7 					"/>
				</g>
				<g>
					<path fill="#FFFFFF" d="M6.7,19.3l0,0.1l4.2,0.7c0.2-0.1,0.4-0.3,0.4-0.5l-4.6-0.7V19.3z"/>
				</g>
				<path fill="#FFFFFF" d="M7.7,20.3h2l-2.8-0.4C7.1,20.1,7.3,20.3,7.7,20.3"/>
			</g>
		</g>
	</g>
</g>
</svg>
