<?xml version="1.0" encoding="utf-8"?>
<!-- Generator: Adobe Illustrator 18.1.1, SVG Export Plug-In . SVG Version: 6.00 Build 0)  -->
<svg version="1.1" id="Layer_1" xmlns="http://www.w3.org/2000/svg" xmlns:xlink="http://www.w3.org/1999/xlink" x="0px" y="0px"
	 width="85px" height="412.8px" viewBox="0 0 85 412.8" enable-background="new 0 0 85 412.8" xml:space="preserve">
<g>
	<path opacity="0.6" fill="#57B36A" d="M34.4,0c-3.5,0-7.1,0.5-10.5,1.6C18.8,3.2,14.1,6,10.1,10C2.6,17.5-0.7,27.5,0.1,37.2
		c0.6,7.8,3.9,15.5,9.9,21.5c6,6,13.7,9.3,21.5,9.9c0.9,0.1,1.8,0.1,2.8,0.1c6.7,0,13.4-1.9,19.1-5.8l20.1,20.2c1.3,1.3,3,2,4.7,2
		c1.7,0,3.4-0.6,4.7-2c2.6-2.6,2.6-6.9,0-9.5L62.9,53.4c1.8-2.7,3.2-5.6,4.2-8.6c3.8-11.9,1-25.4-8.4-34.8C52,3.3,43.2,0,34.4,0
		 M34.4,61.1c-5.1,0-10.3-1.5-14.7-4.4c-1.5-1-2.9-2.1-4.2-3.4C14.2,52,13,50.6,12,49.1c-6.9-10.4-5.7-24.5,3.4-33.6
		c4.2-4.2,9.4-6.6,14.8-7.5c1.4-0.2,2.8-0.3,4.1-0.3c6.8,0,13.7,2.6,18.9,7.8c6.3,6.3,8.8,14.9,7.5,23c-0.8,5.4-3.3,10.6-7.5,14.8
		C48.1,58.5,41.2,61.1,34.4,61.1"/>
	<path opacity="0.6" fill="#57B36A" d="M34.4,21.1c-4.3,0-7.8,3.5-7.8,7.8c0,2.6,1.3,5,3.3,6.4c-3.5,1.1-6.1,4.7-6.1,8.9v3.6h21.1
		v-3.6c0-4.2-2.6-7.7-6.1-8.9c2-1.4,3.3-3.7,3.3-6.4C42.1,24.6,38.7,21.1,34.4,21.1 M34.4,34.8c-3.3,0-5.9-2.7-5.9-5.9
		c0-3.3,2.7-5.9,5.9-5.9c3.3,0,5.9,2.7,5.9,5.9C40.3,32.1,37.6,34.8,34.4,34.8 M25.7,45.8v-1.7c0-4.1,3-7.4,6.7-7.4h3.9
		c3.7,0,6.7,3.3,6.7,7.4v1.7H25.7z"/>
	<g>
		<g>
			
				<line fill="none" stroke="#3C3C3B" stroke-width="3.996" stroke-linecap="square" stroke-linejoin="bevel" stroke-miterlimit="10" x1="61.4" y1="125.5" x2="61.4" y2="161.2"/>
			<g>
				<g>
					
						<line fill="none" stroke="#3C3C3B" stroke-width="3.996" stroke-linecap="square" stroke-linejoin="bevel" x1="61.4" y1="254.2" x2="61.4" y2="283.2"/>
					<g>
						<polygon fill="#3C3C3B" points="45,269.9 48,267.2 61.4,281.6 74.8,267.2 77.7,269.9 61.4,287.5 						"/>
					</g>
				</g>
			</g>
			
				<line fill="none" stroke="#3C3C3B" stroke-width="3.996" stroke-linecap="square" stroke-linejoin="bevel" stroke-miterlimit="10" x1="23.6" y1="287.5" x2="23.6" y2="254.2"/>
			<g>
				<g>
					
						<line fill="none" stroke="#3C3C3B" stroke-width="3.996" stroke-linecap="square" stroke-linejoin="bevel" x1="23.6" y1="161.2" x2="23.6" y2="129.8"/>
					<g>
						<polygon fill="#3C3C3B" points="40,143.1 37,145.8 23.6,131.4 10.2,145.8 7.3,143.1 23.6,125.5 						"/>
					</g>
				</g>
			</g>
		</g>
		<g>
			<g>
				<g>
					<g>
						<linearGradient id="SVGID_1_" gradientUnits="userSpaceOnUse" x1="2.7383" y1="204.7229" x2="81.7976" y2="204.7229">
							<stop  offset="0" style="stop-color:#FFFFFF"/>
							<stop  offset="1" style="stop-color:#000000"/>
						</linearGradient>
						<path fill="url(#SVGID_1_)" d="M4,203.5H2.7v-1c0.3-0.1,0.6-0.1,0.8-0.2c0.3-0.1,0.5-0.2,0.7-0.4c0.2-0.2,0.4-0.4,0.5-0.8
							c0.2-0.4,0.4-0.8,0.5-1.5h1.4v2.3h2.8v1.5H6.8v3.1c0,0.8,0,1.4,0,1.8s0.1,0.8,0.2,1c0.1,0.2,0.2,0.4,0.3,0.5s0.3,0.1,0.5,0.1
							c0.1,0,0.2,0,0.4,0c0.1,0,0.3,0,0.4-0.1c0.1,0,0.3-0.1,0.4-0.1c0.1,0,0.2-0.1,0.3-0.1l0.4,1c-0.1,0.1-0.3,0.3-0.5,0.4
							c-0.2,0.1-0.5,0.2-0.8,0.3c-0.3,0.1-0.6,0.2-1,0.2c-0.3,0.1-0.7,0.1-1.1,0.1c-0.5,0-0.9-0.1-1.2-0.2c-0.3-0.1-0.5-0.3-0.7-0.6
							c-0.2-0.3-0.3-0.6-0.4-1C4,209.7,4,209.2,4,208.6V203.5z"/>
						<linearGradient id="SVGID_2_" gradientUnits="userSpaceOnUse" x1="2.7383" y1="204.7229" x2="81.7976" y2="204.7229">
							<stop  offset="0" style="stop-color:#FFFFFF"/>
							<stop  offset="1" style="stop-color:#000000"/>
						</linearGradient>
						<path fill="url(#SVGID_2_)" d="M10.9,210.4l1-0.2v-5.7l-1.1-0.8v-1.1l3-0.9l0.6,0.2v1.7c0.1-0.3,0.2-0.5,0.4-0.8
							c0.2-0.2,0.4-0.4,0.6-0.6s0.5-0.3,0.7-0.4c0.2-0.1,0.4-0.1,0.6-0.1c0.2,0,0.4,0,0.5,0c0.2,0,0.3,0,0.4,0.1v2.7
							c-0.1-0.1-0.2-0.1-0.3-0.2c-0.1-0.1-0.2-0.1-0.4-0.1c-0.1,0-0.3-0.1-0.4-0.1c-0.1,0-0.2,0-0.3,0c-0.2,0-0.4,0-0.6,0
							c-0.2,0-0.3,0.1-0.4,0.1c-0.1,0-0.2,0.1-0.3,0.1c-0.1,0-0.1,0.1-0.1,0.1v5.7l1.9,0.3v1.2h-5.8V210.4z"/>
						<linearGradient id="SVGID_3_" gradientUnits="userSpaceOnUse" x1="2.7383" y1="204.7229" x2="81.7976" y2="204.7229">
							<stop  offset="0" style="stop-color:#FFFFFF"/>
							<stop  offset="1" style="stop-color:#000000"/>
						</linearGradient>
						<path fill="url(#SVGID_3_)" d="M18.6,208.2c0.1-0.3,0.2-0.6,0.4-0.9c0.2-0.3,0.5-0.5,0.8-0.7c0.3-0.2,0.6-0.4,1-0.5
							s0.7-0.2,1.1-0.3c0.4-0.1,0.7-0.1,1.1-0.2c0.3,0,0.7-0.1,0.9-0.1c0-0.5,0-0.8-0.1-1.1c-0.1-0.3-0.2-0.5-0.3-0.7
							s-0.3-0.3-0.6-0.3c-0.2-0.1-0.5-0.1-0.7-0.1c-0.4,0-0.7,0-1,0.1c-0.3,0.1-0.6,0.1-0.8,0.2c-0.2,0.1-0.4,0.2-0.6,0.2
							c-0.2,0.1-0.3,0.1-0.3,0.2l-0.6-1.3c0.1-0.1,0.2-0.2,0.5-0.3c0.2-0.1,0.5-0.2,0.9-0.4c0.4-0.1,0.8-0.2,1.2-0.3
							c0.5-0.1,1-0.1,1.6-0.1c0.6,0,1.1,0.1,1.5,0.2s0.9,0.3,1.2,0.6s0.6,0.6,0.8,1.1c0.2,0.5,0.3,1,0.3,1.7v5.2h1.1v0.9
							c-0.1,0.1-0.3,0.2-0.5,0.2c-0.2,0.1-0.4,0.1-0.6,0.1c-0.2,0-0.4,0.1-0.6,0.1c-0.2,0-0.4,0-0.5,0c-0.1,0-0.2,0-0.4,0
							c-0.2,0-0.3-0.1-0.5-0.1s-0.3-0.2-0.4-0.3s-0.2-0.3-0.2-0.5c-0.3,0.3-0.6,0.5-1,0.7c-0.4,0.2-0.8,0.3-1.4,0.3
							c-0.7,0-1.3-0.1-1.8-0.3c-0.5-0.2-0.9-0.5-1.1-0.8c-0.3-0.3-0.4-0.7-0.5-1.2C18.4,209.1,18.5,208.7,18.6,208.2z M21.4,208.7
							c0,0.6,0.2,1,0.5,1.2c0.3,0.2,0.7,0.3,1.3,0.2c0.1,0,0.3-0.1,0.4-0.1c0.1-0.1,0.2-0.1,0.3-0.2c0-0.5,0-1,0-1.5s0-1,0-1.5
							c-0.2,0-0.4,0-0.5,0c-0.2,0-0.4,0.1-0.6,0.1s-0.4,0.1-0.5,0.2s-0.3,0.2-0.5,0.3c-0.1,0.1-0.2,0.3-0.3,0.5
							C21.5,208.3,21.4,208.5,21.4,208.7z"/>
						<linearGradient id="SVGID_4_" gradientUnits="userSpaceOnUse" x1="2.7383" y1="204.7229" x2="81.7976" y2="204.7229">
							<stop  offset="0" style="stop-color:#FFFFFF"/>
							<stop  offset="1" style="stop-color:#000000"/>
						</linearGradient>
						<path fill="url(#SVGID_4_)" d="M28.9,210.4l1-0.2v-5.7l-1.1-0.8v-1.1l3-0.9l0.6,0.2v1.3c0.2-0.2,0.5-0.4,0.7-0.6
							s0.6-0.3,0.9-0.5s0.6-0.2,0.9-0.3c0.3-0.1,0.6-0.1,0.9-0.1c0.5,0,1,0.1,1.3,0.3c0.3,0.2,0.6,0.4,0.8,0.8
							c0.2,0.3,0.4,0.7,0.4,1.2c0.1,0.5,0.1,1,0.1,1.6v4.6l1.2,0.2v1.2h-5.2v-1.2l1.2-0.2V206c0-0.5,0-0.8-0.1-1.1
							c0-0.3-0.1-0.5-0.2-0.7s-0.3-0.3-0.5-0.4c-0.2-0.1-0.5-0.1-0.8-0.1c0,0-0.1,0-0.2,0c-0.1,0-0.2,0-0.4,0.1
							c-0.1,0-0.2,0.1-0.4,0.1c-0.1,0-0.2,0.1-0.3,0.2v6.1l1,0.2v1.2h-4.9V210.4z"/>
						<linearGradient id="SVGID_5_" gradientUnits="userSpaceOnUse" x1="2.7383" y1="204.7229" x2="81.7976" y2="204.7229">
							<stop  offset="0" style="stop-color:#FFFFFF"/>
							<stop  offset="1" style="stop-color:#000000"/>
						</linearGradient>
						<path fill="url(#SVGID_5_)" d="M41,208.8h1.4l0.5,0.9c0.1,0.1,0.1,0.2,0.2,0.3c0.1,0.1,0.2,0.2,0.3,0.3s0.3,0.2,0.4,0.2
							c0.2,0.1,0.3,0.1,0.5,0.1c0.5,0,0.9-0.1,1.1-0.3c0.3-0.2,0.4-0.5,0.4-0.8c0-0.2-0.1-0.3-0.2-0.4s-0.3-0.3-0.5-0.4
							s-0.4-0.3-0.7-0.4s-0.5-0.3-0.8-0.4c-0.4-0.2-0.8-0.4-1.1-0.6c-0.4-0.2-0.7-0.5-0.9-0.7c-0.3-0.3-0.5-0.6-0.6-0.9
							c-0.2-0.3-0.2-0.7-0.2-1.2c0-0.3,0.1-0.6,0.2-0.9s0.3-0.5,0.5-0.7c0.2-0.2,0.4-0.4,0.7-0.5c0.3-0.1,0.5-0.3,0.8-0.3
							c0.3-0.1,0.6-0.2,0.9-0.2s0.6-0.1,0.8-0.1c0.3,0,0.6,0,0.9,0c0.3,0,0.6,0.1,0.9,0.1c0.3,0,0.6,0.1,0.8,0.2
							c0.2,0.1,0.5,0.1,0.6,0.2v2.3h-1.4l-0.5-1.1c-0.1-0.2-0.3-0.3-0.5-0.5s-0.4-0.2-0.7-0.2c-0.2,0-0.3,0-0.4,0
							c-0.1,0-0.3,0.1-0.4,0.1c-0.1,0.1-0.2,0.1-0.3,0.2s-0.1,0.2-0.1,0.4c0,0.2,0,0.4,0.1,0.5c0.1,0.2,0.2,0.3,0.3,0.5
							c0.1,0.1,0.3,0.3,0.5,0.4c0.2,0.1,0.4,0.2,0.6,0.3c0.3,0.1,0.5,0.3,0.8,0.4c0.3,0.1,0.5,0.3,0.8,0.4s0.5,0.3,0.7,0.5
							c0.2,0.2,0.4,0.4,0.6,0.6s0.3,0.4,0.4,0.7s0.1,0.6,0.1,0.9c0,0.6-0.1,1-0.4,1.4c-0.2,0.4-0.6,0.7-1,1
							c-0.4,0.2-0.9,0.4-1.4,0.5c-0.5,0.1-1.1,0.2-1.7,0.2c-0.3,0-0.5,0-0.8,0c-0.3,0-0.6-0.1-0.9-0.1c-0.3-0.1-0.6-0.1-0.9-0.2
							s-0.5-0.2-0.7-0.4V208.8z"/>
						<linearGradient id="SVGID_6_" gradientUnits="userSpaceOnUse" x1="2.7383" y1="204.7229" x2="81.7976" y2="204.7229">
							<stop  offset="0" style="stop-color:#FFFFFF"/>
							<stop  offset="1" style="stop-color:#000000"/>
						</linearGradient>
						<path fill="url(#SVGID_6_)" d="M49.6,210.4l1-0.2v-10.5l-1.1-0.5V198l3.5-0.4l0.5,0.2v12.4l1.4,0.3v1.2h-5.3V210.4z"/>
						<linearGradient id="SVGID_7_" gradientUnits="userSpaceOnUse" x1="2.7383" y1="204.7229" x2="81.7976" y2="204.7229">
							<stop  offset="0" style="stop-color:#FFFFFF"/>
							<stop  offset="1" style="stop-color:#000000"/>
						</linearGradient>
						<path fill="url(#SVGID_7_)" d="M55.8,208.2c0.1-0.3,0.2-0.6,0.4-0.9c0.2-0.3,0.5-0.5,0.8-0.7c0.3-0.2,0.6-0.4,1-0.5
							s0.7-0.2,1.1-0.3c0.4-0.1,0.7-0.1,1.1-0.2c0.3,0,0.7-0.1,0.9-0.1c0-0.5,0-0.8-0.1-1.1c-0.1-0.3-0.2-0.5-0.3-0.7
							s-0.3-0.3-0.6-0.3c-0.2-0.1-0.5-0.1-0.7-0.1c-0.4,0-0.7,0-1,0.1c-0.3,0.1-0.6,0.1-0.8,0.2c-0.2,0.1-0.4,0.2-0.6,0.2
							c-0.2,0.1-0.3,0.1-0.3,0.2l-0.6-1.3c0.1-0.1,0.2-0.2,0.5-0.3c0.2-0.1,0.5-0.2,0.9-0.4c0.4-0.1,0.8-0.2,1.2-0.3
							c0.5-0.1,1-0.1,1.6-0.1c0.6,0,1.1,0.1,1.5,0.2s0.9,0.3,1.2,0.6s0.6,0.6,0.8,1.1c0.2,0.5,0.3,1,0.3,1.7v5.2h1.1v0.9
							c-0.1,0.1-0.3,0.2-0.5,0.2c-0.2,0.1-0.4,0.1-0.6,0.1c-0.2,0-0.4,0.1-0.6,0.1c-0.2,0-0.4,0-0.5,0c-0.1,0-0.2,0-0.4,0
							c-0.2,0-0.3-0.1-0.5-0.1s-0.3-0.2-0.4-0.3s-0.2-0.3-0.2-0.5c-0.3,0.3-0.6,0.5-1,0.7c-0.4,0.2-0.8,0.3-1.4,0.3
							c-0.7,0-1.3-0.1-1.8-0.3c-0.5-0.2-0.9-0.5-1.1-0.8c-0.3-0.3-0.4-0.7-0.5-1.2C55.7,209.1,55.7,208.7,55.8,208.2z M58.7,208.7
							c0,0.6,0.2,1,0.5,1.2c0.3,0.2,0.7,0.3,1.3,0.2c0.1,0,0.3-0.1,0.4-0.1c0.1-0.1,0.2-0.1,0.3-0.2c0-0.5,0-1,0-1.5s0-1,0-1.5
							c-0.2,0-0.4,0-0.5,0c-0.2,0-0.4,0.1-0.6,0.1s-0.4,0.1-0.5,0.2s-0.3,0.2-0.5,0.3c-0.1,0.1-0.2,0.3-0.3,0.5
							C58.7,208.3,58.7,208.5,58.7,208.7z"/>
						<linearGradient id="SVGID_8_" gradientUnits="userSpaceOnUse" x1="2.7383" y1="204.7229" x2="81.7976" y2="204.7229">
							<stop  offset="0" style="stop-color:#FFFFFF"/>
							<stop  offset="1" style="stop-color:#000000"/>
						</linearGradient>
						<path fill="url(#SVGID_8_)" d="M66.6,203.5h-1.2v-1c0.3-0.1,0.6-0.1,0.8-0.2c0.3-0.1,0.5-0.2,0.7-0.4c0.2-0.2,0.4-0.4,0.5-0.8
							c0.2-0.4,0.4-0.8,0.5-1.5h1.4v2.3h2.8v1.5h-2.7v3.1c0,0.8,0,1.4,0,1.8s0.1,0.8,0.2,1c0.1,0.2,0.2,0.4,0.3,0.5s0.3,0.1,0.5,0.1
							c0.1,0,0.2,0,0.4,0c0.1,0,0.3,0,0.4-0.1c0.1,0,0.3-0.1,0.4-0.1c0.1,0,0.2-0.1,0.3-0.1l0.4,1c-0.1,0.1-0.3,0.3-0.5,0.4
							c-0.2,0.1-0.5,0.2-0.8,0.3c-0.3,0.1-0.6,0.2-1,0.2c-0.3,0.1-0.7,0.1-1.1,0.1c-0.5,0-0.9-0.1-1.2-0.2c-0.3-0.1-0.5-0.3-0.7-0.6
							c-0.2-0.3-0.3-0.6-0.4-1c-0.1-0.4-0.1-0.9-0.1-1.4V203.5z"/>
						<linearGradient id="SVGID_9_" gradientUnits="userSpaceOnUse" x1="2.7383" y1="204.7229" x2="81.7976" y2="204.7229">
							<stop  offset="0" style="stop-color:#FFFFFF"/>
							<stop  offset="1" style="stop-color:#000000"/>
						</linearGradient>
						<path fill="url(#SVGID_9_)" d="M72.9,207c0-0.7,0.1-1.4,0.3-2.1c0.2-0.6,0.6-1.2,1-1.7c0.4-0.5,1-0.9,1.6-1.1
							c0.6-0.3,1.3-0.4,2.1-0.4c0.7,0,1.2,0.1,1.7,0.3c0.5,0.2,0.9,0.4,1.2,0.7s0.5,0.7,0.7,1.1c0.2,0.4,0.2,0.9,0.3,1.4
							c0,0.4,0,0.7,0,1c0,0.3-0.1,0.5-0.1,0.8h-5.7c0.1,1,0.3,1.8,0.8,2.3c0.4,0.5,1,0.8,1.9,0.8c0.4,0,0.8,0,1.3-0.1
							c0.5-0.1,0.9-0.2,1.3-0.4l0.4,1.1c-0.2,0.2-0.5,0.4-0.8,0.5c-0.3,0.2-0.6,0.3-1,0.4c-0.4,0.1-0.7,0.2-1.1,0.3
							c-0.4,0.1-0.8,0.1-1.2,0.1c-0.7,0-1.4-0.1-2-0.4c-0.6-0.2-1.1-0.5-1.5-0.9c-0.4-0.4-0.7-0.9-0.9-1.5S72.9,207.8,72.9,207z
							 M79,205.7c0-0.2,0-0.4,0-0.7c0-0.2,0-0.5,0-0.7s-0.1-0.4-0.1-0.6c-0.1-0.2-0.2-0.4-0.4-0.5c-0.1-0.1-0.2-0.1-0.3-0.2
							s-0.3-0.1-0.5-0.1c-0.3,0-0.6,0.1-0.8,0.2c-0.2,0.2-0.4,0.4-0.5,0.6c-0.1,0.3-0.2,0.6-0.3,0.9c-0.1,0.3-0.1,0.7-0.1,1H79z"/>
					</g>
					<g>
						<path fill="#3C3C3B" d="M4,203.5H2.7v-1c0.3-0.1,0.6-0.1,0.8-0.2c0.3-0.1,0.5-0.2,0.7-0.4c0.2-0.2,0.4-0.4,0.5-0.8
							c0.2-0.4,0.4-0.8,0.5-1.5h1.4v2.3h2.8v1.5H6.8v3.1c0,0.8,0,1.4,0,1.8s0.1,0.8,0.2,1c0.1,0.2,0.2,0.4,0.3,0.5s0.3,0.1,0.5,0.1
							c0.1,0,0.2,0,0.4,0c0.1,0,0.3,0,0.4-0.1c0.1,0,0.3-0.1,0.4-0.1c0.1,0,0.2-0.1,0.3-0.1l0.4,1c-0.1,0.1-0.3,0.3-0.5,0.4
							c-0.2,0.1-0.5,0.2-0.8,0.3c-0.3,0.1-0.6,0.2-1,0.2c-0.3,0.1-0.7,0.1-1.1,0.1c-0.5,0-0.9-0.1-1.2-0.2c-0.3-0.1-0.5-0.3-0.7-0.6
							c-0.2-0.3-0.3-0.6-0.4-1C4,209.7,4,209.2,4,208.6V203.5z"/>
						<path fill="#3C3C3B" d="M10.9,210.4l1-0.2v-5.7l-1.1-0.8v-1.1l3-0.9l0.6,0.2v1.7c0.1-0.3,0.2-0.5,0.4-0.8
							c0.2-0.2,0.4-0.4,0.6-0.6s0.5-0.3,0.7-0.4c0.2-0.1,0.4-0.1,0.6-0.1c0.2,0,0.4,0,0.5,0c0.2,0,0.3,0,0.4,0.1v2.7
							c-0.1-0.1-0.2-0.1-0.3-0.2c-0.1-0.1-0.2-0.1-0.4-0.1c-0.1,0-0.3-0.1-0.4-0.1c-0.1,0-0.2,0-0.3,0c-0.2,0-0.4,0-0.6,0
							c-0.2,0-0.3,0.1-0.4,0.1c-0.1,0-0.2,0.1-0.3,0.1c-0.1,0-0.1,0.1-0.1,0.1v5.7l1.9,0.3v1.2h-5.8V210.4z"/>
						<path fill="#3C3C3B" d="M18.6,208.2c0.1-0.3,0.2-0.6,0.4-0.9c0.2-0.3,0.5-0.5,0.8-0.7c0.3-0.2,0.6-0.4,1-0.5s0.7-0.2,1.1-0.3
							c0.4-0.1,0.7-0.1,1.1-0.2c0.3,0,0.7-0.1,0.9-0.1c0-0.5,0-0.8-0.1-1.1c-0.1-0.3-0.2-0.5-0.3-0.7s-0.3-0.3-0.6-0.3
							c-0.2-0.1-0.5-0.1-0.7-0.1c-0.4,0-0.7,0-1,0.1c-0.3,0.1-0.6,0.1-0.8,0.2c-0.2,0.1-0.4,0.2-0.6,0.2c-0.2,0.1-0.3,0.1-0.3,0.2
							l-0.6-1.3c0.1-0.1,0.2-0.2,0.5-0.3c0.2-0.1,0.5-0.2,0.9-0.4c0.4-0.1,0.8-0.2,1.2-0.3c0.5-0.1,1-0.1,1.6-0.1
							c0.6,0,1.1,0.1,1.5,0.2s0.9,0.3,1.2,0.6s0.6,0.6,0.8,1.1c0.2,0.5,0.3,1,0.3,1.7v5.2h1.1v0.9c-0.1,0.1-0.3,0.2-0.5,0.2
							c-0.2,0.1-0.4,0.1-0.6,0.1c-0.2,0-0.4,0.1-0.6,0.1c-0.2,0-0.4,0-0.5,0c-0.1,0-0.2,0-0.4,0c-0.2,0-0.3-0.1-0.5-0.1
							s-0.3-0.2-0.4-0.3s-0.2-0.3-0.2-0.5c-0.3,0.3-0.6,0.5-1,0.7c-0.4,0.2-0.8,0.3-1.4,0.3c-0.7,0-1.3-0.1-1.8-0.3
							c-0.5-0.2-0.9-0.5-1.1-0.8c-0.3-0.3-0.4-0.7-0.5-1.2C18.4,209.1,18.5,208.7,18.6,208.2z M21.4,208.7c0,0.6,0.2,1,0.5,1.2
							c0.3,0.2,0.7,0.3,1.3,0.2c0.1,0,0.3-0.1,0.4-0.1c0.1-0.1,0.2-0.1,0.3-0.2c0-0.5,0-1,0-1.5s0-1,0-1.5c-0.2,0-0.4,0-0.5,0
							c-0.2,0-0.4,0.1-0.6,0.1s-0.4,0.1-0.5,0.2s-0.3,0.2-0.5,0.3c-0.1,0.1-0.2,0.3-0.3,0.5C21.5,208.3,21.4,208.5,21.4,208.7z"/>
						<path fill="#3C3C3B" d="M28.9,210.4l1-0.2v-5.7l-1.1-0.8v-1.1l3-0.9l0.6,0.2v1.3c0.2-0.2,0.5-0.4,0.7-0.6s0.6-0.3,0.9-0.5
							s0.6-0.2,0.9-0.3c0.3-0.1,0.6-0.1,0.9-0.1c0.5,0,1,0.1,1.3,0.3c0.3,0.2,0.6,0.4,0.8,0.8c0.2,0.3,0.4,0.7,0.4,1.2
							c0.1,0.5,0.1,1,0.1,1.6v4.6l1.2,0.2v1.2h-5.2v-1.2l1.2-0.2V206c0-0.5,0-0.8-0.1-1.1c0-0.3-0.1-0.5-0.2-0.7s-0.3-0.3-0.5-0.4
							c-0.2-0.1-0.5-0.1-0.8-0.1c0,0-0.1,0-0.2,0c-0.1,0-0.2,0-0.4,0.1c-0.1,0-0.2,0.1-0.4,0.1c-0.1,0-0.2,0.1-0.3,0.2v6.1l1,0.2
							v1.2h-4.9V210.4z"/>
						<path fill="#3C3C3B" d="M41,208.8h1.4l0.5,0.9c0.1,0.1,0.1,0.2,0.2,0.3c0.1,0.1,0.2,0.2,0.3,0.3s0.3,0.2,0.4,0.2
							c0.2,0.1,0.3,0.1,0.5,0.1c0.5,0,0.9-0.1,1.1-0.3c0.3-0.2,0.4-0.5,0.4-0.8c0-0.2-0.1-0.3-0.2-0.4s-0.3-0.3-0.5-0.4
							s-0.4-0.3-0.7-0.4s-0.5-0.3-0.8-0.4c-0.4-0.2-0.8-0.4-1.1-0.6c-0.4-0.2-0.7-0.5-0.9-0.7c-0.3-0.3-0.5-0.6-0.6-0.9
							c-0.2-0.3-0.2-0.7-0.2-1.2c0-0.3,0.1-0.6,0.2-0.9s0.3-0.5,0.5-0.7c0.2-0.2,0.4-0.4,0.7-0.5c0.3-0.1,0.5-0.3,0.8-0.3
							c0.3-0.1,0.6-0.2,0.9-0.2s0.6-0.1,0.8-0.1c0.3,0,0.6,0,0.9,0c0.3,0,0.6,0.1,0.9,0.1c0.3,0,0.6,0.1,0.8,0.2
							c0.2,0.1,0.5,0.1,0.6,0.2v2.3h-1.4l-0.5-1.1c-0.1-0.2-0.3-0.3-0.5-0.5s-0.4-0.2-0.7-0.2c-0.2,0-0.3,0-0.4,0
							c-0.1,0-0.3,0.1-0.4,0.1c-0.1,0.1-0.2,0.1-0.3,0.2s-0.1,0.2-0.1,0.4c0,0.2,0,0.4,0.1,0.5c0.1,0.2,0.2,0.3,0.3,0.5
							c0.1,0.1,0.3,0.3,0.5,0.4c0.2,0.1,0.4,0.2,0.6,0.3c0.3,0.1,0.5,0.3,0.8,0.4c0.3,0.1,0.5,0.3,0.8,0.4s0.5,0.3,0.7,0.5
							c0.2,0.2,0.4,0.4,0.6,0.6s0.3,0.4,0.4,0.7s0.1,0.6,0.1,0.9c0,0.6-0.1,1-0.4,1.4c-0.2,0.4-0.6,0.7-1,1
							c-0.4,0.2-0.9,0.4-1.4,0.5c-0.5,0.1-1.1,0.2-1.7,0.2c-0.3,0-0.5,0-0.8,0c-0.3,0-0.6-0.1-0.9-0.1c-0.3-0.1-0.6-0.1-0.9-0.2
							s-0.5-0.2-0.7-0.4V208.8z"/>
						<path fill="#3C3C3B" d="M49.6,210.4l1-0.2v-10.5l-1.1-0.5V198l3.5-0.4l0.5,0.2v12.4l1.4,0.3v1.2h-5.3V210.4z"/>
						<path fill="#3C3C3B" d="M55.8,208.2c0.1-0.3,0.2-0.6,0.4-0.9c0.2-0.3,0.5-0.5,0.8-0.7c0.3-0.2,0.6-0.4,1-0.5s0.7-0.2,1.1-0.3
							c0.4-0.1,0.7-0.1,1.1-0.2c0.3,0,0.7-0.1,0.9-0.1c0-0.5,0-0.8-0.1-1.1c-0.1-0.3-0.2-0.5-0.3-0.7s-0.3-0.3-0.6-0.3
							c-0.2-0.1-0.5-0.1-0.7-0.1c-0.4,0-0.7,0-1,0.1c-0.3,0.1-0.6,0.1-0.8,0.2c-0.2,0.1-0.4,0.2-0.6,0.2c-0.2,0.1-0.3,0.1-0.3,0.2
							l-0.6-1.3c0.1-0.1,0.2-0.2,0.5-0.3c0.2-0.1,0.5-0.2,0.9-0.4c0.4-0.1,0.8-0.2,1.2-0.3c0.5-0.1,1-0.1,1.6-0.1
							c0.6,0,1.1,0.1,1.5,0.2s0.9,0.3,1.2,0.6s0.6,0.6,0.8,1.1c0.2,0.5,0.3,1,0.3,1.7v5.2h1.1v0.9c-0.1,0.1-0.3,0.2-0.5,0.2
							c-0.2,0.1-0.4,0.1-0.6,0.1c-0.2,0-0.4,0.1-0.6,0.1c-0.2,0-0.4,0-0.5,0c-0.1,0-0.2,0-0.4,0c-0.2,0-0.3-0.1-0.5-0.1
							s-0.3-0.2-0.4-0.3s-0.2-0.3-0.2-0.5c-0.3,0.3-0.6,0.5-1,0.7c-0.4,0.2-0.8,0.3-1.4,0.3c-0.7,0-1.3-0.1-1.8-0.3
							c-0.5-0.2-0.9-0.5-1.1-0.8c-0.3-0.3-0.4-0.7-0.5-1.2C55.7,209.1,55.7,208.7,55.8,208.2z M58.7,208.7c0,0.6,0.2,1,0.5,1.2
							c0.3,0.2,0.7,0.3,1.3,0.2c0.1,0,0.3-0.1,0.4-0.1c0.1-0.1,0.2-0.1,0.3-0.2c0-0.5,0-1,0-1.5s0-1,0-1.5c-0.2,0-0.4,0-0.5,0
							c-0.2,0-0.4,0.1-0.6,0.1s-0.4,0.1-0.5,0.2s-0.3,0.2-0.5,0.3c-0.1,0.1-0.2,0.3-0.3,0.5C58.7,208.3,58.7,208.5,58.7,208.7z"/>
						<path fill="#3C3C3B" d="M66.6,203.5h-1.2v-1c0.3-0.1,0.6-0.1,0.8-0.2c0.3-0.1,0.5-0.2,0.7-0.4c0.2-0.2,0.4-0.4,0.5-0.8
							c0.2-0.4,0.4-0.8,0.5-1.5h1.4v2.3h2.8v1.5h-2.7v3.1c0,0.8,0,1.4,0,1.8s0.1,0.8,0.2,1c0.1,0.2,0.2,0.4,0.3,0.5s0.3,0.1,0.5,0.1
							c0.1,0,0.2,0,0.4,0c0.1,0,0.3,0,0.4-0.1c0.1,0,0.3-0.1,0.4-0.1c0.1,0,0.2-0.1,0.3-0.1l0.4,1c-0.1,0.1-0.3,0.3-0.5,0.4
							c-0.2,0.1-0.5,0.2-0.8,0.3c-0.3,0.1-0.6,0.2-1,0.2c-0.3,0.1-0.7,0.1-1.1,0.1c-0.5,0-0.9-0.1-1.2-0.2c-0.3-0.1-0.5-0.3-0.7-0.6
							c-0.2-0.3-0.3-0.6-0.4-1c-0.1-0.4-0.1-0.9-0.1-1.4V203.5z"/>
						<path fill="#3C3C3B" d="M72.9,207c0-0.7,0.1-1.4,0.3-2.1c0.2-0.6,0.6-1.2,1-1.7c0.4-0.5,1-0.9,1.6-1.1
							c0.6-0.3,1.3-0.4,2.1-0.4c0.7,0,1.2,0.1,1.7,0.3c0.5,0.2,0.9,0.4,1.2,0.7s0.5,0.7,0.7,1.1c0.2,0.4,0.2,0.9,0.3,1.4
							c0,0.4,0,0.7,0,1c0,0.3-0.1,0.5-0.1,0.8h-5.7c0.1,1,0.3,1.8,0.8,2.3c0.4,0.5,1,0.8,1.9,0.8c0.4,0,0.8,0,1.3-0.1
							c0.5-0.1,0.9-0.2,1.3-0.4l0.4,1.1c-0.2,0.2-0.5,0.4-0.8,0.5c-0.3,0.2-0.6,0.3-1,0.4c-0.4,0.1-0.7,0.2-1.1,0.3
							c-0.4,0.1-0.8,0.1-1.2,0.1c-0.7,0-1.4-0.1-2-0.4c-0.6-0.2-1.1-0.5-1.5-0.9c-0.4-0.4-0.7-0.9-0.9-1.5S72.9,207.8,72.9,207z
							 M79,205.7c0-0.2,0-0.4,0-0.7c0-0.2,0-0.5,0-0.7s-0.1-0.4-0.1-0.6c-0.1-0.2-0.2-0.4-0.4-0.5c-0.1-0.1-0.2-0.1-0.3-0.2
							s-0.3-0.1-0.5-0.1c-0.3,0-0.6,0.1-0.8,0.2c-0.2,0.2-0.4,0.4-0.5,0.6c-0.1,0.3-0.2,0.6-0.3,0.9c-0.1,0.3-0.1,0.7-0.1,1H79z"/>
					</g>
				</g>
			</g>
			<g>
				
					<path fill="none" stroke="#3C3C3B" stroke-width="3.996" stroke-linecap="square" stroke-linejoin="bevel" stroke-miterlimit="10" d="
					M67,193.4c-4.8-9-14-15.1-24.5-15.1c-10.5,0-19.7,6.1-24.5,15.1"/>
				
					<path fill="none" stroke="#3C3C3B" stroke-width="3.996" stroke-linecap="square" stroke-linejoin="bevel" stroke-miterlimit="10" d="
					M18,221.9c4.8,9,14,15.1,24.5,15.1c10.5,0,19.7-6.1,24.5-15.1"/>
			</g>
		</g>
	</g>
	<polygon opacity="0.6" fill="#935A9F" points="12.2,328 0,340.1 6.4,346.6 12.5,340.5 18.6,334.4 	"/>
	<path opacity="0.6" fill="#935A9F" d="M81.3,397.9c-0.5,0-1.1,0.1-1.7,0.3c-1.8,0.6-3.9,1.9-5.6,3.6c-2.4,2.4-3.9,5.3-3.9,7.4
		l0.1,0.9l14.7,2.6l-2.7-14.7C82,398,81.7,397.9,81.3,397.9"/>
	<path opacity="0.6" fill="#935A9F" d="M21.2,337l-6.1,6.1L9,349.2l57.7,57.7c0.7-2.5,2.3-5.2,4.7-7.6c2.2-2.2,4.7-3.8,7.1-4.6
		l0.3-0.1L21.2,337z"/>
</g>
</svg>
