<?xml version="1.0" encoding="utf-8"?>
<!-- Generator: Adobe Illustrator 18.1.1, SVG Export Plug-In . SVG Version: 6.00 Build 0)  -->
<svg version="1.1" id="Layer_1" xmlns="http://www.w3.org/2000/svg" xmlns:xlink="http://www.w3.org/1999/xlink" x="0px" y="0px"
	 viewBox="0 0 310 199.5" enable-background="new 0 0 310 199.5" xml:space="preserve">
<g>
	<path fill="#1D1D1B" d="M95.6,188.8l60.6-34.8h11.2l76.4,20.5L275.6,56L230,43.8V31h-47.7l-4.4-1.2l-2.4-8.9l-15.4,4.2l-3-0.8
		l-0.4,1.7L145.1,29l-4.6-7.9L123.3,31H107v8.1L56.8,52.6l3.9,14.6L34.3,82.4L95.6,188.8z M242.4,172l-114.6-30.7L157.4,31h0
		l1.2-4.3l16,4.3h-0.2l32.9,8.8l65.9,17.6L242.4,172z M228,33v10.2l-20.2-5.4l-18-4.8H228z M163.9,26.1l10.1-2.7l1.6,5.8l-8.8-2.4
		L163.9,26.1z M156,28.5l-0.7,2.5h-9.8l10.6-2.8L156,28.5z M139.8,23.8l3.3,5.7l-5.4,1.5h-10.4L139.8,23.8z M109,33h14.6h14.3h0.1
		h16.8l-4.1,15.3h-32.4v3.3h31.5l-2.9,10.7h-28.9v2h28.3l-1.4,5.3h-26.9v2h26.4l-1.4,5.4h-24.9v2h24.4l-2.5,9.5h-21.9v1h21.6
		l-1.9,7.1h-19.7v1h19.4l-1.9,7.1h-17.5v1h17.3l-1.9,7.1h-15.4v1h15.1l-1.9,7.1h-13.2v1H131l-1.9,7.1h-11v1h10.8l-3.5,12.9l0.1,0
		l-0.1,0.2l33.3,9.1h-1l0.2-0.1l-0.3,0.1h-1.5h-2.2h-0.1H109V38.6V33z M59.3,54L107,41.2V57l-35,9.5l0.9,3.2l34.1-9.3v11.3
		l-31.5,8.3L76,82l31-8.2v5.4l-29.6,7.9l0.5,1.9l29.1-7.8v5.5l-27.7,7.5l0.5,1.9l27.2-7.4v9.8l-24.8,6.7l0.3,1l24.5-6.6v7.4
		l-22.7,6.1l0.3,1l22.4-6v7.3l-20.6,5.6l0.3,1l20.3-5.5v7.4l-18.5,5l0.3,1l18.2-4.9v7.5l-16.4,4.3l0.3,1l16.1-4.2v7.3l-14.3,3.8
		l0.3,1l14-3.7V154h39.1l-56,14.8L62.6,66.1l-0.1,0L59.3,54z M65.3,84.4l-12.9,7.5l1.7,2.9l12.1-7l2.9,10.6l-9.8,5.7l1,1.7l9.3-5.4
		l1.4,5.3l-8.1,4.6l1,1.7l7.6-4.4l1.4,5.4l-6.4,3.7l1,1.7l5.9-3.4l2.5,9.4l-3.7,2.2l0.5,0.9l3.5-2.1l1.9,7.1l-1.8,1.1l0.5,0.9
		l1.6-0.9l10.1,37.7l0.1,0l0,0l62.1-16.4l-54.4,31.2L37,83.2l24.2-13.9L65.3,84.4z"/>
	
		<rect x="161.8" y="51.2" transform="matrix(0.9659 0.2588 -0.2588 0.9659 20.17 -47.5043)" fill="#1D1D1B" width="57.3" height="3.3"/>
	
		<rect x="158" y="66" transform="matrix(-0.9659 -0.2588 0.2588 -0.9659 359.8529 181.4207)" fill="#1D1D1B" width="67.7" height="2"/>
	
		<rect x="156.2" y="73" transform="matrix(-0.9659 -0.2588 0.2588 -0.9659 354.338 194.7326)" fill="#1D1D1B" width="67.7" height="2"/>
	
		<rect x="154.6" y="77.3" transform="matrix(0.9659 0.2588 -0.2588 0.9659 26.3073 -43.2185)" fill="#1D1D1B" width="45.3" height="2"/>
	
		<rect x="151.4" y="91.3" transform="matrix(-0.9659 -0.2588 0.2588 -0.9659 340.4125 228.351)" fill="#1D1D1B" width="67.7" height="1"/>
	
		<rect x="149.3" y="99.1" transform="matrix(-0.9659 -0.2588 0.2588 -0.9659 334.2789 243.1581)" fill="#1D1D1B" width="67.7" height="1"/>
	
		<rect x="145.1" y="114.7" transform="matrix(-0.9659 -0.2588 0.2588 -0.9659 322.012 272.7749)" fill="#1D1D1B" width="67.7" height="1"/>
	
		<rect x="143" y="122.5" transform="matrix(-0.9659 -0.2588 0.2588 -0.9659 315.8773 287.5831)" fill="#1D1D1B" width="67.7" height="1"/>
	
		<rect x="141.3" y="127.4" transform="matrix(-0.9659 -0.2588 0.2588 -0.9659 289.287 293.9177)" fill="#1D1D1B" width="45.3" height="1"/>
	
		<rect x="147.6" y="104" transform="matrix(0.9659 0.2588 -0.2588 0.9659 32.8477 -40.5093)" fill="#1D1D1B" width="45.3" height="1"/>
</g>
</svg>
