<?xml version="1.0" encoding="utf-8"?>
<!-- Generator: Adobe Illustrator 16.0.4, SVG Export Plug-In . SVG Version: 6.00 Build 0)  -->
<!DOCTYPE svg PUBLIC "-//W3C//DTD SVG 1.1//EN" "http://www.w3.org/Graphics/SVG/1.1/DTD/svg11.dtd">
<svg version="1.1" id="Layer_1" xmlns="http://www.w3.org/2000/svg" xmlns:xlink="http://www.w3.org/1999/xlink" x="0px" y="0px"
	 width="40.657px" height="20px" viewBox="-5.046 -2.482 40.657 20" enable-background="new -5.046 -2.482 40.657 20"
	 xml:space="preserve">
<g>
	<path fill="#3d3d3c" d="M4.955,17.518c-5.514,0-10-4.484-10-9.998c0-5.515,4.487-10.002,10-10.002
		c5.515,0,10.001,4.488,10.001,10.002C14.955,13.034,10.468,17.518,4.955,17.518z M4.955-1.188c-4.801,0-8.706,3.907-8.706,8.708
		c0,4.798,3.905,8.704,8.706,8.704c4.8,0,8.707-3.905,8.707-8.704C13.66,2.719,9.755-1.188,4.955-1.188z"/>
	<polygon fill="#3d3d3c" points="9.891,8.167 4.306,8.167 4.306,1.805 5.601,1.805 5.601,6.875 9.891,6.875 	"/>
	<g>
		<polyline fill="#3d3d3c" points="30.005,16.972 35.611,11.059 34.587,10.168 30.666,14.418 30.666,-1.695 30.005,-1.695 		"/>
		<polyline fill="#3d3d3c" points="30.005,16.972 24.399,11.059 25.422,10.168 29.344,14.418 29.344,-1.695 30.005,-1.695 		"/>
	</g>
</g>
</svg>
