<svg xmlns="http://www.w3.org/2000/svg" viewBox="0 0 85.64 86.06"><title>StartUp</title><g id="レイヤー_2" data-name="レイヤー 2"><g id="レイヤー_1-2" data-name="レイヤー 1"><path d="M0,37.68a46.1,46.1,0,0,1,8.64-9.24c4.58-3.9,9.61-7,15.56-8.38a22.52,22.52,0,0,1,9.16-.31A1.75,1.75,0,0,0,35,19.25c8.81-7.94,18.66-14.1,30.14-17.37C68.05,1.06,71.06.75,74,.2a5.26,5.26,0,0,0,.64-.2h3.84l5.38,1a2,2,0,0,1,1.78,2.3C85.5,21.51,80.48,37.91,68,51.57a3.68,3.68,0,0,0-1.09,3.12c.59,7.29-2.17,13.52-6.41,19.22A53.62,53.62,0,0,1,48.62,85.51a2.92,2.92,0,0,1-1.84.55c-.9-.1-1.15-1-.89-2.24.85-3.9,1.76-7.79,2.44-11.72a61.18,61.18,0,0,0,.44-6.56c-.74.29-1.13.45-1.52.59C43.64,67.39,40,68.69,36.4,69.9c-1.58.53-2.06.1-2.58-1.52-2.51-7.74-7.83-12.62-15.51-15-1.43-.45-1.75-.77-1.61-2.27a38.65,38.65,0,0,1,3.5-12.4c.16-.36.31-.72.63-1.46a47.1,47.1,0,0,0-5.63,0c-4.2.53-8.38,1.18-12.54,1.92-1.24.22-2.09.09-2.66-1.06ZM36.54,66.75l1-.27C56,60.91,69.55,49.74,77.24,31.77a5.89,5.89,0,0,0-.14-5.55A31.74,31.74,0,0,0,55.57,9.9a3.79,3.79,0,0,0-3.19.55c-.91.64-1.94,1.11-2.89,1.7-10,6.22-18.57,13.95-24.63,24.19A39.52,39.52,0,0,0,20,49c-.21,1.08-.12,1.66,1.13,2.08a24.72,24.72,0,0,1,9.79,6.5A23.59,23.59,0,0,1,36.54,66.75ZM79.6,24.27c.12-.11.21-.15.23-.22a68.34,68.34,0,0,0,2.73-19.5,1.25,1.25,0,0,0-.78-.9,25.51,25.51,0,0,0-3.91-.52c-6.57-.26-12.71,1.52-18.69,4a2.91,2.91,0,0,0-.39.25C70.28,12.48,74.31,15.75,79.6,24.27ZM63.95,55.82A77.87,77.87,0,0,1,51.79,64c-.19.1-.3.5-.31.76-.12,3-.08,6-.34,8.95-.2,2.28-.76,4.53-1.21,7.09C57.48,73.86,63.81,66.6,63.95,55.82Zm-58-20.43,1.63-.23c4.66-.73,9.33-1.31,14.06-.62a1.62,1.62,0,0,0,1.15-.66c2.56-3.31,5.08-6.65,7.61-10,.32-.42.69-.8,1.1-1.26C23.41,21.39,12.74,27.38,5.94,35.39Z"/><path d="M10.63,77.86c-.51-.4-1.19-.66-1.28-1.06A2.34,2.34,0,0,1,9.69,75c1.61-1.87,3.35-3.64,5-5.44,2.1-2.24,4.2-4.48,6.32-6.7.83-.87,1.72-1,2.39-.32S24,64.11,23.2,65q-5.52,5.89-11.06,11.77A11.71,11.71,0,0,1,10.63,77.86Z"/><path d="M30,68.49a8.8,8.8,0,0,1-.82,1.3Q25.31,74,21.41,78.08a1.59,1.59,0,0,1-2.32.3,1.55,1.55,0,0,1,.08-2.33c2.63-2.83,5.26-5.67,8-8.42a2.26,2.26,0,0,1,1.8-.37C29.34,67.35,29.61,68,30,68.49Z"/><path d="M19.59,58.68A8,8,0,0,1,18.8,60c-2.6,2.8-5.24,5.58-7.85,8.37A1.52,1.52,0,1,1,8.73,66.3c2.61-2.8,5.21-5.61,7.9-8.33a2.56,2.56,0,0,1,1.89-.5C18.9,57.51,19.21,58.21,19.59,58.68Z"/><path d="M66.6,31.84A11.08,11.08,0,1,1,55.51,20.69,11.05,11.05,0,0,1,66.6,31.84Zm-11.06,8a8.08,8.08,0,1,0-8.06-8.06A8.05,8.05,0,0,0,55.54,39.88Z"/></g></g></svg>