<?xml version="1.0" encoding="utf-8"?>
<!-- Generator: Adobe Illustrator 19.2.1, SVG Export Plug-In . SVG Version: 6.00 Build 0)  -->
<svg version="1.1" id="Layer_1" xmlns="http://www.w3.org/2000/svg" xmlns:xlink="http://www.w3.org/1999/xlink" x="0px" y="0px"
	 width="70px" height="70px" viewBox="0 0 70 70" style="enable-background:new 0 0 70 70;" xml:space="preserve">
<style type="text/css">
	.st0{fill:#FFFFFF;}
	.st1{fill:#D7D7D6;}
	.st2{fill:#56B46D;}
	.st3{opacity:0.6;}
	.st4{fill:#E54B3B;}
	.st5{fill:#F5BEAB;}
	.st6{fill:#687687;}
	.st7{fill:#C0C1C6;}
	.st8{fill:#AABE4B;}
	.st9{fill:#E47C20;}
	.st10{fill:#F6CCA6;}
	.st11{fill:#3B95D2;}
	.st12{fill:#FFFFFF;stroke:#D7D7D6;stroke-width:4.1497;stroke-miterlimit:10;}
	.st13{fill:#C25374;}
	.st14{fill:#E4493B;}
	.st15{fill:#45A9A5;}
	.st16{fill:#EFC303;}
	.st17{fill:#ABBF4A;}
	.st18{fill:#DFE3B7;}
	.st19{fill:#F0C300;}
	.st20{fill:#F9E6AB;}
	.st21{fill:#955BA1;}
	.st22{fill:#D1BCD9;}
	.st23{fill:#BED2EE;}
</style>
<g>
	<path class="st0" d="M23,67.5C11.7,67.5,2.5,58.3,2.5,47V23C2.5,11.7,11.7,2.5,23,2.5h24c11.3,0,20.5,9.2,20.5,20.5v24
		c0,11.3-9.2,20.5-20.5,20.5H23z"/>
	<path class="st1" d="M47,5c9.9,0,18,8.1,18,18v24c0,9.9-8.1,18-18,18H23c-9.9,0-18-8.1-18-18V23c0-9.9,8.1-18,18-18H47 M47,0H23
		C10.3,0,0,10.3,0,23v24c0,12.7,10.3,23,23,23h24c12.7,0,23-10.3,23-23V23C70,10.3,59.7,0,47,0L47,0z"/>
</g>
<g>
	<g>
		<path class="st1" d="M21.5,49h0.8v4.9h-0.8V49z"/>
		<path class="st1" d="M24.9,51.9v2h-0.8v-3.7h0.8v0.7c0.1-0.2,0.3-0.4,0.5-0.5c0.2-0.1,0.5-0.2,0.7-0.2c0.6,0,1,0.2,1.2,0.7
			c0.4-0.5,0.8-0.7,1.4-0.7c0.4,0,0.8,0.1,1,0.4c0.3,0.3,0.4,0.6,0.4,1.1v2.3h-0.8v-2c0-0.7-0.3-1-0.9-1c-0.3,0-0.5,0.1-0.7,0.3
			c-0.2,0.2-0.3,0.4-0.3,0.7v2.1h-0.8v-2c0-0.4-0.1-0.6-0.2-0.8c-0.1-0.2-0.3-0.2-0.6-0.2s-0.5,0.1-0.7,0.3
			C25,51.3,24.9,51.5,24.9,51.9z"/>
		<path class="st1" d="M33.8,50.1c0.5,0,0.9,0.2,1.3,0.5c0.4,0.3,0.5,0.8,0.5,1.4c0,0.6-0.2,1-0.5,1.4c-0.4,0.4-0.8,0.5-1.2,0.5
			c-0.5,0-0.9-0.2-1.3-0.6v1.9h-0.8v-5.1h0.8v0.7C32.8,50.4,33.3,50.1,33.8,50.1z M32.5,52c0,0.4,0.1,0.6,0.3,0.9
			c0.2,0.2,0.5,0.3,0.8,0.3s0.6-0.1,0.8-0.3s0.3-0.5,0.3-0.9s-0.1-0.7-0.3-0.9c-0.2-0.2-0.5-0.4-0.8-0.4c-0.3,0-0.6,0.1-0.8,0.4
			C32.6,51.4,32.5,51.7,32.5,52z"/>
		<path class="st1" d="M40,53.9h-0.7v-0.5C39,53.8,38.6,54,38,54c-0.4,0-0.7-0.1-1-0.3s-0.4-0.5-0.4-0.9s0.1-0.6,0.4-0.8
			c0.3-0.2,0.6-0.3,1.1-0.3h1v-0.1c0-0.5-0.3-0.7-0.8-0.7c-0.3,0-0.7,0.1-1.1,0.4L37,50.7c0.5-0.4,1-0.5,1.5-0.5
			c0.4,0,0.8,0.1,1.1,0.3s0.4,0.6,0.4,1V53.9z M39.2,52.5v-0.3h-0.9c-0.6,0-0.8,0.2-0.8,0.5c0,0.2,0.1,0.3,0.2,0.4
			c0.1,0.1,0.3,0.1,0.6,0.1c0.2,0,0.5-0.1,0.7-0.2C39.1,52.9,39.2,52.8,39.2,52.5z"/>
		<path class="st1" d="M43.3,54c-0.5,0-1-0.2-1.3-0.5c-0.4-0.4-0.6-0.8-0.6-1.4s0.2-1,0.6-1.4c0.4-0.4,0.9-0.5,1.4-0.5
			s1,0.2,1.4,0.6l-0.5,0.6c-0.3-0.3-0.6-0.4-1-0.4s-0.6,0.1-0.9,0.3c-0.2,0.2-0.4,0.5-0.4,0.8c0,0.3,0.1,0.6,0.4,0.9
			c0.2,0.2,0.5,0.4,0.9,0.4s0.7-0.2,1-0.5l0.5,0.5C44.4,53.7,43.9,54,43.3,54z"/>
		<path class="st1" d="M47.1,50.8v1.9c0,0.2,0,0.3,0.1,0.4c0.1,0.1,0.2,0.2,0.4,0.2s0.3-0.1,0.5-0.2l0.3,0.6
			c-0.3,0.2-0.6,0.4-0.9,0.4c-0.3,0-0.6-0.1-0.9-0.3c-0.2-0.2-0.4-0.5-0.4-0.9v-1.9h-0.5v-0.6h0.5V49h0.8v1.2h1v0.6H47.1z"/>
	</g>
	<g>
		<path class="st1" d="M35.4,40.1c-6.2,0-11.2-5-11.2-11.2c0-6.2,5-11.2,11.2-11.2c2,0,3.8,0.5,5.5,1.4l-1.2,1.2
			c-1.3-0.6-2.7-1-4.2-1c-5.3,0-9.6,4.3-9.6,9.6c0,5.3,4.3,9.6,9.6,9.6c5.3,0,9.6-4.3,9.6-9.6c0-1.5-0.4-2.9-1-4.2l1.2-1.2
			c0.9,1.6,1.4,3.5,1.4,5.4C46.7,35.1,41.6,40.1,35.4,40.1"/>
		<path class="st1" d="M35.4,35c-3.4,0-6.1-2.8-6.1-6.1c0-3.4,2.8-6.1,6.1-6.1c0.5,0,1.1,0.1,1.6,0.2l-1.6,1.6
			c-2.3,0-4.2,1.9-4.2,4.3c0,2.4,1.9,4.3,4.3,4.3c2.3,0,4.2-1.9,4.3-4.2l1.6-1.6c0.1,0.5,0.2,1,0.2,1.5C41.6,32.3,38.8,35,35.4,35"
			/>
		<polyline class="st1" points="37.8,28.9 35.4,28.9 35.4,26.6 43.6,18.4 43.4,15.7 47.7,11.3 48,14 49,13 51.4,15.4 50.4,16.3 
			53,16.6 48.7,21 46,20.8 37.8,28.9 		"/>
	</g>
</g>
</svg>
