<?xml version="1.0" encoding="utf-8"?>
<!-- Generator: Adobe Illustrator 19.2.1, SVG Export Plug-In . SVG Version: 6.00 Build 0)  -->
<svg version="1.1" id="Layer_1" xmlns="http://www.w3.org/2000/svg" xmlns:xlink="http://www.w3.org/1999/xlink" x="0px" y="0px"
	 width="70px" height="70px" viewBox="0 0 70 70" style="enable-background:new 0 0 70 70;" xml:space="preserve">
<style type="text/css">
	.st0{fill:#FFFFFF;}
	.st1{fill:#D7D7D6;}
	.st2{fill:#56B46D;}
	.st3{opacity:0.6;}
	.st4{fill:#E54B3B;}
	.st5{fill:#F5BEAB;}
	.st6{fill:#687687;}
	.st7{fill:#C0C1C6;}
	.st8{fill:#AABE4B;}
	.st9{fill:#E47C20;}
	.st10{fill:#F6CCA6;}
	.st11{fill:#3B95D2;}
	.st12{fill:#FFFFFF;stroke:#D7D7D6;stroke-width:4.1497;stroke-miterlimit:10;}
	.st13{fill:#C25374;}
	.st14{fill:#E4493B;}
	.st15{fill:#45A9A5;}
	.st16{fill:#EFC303;}
	.st17{fill:#ABBF4A;}
	.st18{fill:#DFE3B7;}
	.st19{fill:#F0C300;}
	.st20{fill:#F9E6AB;}
	.st21{fill:#955BA1;}
	.st22{fill:#D1BCD9;}
	.st23{fill:#BED2EE;}
</style>
<g>
	<path class="st4" d="M47,70H23C10.3,70,0,59.7,0,47V23C0,10.3,10.3,0,23,0h24c12.7,0,23,10.3,23,23v24C70,59.7,59.7,70,47,70z"/>
	<g>
		<g>
			<path class="st0" d="M18.4,50.3h-0.8v-4.9h1.3l1.5,3.1l1.5-3.1h1.3v4.9h-0.8v-3.8l-1.7,3.4h-0.5l-1.7-3.4V50.3z"/>
			<path class="st0" d="M27.9,50.3h-0.7v-0.5c-0.3,0.4-0.7,0.6-1.2,0.6c-0.4,0-0.7-0.1-1-0.3s-0.4-0.5-0.4-0.9s0.1-0.6,0.4-0.8
				c0.3-0.2,0.6-0.3,1.1-0.3h1v-0.1c0-0.5-0.3-0.7-0.8-0.7c-0.3,0-0.7,0.1-1.1,0.4l-0.3-0.5c0.5-0.4,1-0.5,1.5-0.5
				c0.4,0,0.8,0.1,1.1,0.3s0.4,0.6,0.4,1V50.3z M27.1,48.9v-0.3h-0.9c-0.6,0-0.8,0.2-0.8,0.5c0,0.2,0.1,0.3,0.2,0.4
				c0.1,0.1,0.3,0.1,0.6,0.1c0.2,0,0.5-0.1,0.7-0.2C27.1,49.3,27.1,49.2,27.1,48.9z"/>
			<path class="st0" d="M31.5,47.3c-0.4,0-0.7,0.1-0.9,0.4s-0.3,0.6-0.3,1v1.6h-0.8v-3.7h0.8v0.7c0.1-0.2,0.3-0.4,0.5-0.6
				c0.2-0.1,0.4-0.2,0.7-0.2L31.5,47.3C31.5,47.3,31.5,47.3,31.5,47.3z"/>
			<path class="st0" d="M33.6,50.3h-0.8v-5.2h0.8v3.1l1.5-1.6h1l-1.4,1.5l1.5,2.2h-1l-1.1-1.6l-0.6,0.6V50.3z"/>
			<path class="st0" d="M40.9,48.8H38c0,0.3,0.1,0.5,0.4,0.7c0.2,0.2,0.5,0.2,0.8,0.2c0.5,0,0.8-0.1,1.1-0.4l0.4,0.5
				c-0.4,0.4-0.9,0.6-1.6,0.6c-0.5,0-1-0.2-1.3-0.5s-0.5-0.8-0.5-1.4c0-0.6,0.2-1.1,0.6-1.4c0.4-0.3,0.8-0.5,1.3-0.5
				s0.9,0.2,1.3,0.5s0.5,0.7,0.5,1.3V48.8z M38,48.2h2.1c0-0.3-0.1-0.6-0.3-0.7c-0.2-0.2-0.4-0.3-0.7-0.3s-0.5,0.1-0.8,0.3
				C38.1,47.6,38,47.9,38,48.2z"/>
			<path class="st0" d="M43.2,47.2v1.9c0,0.2,0,0.3,0.1,0.4c0.1,0.1,0.2,0.2,0.4,0.2s0.3-0.1,0.5-0.2l0.3,0.6
				c-0.3,0.2-0.6,0.4-0.9,0.4c-0.3,0-0.6-0.1-0.9-0.3c-0.2-0.2-0.4-0.5-0.4-0.9v-1.9H42v-0.6h0.5v-1.2h0.8v1.2h1v0.6H43.2z"/>
			<path class="st0" d="M49.6,50.4c-0.5,0-0.8-0.1-1.2-0.4c-0.3-0.3-0.5-0.6-0.5-1c0-0.5,0.4-1,1.1-1.4c-0.2-0.2-0.3-0.4-0.4-0.5
				c-0.1-0.1-0.1-0.3-0.1-0.5c0-0.4,0.1-0.7,0.4-0.9c0.3-0.2,0.6-0.3,1-0.3s0.7,0.1,1,0.3s0.4,0.5,0.4,0.8c0,0.5-0.4,0.9-1.1,1.3
				c0.4,0.5,0.7,0.8,0.9,1c0.1-0.2,0.3-0.5,0.3-0.7l0.6,0.4c-0.1,0.3-0.3,0.6-0.4,0.8c0.2,0.2,0.4,0.4,0.7,0.7l-0.5,0.5l-0.6-0.6
				C50.7,50.2,50.2,50.4,49.6,50.4z M49,49.5c0.2,0.1,0.4,0.2,0.7,0.2c0.3,0,0.6-0.1,0.9-0.4c-0.5-0.5-0.8-0.9-1.1-1.2
				c-0.5,0.3-0.8,0.6-0.8,0.9C48.7,49.2,48.8,49.4,49,49.5z M49.9,45.9c-0.2,0-0.3,0-0.4,0.1c-0.1,0.1-0.2,0.2-0.2,0.3
				s0,0.2,0.1,0.4s0.2,0.3,0.3,0.4c0.5-0.3,0.8-0.5,0.8-0.7c0-0.2-0.1-0.3-0.2-0.4S50.1,45.9,49.9,45.9z"/>
			<path class="st0" d="M16.3,58c0.3,0,0.5,0,0.7-0.1s0.4-0.2,0.6-0.5l0.5,0.5c-0.5,0.6-1.1,0.9-1.9,0.9s-1.4-0.2-1.8-0.7
				c-0.5-0.5-0.7-1.1-0.7-1.8s0.2-1.3,0.7-1.8s1.1-0.7,1.9-0.7c0.8,0,1.4,0.3,1.9,0.8l-0.5,0.6c-0.2-0.2-0.5-0.4-0.7-0.5
				c-0.2-0.1-0.5-0.1-0.7-0.1c-0.5,0-0.9,0.2-1.2,0.5c-0.3,0.3-0.5,0.7-0.5,1.2s0.2,0.9,0.5,1.2C15.5,57.8,15.9,58,16.3,58z"/>
			<path class="st0" d="M22.2,57v-2H23v3.7h-0.8V58c-0.1,0.2-0.3,0.4-0.5,0.5c-0.2,0.1-0.5,0.2-0.7,0.2c-0.4,0-0.8-0.1-1-0.4
				c-0.3-0.3-0.4-0.6-0.4-1.1V55h0.8v2c0,0.7,0.3,1,0.9,1c0.3,0,0.5-0.1,0.7-0.3S22.2,57.3,22.2,57z"/>
			<path class="st0" d="M27.3,57.6c0,0.4-0.1,0.6-0.4,0.9c-0.3,0.2-0.6,0.3-1,0.3c-0.3,0-0.6,0-0.8-0.1c-0.3-0.1-0.5-0.2-0.8-0.4
				l0.4-0.6c0.4,0.3,0.9,0.5,1.3,0.5c0.2,0,0.3,0,0.4-0.1c0.1-0.1,0.2-0.2,0.2-0.3c0-0.2-0.2-0.4-0.7-0.5c0,0-0.1,0-0.1,0
				c-0.8-0.2-1.2-0.6-1.2-1.1c0-0.3,0.1-0.6,0.4-0.8c0.3-0.2,0.6-0.3,1-0.3c0.4,0,0.8,0.1,1.2,0.4l-0.3,0.6c-0.3-0.2-0.6-0.3-1-0.3
				c-0.2,0-0.3,0-0.5,0.1c-0.1,0.1-0.2,0.2-0.2,0.3c0,0.1,0.1,0.2,0.2,0.3c0.1,0,0.2,0.1,0.4,0.1c0.2,0,0.3,0.1,0.4,0.1
				c0.1,0,0.2,0.1,0.3,0.1c0.1,0,0.2,0.1,0.4,0.2C27.2,57,27.3,57.2,27.3,57.6z"/>
			<path class="st0" d="M29.7,55.6v1.9c0,0.2,0,0.3,0.1,0.4c0.1,0.1,0.2,0.2,0.4,0.2s0.3-0.1,0.5-0.2l0.3,0.6
				c-0.3,0.2-0.6,0.4-0.9,0.4c-0.3,0-0.6-0.1-0.9-0.3c-0.2-0.2-0.4-0.5-0.4-0.9v-1.9h-0.5V55h0.5v-1.2h0.8V55h1v0.6H29.7z"/>
			<path class="st0" d="M35.3,58.2c-0.4,0.4-0.8,0.6-1.4,0.6c-0.6,0-1-0.2-1.4-0.6c-0.4-0.4-0.6-0.8-0.6-1.4s0.2-1,0.6-1.4
				c0.4-0.4,0.8-0.6,1.4-0.6c0.6,0,1,0.2,1.4,0.6c0.4,0.4,0.6,0.8,0.6,1.4S35.6,57.8,35.3,58.2z M33,57.7c0.2,0.2,0.5,0.3,0.8,0.3
				c0.3,0,0.6-0.1,0.8-0.3c0.2-0.2,0.3-0.5,0.3-0.9s-0.1-0.7-0.3-0.9c-0.2-0.2-0.5-0.3-0.8-0.3c-0.3,0-0.6,0.1-0.8,0.3
				c-0.2,0.2-0.3,0.5-0.3,0.9S32.8,57.5,33,57.7z"/>
			<path class="st0" d="M38,56.7v2h-0.8V55H38v0.7c0.1-0.2,0.3-0.4,0.5-0.5c0.2-0.1,0.5-0.2,0.7-0.2c0.6,0,1,0.2,1.2,0.7
				c0.4-0.5,0.8-0.7,1.4-0.7c0.4,0,0.8,0.1,1,0.4c0.3,0.3,0.4,0.6,0.4,1.1v2.3h-0.8v-2c0-0.7-0.3-1-0.9-1c-0.3,0-0.5,0.1-0.7,0.3
				c-0.2,0.2-0.3,0.4-0.3,0.7v2.1h-0.8v-2c0-0.4-0.1-0.6-0.2-0.8c-0.1-0.2-0.3-0.2-0.6-0.2s-0.5,0.1-0.7,0.3
				C38.1,56.1,38,56.3,38,56.7z"/>
			<path class="st0" d="M48.3,57.2h-2.9c0,0.3,0.1,0.5,0.4,0.7c0.2,0.2,0.5,0.2,0.8,0.2c0.5,0,0.8-0.1,1.1-0.4l0.4,0.5
				c-0.4,0.4-0.9,0.6-1.6,0.6c-0.5,0-1-0.2-1.3-0.5s-0.5-0.8-0.5-1.4c0-0.6,0.2-1.1,0.6-1.4c0.4-0.3,0.8-0.5,1.3-0.5
				s0.9,0.2,1.3,0.5s0.5,0.7,0.5,1.3V57.2z M45.4,56.6h2.1c0-0.3-0.1-0.6-0.3-0.7c-0.2-0.2-0.4-0.3-0.7-0.3s-0.5,0.1-0.8,0.3
				C45.5,56,45.4,56.3,45.4,56.6z"/>
			<path class="st0" d="M51.7,55.7c-0.4,0-0.7,0.1-0.9,0.4s-0.3,0.6-0.3,1v1.6h-0.8V55h0.8v0.7c0.1-0.2,0.3-0.4,0.5-0.6
				c0.2-0.1,0.4-0.2,0.7-0.2L51.7,55.7C51.7,55.7,51.7,55.7,51.7,55.7z"/>
			<path class="st0" d="M55.7,57.6c0,0.4-0.1,0.6-0.4,0.9c-0.3,0.2-0.6,0.3-1,0.3c-0.3,0-0.6,0-0.8-0.1c-0.3-0.1-0.5-0.2-0.8-0.4
				l0.4-0.6c0.4,0.3,0.9,0.5,1.3,0.5c0.2,0,0.3,0,0.4-0.1c0.1-0.1,0.2-0.2,0.2-0.3c0-0.2-0.2-0.4-0.7-0.5c0,0-0.1,0-0.1,0
				c-0.8-0.2-1.2-0.6-1.2-1.1c0-0.3,0.1-0.6,0.4-0.8c0.3-0.2,0.6-0.3,1-0.3c0.4,0,0.8,0.1,1.2,0.4l-0.3,0.6c-0.3-0.2-0.6-0.3-1-0.3
				c-0.2,0-0.3,0-0.5,0.1c-0.1,0.1-0.2,0.2-0.2,0.3c0,0.1,0.1,0.2,0.2,0.3c0.1,0,0.2,0.1,0.4,0.1c0.2,0,0.3,0.1,0.4,0.1
				c0.1,0,0.2,0.1,0.3,0.1c0.1,0,0.2,0.1,0.4,0.2C55.5,57,55.7,57.2,55.7,57.6z"/>
		</g>
		<g>
			<polyline class="st5" points="46.6,34 30,34 24,18.7 20.9,18.7 20.9,19.2 19.1,19.2 19.1,17.8 19.1,16.9 25.2,16.9 31.2,32.3 
				45.4,32.3 48.5,23.9 29.1,21 29.4,19.3 50.9,22.4 46.6,34 			"/>
			<path class="st5" d="M34.3,39c-0.9,0-1.7-0.8-1.7-1.7c0-0.9,0.8-1.7,1.7-1.7c0.9,0,1.7,0.8,1.7,1.7C36,38.2,35.2,39,34.3,39"/>
			<path class="st5" d="M42.3,39c-0.9,0-1.7-0.8-1.7-1.7c0-0.9,0.8-1.7,1.7-1.7c0.9,0,1.7,0.8,1.7,1.7C44,38.2,43.3,39,42.3,39"/>
		</g>
	</g>
</g>
</svg>
