<?xml version="1.0" encoding="utf-8"?>
<!-- Generator: Adobe Illustrator 19.2.1, SVG Export Plug-In . SVG Version: 6.00 Build 0)  -->
<svg version="1.1" id="Layer_1" xmlns="http://www.w3.org/2000/svg" xmlns:xlink="http://www.w3.org/1999/xlink" x="0px" y="0px"
	 width="70px" height="70px" viewBox="0 0 70 70" style="enable-background:new 0 0 70 70;" xml:space="preserve">
<style type="text/css">
	.st0{fill:#FFFFFF;}
	.st1{fill:#D7D7D6;}
	.st2{fill:#56B46D;}
	.st3{opacity:0.6;}
	.st4{fill:#E54B3B;}
	.st5{fill:#F5BEAB;}
	.st6{fill:#687687;}
	.st7{fill:#C0C1C6;}
	.st8{fill:#AABE4B;}
	.st9{fill:#E47C20;}
	.st10{fill:#F6CCA6;}
	.st11{fill:#3B95D2;}
	.st12{fill:#FFFFFF;stroke:#D7D7D6;stroke-width:4.1497;stroke-miterlimit:10;}
	.st13{fill:#C25374;}
	.st14{fill:#E4493B;}
	.st15{fill:#45A9A5;}
	.st16{fill:#EFC303;}
	.st17{fill:#ABBF4A;}
	.st18{fill:#DFE3B7;}
	.st19{fill:#F0C300;}
	.st20{fill:#F9E6AB;}
	.st21{fill:#955BA1;}
	.st22{fill:#D1BCD9;}
	.st23{fill:#BED2EE;}
</style>
<g>
	<path class="st8" d="M47,70H23C10.3,70,0,59.7,0,47V23C0,10.3,10.3,0,23,0h24c12.7,0,23,10.3,23,23v24C70,59.7,59.7,70,47,70z"/>
</g>
<g>
	<path class="st18" d="M30.2,36.5h-5.1l-0.2-0.2c-1.9-2.5-2.6-4.8-2.6-7c0-2.2,0.7-4.3,1.4-6.4c0.7-2.1,1.5-4.4,1.6-6.9
		c0-0.6-0.2-1.5-0.3-2.5c0-0.5,0.1-1.1,0.3-1.8c0.2-0.5,0.4-1,0.7-1.4c0.3-0.4,0.9-0.7,1.5-0.7c0,0,0,0,0,0l0,0c0,0,0,0,0,0
		c0.7,0,1.2,0.3,1.5,0.8c0.3,0.4,0.6,0.9,0.7,1.4c0.2,0.6,0.3,1.2,0.3,1.7c0,1-0.3,1.8-0.3,2.5c0.1,1.9,0.6,3.6,1.1,5.2
		c-0.2,0.6-0.4,1.2-0.6,1.7l1.1,0.4c0-0.1,0-0.1,0.1-0.2c0,0.1,0.1,0.2,0.1,0.3h-1.3c0,0,0-0.1,0-0.1c-0.7-2.2-1.5-4.5-1.7-7.3l0,0
		v0c0-0.9,0.3-1.6,0.3-2.5c0-0.4-0.1-0.9-0.2-1.4c-0.1-0.4-0.3-0.8-0.5-1c-0.2-0.2-0.4-0.3-0.6-0.3l0,0c-0.3,0-0.4,0.1-0.6,0.3
		c-0.2,0.2-0.4,0.6-0.5,1c-0.2,0.5-0.2,0.9-0.2,1.4c0,0.9,0.2,1.6,0.3,2.5v0l0,0c-0.2,2.8-1,5.1-1.7,7.3c0,0,0,0.1,0,0.1h-1v2.4H24
		c-0.2,0.7-0.4,1.4-0.5,2.1h-0.7v2.4h0.7c0.2,1.5,0.8,3.2,2.1,5h3.9c1.4-1.8,2-3.5,2.1-5H33c-0.1,1.2-0.5,2.5-1.2,3.8
		c0-0.1-0.1-0.1-0.1-0.2l-1,0.6c0.1,0.2,0.3,0.5,0.4,0.7c-0.2,0.3-0.4,0.6-0.7,1L30.2,36.5 M32.9,27.9h-1.2
		c-0.1-0.7-0.3-1.4-0.5-2.1h1.2C32.7,26.5,32.8,27.2,32.9,27.9"/>
	<path class="st18" d="M46.5,30.3h-8.2c0-0.3-0.1-0.7-0.1-1c0-0.5,0-0.9,0.1-1.4h8.1c0.1,0.5,0.1,0.9,0.1,1.4
		C46.5,29.7,46.5,30,46.5,30.3 M37,30.3H33h-1.2h-8.2h-0.7v-2.4h0.7h8.1h1.2h4.2C37,28.4,37,28.9,37,29.4C37,29.7,37,30,37,30.3
		 M46,25.8h-7.2c0.2-0.8,0.5-1.6,0.8-2.4h5.7C45.5,24.2,45.8,25,46,25.8 M37.5,25.8h-5h-1.2H24h-0.3v-2.4h1h5.7h1.3h5.6
		c0.1,0.4,0.3,0.8,0.4,1.1l0.2-0.1C37.8,24.9,37.6,25.4,37.5,25.8"/>
	<path class="st18" d="M44.9,36.5h-5.1l-0.2-0.2c-0.5-0.6-0.9-1.3-1.2-1.9c-0.3,0.6-0.7,1.2-1.2,1.8L37,36.5h-5.2l-0.2-0.3
		c-0.2-0.3-0.4-0.6-0.6-0.9c-0.2-0.2-0.3-0.5-0.4-0.7l1-0.6c0,0.1,0.1,0.1,0.1,0.2c0.2,0.4,0.5,0.8,0.7,1.2h3.9
		c0.6-0.9,1-1.6,1.4-2.3c-0.4-0.9-0.6-1.9-0.7-2.7c0-0.3,0-0.7,0-1c0-0.5,0-0.9,0.1-1.4c0.1-0.7,0.2-1.4,0.4-2.1
		c0.1-0.4,0.3-0.9,0.4-1.3l-0.2,0.1c-0.1-0.4-0.2-0.7-0.4-1.1c-0.7-2.2-1.6-4.6-1.8-7.5l0,0v0c0-0.9,0.3-1.6,0.3-2.4
		c0-0.4-0.1-0.8-0.2-1.3h0c-0.1-0.4-0.3-0.8-0.5-1c-0.2-0.2-0.3-0.3-0.6-0.3l0,0c-0.3,0-0.4,0.1-0.6,0.3c-0.2,0.2-0.4,0.6-0.5,1
		c-0.2,0.5-0.2,0.9-0.2,1.3c0,0.8,0.2,1.5,0.3,2.4v0l0,0c-0.2,2.6-1,5.1-1.7,7.2c0,0.1,0,0.1-0.1,0.2l-1.1-0.4
		c0.2-0.5,0.4-1.1,0.6-1.7c0.5-1.7,1-3.5,1.1-5.3c0-0.6-0.2-1.4-0.3-2.4c0-0.5,0.1-1.1,0.3-1.7c0.2-0.5,0.4-1,0.7-1.4
		c0.3-0.4,0.9-0.7,1.5-0.7c0,0,0,0,0,0l0,0c0,0,0,0,0,0c0.6,0,1.2,0.3,1.5,0.7c0.4,0.4,0.6,0.9,0.7,1.4h0c0.2,0.6,0.3,1.2,0.3,1.7
		c0,1-0.3,1.8-0.3,2.4c0.2,2.6,1,4.9,1.7,7.1c0.7-2.1,1.5-4.4,1.6-6.9c0-0.6-0.2-1.5-0.3-2.5c0-0.5,0.1-1.1,0.3-1.8
		c0.2-0.5,0.4-1,0.7-1.4c0.3-0.4,0.9-0.7,1.5-0.7c0,0,0,0,0,0l0,0c0,0,0,0,0,0c0.7,0,1.2,0.3,1.5,0.8c0.3,0.4,0.6,0.9,0.7,1.4
		c0.2,0.6,0.3,1.2,0.3,1.7c0,1-0.3,1.8-0.3,2.5c0.2,2.6,0.9,4.8,1.6,7c0.7,2.2,1.4,4.2,1.4,6.4c0,2.2-0.7,4.5-2.6,7L44.9,36.5
		 M40.4,35.3h3.9c1.4-1.8,2-3.5,2.1-5c0-0.3,0.1-0.7,0.1-1c0-0.5,0-0.9-0.1-1.4c-0.1-0.7-0.3-1.4-0.5-2.1c-0.2-0.8-0.5-1.6-0.8-2.4
		c0,0,0-0.1,0-0.1c-0.7-2.2-1.5-4.5-1.7-7.3l0,0v0c0-0.9,0.3-1.6,0.3-2.5c0-0.4-0.1-0.9-0.2-1.4c-0.1-0.4-0.3-0.8-0.5-1
		c-0.2-0.2-0.4-0.3-0.6-0.3l0,0c-0.3,0-0.4,0.1-0.6,0.3c-0.2,0.2-0.4,0.6-0.5,1C41.1,12.6,41,13,41,13.5c0,0.9,0.2,1.6,0.3,2.5v0
		l0,0c-0.2,2.8-1,5.1-1.7,7.3c0,0,0,0.1,0,0.1c-0.3,0.8-0.5,1.6-0.8,2.4c-0.2,0.7-0.4,1.4-0.5,2.1c-0.1,0.5-0.1,0.9-0.1,1.4
		c0,0.3,0,0.7,0.1,1C38.4,31.9,39,33.5,40.4,35.3"/>
</g>
<g>
	<g>
		<path class="st0" d="M19.1,45.8c0.3,0.3,0.5,0.7,0.5,1.3s-0.2,1-0.5,1.3s-0.9,0.4-1.6,0.4h-0.9v1.4h-0.8v-4.9h1.7
			C18.2,45.4,18.8,45.6,19.1,45.8z M18.5,47.9c0.2-0.2,0.2-0.4,0.2-0.8s-0.1-0.6-0.3-0.7s-0.5-0.2-1-0.2h-0.8v2h1
			C18,48.1,18.4,48,18.5,47.9z"/>
		<path class="st0" d="M23,47.3c-0.4,0-0.7,0.1-0.9,0.4s-0.3,0.6-0.3,1v1.6H21v-3.7h0.8v0.7c0.1-0.2,0.3-0.4,0.5-0.6
			c0.2-0.1,0.4-0.2,0.7-0.2L23,47.3C23,47.3,23,47.3,23,47.3z"/>
		<path class="st0" d="M27.4,49.8c-0.4,0.4-0.8,0.6-1.4,0.6c-0.6,0-1-0.2-1.4-0.6C24.2,49.4,24,49,24,48.4s0.2-1,0.6-1.4
			c0.4-0.4,0.8-0.6,1.4-0.6c0.6,0,1,0.2,1.4,0.6c0.4,0.4,0.6,0.8,0.6,1.4S27.7,49.4,27.4,49.8z M25.1,49.3c0.2,0.2,0.5,0.3,0.8,0.3
			c0.3,0,0.6-0.1,0.8-0.3c0.2-0.2,0.3-0.5,0.3-0.9s-0.1-0.7-0.3-0.9c-0.2-0.2-0.5-0.3-0.8-0.3c-0.3,0-0.6,0.1-0.8,0.3
			c-0.2,0.2-0.3,0.5-0.3,0.9S24.9,49.1,25.1,49.3z"/>
		<path class="st0" d="M29.6,49.8c-0.4-0.4-0.5-0.8-0.5-1.4s0.2-1,0.5-1.4c0.4-0.3,0.8-0.5,1.3-0.5s0.9,0.2,1.2,0.6v-2h0.8v5.2h-0.8
			v-0.6c-0.3,0.4-0.7,0.6-1.3,0.6C30.4,50.4,30,50.2,29.6,49.8z M29.9,48.5c0,0.4,0.1,0.6,0.3,0.9c0.2,0.2,0.5,0.3,0.8,0.3
			c0.3,0,0.6-0.1,0.8-0.3c0.2-0.2,0.3-0.5,0.3-0.9c0-0.4-0.1-0.7-0.3-0.9c-0.2-0.2-0.5-0.4-0.8-0.4s-0.6,0.1-0.8,0.4
			C30,47.8,29.9,48.1,29.9,48.5z"/>
		<path class="st0" d="M37.2,48.6v-2h0.8v3.7h-0.8v-0.7c-0.1,0.2-0.3,0.4-0.5,0.5c-0.2,0.1-0.5,0.2-0.7,0.2c-0.4,0-0.8-0.1-1-0.4
			c-0.3-0.3-0.4-0.6-0.4-1.1v-2.3h0.8v2c0,0.7,0.3,1,0.9,1c0.3,0,0.5-0.1,0.7-0.3S37.2,48.9,37.2,48.6z"/>
		<path class="st0" d="M41.3,50.4c-0.5,0-1-0.2-1.3-0.5c-0.4-0.4-0.6-0.8-0.6-1.4s0.2-1,0.6-1.4c0.4-0.4,0.9-0.5,1.4-0.5
			s1,0.2,1.4,0.6l-0.5,0.6c-0.3-0.3-0.6-0.4-1-0.4s-0.6,0.1-0.9,0.3c-0.2,0.2-0.4,0.5-0.4,0.8c0,0.3,0.1,0.6,0.4,0.9
			c0.2,0.2,0.5,0.4,0.9,0.4s0.7-0.2,1-0.5l0.5,0.5C42.4,50.1,41.9,50.4,41.3,50.4z"/>
		<path class="st0" d="M45.1,47.2v1.9c0,0.2,0,0.3,0.1,0.4c0.1,0.1,0.2,0.2,0.4,0.2s0.3-0.1,0.5-0.2l0.3,0.6
			c-0.3,0.2-0.6,0.4-0.9,0.4c-0.3,0-0.6-0.1-0.9-0.3c-0.2-0.2-0.4-0.5-0.4-0.9v-1.9h-0.5v-0.6h0.5v-1.2h0.8v1.2h1v0.6H45.1z"/>
		<path class="st0" d="M51.5,50.4c-0.5,0-0.8-0.1-1.2-0.4c-0.3-0.3-0.5-0.6-0.5-1c0-0.5,0.4-1,1.1-1.4c-0.2-0.2-0.3-0.4-0.4-0.5
			c-0.1-0.1-0.1-0.3-0.1-0.5c0-0.4,0.1-0.7,0.4-0.9c0.3-0.2,0.6-0.3,1-0.3s0.7,0.1,1,0.3s0.4,0.5,0.4,0.8c0,0.5-0.4,0.9-1.1,1.3
			c0.4,0.5,0.7,0.8,0.9,1c0.1-0.2,0.3-0.5,0.3-0.7l0.6,0.4c-0.1,0.3-0.3,0.6-0.4,0.8c0.2,0.2,0.4,0.4,0.7,0.7l-0.5,0.5L53,49.8
			C52.6,50.2,52.1,50.4,51.5,50.4z M50.9,49.5c0.2,0.1,0.4,0.2,0.7,0.2c0.3,0,0.6-0.1,0.9-0.4c-0.5-0.5-0.8-0.9-1.1-1.2
			c-0.5,0.3-0.8,0.6-0.8,0.9C50.6,49.2,50.7,49.4,50.9,49.5z M51.8,45.9c-0.2,0-0.3,0-0.4,0.1c-0.1,0.1-0.2,0.2-0.2,0.3
			s0,0.2,0.1,0.4s0.2,0.3,0.3,0.4c0.5-0.3,0.8-0.5,0.8-0.7c0-0.2-0.1-0.3-0.2-0.4S52,45.9,51.8,45.9z"/>
		<path class="st0" d="M20.4,54.5c-0.2,0-0.4,0-0.6,0.1c-0.2,0.1-0.2,0.2-0.2,0.4c0,0.2,0.1,0.4,0.2,0.5c0.2,0.1,0.5,0.2,1,0.3
			c0.5,0.1,0.9,0.3,1.1,0.5s0.4,0.5,0.4,1c0,0.4-0.2,0.8-0.5,1c-0.3,0.3-0.7,0.4-1.3,0.4c-0.8,0-1.4-0.3-2-0.8l0.5-0.6
			c0.5,0.4,1,0.6,1.5,0.6c0.3,0,0.5-0.1,0.6-0.2c0.2-0.1,0.2-0.3,0.2-0.5s-0.1-0.3-0.2-0.4c-0.1-0.1-0.4-0.2-0.8-0.3
			s-0.6-0.2-0.8-0.2c-0.2-0.1-0.4-0.2-0.5-0.3c-0.3-0.2-0.4-0.6-0.4-1s0.2-0.8,0.5-1c0.3-0.2,0.7-0.4,1.2-0.4c0.3,0,0.6,0.1,0.9,0.2
			s0.6,0.2,0.8,0.4l-0.4,0.6c-0.1-0.1-0.3-0.2-0.6-0.3C20.9,54.5,20.6,54.5,20.4,54.5z"/>
		<path class="st0" d="M27.2,57.2h-2.9c0,0.3,0.1,0.5,0.4,0.7c0.2,0.2,0.5,0.2,0.8,0.2c0.5,0,0.8-0.1,1.1-0.4l0.4,0.5
			c-0.4,0.4-0.9,0.6-1.6,0.6c-0.5,0-1-0.2-1.3-0.5s-0.5-0.8-0.5-1.4c0-0.6,0.2-1.1,0.6-1.4c0.4-0.3,0.8-0.5,1.3-0.5s0.9,0.2,1.3,0.5
			s0.5,0.7,0.5,1.3V57.2z M24.3,56.6h2.1c0-0.3-0.1-0.6-0.3-0.7c-0.2-0.2-0.4-0.3-0.7-0.3s-0.5,0.1-0.8,0.3
			C24.4,56,24.3,56.3,24.3,56.6z"/>
		<path class="st0" d="M30.5,55.7c-0.4,0-0.7,0.1-0.9,0.4s-0.3,0.6-0.3,1v1.6h-0.8V55h0.8v0.7c0.1-0.2,0.3-0.4,0.5-0.6
			c0.2-0.1,0.4-0.2,0.7-0.2L30.5,55.7C30.6,55.7,30.6,55.7,30.5,55.7z"/>
		<path class="st0" d="M32.9,58.7L31.4,55h0.8l1.1,2.8l1.1-2.8h0.8l-1.5,3.7H32.9z"/>
		<path class="st0" d="M36.5,54.2c-0.1-0.1-0.1-0.2-0.1-0.4s0-0.3,0.1-0.4c0.1-0.1,0.2-0.1,0.3-0.1s0.3,0,0.4,0.1s0.1,0.2,0.1,0.4
			s0,0.3-0.1,0.4c-0.1,0.1-0.2,0.1-0.4,0.1S36.6,54.3,36.5,54.2z M37.2,58.7h-0.8V55h0.8V58.7z"/>
		<path class="st0" d="M40.5,58.8c-0.5,0-1-0.2-1.3-0.5c-0.4-0.4-0.6-0.8-0.6-1.4s0.2-1,0.6-1.4c0.4-0.4,0.9-0.5,1.4-0.5
			s1,0.2,1.4,0.6l-0.5,0.6c-0.3-0.3-0.6-0.4-1-0.4S40,55.8,39.8,56c-0.2,0.2-0.4,0.5-0.4,0.8c0,0.3,0.1,0.6,0.4,0.9
			c0.2,0.2,0.5,0.4,0.9,0.4s0.7-0.2,1-0.5l0.5,0.5C41.6,58.5,41.1,58.8,40.5,58.8z"/>
		<path class="st0" d="M46.9,57.2H44c0,0.3,0.1,0.5,0.4,0.7c0.2,0.2,0.5,0.2,0.8,0.2c0.5,0,0.8-0.1,1.1-0.4l0.4,0.5
			c-0.4,0.4-0.9,0.6-1.6,0.6c-0.5,0-1-0.2-1.3-0.5s-0.5-0.8-0.5-1.4c0-0.6,0.2-1.1,0.6-1.4c0.4-0.3,0.8-0.5,1.3-0.5s0.9,0.2,1.3,0.5
			s0.5,0.7,0.5,1.3V57.2z M44,56.6h2.1c0-0.3-0.1-0.6-0.3-0.7c-0.2-0.2-0.4-0.3-0.7-0.3s-0.5,0.1-0.8,0.3C44.1,56,44,56.3,44,56.6z"
			/>
		<path class="st0" d="M50.9,57.6c0,0.4-0.1,0.6-0.4,0.9c-0.3,0.2-0.6,0.3-1,0.3c-0.3,0-0.6,0-0.8-0.1c-0.3-0.1-0.5-0.2-0.8-0.4
			l0.4-0.6c0.4,0.3,0.9,0.5,1.3,0.5c0.2,0,0.3,0,0.4-0.1c0.1-0.1,0.2-0.2,0.2-0.3c0-0.2-0.2-0.4-0.7-0.5c0,0-0.1,0-0.1,0
			c-0.8-0.2-1.2-0.6-1.2-1.1c0-0.3,0.1-0.6,0.4-0.8c0.3-0.2,0.6-0.3,1-0.3c0.4,0,0.8,0.1,1.2,0.4l-0.3,0.6c-0.3-0.2-0.6-0.3-1-0.3
			c-0.2,0-0.3,0-0.5,0.1c-0.1,0.1-0.2,0.2-0.2,0.3c0,0.1,0.1,0.2,0.2,0.3c0.1,0,0.2,0.1,0.4,0.1c0.2,0,0.3,0.1,0.4,0.1
			c0.1,0,0.2,0.1,0.3,0.1c0.1,0,0.2,0.1,0.4,0.2C50.8,57,50.9,57.2,50.9,57.6z"/>
	</g>
</g>
</svg>
