<?xml version="1.0" encoding="utf-8"?>
<!-- Generator: Adobe Illustrator 19.2.1, SVG Export Plug-In . SVG Version: 6.00 Build 0)  -->
<svg version="1.1" id="Layer_1" xmlns="http://www.w3.org/2000/svg" xmlns:xlink="http://www.w3.org/1999/xlink" x="0px" y="0px"
	 width="70px" height="70px" viewBox="0 0 70 70" style="enable-background:new 0 0 70 70;" xml:space="preserve">
<style type="text/css">
	.st0{fill:#FFFFFF;}
	.st1{fill:#D7D7D6;}
	.st2{fill:#56B46D;}
	.st3{opacity:0.6;}
	.st4{fill:#E54B3B;}
	.st5{fill:#F5BEAB;}
	.st6{fill:#687687;}
	.st7{fill:#C0C1C6;}
	.st8{fill:#AABE4B;}
	.st9{fill:#E47C20;}
	.st10{fill:#F6CCA6;}
	.st11{fill:#3B95D2;}
	.st12{fill:#FFFFFF;stroke:#D7D7D6;stroke-width:4.1497;stroke-miterlimit:10;}
	.st13{fill:#C25374;}
	.st14{fill:#E4493B;}
	.st15{fill:#45A9A5;}
	.st16{fill:#EFC303;}
	.st17{fill:#ABBF4A;}
	.st18{fill:#DFE3B7;}
	.st19{fill:#F0C300;}
	.st20{fill:#F9E6AB;}
	.st21{fill:#955BA1;}
	.st22{fill:#D1BCD9;}
	.st23{fill:#BED2EE;}
</style>
<g>
	<path class="st21" d="M47,70H23C10.3,70,0,59.7,0,47V23C0,10.3,10.3,0,23,0h24c12.7,0,23,10.3,23,23v24C70,59.7,59.7,70,47,70z"/>
</g>
<g>
	<g>
		<g>
			<path class="st0" d="M22.8,46.1c-0.2,0-0.4,0-0.6,0.1C22,46.3,22,46.5,22,46.7c0,0.2,0.1,0.4,0.2,0.5c0.2,0.1,0.5,0.2,1,0.3
				c0.5,0.1,0.9,0.3,1.1,0.5s0.4,0.5,0.4,1c0,0.4-0.2,0.8-0.5,1c-0.3,0.3-0.7,0.4-1.3,0.4c-0.8,0-1.4-0.3-2-0.8l0.5-0.6
				c0.5,0.4,1,0.6,1.5,0.6c0.3,0,0.5-0.1,0.6-0.2c0.2-0.1,0.2-0.3,0.2-0.5s-0.1-0.3-0.2-0.4c-0.1-0.1-0.4-0.2-0.8-0.3
				S22.2,48.1,22,48c-0.2-0.1-0.4-0.2-0.5-0.3c-0.3-0.2-0.4-0.6-0.4-1s0.2-0.8,0.5-1c0.3-0.2,0.7-0.4,1.2-0.4c0.3,0,0.6,0.1,0.9,0.2
				s0.6,0.2,0.8,0.4l-0.4,0.6c-0.1-0.1-0.3-0.2-0.6-0.3C23.3,46.1,23,46.1,22.8,46.1z"/>
			<path class="st0" d="M29.1,50.3h-0.7v-0.5c-0.3,0.4-0.7,0.6-1.2,0.6c-0.4,0-0.7-0.1-1-0.3s-0.4-0.5-0.4-0.9s0.1-0.6,0.4-0.8
				c0.3-0.2,0.6-0.3,1.1-0.3h1v-0.1c0-0.5-0.3-0.7-0.8-0.7c-0.3,0-0.7,0.1-1.1,0.4l-0.3-0.5c0.5-0.4,1-0.5,1.5-0.5
				c0.4,0,0.8,0.1,1.1,0.3s0.4,0.6,0.4,1V50.3z M28.4,48.9v-0.3h-0.9c-0.6,0-0.8,0.2-0.8,0.5c0,0.2,0.1,0.3,0.2,0.4
				c0.1,0.1,0.3,0.1,0.6,0.1c0.2,0,0.5-0.1,0.7-0.2C28.3,49.3,28.4,49.2,28.4,48.9z"/>
			<path class="st0" d="M31.5,50.3h-0.8v-5.2h0.8V50.3z"/>
			<path class="st0" d="M36.7,48.8h-2.9c0,0.3,0.1,0.5,0.4,0.7c0.2,0.2,0.5,0.2,0.8,0.2c0.5,0,0.8-0.1,1.1-0.4l0.4,0.5
				c-0.4,0.4-0.9,0.6-1.6,0.6c-0.5,0-1-0.2-1.3-0.5S33,49,33,48.4c0-0.6,0.2-1.1,0.6-1.4c0.4-0.3,0.8-0.5,1.3-0.5s0.9,0.2,1.3,0.5
				s0.5,0.7,0.5,1.3V48.8z M33.7,48.2h2.1c0-0.3-0.1-0.6-0.3-0.7c-0.2-0.2-0.4-0.3-0.7-0.3s-0.5,0.1-0.8,0.3
				C33.9,47.6,33.7,47.9,33.7,48.2z"/>
			<path class="st0" d="M40.7,49.2c0,0.4-0.1,0.6-0.4,0.9c-0.3,0.2-0.6,0.3-1,0.3c-0.3,0-0.6,0-0.8-0.1c-0.3-0.1-0.5-0.2-0.8-0.4
				l0.4-0.6c0.4,0.3,0.9,0.5,1.3,0.5c0.2,0,0.3,0,0.4-0.1c0.1-0.1,0.2-0.2,0.2-0.3c0-0.2-0.2-0.4-0.7-0.5c0,0-0.1,0-0.1,0
				c-0.8-0.2-1.2-0.6-1.2-1.1c0-0.3,0.1-0.6,0.4-0.8c0.3-0.2,0.6-0.3,1-0.3c0.4,0,0.8,0.1,1.2,0.4l-0.3,0.6c-0.3-0.2-0.6-0.3-1-0.3
				c-0.2,0-0.3,0-0.5,0.1c-0.1,0.1-0.2,0.2-0.2,0.3c0,0.1,0.1,0.2,0.2,0.3c0.1,0,0.2,0.1,0.4,0.1c0.2,0,0.3,0.1,0.4,0.1
				c0.1,0,0.2,0.1,0.3,0.1c0.1,0,0.2,0.1,0.4,0.2C40.6,48.6,40.7,48.8,40.7,49.2z"/>
			<path class="st0" d="M46,50.4c-0.5,0-0.8-0.1-1.2-0.4c-0.3-0.3-0.5-0.6-0.5-1c0-0.5,0.4-1,1.1-1.4c-0.2-0.2-0.3-0.4-0.4-0.5
				C45,46.9,45,46.7,45,46.5c0-0.4,0.1-0.7,0.4-0.9c0.3-0.2,0.6-0.3,1-0.3s0.7,0.1,1,0.3s0.4,0.5,0.4,0.8c0,0.5-0.4,0.9-1.1,1.3
				c0.4,0.5,0.7,0.8,0.9,1c0.1-0.2,0.3-0.5,0.3-0.7l0.6,0.4c-0.1,0.3-0.3,0.6-0.4,0.8c0.2,0.2,0.4,0.4,0.7,0.7l-0.5,0.5l-0.6-0.6
				C47.1,50.2,46.6,50.4,46,50.4z M45.4,49.5c0.2,0.1,0.4,0.2,0.7,0.2c0.3,0,0.6-0.1,0.9-0.4c-0.5-0.5-0.8-0.9-1.1-1.2
				c-0.5,0.3-0.8,0.6-0.8,0.9C45.1,49.2,45.2,49.4,45.4,49.5z M46.4,45.9c-0.2,0-0.3,0-0.4,0.1c-0.1,0.1-0.2,0.2-0.2,0.3
				s0,0.2,0.1,0.4s0.2,0.3,0.3,0.4c0.5-0.3,0.8-0.5,0.8-0.7c0-0.2-0.1-0.3-0.2-0.4S46.5,45.9,46.4,45.9z"/>
			<path class="st0" d="M15.4,54.5c0.5,0.4,0.7,1,0.7,1.8c0,0.8-0.2,1.4-0.7,1.8c-0.5,0.4-1.2,0.7-2.1,0.7h-1.6v-4.9h1.7
				C14.2,53.8,14.9,54,15.4,54.5z M15.2,56.3c0-1.1-0.6-1.7-1.9-1.7h-0.8v3.4h0.9c0.6,0,1-0.1,1.4-0.4
				C15.1,57.2,15.2,56.8,15.2,56.3z"/>
			<path class="st0" d="M17.6,54.2c-0.1-0.1-0.1-0.2-0.1-0.4s0-0.3,0.1-0.4c0.1-0.1,0.2-0.1,0.3-0.1s0.3,0,0.4,0.1s0.1,0.2,0.1,0.4
				s0,0.3-0.1,0.4c-0.1,0.1-0.2,0.1-0.4,0.1S17.7,54.3,17.6,54.2z M18.3,58.7h-0.8V55h0.8V58.7z"/>
			<path class="st0" d="M22.7,57.6c0,0.4-0.1,0.6-0.4,0.9c-0.3,0.2-0.6,0.3-1,0.3c-0.3,0-0.6,0-0.8-0.1c-0.3-0.1-0.5-0.2-0.8-0.4
				l0.4-0.6c0.4,0.3,0.9,0.5,1.3,0.5c0.2,0,0.3,0,0.4-0.1c0.1-0.1,0.2-0.2,0.2-0.3c0-0.2-0.2-0.4-0.7-0.5c0,0-0.1,0-0.1,0
				c-0.8-0.2-1.2-0.6-1.2-1.1c0-0.3,0.1-0.6,0.4-0.8c0.3-0.2,0.6-0.3,1-0.3c0.4,0,0.8,0.1,1.2,0.4l-0.3,0.6c-0.3-0.2-0.6-0.3-1-0.3
				c-0.2,0-0.3,0-0.5,0.1c-0.1,0.1-0.2,0.2-0.2,0.3c0,0.1,0.1,0.2,0.2,0.3c0.1,0,0.2,0.1,0.4,0.1c0.2,0,0.3,0.1,0.4,0.1
				c0.1,0,0.2,0.1,0.3,0.1c0.1,0,0.2,0.1,0.4,0.2C22.5,57,22.7,57.2,22.7,57.6z"/>
			<path class="st0" d="M25,55.6v1.9c0,0.2,0,0.3,0.1,0.4c0.1,0.1,0.2,0.2,0.4,0.2s0.3-0.1,0.5-0.2l0.3,0.6
				c-0.3,0.2-0.6,0.4-0.9,0.4c-0.3,0-0.6-0.1-0.9-0.3c-0.2-0.2-0.4-0.5-0.4-0.9v-1.9h-0.5V55h0.5v-1.2H25V55h1v0.6H25z"/>
			<path class="st0" d="M29.5,55.7c-0.4,0-0.7,0.1-0.9,0.4s-0.3,0.6-0.3,1v1.6h-0.8V55h0.8v0.7c0.1-0.2,0.3-0.4,0.5-0.6
				c0.2-0.1,0.4-0.2,0.7-0.2L29.5,55.7C29.5,55.7,29.5,55.7,29.5,55.7z"/>
			<path class="st0" d="M30.9,54.2c-0.1-0.1-0.1-0.2-0.1-0.4s0-0.3,0.1-0.4c0.1-0.1,0.2-0.1,0.3-0.1s0.3,0,0.4,0.1s0.1,0.2,0.1,0.4
				s0,0.3-0.1,0.4c-0.1,0.1-0.2,0.1-0.4,0.1S31,54.3,30.9,54.2z M31.6,58.7h-0.8V55h0.8V58.7z"/>
			<path class="st0" d="M35.3,54.9c0.5,0,0.9,0.2,1.3,0.5c0.4,0.3,0.5,0.8,0.5,1.4c0,0.6-0.2,1-0.5,1.4c-0.4,0.4-0.8,0.5-1.2,0.5
				c-0.5,0-0.9-0.2-1.3-0.6v0.6h-0.8v-5.2h0.8v2.1C34.4,55.2,34.8,54.9,35.3,54.9z M34,56.9c0,0.4,0.1,0.6,0.3,0.9
				c0.2,0.2,0.5,0.3,0.8,0.3s0.6-0.1,0.8-0.3s0.3-0.5,0.3-0.9S36.2,56.2,36,56c-0.2-0.2-0.5-0.4-0.8-0.4c-0.3,0-0.6,0.1-0.8,0.4
				C34.1,56.2,34,56.5,34,56.9z"/>
			<path class="st0" d="M41.1,57v-2h0.8v3.7h-0.8V58c-0.1,0.2-0.3,0.4-0.5,0.5c-0.2,0.1-0.5,0.2-0.7,0.2c-0.4,0-0.8-0.1-1-0.4
				c-0.3-0.3-0.4-0.6-0.4-1.1V55h0.8v2c0,0.7,0.3,1,0.9,1c0.3,0,0.5-0.1,0.7-0.3S41.1,57.3,41.1,57z"/>
			<path class="st0" d="M44.5,55.6v1.9c0,0.2,0,0.3,0.1,0.4c0.1,0.1,0.2,0.2,0.4,0.2s0.3-0.1,0.5-0.2l0.3,0.6
				c-0.3,0.2-0.6,0.4-0.9,0.4c-0.3,0-0.6-0.1-0.9-0.3c-0.2-0.2-0.4-0.5-0.4-0.9v-1.9h-0.5V55h0.5v-1.2h0.8V55h1v0.6H44.5z"/>
			<path class="st0" d="M47,54.2c-0.1-0.1-0.1-0.2-0.1-0.4s0-0.3,0.1-0.4c0.1-0.1,0.2-0.1,0.3-0.1s0.3,0,0.4,0.1s0.1,0.2,0.1,0.4
				s0,0.3-0.1,0.4c-0.1,0.1-0.2,0.1-0.4,0.1S47.1,54.3,47,54.2z M47.8,58.7H47V55h0.8V58.7z"/>
			<path class="st0" d="M52.6,58.2c-0.4,0.4-0.8,0.6-1.4,0.6c-0.6,0-1-0.2-1.4-0.6c-0.4-0.4-0.6-0.8-0.6-1.4s0.2-1,0.6-1.4
				c0.4-0.4,0.8-0.6,1.4-0.6c0.6,0,1,0.2,1.4,0.6c0.4,0.4,0.6,0.8,0.6,1.4S52.9,57.8,52.6,58.2z M50.3,57.7c0.2,0.2,0.5,0.3,0.8,0.3
				c0.3,0,0.6-0.1,0.8-0.3c0.2-0.2,0.3-0.5,0.3-0.9S52.2,56.2,52,56c-0.2-0.2-0.5-0.3-0.8-0.3c-0.3,0-0.6,0.1-0.8,0.3
				c-0.2,0.2-0.3,0.5-0.3,0.9S50.1,57.5,50.3,57.7z"/>
			<path class="st0" d="M55.3,56.7v2h-0.8V55h0.8v0.7c0.1-0.2,0.3-0.4,0.5-0.5c0.2-0.1,0.5-0.2,0.7-0.2c0.4,0,0.8,0.1,1,0.4
				c0.3,0.3,0.4,0.6,0.4,1.1v2.3h-0.8v-2c0-0.7-0.3-1-0.9-1c-0.3,0-0.5,0.1-0.7,0.3C55.4,56.1,55.3,56.3,55.3,56.7z"/>
		</g>
	</g>
	<g>
		<path class="st22" d="M33.4,34c-0.9-1.1-1.6-2.5-2.1-4.2h0.9c0.3,1,0.8,1.9,1.2,2.7V34"/>
		<path class="st22" d="M37.3,36.2c-1.2,0-2.4-0.2-3.6-0.5l1.4-1.2c0.6,0.4,1.1,0.7,1.7,0.8V33l0.8-0.7v2.9c2-0.3,3.7-2.5,4.8-5.7
			c-0.3-0.1-0.7-0.2-1-0.3l0.8-0.7c0.2,0,0.3,0.1,0.5,0.1c0.1-0.2,0.1-0.4,0.1-0.6l1-0.9c-0.1,0.6-0.2,1.2-0.4,1.7
			c1.2,0.4,2.4,0.8,3.6,1.4c1.4-1.9,2.3-4.3,2.4-6.9h-5.2c0,0.3,0,0.7,0,1l-0.8-0.6c0-0.1,0-0.2,0-0.4H43l-1.1-0.8h1.5
			c0-1.9-0.3-3.6-0.7-5.2c-1.7,0.4-3.4,0.7-5,0.7v1.2l-0.8-0.7v-0.5c-0.2,0-0.4,0-0.6,0l-1.1-0.9c0.6,0.1,1.2,0.1,1.8,0.1v-6.4
			c-1.5,0.2-2.8,1.4-3.9,3.5c-0.4,0.7-0.7,1.5-0.9,2.3c0.4,0.1,0.9,0.2,1.4,0.3v0.8l-0.1,0c-0.5-0.1-1-0.2-1.5-0.3
			c-0.4,1.4-0.6,2.8-0.6,4.4h-0.8c0.1-1.6,0.3-3.2,0.7-4.6c-1.7-0.5-3-1.2-3.5-1.5c-1.1,1.5-1.9,3.4-2.3,5.4
			c-0.3-0.1-0.6-0.2-0.8-0.4C25.5,14.5,30.9,10,37.3,10c7.2,0,13.1,5.9,13.1,13.1C50.4,30.3,44.5,36.2,37.3,36.2 M43.3,29.8
			c-0.7,2.3-1.8,4.1-3.1,5.2c2.5-0.6,4.7-2,6.4-3.9C45.5,30.5,44.4,30.1,43.3,29.8 M47.1,15.8c-1.2,0.6-2.3,1-3.5,1.4
			c0.4,1.7,0.7,3.5,0.7,5.5h5.2C49.4,20.1,48.5,17.7,47.1,15.8 M37.7,10.9v6.4c1.6,0,3.2-0.3,4.8-0.7c-0.3-0.8-0.6-1.6-0.9-2.2
			C40.5,12.3,39.2,11.1,37.7,10.9 M34.3,11.2c-2.5,0.6-4.7,2-6.3,3.9c0.4,0.2,1.6,0.8,3.2,1.4c0.3-0.9,0.6-1.7,1-2.5
			C32.8,12.8,33.5,11.9,34.3,11.2 M40.3,11.2c0.8,0.7,1.5,1.6,2.1,2.8c0.4,0.7,0.7,1.5,1,2.4c1.1-0.3,2.2-0.8,3.2-1.3
			C44.9,13.2,42.8,11.8,40.3,11.2"/>
		<path class="st22" d="M33.4,35.6c-3.1-1-5.8-3.1-7.4-5.9c0.3,0,0.7,0.1,1.1,0.1c0.1,0.2,0.3,0.4,0.4,0.6c0.2-0.2,0.6-0.4,1.1-0.6
			h0h2.3c-1.5,0.5-2.5,1-2.9,1.2c1.4,1.7,3.3,2.9,5.4,3.6V35.6"/>
		<path class="st22" d="M34.7,33.2v-4.7h-6.1c-6.2,0-9-2.2-9-5.8c0-1.4,0.8-3.9,2.2-5.1c-0.7,2,0.4,4.8,6.4,5.4c0.1,0,0.3,0,0.4,0
			h6.1v-4.6l9.1,7.2L34.7,33.2"/>
	</g>
</g>
</svg>
