<?xml version="1.0" encoding="utf-8"?>
<!-- Generator: Adobe Illustrator 19.2.1, SVG Export Plug-In . SVG Version: 6.00 Build 0)  -->
<svg version="1.1" id="Layer_1" xmlns="http://www.w3.org/2000/svg" xmlns:xlink="http://www.w3.org/1999/xlink" x="0px" y="0px"
	 width="70px" height="70px" viewBox="0 0 70 70" style="enable-background:new 0 0 70 70;" xml:space="preserve">
<style type="text/css">
	.st0{fill:#FFFFFF;}
	.st1{fill:#D7D7D6;}
	.st2{fill:#56B46D;}
	.st3{opacity:0.6;}
	.st4{fill:#E54B3B;}
	.st5{fill:#F5BEAB;}
	.st6{fill:#687687;}
	.st7{fill:#C0C1C6;}
	.st8{fill:#AABE4B;}
	.st9{fill:#E47C20;}
	.st10{fill:#F6CCA6;}
	.st11{fill:#3B95D2;}
	.st12{fill:#FFFFFF;stroke:#D7D7D6;stroke-width:4.1497;stroke-miterlimit:10;}
	.st13{fill:#C25374;}
	.st14{fill:#E4493B;}
	.st15{fill:#45A9A5;}
	.st16{fill:#EFC303;}
	.st17{fill:#ABBF4A;}
	.st18{fill:#DFE3B7;}
	.st19{fill:#F0C300;}
	.st20{fill:#F9E6AB;}
	.st21{fill:#955BA1;}
	.st22{fill:#D1BCD9;}
	.st23{fill:#BED2EE;}
</style>
<g>
	<path class="st0" d="M23,67.5C11.7,67.5,2.5,58.3,2.5,47V23C2.5,11.7,11.7,2.5,23,2.5h24c11.3,0,20.5,9.2,20.5,20.5v24
		c0,11.3-9.2,20.5-20.5,20.5H23z"/>
	<path class="st1" d="M47,5c9.9,0,18,8.1,18,18v24c0,9.9-8.1,18-18,18H23c-9.9,0-18-8.1-18-18V23c0-9.9,8.1-18,18-18H47 M47,0H23
		C10.3,0,0,10.3,0,23v24c0,12.7,10.3,23,23,23h24c12.7,0,23-10.3,23-23V23C70,10.3,59.7,0,47,0L47,0z"/>
</g>
<g>
	<g>
		<g>
			<path class="st1" d="M20.1,49.6c-0.2,0-0.4,0-0.6,0.1c-0.2,0.1-0.2,0.2-0.2,0.4c0,0.2,0.1,0.4,0.2,0.5c0.2,0.1,0.5,0.2,1,0.3
				c0.5,0.1,0.9,0.3,1.1,0.5s0.4,0.5,0.4,1c0,0.4-0.2,0.8-0.5,1c-0.3,0.3-0.7,0.4-1.3,0.4c-0.8,0-1.4-0.3-2-0.8l0.5-0.6
				c0.5,0.4,1,0.6,1.5,0.6c0.3,0,0.5-0.1,0.6-0.2c0.2-0.1,0.2-0.3,0.2-0.5s-0.1-0.3-0.2-0.4c-0.1-0.1-0.4-0.2-0.8-0.3
				s-0.6-0.2-0.8-0.2c-0.2-0.1-0.4-0.2-0.5-0.3c-0.3-0.2-0.4-0.6-0.4-1s0.2-0.8,0.5-1c0.3-0.2,0.7-0.4,1.2-0.4
				c0.3,0,0.6,0.1,0.9,0.2s0.6,0.2,0.8,0.4l-0.4,0.6c-0.1-0.1-0.3-0.2-0.6-0.3C20.5,49.7,20.3,49.6,20.1,49.6z"/>
			<path class="st1" d="M24.3,50.8v1.9c0,0.2,0,0.3,0.1,0.4c0.1,0.1,0.2,0.2,0.4,0.2s0.3-0.1,0.5-0.2l0.3,0.6
				C25.3,53.8,25,54,24.7,54c-0.3,0-0.6-0.1-0.9-0.3c-0.2-0.2-0.4-0.5-0.4-0.9v-1.9H23v-0.6h0.5V49h0.8v1.2h1v0.6H24.3z"/>
			<path class="st1" d="M28.7,50.9c-0.4,0-0.7,0.1-0.9,0.4s-0.3,0.6-0.3,1v1.6h-0.8v-3.7h0.8v0.7c0.1-0.2,0.3-0.4,0.5-0.6
				c0.2-0.1,0.4-0.2,0.7-0.2L28.7,50.9C28.8,50.9,28.7,50.9,28.7,50.9z"/>
			<path class="st1" d="M33.1,53.9h-0.7v-0.5C32,53.8,31.6,54,31.1,54c-0.4,0-0.7-0.1-1-0.3s-0.4-0.5-0.4-0.9s0.1-0.6,0.4-0.8
				c0.3-0.2,0.6-0.3,1.1-0.3h1v-0.1c0-0.5-0.3-0.7-0.8-0.7c-0.3,0-0.7,0.1-1.1,0.4L30,50.7c0.5-0.4,1-0.5,1.5-0.5
				c0.4,0,0.8,0.1,1.1,0.3s0.4,0.6,0.4,1V53.9z M32.3,52.5v-0.3h-0.9c-0.6,0-0.8,0.2-0.8,0.5c0,0.2,0.1,0.3,0.2,0.4
				c0.1,0.1,0.3,0.1,0.6,0.1c0.2,0,0.5-0.1,0.7-0.2C32.2,52.9,32.3,52.8,32.3,52.5z"/>
			<path class="st1" d="M35.6,50.8v1.9c0,0.2,0,0.3,0.1,0.4c0.1,0.1,0.2,0.2,0.4,0.2s0.3-0.1,0.5-0.2l0.3,0.6
				C36.7,53.8,36.4,54,36,54c-0.3,0-0.6-0.1-0.9-0.3c-0.2-0.2-0.4-0.5-0.4-0.9v-1.9h-0.5v-0.6h0.5V49h0.8v1.2h1v0.6H35.6z"/>
			<path class="st1" d="M41.5,52.4h-2.9c0,0.3,0.1,0.5,0.4,0.7c0.2,0.2,0.5,0.2,0.8,0.2c0.5,0,0.8-0.1,1.1-0.4l0.4,0.5
				c-0.4,0.4-0.9,0.6-1.6,0.6c-0.5,0-1-0.2-1.3-0.5s-0.5-0.8-0.5-1.4c0-0.6,0.2-1.1,0.6-1.4c0.4-0.3,0.8-0.5,1.3-0.5
				s0.9,0.2,1.3,0.5s0.5,0.7,0.5,1.3V52.4z M38.6,51.8h2.1c0-0.3-0.1-0.6-0.3-0.7c-0.2-0.2-0.4-0.3-0.7-0.3s-0.5,0.1-0.8,0.3
				C38.7,51.2,38.6,51.5,38.6,51.8z"/>
			<path class="st1" d="M46.4,50.2v3.2c0,0.7-0.2,1.2-0.5,1.5s-0.8,0.5-1.4,0.5s-1.1-0.2-1.5-0.5l0.4-0.6c0.4,0.3,0.7,0.4,1.1,0.4
				c0.4,0,0.7-0.1,0.9-0.3s0.3-0.5,0.3-0.9V53c-0.1,0.2-0.3,0.4-0.5,0.5c-0.2,0.1-0.5,0.2-0.7,0.2c-0.5,0-0.9-0.2-1.2-0.5
				s-0.5-0.8-0.5-1.3c0-0.5,0.2-0.9,0.5-1.3c0.3-0.3,0.7-0.5,1.2-0.5s0.9,0.2,1.2,0.6v-0.6H46.4z M43.5,51.9c0,0.3,0.1,0.6,0.3,0.8
				s0.4,0.3,0.8,0.3c0.3,0,0.6-0.1,0.8-0.3c0.2-0.2,0.3-0.5,0.3-0.8c0-0.3-0.1-0.6-0.3-0.8s-0.5-0.3-0.8-0.3s-0.6,0.1-0.8,0.3
				C43.6,51.3,43.5,51.6,43.5,51.9z"/>
			<path class="st1" d="M48.5,55.4c-0.3,0-0.6-0.1-0.9-0.4l0.4-0.6c0.2,0.2,0.3,0.2,0.5,0.2c0.2,0,0.3-0.1,0.4-0.2
				C49,54.3,49,54.2,49,54c0-0.1-0.5-1.3-1.5-3.8h0.8l1.1,2.7l1.1-2.7h0.8l-1.8,4.4c-0.1,0.2-0.3,0.4-0.5,0.6
				C49,55.3,48.7,55.4,48.5,55.4z"/>
		</g>
	</g>
	<path class="st1" d="M43,42.4H30.3v-3.7l0.3-0.2c0.8-0.4,1.4-1,1.8-1.7c0.4-0.7,0.6-1.5,0.6-2.3l0,0l0-0.2c0-0.7-0.1-1.3-0.5-1.9
		c-0.4-0.6-0.9-1.3-1.8-2.1L30.3,30l4.1-5.8c-0.1,0-0.2,0-0.3,0c-0.7,0-1.2,0.1-1.5,0.3c-0.4,0.2-0.7,0.6-1.1,1.2l-0.4,0.6l-2.9-2.7
		l0.7-0.3c0-0.1,0.1-0.3,0.1-0.4c0-0.1,0-0.2,0-0.2l-0.2-0.4l0.3-0.3c1.6-1.6,3.2-3.6,4.6-5.2c-0.1-0.2-0.2-0.3-0.3-0.5
		c-0.1-0.4-0.2-0.7-0.2-1c0-0.3,0-0.5,0-0.7v0c0-0.1,0.1-0.4,0.3-0.5c0.2-0.1,0.3-0.1,0.4-0.1c0.1,0,0.2,0,0.3,0
		c0.2,0.1,0.5,0.2,0.7,0.4c0.4,0.2,1,0.6,1.4,0.8c0.5,0.3,1,0.5,1.2,0.6c2.2,0.8,3.6,2.4,4.5,3.9c0.5,0.8,0.8,1.6,1,2.3
		c0.2,0.7,0.3,1.3,0.3,1.8c0,0.3,0,0.6,0,0.9c0,1.2-0.1,2.6-1.3,4.2l1.1,1.4l-0.6,0.3c-0.6,0.4-1.2,0.8-1.6,1.4
		c-0.4,0.6-0.7,1.4-0.7,2.5c0,0.4,0.1,1.2,0.5,2.1c0.4,0.9,1,1.7,2,2.1l0.3,0.2V42.4 M31.4,39.4v1.8h10.5v-1.8
		c-1.1-0.6-1.8-1.6-2.2-2.6c-0.4-1-0.6-2-0.6-2.5c0-1.3,0.3-2.3,0.9-3.1c0.4-0.6,0.9-1,1.4-1.4l-0.9-1.1l0.3-0.4
		c1.2-1.6,1.3-2.6,1.3-3.8c0-0.3,0-0.6,0-0.9c0-0.3-0.1-0.8-0.3-1.4c-0.3-0.9-0.8-2-1.6-3c-0.8-1-1.8-1.9-3.2-2.4
		c-0.3-0.1-0.6-0.3-0.9-0.5c-0.5-0.3-1.1-0.6-1.6-0.9c-0.1,0-0.2-0.1-0.2-0.1c0,0.2,0,0.3,0.1,0.4c0.1,0.2,0.1,0.3,0.3,0.4l0.5,0.4
		L34.8,17c-1.4,1.6-3,3.6-4.7,5.4c0,0.1,0,0.3,0,0.4c0,0.3,0,0.5-0.1,0.7c0,0,0,0,0,0l1,0.9c0.3-0.4,0.7-0.8,1.1-1
		c0.6-0.3,1.3-0.4,2.1-0.4c0,0,0,0,0,0c0.4,0,0.9,0,1.4,0.1l1,0.1l-4.7,6.6c0.7,0.7,1.3,1.3,1.7,2c0.4,0.8,0.7,1.6,0.6,2.5l0,0.2v0
		c0,0.9-0.3,1.9-0.7,2.8C33,38.2,32.3,38.9,31.4,39.4 M29,23.4l0.1,0.3L29,23.4"/>
</g>
</svg>
