<svg xmlns="http://www.w3.org/2000/svg" viewBox="0 0 94.61 94.66"><title>man</title><g id="レイヤー_2" data-name="レイヤー 2"><g id="レイヤー_1-2" data-name="レイヤー 1"><path d="M0,44c.33-2.12.59-4.26,1-6.36A47.09,47.09,0,0,1,39.13.74C55.31-1.9,69.45,2.51,81,14.14,91.37,24.57,95.82,37.42,94.34,52.06A47.26,47.26,0,0,1,.93,56.44C.56,54.53.31,52.6,0,50.68ZM79.8,77.17c9.8-9.79,15.64-27.93,9-45.53A44.32,44.32,0,0,0,4.13,37.43,44.19,44.19,0,0,0,15.6,78.18c0-1.58,0-2.81,0-4a14,14,0,0,1,14-13.85H65.8a13.94,13.94,0,0,1,14,14C79.8,75.21,79.8,76.11,79.8,77.17Z"/><path d="M47.22,52.91a19.19,19.19,0,1,1,19.3-19.1A19.13,19.13,0,0,1,47.22,52.91Z"/></g></g></svg>